<svg width="24.000000" height="24.000000" viewBox="0 0 24 24" fill="none" xmlns="http://www.w3.org/2000/svg" xmlns:xlink="http://www.w3.org/1999/xlink">
	<desc>
			Created with Pixso.
	</desc>
	<defs/>
	<rect id="feather-icon / volume-2" rx="0.000000" width="23.000000" height="23.000000" transform="translate(0.500000 0.500000)" fill="#FFFFFF" fill-opacity="0"/>
	<path id="Shape (Stroke)" d="M11.21 4.54C11.39 4.63 11.5 4.8 11.5 5L11.5 19C11.5 19.19 11.39 19.36 11.21 19.45C11.04 19.53 10.83 19.51 10.68 19.39L5.82 15.5L2 15.5C1.72 15.5 1.5 15.27 1.5 15L1.5 9C1.5 8.72 1.72 8.5 2 8.5L5.82 8.5L10.68 4.6C10.83 4.48 11.04 4.46 11.21 4.54ZM10.5 6.04L6.31 9.39C6.22 9.46 6.11 9.5 6 9.5L2.5 9.5L2.5 14.5L6 14.5C6.11 14.5 6.22 14.53 6.31 14.6L10.5 17.95L10.5 6.04Z" fill="#414141" fill-opacity="1.000000" fill-rule="evenodd"/>
	<path id="Path (Stroke)" d="M18.71 4.57C18.91 4.38 19.22 4.38 19.42 4.57C23.52 8.67 23.52 15.32 19.42 19.42C19.22 19.61 18.91 19.61 18.71 19.42C18.52 19.22 18.52 18.91 18.71 18.71C22.42 15 22.42 8.99 18.71 5.28C18.52 5.08 18.52 4.77 18.71 4.57Z" fill="#414141" fill-opacity="1.000000" fill-rule="evenodd"/>
	<path id="Path (Stroke)" d="M15.18 8.1C15.38 7.91 15.69 7.91 15.89 8.1C18.03 10.25 18.03 13.73 15.89 15.88C15.69 16.07 15.38 16.07 15.18 15.88C14.99 15.68 14.99 15.37 15.18 15.17C16.94 13.41 16.94 10.57 15.18 8.81C14.99 8.61 14.99 8.3 15.18 8.1Z" fill="#414141" fill-opacity="1.000000" fill-rule="evenodd"/>
</svg>
