<svg width="24.000000" height="24.000000" viewBox="0 0 24 24" fill="none" xmlns="http://www.w3.org/2000/svg" xmlns:xlink="http://www.w3.org/1999/xlink">
	<desc>
			Created with Pixso.
	</desc>
	<defs/>
	<rect id="feather-icon / command" rx="0.000000" width="23.000000" height="23.000000" transform="translate(0.500000 0.500000)" fill="#FFFFFF" fill-opacity="0"/>
	<path id="Shape (Stroke)" d="M2.5 6C2.5 4.06 4.06 2.5 6 2.5C7.93 2.5 9.5 4.06 9.5 6L9.5 8.5L14.5 8.5L14.5 6C14.5 4.06 16.06 2.5 18 2.5C19.93 2.5 21.5 4.06 21.5 6C21.5 7.93 19.93 9.5 18 9.5L15.5 9.5L15.5 14.5L18 14.5C19.93 14.5 21.5 16.06 21.5 18C21.5 19.93 19.93 21.5 18 21.5C16.06 21.5 14.5 19.93 14.5 18L14.5 15.5L9.5 15.5L9.5 18C9.5 19.93 7.93 21.5 6 21.5C4.06 21.5 2.5 19.93 2.5 18C2.5 16.06 4.06 14.5 6 14.5L8.5 14.5L8.5 9.5L6 9.5C4.06 9.5 2.5 7.93 2.5 6ZM8.5 8.5L8.5 6C8.5 4.61 7.38 3.5 6 3.5C4.61 3.5 3.5 4.61 3.5 6C3.5 7.38 4.61 8.5 6 8.5L8.5 8.5ZM9.5 9.5L9.5 14.5L14.5 14.5L14.5 9.5L9.5 9.5ZM8.5 15.5L6 15.5C4.61 15.5 3.5 16.61 3.5 18C3.5 19.38 4.61 20.5 6 20.5C7.38 20.5 8.5 19.38 8.5 18L8.5 15.5ZM15.5 15.5L15.5 18C15.5 19.38 16.61 20.5 18 20.5C19.38 20.5 20.5 19.38 20.5 18C20.5 16.61 19.38 15.5 18 15.5L15.5 15.5ZM15.5 8.5L18 8.5C19.38 8.5 20.5 7.38 20.5 6C20.5 4.61 19.38 3.5 18 3.5C16.61 3.5 15.5 4.61 15.5 6L15.5 8.5Z" fill="#414141" fill-opacity="1.000000" fill-rule="evenodd"/>
</svg>
