<svg width="24.000000" height="24.000000" viewBox="0 0 24 24" fill="none" xmlns="http://www.w3.org/2000/svg" xmlns:xlink="http://www.w3.org/1999/xlink">
	<desc>
			Created with Pixso.
	</desc>
	<defs/>
	<rect id="feather-icon / at-sign" rx="0.000000" width="23.000000" height="23.000000" transform="translate(0.500000 0.500000)" fill="#FFFFFF" fill-opacity="0"/>
	<path id="Oval (Stroke)" d="M7.5 12C7.5 9.51 9.51 7.5 12 7.5C14.48 7.5 16.5 9.51 16.5 12C16.5 14.48 14.48 16.5 12 16.5C9.51 16.5 7.5 14.48 7.5 12ZM12 8.5C10.06 8.5 8.5 10.06 8.5 12C8.5 13.93 10.06 15.5 12 15.5C13.93 15.5 15.5 13.93 15.5 12C15.5 10.06 13.93 8.5 12 8.5Z" fill="#414141" fill-opacity="1.000000" fill-rule="evenodd"/>
	<path id="Shape (Stroke)" d="M2.58 7.35C4.74 2.97 9.63 0.66 14.38 1.77C19.13 2.88 22.5 7.12 22.5 12L22.5 13C22.5 14.93 20.93 16.5 19 16.5C17.06 16.5 15.5 14.93 15.5 13L15.5 12C15.5 11.72 15.72 11.5 16 11.5C16.27 11.5 16.5 11.72 16.5 12L16.5 13C16.5 14.38 17.61 15.5 19 15.5C20.38 15.5 21.5 14.38 21.5 13L21.5 12C21.5 7.58 18.45 3.75 14.16 2.74C9.86 1.74 5.43 3.83 3.48 7.79C1.52 11.75 2.55 16.53 5.96 19.33C9.37 22.14 14.27 22.22 17.77 19.54C17.99 19.37 18.31 19.41 18.47 19.63C18.64 19.85 18.6 20.16 18.38 20.33C14.5 23.3 9.1 23.21 5.33 20.11C1.56 17.01 0.42 11.72 2.58 7.35Z" fill="#414141" fill-opacity="1.000000" fill-rule="evenodd"/>
</svg>
