<svg width="24.000000" height="24.000000" viewBox="0 0 24 24" fill="none" xmlns="http://www.w3.org/2000/svg" xmlns:xlink="http://www.w3.org/1999/xlink">
	<desc>
			Created with Pixso.
	</desc>
	<defs/>
	<rect id="feather-icon / server" rx="0.000000" width="23.000000" height="23.000000" transform="translate(0.500000 0.500000)" fill="#FFFFFF" fill-opacity="0"/>
	<path id="Rectangle-path (Stroke)" d="M1.5 4C1.5 2.61 2.61 1.5 4 1.5L20 1.5C21.38 1.5 22.5 2.61 22.5 4L22.5 8C22.5 9.38 21.38 10.5 20 10.5L4 10.5C2.61 10.5 1.5 9.38 1.5 8L1.5 4ZM4 2.5C3.17 2.5 2.5 3.17 2.5 4L2.5 8C2.5 8.82 3.17 9.5 4 9.5L20 9.5C20.82 9.5 21.5 8.82 21.5 8L21.5 4C21.5 3.17 20.82 2.5 20 2.5L4 2.5Z" fill="#414141" fill-opacity="1.000000" fill-rule="evenodd"/>
	<path id="Rectangle-path (Stroke)" d="M1.5 16C1.5 14.61 2.61 13.5 4 13.5L20 13.5C21.38 13.5 22.5 14.61 22.5 16L22.5 20C22.5 21.38 21.38 22.5 20 22.5L4 22.5C2.61 22.5 1.5 21.38 1.5 20L1.5 16ZM4 14.5C3.17 14.5 2.5 15.17 2.5 16L2.5 20C2.5 20.82 3.17 21.5 4 21.5L20 21.5C20.82 21.5 21.5 20.82 21.5 20L21.5 16C21.5 15.17 20.82 14.5 20 14.5L4 14.5Z" fill="#414141" fill-opacity="1.000000" fill-rule="evenodd"/>
	<path id="Ellipse" d="M7 6C7 6.55 6.55 7 6 7C5.44 7 5 6.55 5 6C5 5.44 5.44 5 6 5C6.55 5 7 5.44 7 6Z" fill="#414141" fill-opacity="1.000000" fill-rule="nonzero"/>
	<path id="Ellipse" d="M7 18C7 18.55 6.55 19 6 19C5.44 19 5 18.55 5 18C5 17.44 5.44 17 6 17C6.55 17 7 17.44 7 18Z" fill="#414141" fill-opacity="1.000000" fill-rule="nonzero"/>
</svg>
