<svg width="24.000000" height="24.000000" viewBox="0 0 24 24" fill="none" xmlns="http://www.w3.org/2000/svg" xmlns:xlink="http://www.w3.org/1999/xlink">
	<desc>
			Created with Pixso.
	</desc>
	<defs/>
	<rect id="feather-icon / mic-off" rx="0.000000" width="23.000000" height="23.000000" transform="translate(0.500000 0.500000)" fill="#FFFFFF" fill-opacity="0"/>
	<path id="Shape (Stroke)" d="M0.64 0.64C0.84 0.45 1.15 0.45 1.35 0.64L23.35 22.64C23.54 22.84 23.54 23.15 23.35 23.35C23.15 23.54 22.84 23.54 22.64 23.35L0.64 1.35C0.45 1.15 0.45 0.84 0.64 0.64Z" fill="#414141" fill-opacity="1.000000" fill-rule="evenodd"/>
	<path id="Shape (Stroke)" d="M8.56 3.3C8.92 1.53 10.56 0.33 12.34 0.51C14.13 0.69 15.5 2.2 15.49 4L8.56 3.3ZM15.49 4L15.49 9.34C15.49 9.61 15.27 9.84 14.99 9.84C14.72 9.84 14.49 9.61 14.49 9.34L14.49 4C14.5 2.71 13.52 1.63 12.25 1.5C10.97 1.38 9.8 2.24 9.54 3.5C9.49 3.77 9.23 3.94 8.95 3.89C8.68 3.83 8.51 3.57 8.56 3.3L15.49 4ZM9 8.5C9.27 8.5 9.5 8.72 9.5 9L9.5 12C9.5 13.01 10.1 13.92 11.04 14.3C11.97 14.69 13.05 14.48 13.76 13.76C13.96 13.57 14.27 13.57 14.47 13.76C14.66 13.96 14.66 14.27 14.47 14.47C13.47 15.47 11.96 15.77 10.66 15.23C9.35 14.69 8.5 13.41 8.5 12L8.5 9C8.5 8.72 8.72 8.5 9 8.5Z" fill="#414141" fill-opacity="1.000000" fill-rule="evenodd"/>
	<path id="Shape (Stroke)" d="M5 9.5C5.27 9.5 5.5 9.72 5.5 10L5.5 12C5.48 14.65 7.07 17.04 9.52 18.06C11.97 19.07 14.78 18.49 16.64 16.6C16.83 16.4 17.15 16.39 17.34 16.59C17.54 16.78 17.55 17.1 17.35 17.29C15.21 19.48 11.96 20.15 9.14 18.98C6.31 17.81 4.47 15.05 4.5 11.99L4.5 10C4.5 9.72 4.72 9.5 5 9.5ZM19 9.5C19.27 9.5 19.5 9.72 19.5 10L19.5 12C19.5 12.44 19.46 12.88 19.38 13.31C19.33 13.59 19.07 13.77 18.8 13.72C18.52 13.67 18.34 13.41 18.39 13.14C18.46 12.76 18.5 12.38 18.5 12L19 9.5ZM18.5 12L18.5 10C18.5 9.72 18.72 9.5 19 9.5L18.5 12Z" fill="#414141" fill-opacity="1.000000" fill-rule="evenodd"/>
	<path id="Shape (Stroke)" d="M12 18.5C12.27 18.5 12.5 18.72 12.5 19L12.5 23C12.5 23.27 12.27 23.5 12 23.5C11.72 23.5 11.5 23.27 11.5 23L11.5 19C11.5 18.72 11.72 18.5 12 18.5Z" fill="#414141" fill-opacity="1.000000" fill-rule="evenodd"/>
	<path id="Shape (Stroke)" d="M7.5 23C7.5 22.72 7.72 22.5 8 22.5L16 22.5C16.27 22.5 16.5 22.72 16.5 23C16.5 23.27 16.27 23.5 16 23.5L8 23.5C7.72 23.5 7.5 23.27 7.5 23Z" fill="#414141" fill-opacity="1.000000" fill-rule="evenodd"/>
</svg>
