<svg width="24.000000" height="24.000000" viewBox="0 0 24 24" fill="none" xmlns="http://www.w3.org/2000/svg" xmlns:xlink="http://www.w3.org/1999/xlink">
	<desc>
			Created with Pixso.
	</desc>
	<defs/>
	<rect id="feather-icon / trending-down" rx="0.000000" width="23.000000" height="23.000000" transform="translate(0.500000 0.500000)" fill="#FFFFFF" fill-opacity="0"/>
	<path id="Shape (Stroke)" d="M0.64 5.64C0.84 5.45 1.15 5.45 1.35 5.64L8.5 12.79L13.14 8.14C13.34 7.95 13.65 7.95 13.85 8.14L23.35 17.64C23.54 17.84 23.54 18.15 23.35 18.35C23.15 18.54 22.84 18.54 22.64 18.35L13.5 9.2L8.85 13.85C8.65 14.04 8.34 14.04 8.14 13.85L0.64 6.35C0.45 6.15 0.45 5.84 0.64 5.64Z" fill="#414141" fill-opacity="1.000000" fill-rule="evenodd"/>
	<path id="Shape (Stroke)" d="M23 11.5C23.27 11.5 23.5 11.72 23.5 12L23.5 18C23.5 18.27 23.27 18.5 23 18.5L17 18.5C16.72 18.5 16.5 18.27 16.5 18C16.5 17.72 16.72 17.5 17 17.5L22.5 17.5L22.5 12C22.5 11.72 22.72 11.5 23 11.5Z" fill="#414141" fill-opacity="1.000000" fill-rule="evenodd"/>
</svg>
