<svg width="24.000000" height="24.000000" viewBox="0 0 24 24" fill="none" xmlns="http://www.w3.org/2000/svg" xmlns:xlink="http://www.w3.org/1999/xlink">
	<desc>
			Created with Pixso.
	</desc>
	<defs/>
	<rect id="feather-icon / user" rx="0.000000" width="23.000000" height="23.000000" transform="translate(0.500000 0.500000)" fill="#FFFFFF" fill-opacity="0"/>
	<path id="Shape (Stroke)" d="M3.5 19C3.5 16.51 5.51 14.5 8 14.5L16 14.5C18.48 14.5 20.5 16.51 20.5 19L20.5 21C20.5 21.27 20.27 21.5 20 21.5C19.72 21.5 19.5 21.27 19.5 21L19.5 19C19.5 17.06 17.93 15.5 16 15.5L8 15.5C6.06 15.5 4.5 17.06 4.5 19L4.5 21C4.5 21.27 4.27 21.5 4 21.5C3.72 21.5 3.5 21.27 3.5 21L3.5 19Z" fill="#414141" fill-opacity="1.000000" fill-rule="evenodd"/>
	<path id="Oval (Stroke)" d="M7.5 7C7.5 4.51 9.51 2.5 12 2.5C14.48 2.5 16.5 4.51 16.5 7C16.5 9.48 14.48 11.5 12 11.5C9.51 11.5 7.5 9.48 7.5 7ZM12 3.5C10.06 3.5 8.5 5.06 8.5 7C8.5 8.93 10.06 10.5 12 10.5C13.93 10.5 15.5 8.93 15.5 7C15.5 5.06 13.93 3.5 12 3.5Z" fill="#414141" fill-opacity="1.000000" fill-rule="evenodd"/>
</svg>
