<svg width="24.000000" height="24.000000" viewBox="0 0 24 24" fill="none" xmlns="http://www.w3.org/2000/svg" xmlns:xlink="http://www.w3.org/1999/xlink">
	<desc>
			Created with Pixso.
	</desc>
	<defs/>
	<rect id="feather-icon / list" rx="0.000000" width="23.000000" height="23.000000" transform="translate(0.500000 0.500000)" fill="#FFFFFF" fill-opacity="0"/>
	<path id="Shape (Stroke)" d="M7.5 6C7.5 5.72 7.72 5.5 8 5.5L21 5.5C21.27 5.5 21.5 5.72 21.5 6C21.5 6.27 21.27 6.5 21 6.5L8 6.5C7.72 6.5 7.5 6.27 7.5 6Z" fill="#414141" fill-opacity="1.000000" fill-rule="evenodd"/>
	<path id="Shape (Stroke)" d="M7.5 12C7.5 11.72 7.72 11.5 8 11.5L21 11.5C21.27 11.5 21.5 11.72 21.5 12C21.5 12.27 21.27 12.5 21 12.5L8 12.5C7.72 12.5 7.5 12.27 7.5 12Z" fill="#414141" fill-opacity="1.000000" fill-rule="evenodd"/>
	<path id="Shape (Stroke)" d="M7.5 18C7.5 17.72 7.72 17.5 8 17.5L21 17.5C21.27 17.5 21.5 17.72 21.5 18C21.5 18.27 21.27 18.5 21 18.5L8 18.5C7.72 18.5 7.5 18.27 7.5 18Z" fill="#414141" fill-opacity="1.000000" fill-rule="evenodd"/>
	<path id="Shape (Stroke)" d="M4.5 6C4.5 5.72 4.27 5.5 4 5.5L3 5.5C2.72 5.5 2.5 5.72 2.5 6C2.5 6.27 2.72 6.5 3 6.5L4 6.5C4.27 6.5 4.5 6.27 4.5 6Z" fill="#414141" fill-opacity="1.000000" fill-rule="evenodd"/>
	<path id="Shape (Stroke)" d="M4.5 12C4.5 11.72 4.27 11.5 4 11.5L3 11.5C2.72 11.5 2.5 11.72 2.5 12C2.5 12.27 2.72 12.5 3 12.5L4 12.5C4.27 12.5 4.5 12.27 4.5 12Z" fill="#414141" fill-opacity="1.000000" fill-rule="evenodd"/>
	<path id="Shape (Stroke)" d="M4.5 18C4.5 17.72 4.27 17.5 4 17.5L3 17.5C2.72 17.5 2.5 17.72 2.5 18C2.5 18.27 2.72 18.5 3 18.5L4 18.5C4.27 18.5 4.5 18.27 4.5 18Z" fill="#414141" fill-opacity="1.000000" fill-rule="evenodd"/>
</svg>
