<svg width="24.000000" height="24.000000" viewBox="0 0 24 24" fill="none" xmlns="http://www.w3.org/2000/svg" xmlns:xlink="http://www.w3.org/1999/xlink">
	<desc>
			Created with Pixso.
	</desc>
	<defs/>
	<rect id="feather-icon / align-left" rx="0.000000" width="23.000000" height="23.000000" transform="translate(0.500000 0.500000)" fill="#FFFFFF" fill-opacity="0"/>
	<path id="Shape (Stroke)" d="M2.5 10C2.5 9.72 2.72 9.5 3 9.5L17 9.5C17.27 9.5 17.5 9.72 17.5 10C17.5 10.27 17.27 10.5 17 10.5L3 10.5C2.72 10.5 2.5 10.27 2.5 10Z" fill="#414141" fill-opacity="1.000000" fill-rule="evenodd"/>
	<path id="Shape (Stroke)" d="M2.5 6C2.5 5.72 2.72 5.5 3 5.5L21 5.5C21.27 5.5 21.5 5.72 21.5 6C21.5 6.27 21.27 6.5 21 6.5L3 6.5C2.72 6.5 2.5 6.27 2.5 6Z" fill="#414141" fill-opacity="1.000000" fill-rule="evenodd"/>
	<path id="Shape (Stroke)" d="M2.5 14C2.5 13.72 2.72 13.5 3 13.5L21 13.5C21.27 13.5 21.5 13.72 21.5 14C21.5 14.27 21.27 14.5 21 14.5L3 14.5C2.72 14.5 2.5 14.27 2.5 14Z" fill="#414141" fill-opacity="1.000000" fill-rule="evenodd"/>
	<path id="Shape (Stroke)" d="M2.5 18C2.5 17.72 2.72 17.5 3 17.5L17 17.5C17.27 17.5 17.5 17.72 17.5 18C17.5 18.27 17.27 18.5 17 18.5L3 18.5C2.72 18.5 2.5 18.27 2.5 18Z" fill="#414141" fill-opacity="1.000000" fill-rule="evenodd"/>
</svg>
