<svg width="24.000000" height="24.000000" viewBox="0 0 24 24" fill="none" xmlns="http://www.w3.org/2000/svg" xmlns:xlink="http://www.w3.org/1999/xlink">
	<desc>
			Created with Pixso.
	</desc>
	<defs/>
	<rect id="feather-icon / corner-right-down" rx="0.000000" width="23.000000" height="23.000000" transform="translate(0.500000 0.500000)" fill="#FFFFFF" fill-opacity="0"/>
	<path id="Shape (Stroke)" d="M9.64 14.64C9.84 14.45 10.15 14.45 10.35 14.64L15 19.29L19.64 14.64C19.84 14.45 20.15 14.45 20.35 14.64C20.54 14.84 20.54 15.15 20.35 15.35L15.35 20.35C15.15 20.54 14.84 20.54 14.64 20.35L9.64 15.35C9.45 15.15 9.45 14.84 9.64 14.64Z" fill="#414141" fill-opacity="1.000000" fill-rule="evenodd"/>
	<path id="Shape (Stroke)" d="M3.5 4C3.5 3.72 3.72 3.5 4 3.5L11 3.5C13.48 3.5 15.5 5.51 15.5 8L15.5 20C15.5 20.27 15.27 20.5 15 20.5C14.72 20.5 14.5 20.27 14.5 20L14.5 8C14.5 6.06 12.93 4.5 11 4.5L4 4.5C3.72 4.5 3.5 4.27 3.5 4Z" fill="#414141" fill-opacity="1.000000" fill-rule="evenodd"/>
</svg>
