<svg width="25.000000" height="25.000000" viewBox="0 0 25 25" fill="none" xmlns="http://www.w3.org/2000/svg" xmlns:xlink="http://www.w3.org/1999/xlink">
	<desc>
			Created with Pixso.
	</desc>
	<defs/>
	<rect id="feather-icon / bold" rx="0.000000" width="24.000000" height="24.000000" transform="translate(0.500000 0.500000)" fill="#FFFFFF" fill-opacity="0"/>
	<path id="Shape (Stroke)" d="M4.68 4.16C4.68 3.87 4.91 3.64 5.2 3.64L13.54 3.64C16.13 3.64 18.22 5.74 18.22 8.33C18.22 10.92 16.13 13.02 13.54 13.02L5.2 13.02C4.91 13.02 4.68 12.78 4.68 12.5L4.68 4.16ZM5.72 4.68L5.72 11.97L13.54 11.97C15.55 11.97 17.18 10.34 17.18 8.33C17.18 6.31 15.55 4.68 13.54 4.68L5.72 4.68Z" fill="#414141" fill-opacity="1.000000" fill-rule="evenodd"/>
	<path id="Shape (Stroke)" d="M4.68 12.5C4.68 12.21 4.91 11.97 5.2 11.97L14.58 11.97C17.17 11.97 19.27 14.07 19.27 16.66C19.27 19.25 17.17 21.35 14.58 21.35L5.2 21.35C4.91 21.35 4.68 21.12 4.68 20.83L4.68 12.5ZM5.72 13.02L5.72 20.31L14.58 20.31C16.59 20.31 18.22 18.68 18.22 16.66C18.22 14.65 16.59 13.02 14.58 13.02L5.72 13.02Z" fill="#414141" fill-opacity="1.000000" fill-rule="evenodd"/>
</svg>
