<svg width="24.000000" height="24.000000" viewBox="0 0 24 24" fill="none" xmlns="http://www.w3.org/2000/svg" xmlns:xlink="http://www.w3.org/1999/xlink">
	<desc>
			Created with Pixso.
	</desc>
	<defs/>
	<rect id="feather-icon / cloud-drizzle" rx="0.000000" width="23.000000" height="23.000000" transform="translate(0.500000 0.500000)" fill="#FFFFFF" fill-opacity="0"/>
	<path id="Shape (Stroke)" d="M8 18.5C8.27 18.5 8.5 18.72 8.5 19L8.5 21C8.5 21.27 8.27 21.5 8 21.5C7.72 21.5 7.5 21.27 7.5 21L7.5 19C7.5 18.72 7.72 18.5 8 18.5Z" fill="#414141" fill-opacity="1.000000" fill-rule="evenodd"/>
	<path id="Shape (Stroke)" d="M8 12.5C8.27 12.5 8.5 12.72 8.5 13L8.5 15C8.5 15.27 8.27 15.5 8 15.5C7.72 15.5 7.5 15.27 7.5 15L7.5 13C7.5 12.72 7.72 12.5 8 12.5Z" fill="#414141" fill-opacity="1.000000" fill-rule="evenodd"/>
	<path id="Shape (Stroke)" d="M16 18.5C16.27 18.5 16.5 18.72 16.5 19L16.5 21C16.5 21.27 16.27 21.5 16 21.5C15.72 21.5 15.5 21.27 15.5 21L15.5 19C15.5 18.72 15.72 18.5 16 18.5Z" fill="#414141" fill-opacity="1.000000" fill-rule="evenodd"/>
	<path id="Shape (Stroke)" d="M16 12.5C16.27 12.5 16.5 12.72 16.5 13L16.5 15C16.5 15.27 16.27 15.5 16 15.5C15.72 15.5 15.5 15.27 15.5 15L15.5 13C15.5 12.72 15.72 12.5 16 12.5Z" fill="#414141" fill-opacity="1.000000" fill-rule="evenodd"/>
	<path id="Shape (Stroke)" d="M12 20.5C12.27 20.5 12.5 20.72 12.5 21L12.5 23C12.5 23.27 12.27 23.5 12 23.5C11.72 23.5 11.5 23.27 11.5 23L11.5 21C11.5 20.72 11.72 20.5 12 20.5Z" fill="#414141" fill-opacity="1.000000" fill-rule="evenodd"/>
	<path id="Shape (Stroke)" d="M12 14.5C12.27 14.5 12.5 14.72 12.5 15L12.5 17C12.5 17.27 12.27 17.5 12 17.5C11.72 17.5 11.5 17.27 11.5 17L11.5 15C11.5 14.72 11.72 14.5 12 14.5Z" fill="#414141" fill-opacity="1.000000" fill-rule="evenodd"/>
	<path id="Shape (Stroke)" d="M1.05 5.96C2.37 2.5 5.77 0.3 9.47 0.51C13.03 0.71 16.07 3.11 17.11 6.5L17.99 6.5C20.59 6.5 22.84 8.32 23.37 10.87C23.9 13.42 22.58 15.99 20.19 17.03C19.94 17.14 19.65 17.03 19.54 16.78C19.42 16.52 19.54 16.23 19.79 16.12C21.74 15.26 22.83 13.16 22.39 11.08C21.96 8.99 20.12 7.5 17.99 7.5L16.73 7.5C16.5 7.5 16.31 7.34 16.25 7.12C15.43 3.96 12.67 1.69 9.41 1.51C6.15 1.32 3.15 3.27 1.98 6.32C0.82 9.36 1.76 12.82 4.31 14.85C4.52 15.03 4.56 15.34 4.38 15.56C4.21 15.77 3.9 15.81 3.68 15.64C0.79 13.33 -0.27 9.41 1.05 5.96Z" fill="#414141" fill-opacity="1.000000" fill-rule="evenodd"/>
</svg>
