<svg width="24.000000" height="24.000000" viewBox="0 0 24 24" fill="none" xmlns="http://www.w3.org/2000/svg" xmlns:xlink="http://www.w3.org/1999/xlink">
	<desc>
			Created with Pixso.
	</desc>
	<defs/>
	<rect id="feather-icon / minimize-2" rx="0.000000" width="23.000000" height="23.000000" transform="translate(0.500000 0.500000)" fill="#FFFFFF" fill-opacity="0"/>
	<path id="Shape (Stroke)" d="M3.5 14C3.5 13.72 3.72 13.5 4 13.5L10 13.5C10.27 13.5 10.5 13.72 10.5 14L10.5 20C10.5 20.27 10.27 20.5 10 20.5C9.72 20.5 9.5 20.27 9.5 20L9.5 14.5L4 14.5C3.72 14.5 3.5 14.27 3.5 14Z" fill="#414141" fill-opacity="1.000000" fill-rule="evenodd"/>
	<path id="Shape (Stroke)" d="M14 3.5C14.27 3.5 14.5 3.72 14.5 4L14.5 9.5L20 9.5C20.27 9.5 20.5 9.72 20.5 10C20.5 10.27 20.27 10.5 20 10.5L14 10.5C13.72 10.5 13.5 10.27 13.5 10L13.5 4C13.5 3.72 13.72 3.5 14 3.5Z" fill="#414141" fill-opacity="1.000000" fill-rule="evenodd"/>
	<path id="Shape (Stroke)" d="M21.35 2.64C21.54 2.84 21.54 3.15 21.35 3.35L14.35 10.35C14.15 10.54 13.84 10.54 13.64 10.35C13.45 10.15 13.45 9.84 13.64 9.64L20.64 2.64C20.84 2.45 21.15 2.45 21.35 2.64Z" fill="#414141" fill-opacity="1.000000" fill-rule="evenodd"/>
	<path id="Shape (Stroke)" d="M10.35 13.64C10.54 13.84 10.54 14.15 10.35 14.35L3.35 21.35C3.15 21.54 2.84 21.54 2.64 21.35C2.45 21.15 2.45 20.84 2.64 20.64L9.64 13.64C9.84 13.45 10.15 13.45 10.35 13.64Z" fill="#414141" fill-opacity="1.000000" fill-rule="evenodd"/>
</svg>
