<svg width="24.000000" height="24.000000" viewBox="0 0 24 24" fill="none" xmlns="http://www.w3.org/2000/svg" xmlns:xlink="http://www.w3.org/1999/xlink">
	<desc>
			Created with Pixso.
	</desc>
	<defs/>
	<rect id="feather-icon / wifi-off" rx="0.000000" width="23.000000" height="23.000000" transform="translate(0.500000 0.500000)" fill="#FFFFFF" fill-opacity="0"/>
	<path id="Shape (Stroke)" d="M0.64 0.64C0.84 0.45 1.15 0.45 1.35 0.64L23.35 22.64C23.54 22.84 23.54 23.15 23.35 23.35C23.15 23.54 22.84 23.54 22.64 23.35L0.64 1.35C0.45 1.15 0.45 0.84 0.64 0.64Z" fill="#414141" fill-opacity="1.000000" fill-rule="evenodd"/>
	<path id="Ellipse" d="M13 20C13 20.55 12.55 21 12 21C11.44 21 11 20.55 11 20C11 19.44 11.44 19 12 19C12.55 19 13 19.44 13 20Z" fill="#414141" fill-opacity="1.000000" fill-rule="nonzero"/>
	<path id="Shape (Stroke)" d="M16.26 10.84C16.39 10.59 16.68 10.48 16.93 10.61C17.79 11.02 18.59 11.55 19.32 12.16C19.53 12.34 19.55 12.66 19.38 12.87C19.2 13.08 18.88 13.1 18.67 12.93C18.01 12.36 17.28 11.89 16.5 11.5C16.25 11.38 16.14 11.08 16.26 10.84Z" fill="#414141" fill-opacity="1.000000" fill-rule="evenodd"/>
	<path id="Shape (Stroke)" d="M10.66 10.07C10.7 10.34 10.52 10.6 10.25 10.65C8.43 10.96 6.73 11.75 5.32 12.93C5.1 13.11 4.79 13.08 4.61 12.87C4.43 12.65 4.46 12.34 4.67 12.16C6.22 10.87 8.09 10 10.08 9.66C10.35 9.62 10.61 9.8 10.66 10.07Z" fill="#414141" fill-opacity="1.000000" fill-rule="evenodd"/>
	<path id="Shape (Stroke)" d="M22.25 9.37C19.09 6.59 14.94 5.21 10.75 5.54C10.47 5.57 10.23 5.36 10.21 5.08C10.18 4.81 10.39 4.57 10.66 4.55C15.13 4.19 19.55 5.66 22.91 8.62C23.11 8.8 23.13 9.12 22.95 9.33C22.77 9.53 22.45 9.55 22.25 9.37Z" fill="#414141" fill-opacity="1.000000" fill-rule="evenodd"/>
	<path id="Shape (Stroke)" d="M6.58 5.93C6.68 6.19 6.56 6.48 6.3 6.58C4.63 7.24 3.09 8.18 1.75 9.37C1.54 9.55 1.23 9.53 1.04 9.33C0.86 9.12 0.88 8.8 1.08 8.62C2.52 7.36 4.16 6.35 5.93 5.65C6.19 5.55 6.48 5.67 6.58 5.93Z" fill="#414141" fill-opacity="1.000000" fill-rule="evenodd"/>
	<path id="Shape (Stroke)" d="M15.19 16.51C13.28 15.16 10.72 15.16 8.82 16.51C8.59 16.67 8.28 16.62 8.12 16.39C7.96 16.17 8.01 15.86 8.24 15.7C10.49 14.1 13.51 14.1 15.77 15.7C15.99 15.86 16.04 16.17 15.88 16.39C15.72 16.62 15.41 16.67 15.19 16.51Z" fill="#414141" fill-opacity="1.000000" fill-rule="evenodd"/>
</svg>
