<svg width="24.000000" height="24.000000" viewBox="0 0 24 24" fill="none" xmlns="http://www.w3.org/2000/svg" xmlns:xlink="http://www.w3.org/1999/xlink">
	<desc>
			Created with Pixso.
	</desc>
	<defs/>
	<rect id="feather-icon / minimize" rx="0.000000" width="23.000000" height="23.000000" transform="translate(0.500000 0.500000)" fill="#FFFFFF" fill-opacity="0"/>
	<path id="Shape (Stroke)" d="M8 2.5C8.27 2.5 8.5 2.72 8.5 3L8.5 6C8.5 7.38 7.38 8.5 6 8.5L3 8.5C2.72 8.5 2.5 8.27 2.5 8C2.5 7.72 2.72 7.5 3 7.5L6 7.5C6.82 7.5 7.5 6.82 7.5 6L7.5 3C7.5 2.72 7.72 2.5 8 2.5ZM16 2.5C16.27 2.5 16.5 2.72 16.5 3L16.5 6C16.5 6.82 17.17 7.5 18 7.5L21 7.5C21.27 7.5 21.5 7.72 21.5 8C21.5 8.27 21.27 8.5 21 8.5L18 8.5C16.61 8.5 15.5 7.38 15.5 6L15.5 3C15.5 2.72 15.72 2.5 16 2.5ZM2.5 16C2.5 15.72 2.72 15.5 3 15.5L6 15.5C7.38 15.5 8.5 16.61 8.5 18L8.5 21C8.5 21.27 8.27 21.5 8 21.5C7.72 21.5 7.5 21.27 7.5 21L7.5 18C7.5 17.17 6.82 16.5 6 16.5L3 16.5C2.72 16.5 2.5 16.27 2.5 16ZM18 16.5C17.17 16.5 16.5 17.17 16.5 18L16.5 21C16.5 21.27 16.27 21.5 16 21.5C15.72 21.5 15.5 21.27 15.5 21L15.5 18C15.5 16.61 16.61 15.5 18 15.5L21 15.5C21.27 15.5 21.5 15.72 21.5 16C21.5 16.27 21.27 16.5 21 16.5L18 16.5Z" fill="#414141" fill-opacity="1.000000" fill-rule="evenodd"/>
</svg>
