<svg width="24.000000" height="24.000000" viewBox="0 0 24 24" fill="none" xmlns="http://www.w3.org/2000/svg" xmlns:xlink="http://www.w3.org/1999/xlink">
	<desc>
			Created with Pixso.
	</desc>
	<defs/>
	<rect id="feather-icon / smartphone" rx="0.000000" width="23.000000" height="23.000000" transform="translate(0.500000 0.500000)" fill="#FFFFFF" fill-opacity="0"/>
	<path id="Rectangle-path (Stroke)" d="M4.5 4C4.5 2.61 5.61 1.5 7 1.5L17 1.5C18.38 1.5 19.5 2.61 19.5 4L19.5 20C19.5 21.38 18.38 22.5 17 22.5L7 22.5C5.61 22.5 4.5 21.38 4.5 20L4.5 4ZM7 2.5C6.17 2.5 5.5 3.17 5.5 4L5.5 20C5.5 20.82 6.17 21.5 7 21.5L17 21.5C17.82 21.5 18.5 20.82 18.5 20L18.5 4C18.5 3.17 17.82 2.5 17 2.5L7 2.5Z" fill="#414141" fill-opacity="1.000000" fill-rule="evenodd"/>
	<path id="Ellipse" d="M13 18C13 18.55 12.55 19 12 19C11.44 19 11 18.55 11 18C11 17.44 11.44 17 12 17C12.55 17 13 17.44 13 18Z" fill="#414141" fill-opacity="1.000000" fill-rule="nonzero"/>
</svg>
