<svg width="24.000000" height="24.000000" viewBox="0 0 24 24" fill="none" xmlns="http://www.w3.org/2000/svg" xmlns:xlink="http://www.w3.org/1999/xlink">
	<desc>
			Created with Pixso.
	</desc>
	<defs/>
	<rect id="feather-icon / eye" rx="0.000000" width="23.000000" height="23.000000" transform="translate(0.500000 0.500000)" fill="#FFFFFF" fill-opacity="0"/>
	<path id="Shape (Stroke)" d="M1.56 12C1.58 12.03 1.6 12.06 1.62 12.09C1.74 12.3 1.91 12.61 2.15 12.97C2.62 13.71 3.32 14.68 4.24 15.65C6.07 17.61 8.69 19.5 12 19.5C15.3 19.5 17.92 17.61 19.75 15.65C20.67 14.68 21.37 13.71 21.84 12.97C22.08 12.61 22.25 12.3 22.37 12.09C22.39 12.06 22.41 12.03 22.43 12C22.41 11.96 22.39 11.93 22.37 11.9C22.25 11.69 22.08 11.38 21.84 11.02C21.37 10.28 20.67 9.31 19.75 8.34C17.92 6.38 15.3 4.5 12 4.5C8.69 4.5 6.07 6.38 4.24 8.34C3.32 9.31 2.62 10.28 2.15 11.02C1.91 11.38 1.74 11.69 1.62 11.9C1.6 11.93 1.58 11.96 1.56 12ZM23 12C23.44 11.77 23.44 11.77 23.44 11.77L23.44 11.77L23.44 11.76L23.43 11.74C23.42 11.73 23.41 11.7 23.39 11.67C23.36 11.61 23.31 11.52 23.25 11.41C23.12 11.18 22.93 10.86 22.68 10.47C22.18 9.71 21.45 8.68 20.49 7.65C18.57 5.61 15.69 3.5 12 3.5C8.3 3.5 5.42 5.61 3.5 7.65C2.54 8.68 1.81 9.71 1.31 10.47C1.06 10.86 0.87 11.18 0.75 11.41C0.68 11.52 0.63 11.61 0.6 11.67C0.58 11.7 0.57 11.73 0.56 11.74L0.55 11.76L0.55 11.77L0.55 11.77C0.55 11.77 0.55 11.77 1 12L0.55 11.77C0.48 11.91 0.48 12.08 0.55 12.22L1 12C0.55 12.22 0.55 12.22 0.55 12.22L0.55 12.22L0.55 12.22L0.55 12.23L0.56 12.25C0.57 12.26 0.58 12.29 0.6 12.32C0.63 12.38 0.68 12.47 0.75 12.58C0.87 12.81 1.06 13.13 1.31 13.52C1.81 14.28 2.54 15.31 3.5 16.34C5.42 18.38 8.3 20.5 12 20.5C15.69 20.5 18.57 18.38 20.49 16.34C21.45 15.31 22.18 14.28 22.68 13.52C22.93 13.13 23.12 12.81 23.25 12.58C23.31 12.47 23.36 12.38 23.39 12.32C23.41 12.29 23.42 12.26 23.43 12.25L23.44 12.23L23.44 12.22L23.44 12.22C23.44 12.22 23.44 12.22 23 12ZM23 12L23.44 12.22C23.51 12.08 23.51 11.91 23.44 11.77L23 12Z" fill="#414141" fill-opacity="1.000000" fill-rule="evenodd"/>
	<path id="Oval (Stroke)" d="M8.5 12C8.5 10.06 10.06 8.5 12 8.5C13.93 8.5 15.5 10.06 15.5 12C15.5 13.93 13.93 15.5 12 15.5C10.06 15.5 8.5 13.93 8.5 12ZM12 9.5C10.61 9.5 9.5 10.61 9.5 12C9.5 13.38 10.61 14.5 12 14.5C13.38 14.5 14.5 13.38 14.5 12C14.5 10.61 13.38 9.5 12 9.5Z" fill="#414141" fill-opacity="1.000000" fill-rule="evenodd"/>
</svg>
