<svg width="24.000000" height="24.000000" viewBox="0 0 24 24" fill="none" xmlns="http://www.w3.org/2000/svg" xmlns:xlink="http://www.w3.org/1999/xlink">
	<desc>
			Created with Pixso.
	</desc>
	<defs/>
	<rect id="feather-icon / underline" rx="0.000000" width="23.000000" height="23.000000" transform="translate(0.500000 0.500000)" fill="#FFFFFF" fill-opacity="0"/>
	<path id="Shape (Stroke)" d="M6 1.5C6.27 1.5 6.5 1.72 6.5 2L6.5 9C6.5 12.03 8.96 14.5 12 14.5C15.03 14.5 17.5 12.03 17.5 9L17.5 2C17.5 1.72 17.72 1.5 18 1.5C18.27 1.5 18.5 1.72 18.5 2L18.5 9C18.5 12.58 15.58 15.5 12 15.5C8.41 15.5 5.5 12.58 5.5 9L5.5 2C5.5 1.72 5.72 1.5 6 1.5Z" fill="#414141" fill-opacity="1.000000" fill-rule="evenodd"/>
	<path id="Shape (Stroke)" d="M3.5 20C3.5 19.72 3.72 19.5 4 19.5L20 19.5C20.27 19.5 20.5 19.72 20.5 20C20.5 20.27 20.27 20.5 20 20.5L4 20.5C3.72 20.5 3.5 20.27 3.5 20Z" fill="#414141" fill-opacity="1.000000" fill-rule="evenodd"/>
</svg>
