<svg width="24.000000" height="24.000000" viewBox="0 0 24 24" fill="none" xmlns="http://www.w3.org/2000/svg" xmlns:xlink="http://www.w3.org/1999/xlink">
	<desc>
			Created with Pixso.
	</desc>
	<defs/>
	<rect id="feather-icon / x-circle" rx="0.000000" width="23.000000" height="23.000000" transform="translate(0.500000 0.500000)" fill="#FFFFFF" fill-opacity="0"/>
	<path id="Oval (Stroke)" d="M1.5 12C1.5 6.2 6.2 1.5 12 1.5C17.79 1.5 22.5 6.2 22.5 12C22.5 17.79 17.79 22.5 12 22.5C6.2 22.5 1.5 17.79 1.5 12ZM12 2.5C6.75 2.5 2.5 6.75 2.5 12C2.5 17.24 6.75 21.5 12 21.5C17.24 21.5 21.5 17.24 21.5 12C21.5 6.75 17.24 2.5 12 2.5Z" fill="#414141" fill-opacity="1.000000" fill-rule="evenodd"/>
	<path id="Shape (Stroke)" d="M15.35 8.64C15.54 8.84 15.54 9.15 15.35 9.35L9.35 15.35C9.15 15.54 8.84 15.54 8.64 15.35C8.45 15.15 8.45 14.84 8.64 14.64L14.64 8.64C14.84 8.45 15.15 8.45 15.35 8.64Z" fill="#414141" fill-opacity="1.000000" fill-rule="evenodd"/>
	<path id="Shape (Stroke)" d="M8.64 8.64C8.84 8.45 9.15 8.45 9.35 8.64L15.35 14.64C15.54 14.84 15.54 15.15 15.35 15.35C15.15 15.54 14.84 15.54 14.64 15.35L8.64 9.35C8.45 9.15 8.45 8.84 8.64 8.64Z" fill="#414141" fill-opacity="1.000000" fill-rule="evenodd"/>
</svg>
