<svg width="24.000000" height="24.000000" viewBox="0 0 24 24" fill="none" xmlns="http://www.w3.org/2000/svg" xmlns:xlink="http://www.w3.org/1999/xlink">
	<desc>
			Created with Pixso.
	</desc>
	<defs/>
	<rect id="feather-icon / map" rx="0.000000" width="23.000000" height="23.000000" transform="translate(0.500000 0.500000)" fill="#FFFFFF" fill-opacity="0"/>
	<path id="Shape (Stroke)" d="M7.75 1.56C7.89 1.48 8.07 1.47 8.22 1.55L15.98 5.43L22.75 1.56C22.9 1.47 23.09 1.47 23.25 1.56C23.4 1.65 23.5 1.82 23.5 2L23.5 18C23.5 18.17 23.4 18.34 23.24 18.43L16.24 22.43C16.1 22.51 15.92 22.52 15.77 22.44L8.01 18.56L1.24 22.43C1.09 22.52 0.9 22.52 0.75 22.43C0.59 22.34 0.5 22.17 0.5 22L0.5 6C0.5 5.82 0.59 5.65 0.75 5.56L7.75 1.56ZM8.01 2.56L1.5 6.29L1.5 21.13L7.75 17.56C7.89 17.48 8.07 17.47 8.22 17.55L15.98 21.43L22.5 17.7L22.5 2.86L16.24 6.43C16.1 6.51 15.92 6.52 15.77 6.44L8.01 2.56Z" fill="#414141" fill-opacity="1.000000" fill-rule="evenodd"/>
	<path id="Shape (Stroke)" d="M8 1.5C8.27 1.5 8.5 1.72 8.5 2L8.5 18C8.5 18.27 8.27 18.5 8 18.5C7.72 18.5 7.5 18.27 7.5 18L7.5 2C7.5 1.72 7.72 1.5 8 1.5Z" fill="#414141" fill-opacity="1.000000" fill-rule="evenodd"/>
	<path id="Shape (Stroke)" d="M16 5.5C16.27 5.5 16.5 5.72 16.5 6L16.5 22C16.5 22.27 16.27 22.5 16 22.5C15.72 22.5 15.5 22.27 15.5 22L15.5 6C15.5 5.72 15.72 5.5 16 5.5Z" fill="#414141" fill-opacity="1.000000" fill-rule="evenodd"/>
</svg>
