<svg width="24.000000" height="24.000000" viewBox="0 0 24 24" fill="none" xmlns="http://www.w3.org/2000/svg" xmlns:xlink="http://www.w3.org/1999/xlink">
	<desc>
			Created with Pixso.
	</desc>
	<defs/>
	<rect id="feather-icon / chevrons-up" rx="0.000000" width="23.000000" height="23.000000" transform="translate(0.500000 0.500000)" fill="#FFFFFF" fill-opacity="0"/>
	<path id="Shape (Stroke)" d="M11.64 5.64C11.84 5.45 12.15 5.45 12.35 5.64L17.35 10.64C17.54 10.84 17.54 11.15 17.35 11.35C17.15 11.54 16.84 11.54 16.64 11.35L12 6.7L7.35 11.35C7.15 11.54 6.84 11.54 6.64 11.35C6.45 11.15 6.45 10.84 6.64 10.64L11.64 5.64Z" fill="#414141" fill-opacity="1.000000" fill-rule="evenodd"/>
	<path id="Shape (Stroke)" d="M11.64 12.64C11.84 12.45 12.15 12.45 12.35 12.64L17.35 17.64C17.54 17.84 17.54 18.15 17.35 18.35C17.15 18.54 16.84 18.54 16.64 18.35L12 13.7L7.35 18.35C7.15 18.54 6.84 18.54 6.64 18.35C6.45 18.15 6.45 17.84 6.64 17.64L11.64 12.64Z" fill="#414141" fill-opacity="1.000000" fill-rule="evenodd"/>
</svg>
