<svg width="24.000000" height="24.000000" viewBox="0 0 24 24" fill="none" xmlns="http://www.w3.org/2000/svg" xmlns:xlink="http://www.w3.org/1999/xlink">
	<desc>
			Created with Pixso.
	</desc>
	<defs/>
	<rect id="feather-icon / codepen" rx="0.000000" width="23.000000" height="23.000000" transform="translate(0.500000 0.500000)" fill="#FFFFFF" fill-opacity="0"/>
	<path id="Shape (Stroke)" d="M2.5 8.77L2.5 15.22L12 21.4L21.5 15.22L21.5 8.77L12 2.59L2.5 8.77ZM12 2L11.72 1.58L1.72 8.08C1.58 8.17 1.5 8.33 1.5 8.5L1.5 15.5C1.5 15.66 1.58 15.82 1.72 15.91L11.72 22.41C11.89 22.52 12.1 22.52 12.27 22.41L22.27 15.91C22.41 15.82 22.5 15.66 22.5 15.5L22.5 8.5C22.5 8.33 22.41 8.17 22.27 8.08L12.27 1.58L12 2Z" fill="#414141" fill-opacity="1.000000" fill-rule="evenodd"/>
	<path id="Shape (Stroke)" d="M12 15C12.27 15 12.5 15.22 12.5 15.5L12.5 22C12.5 22.27 12.27 22.5 12 22.5C11.72 22.5 11.5 22.27 11.5 22L11.5 15.5C11.5 15.22 11.72 15 12 15Z" fill="#414141" fill-opacity="1.000000" fill-rule="evenodd"/>
	<path id="Shape (Stroke)" d="M1.58 8.21C1.74 7.98 2.06 7.93 2.28 8.09L12 14.88L21.71 8.09C21.93 7.93 22.25 7.98 22.41 8.21C22.56 8.43 22.51 8.75 22.28 8.9L12.28 15.9C12.11 16.03 11.88 16.03 11.71 15.9L1.71 8.9C1.48 8.75 1.43 8.43 1.58 8.21Z" fill="#414141" fill-opacity="1.000000" fill-rule="evenodd"/>
	<path id="Shape (Stroke)" d="M11.71 8.09C11.88 7.96 12.11 7.96 12.28 8.09L22.28 15.09C22.51 15.24 22.56 15.56 22.41 15.78C22.25 16.01 21.93 16.06 21.71 15.9L12 9.11L2.28 15.9C2.06 16.06 1.74 16.01 1.58 15.78C1.43 15.56 1.48 15.24 1.71 15.09L11.71 8.09Z" fill="#414141" fill-opacity="1.000000" fill-rule="evenodd"/>
	<path id="Shape (Stroke)" d="M12 1.5C12.27 1.5 12.5 1.72 12.5 2L12.5 8.5C12.5 8.77 12.27 9 12 9C11.72 9 11.5 8.77 11.5 8.5L11.5 2C11.5 1.72 11.72 1.5 12 1.5Z" fill="#414141" fill-opacity="1.000000" fill-rule="evenodd"/>
</svg>
