<svg width="24.000000" height="24.000000" viewBox="0 0 24 24" fill="none" xmlns="http://www.w3.org/2000/svg" xmlns:xlink="http://www.w3.org/1999/xlink">
	<desc>
			Created with Pixso.
	</desc>
	<defs/>
	<rect id="feather-icon / users many" rx="0.000000" width="23.000000" height="23.000000" transform="translate(0.500000 0.500000)" fill="#FFFFFF" fill-opacity="0"/>
	<path id="Shape (Stroke)" d="M4.5 21C4.5 18.51 6.51 16.5 9 16.5L15 16.5C17.48 16.5 19.5 18.51 19.5 21L19.5 23C19.5 23.27 19.27 23.5 19 23.5C18.72 23.5 18.5 23.27 18.5 23L18.5 21C18.5 19.06 16.93 17.5 15 17.5L9 17.5C7.06 17.5 5.5 19.06 5.5 21L5.5 23C5.5 23.27 5.27 23.5 5 23.5C4.72 23.5 4.5 23.27 4.5 23L4.5 21Z" fill="#414141" fill-opacity="1.000000" fill-rule="evenodd"/>
	<path id="Shape (Stroke)" d="M18.5 12C18.5 11.72 18.72 11.5 19 11.5C21.48 11.5 23.5 13.51 23.5 16L23.5 19C23.5 19.27 23.27 19.5 23 19.5C22.72 19.5 22.5 19.27 22.5 19L22.5 16C22.5 14.06 20.93 12.5 19 12.5C18.72 12.5 18.5 12.27 18.5 12Z" fill="#414141" fill-opacity="1.000000" fill-rule="evenodd"/>
	<path id="Oval (Stroke)" d="M7.5 10C7.5 7.51 9.51 5.5 12 5.5C14.48 5.5 16.5 7.51 16.5 10C16.5 12.48 14.48 14.5 12 14.5C9.51 14.5 7.5 12.48 7.5 10ZM12 6.5C10.06 6.5 8.5 8.06 8.5 10C8.5 11.93 10.06 13.5 12 13.5C13.93 13.5 15.5 11.93 15.5 10C15.5 8.06 13.93 6.5 12 6.5Z" fill="#414141" fill-opacity="1.000000" fill-rule="evenodd"/>
	<path id="Oval (Stroke)" d="M15.58 3.06C16.2 2.12 17.28 1.5 18.5 1.5C20.43 1.5 22 3.06 22 5C22 6.62 20.89 7.99 19.38 8.38C19.11 8.45 18.84 8.29 18.77 8.02C18.7 7.76 18.86 7.48 19.13 7.41C20.2 7.13 21 6.16 21 5C21 3.61 19.88 2.5 18.5 2.5C17.63 2.5 16.86 2.94 16.41 3.61C16.26 3.84 15.95 3.91 15.72 3.75C15.49 3.6 15.43 3.29 15.58 3.06Z" fill="#414141" fill-opacity="1.000000" fill-rule="evenodd"/>
	<path id="Shape (Stroke)" d="M5.5 12C5.5 11.72 5.27 11.5 5 11.5C2.51 11.5 0.5 13.51 0.5 16L0.5 19C0.5 19.27 0.72 19.5 1 19.5C1.27 19.5 1.5 19.27 1.5 19L1.5 16C1.5 14.06 3.06 12.5 5 12.5C5.27 12.5 5.5 12.27 5.5 12Z" fill="#414141" fill-opacity="1.000000" fill-rule="evenodd"/>
	<path id="Oval (Stroke)" d="M8.41 3.06C7.79 2.12 6.71 1.5 5.5 1.5C3.56 1.5 2 3.06 2 5C2 6.62 3.1 7.99 4.61 8.38C4.88 8.45 5.15 8.29 5.22 8.02C5.29 7.76 5.13 7.48 4.86 7.41C3.79 7.13 3 6.16 3 5C3 3.61 4.11 2.5 5.5 2.5C6.36 2.5 7.13 2.94 7.58 3.61C7.73 3.84 8.04 3.91 8.27 3.75C8.5 3.6 8.56 3.29 8.41 3.06Z" fill="#414141" fill-opacity="1.000000" fill-rule="evenodd"/>
</svg>
