<svg width="24.000000" height="24.000000" viewBox="0 0 24 24" fill="none" xmlns="http://www.w3.org/2000/svg" xmlns:xlink="http://www.w3.org/1999/xlink">
	<desc>
			Created with Pixso.
	</desc>
	<defs/>
	<rect id="feather-icon / home" rx="0.000000" width="23.000000" height="23.000000" transform="translate(0.500000 0.500000)" fill="#FFFFFF" fill-opacity="0"/>
	<path id="Shape (Stroke)" d="M11.69 1.6C11.87 1.46 12.12 1.46 12.3 1.6L21.3 8.6C21.42 8.7 21.5 8.84 21.5 9L21.5 20C21.5 21.38 20.38 22.5 19 22.5L5 22.5C3.61 22.5 2.5 21.38 2.5 20L2.5 9C2.5 8.84 2.57 8.7 2.69 8.6L11.69 1.6ZM3.5 9.24L3.5 20C3.5 20.82 4.17 21.5 5 21.5L19 21.5C19.82 21.5 20.5 20.82 20.5 20L20.5 9.24L12 2.63L3.5 9.24Z" fill="#414141" fill-opacity="1.000000" fill-rule="evenodd"/>
	<path id="Shape (Stroke)" d="M8.5 12C8.5 11.72 8.72 11.5 9 11.5L15 11.5C15.27 11.5 15.5 11.72 15.5 12L15.5 22C15.5 22.27 15.27 22.5 15 22.5C14.72 22.5 14.5 22.27 14.5 22L14.5 12.5L9.5 12.5L9.5 22C9.5 22.27 9.27 22.5 9 22.5C8.72 22.5 8.5 22.27 8.5 22L8.5 12Z" fill="#414141" fill-opacity="1.000000" fill-rule="evenodd"/>
</svg>
