<svg width="24.000000" height="24.000000" viewBox="0 0 24 24" fill="none" xmlns="http://www.w3.org/2000/svg" xmlns:xlink="http://www.w3.org/1999/xlink">
	<desc>
			Created with Pixso.
	</desc>
	<defs/>
	<rect id="feather-icon / check-square" rx="0.000000" width="23.000000" height="23.000000" transform="translate(0.500000 0.500000)" fill="#FFFFFF" fill-opacity="0"/>
	<path id="Shape (Stroke)" d="M22.35 2.64C22.54 2.84 22.54 3.15 22.35 3.35L11.35 14.35C11.15 14.54 10.84 14.54 10.64 14.35L7.64 11.35C7.45 11.15 7.45 10.84 7.64 10.64C7.84 10.45 8.15 10.45 8.35 10.64L11 13.29L21.64 2.64C21.84 2.45 22.15 2.45 22.35 2.64Z" fill="#414141" fill-opacity="1.000000" fill-rule="evenodd"/>
	<path id="Shape (Stroke)" d="M4 3.5C3.17 3.5 2.5 4.17 2.5 5L2.5 19C2.5 19.82 3.17 20.5 4 20.5L18 20.5C18.82 20.5 19.5 19.82 19.5 19L19.5 12C19.5 11.72 19.72 11.5 20 11.5C20.27 11.5 20.5 11.72 20.5 12L20.5 19C20.5 20.38 19.38 21.5 18 21.5L4 21.5C2.61 21.5 1.5 20.38 1.5 19L1.5 5C1.5 3.61 2.61 2.5 4 2.5L15 2.5C15.27 2.5 15.5 2.72 15.5 3C15.5 3.27 15.27 3.5 15 3.5L4 3.5Z" fill="#414141" fill-opacity="1.000000" fill-rule="evenodd"/>
</svg>
