<svg width="24.000000" height="24.000000" viewBox="0 0 24 24" fill="none" xmlns="http://www.w3.org/2000/svg" xmlns:xlink="http://www.w3.org/1999/xlink">
	<desc>
			Created with Pixso.
	</desc>
	<defs/>
	<rect id="feather-icon / corner-down-left" rx="0.000000" width="23.000000" height="23.000000" transform="translate(0.500000 0.500000)" fill="#FFFFFF" fill-opacity="0"/>
	<path id="Shape (Stroke)" d="M9.35 9.64C9.54 9.84 9.54 10.15 9.35 10.35L4.7 15L9.35 19.64C9.54 19.84 9.54 20.15 9.35 20.35C9.15 20.54 8.84 20.54 8.64 20.35L3.64 15.35C3.45 15.15 3.45 14.84 3.64 14.64L8.64 9.64C8.84 9.45 9.15 9.45 9.35 9.64Z" fill="#414141" fill-opacity="1.000000" fill-rule="evenodd"/>
	<path id="Shape (Stroke)" d="M20 3.5C20.27 3.5 20.5 3.72 20.5 4L20.5 11C20.5 13.48 18.48 15.5 16 15.5L4 15.5C3.72 15.5 3.5 15.27 3.5 15C3.5 14.72 3.72 14.5 4 14.5L16 14.5C17.93 14.5 19.5 12.93 19.5 11L19.5 4C19.5 3.72 19.72 3.5 20 3.5Z" fill="#414141" fill-opacity="1.000000" fill-rule="evenodd"/>
</svg>
