<svg width="24.000000" height="24.000000" viewBox="0 0 24 24" fill="none" xmlns="http://www.w3.org/2000/svg" xmlns:xlink="http://www.w3.org/1999/xlink">
	<desc>
			Created with Pixso.
	</desc>
	<defs/>
	<rect id="feather-icon / stop-circle" rx="0.000000" width="23.000000" height="23.000000" transform="translate(0.500000 0.500000)" fill="#FFFFFF" fill-opacity="0"/>
	<path id="Oval (Stroke)" d="M1.5 12C1.5 6.2 6.2 1.5 12 1.5C17.79 1.5 22.5 6.2 22.5 12C22.5 17.79 17.79 22.5 12 22.5C6.2 22.5 1.5 17.79 1.5 12ZM12 2.5C6.75 2.5 2.5 6.75 2.5 12C2.5 17.24 6.75 21.5 12 21.5C17.24 21.5 21.5 17.24 21.5 12C21.5 6.75 17.24 2.5 12 2.5Z" fill="#414141" fill-opacity="1.000000" fill-rule="evenodd"/>
	<path id="Rectangle-path (Stroke)" d="M8.5 9C8.5 8.72 8.72 8.5 9 8.5L15 8.5C15.27 8.5 15.5 8.72 15.5 9L15.5 15C15.5 15.27 15.27 15.5 15 15.5L9 15.5C8.72 15.5 8.5 15.27 8.5 15L8.5 9ZM9.5 9.5L9.5 14.5L14.5 14.5L14.5 9.5L9.5 9.5Z" fill="#414141" fill-opacity="1.000000" fill-rule="evenodd"/>
</svg>
