<svg width="24.000000" height="24.000000" viewBox="0 0 24 24" fill="none" xmlns="http://www.w3.org/2000/svg" xmlns:xlink="http://www.w3.org/1999/xlink">
	<desc>
			Created with Pixso.
	</desc>
	<defs/>
	<rect id="feather-icon / navigation" rx="0.000000" width="23.000000" height="23.000000" transform="translate(0.500000 0.500000)" fill="#FFFFFF" fill-opacity="0"/>
	<path id="Shape (Stroke)" d="M21.35 2.64C21.5 2.79 21.54 3.02 21.45 3.21L12.45 22.21C12.36 22.4 12.16 22.51 11.95 22.49C11.74 22.47 11.56 22.32 11.51 22.12L9.58 14.41L1.87 12.48C1.67 12.43 1.52 12.25 1.5 12.04C1.48 11.83 1.59 11.63 1.78 11.54L20.78 2.54C20.97 2.45 21.2 2.49 21.35 2.64ZM3.47 11.85L10.12 13.51C10.3 13.55 10.43 13.69 10.48 13.87L12.14 20.52L19.94 4.05L3.47 11.85Z" fill="#414141" fill-opacity="1.000000" fill-rule="evenodd"/>
</svg>
