<svg width="24.000000" height="24.000000" viewBox="0 0 24 24" fill="none" xmlns="http://www.w3.org/2000/svg" xmlns:xlink="http://www.w3.org/1999/xlink">
	<desc>
			Created with Pixso.
	</desc>
	<defs/>
	<rect id="feather-icon / phone-outgoing" rx="0.000000" width="23.000000" height="23.000000" transform="translate(0.500000 0.500000)" fill="#FFFFFF" fill-opacity="0"/>
	<path id="Shape (Stroke)" d="M15.5 2C15.5 1.72 15.72 1.5 16 1.5L22 1.5C22.27 1.5 22.5 1.72 22.5 2L22.5 8C22.5 8.27 22.27 8.5 22 8.5C21.72 8.5 21.5 8.27 21.5 8L21.5 2.5L16 2.5C15.72 2.5 15.5 2.27 15.5 2Z" fill="#414141" fill-opacity="1.000000" fill-rule="evenodd"/>
	<path id="Shape (Stroke)" d="M22.35 1.64C22.54 1.84 22.54 2.15 22.35 2.35L15.35 9.35C15.15 9.54 14.84 9.54 14.64 9.35C14.45 9.15 14.45 8.84 14.64 8.64L21.64 1.64C21.84 1.45 22.15 1.45 22.35 1.64Z" fill="#414141" fill-opacity="1.000000" fill-rule="evenodd"/>
	<path id="Vector 188 (Stroke)" d="M0.53 5.62C0.29 3.78 1.87 2.5 3.57 2.5L7.16 2.5C7.89 2.5 8.51 3.01 8.64 3.73L9.25 7.06C9.42 8.06 9.17 9.08 8.53 9.87L7.81 10.78C7.68 10.94 7.67 11.15 7.77 11.32C8.24 12.08 9.08 13.37 9.85 14.14C10.62 14.91 11.91 15.75 12.68 16.22C12.84 16.32 13.05 16.31 13.21 16.18L14.12 15.46C14.91 14.83 15.93 14.57 16.93 14.75L20.26 15.35C20.98 15.48 21.5 16.1 21.5 16.83L21.5 20.18C21.5 22 20.05 23.62 18.11 23.31C14.8 22.78 10.07 21.07 6.13 16.84C2.31 12.72 0.89 8.51 0.53 5.62ZM3.57 3.5C2.31 3.5 1.38 4.41 1.52 5.5C1.86 8.19 3.19 12.2 6.86 16.15C10.61 20.19 15.13 21.81 18.27 22.32C19.47 22.51 20.5 21.52 20.5 20.18L20.5 16.83C20.5 16.59 20.32 16.38 20.09 16.34L16.75 15.73C16.04 15.6 15.31 15.79 14.74 16.24L13.84 16.96C13.36 17.34 12.69 17.4 12.15 17.08C11.39 16.61 10 15.71 9.14 14.85C8.28 13.99 7.39 12.6 6.92 11.84C6.59 11.3 6.65 10.63 7.03 10.15L7.75 9.25C8.2 8.68 8.39 7.95 8.26 7.24L7.65 3.91C7.61 3.67 7.4 3.5 7.16 3.5L3.57 3.5Z" fill="#414141" fill-opacity="1.000000" fill-rule="evenodd"/>
</svg>
