<svg width="24.000000" height="24.000000" viewBox="0 0 24 24" fill="none" xmlns="http://www.w3.org/2000/svg" xmlns:xlink="http://www.w3.org/1999/xlink">
	<desc>
			Created with Pixso.
	</desc>
	<defs/>
	<rect id="feather-icon / crop" rx="0.000000" width="23.000000" height="23.000000" transform="translate(0.500000 0.500000)" fill="#FFFFFF" fill-opacity="0"/>
	<path id="Shape (Stroke)" d="M6.13 0.5C6.41 0.5 6.63 0.72 6.63 1L6.5 16C6.5 16.82 7.17 17.5 8 17.5L23 17.5C23.27 17.5 23.5 17.72 23.5 18C23.5 18.27 23.27 18.5 23 18.5L8 18.5C6.61 18.5 5.5 17.38 5.5 16L5.5 15.99L5.5 15.99L5.63 0.99C5.63 0.71 5.85 0.49 6.13 0.5Z" fill="#414141" fill-opacity="1.000000" fill-rule="evenodd"/>
	<path id="Shape (Stroke)" d="M16 5.5C17.38 5.5 18.5 6.61 18.5 8L18.5 23C18.5 23.27 18.27 23.5 18 23.5C17.72 23.5 17.5 23.27 17.5 23L17.5 8C17.5 7.17 16.83 6.5 16 6.5L1 6.62C0.72 6.63 0.5 6.41 0.5 6.13C0.49 5.85 0.71 5.63 0.99 5.62L16 5.5Z" fill="#414141" fill-opacity="1.000000" fill-rule="evenodd"/>
</svg>
