<svg width="24.000000" height="24.000000" viewBox="0 0 24 24" fill="none" xmlns="http://www.w3.org/2000/svg" xmlns:xlink="http://www.w3.org/1999/xlink">
	<desc>
			Created with Pixso.
	</desc>
	<defs/>
	<rect id="feather-icon / fast-forward" rx="0.000000" width="23.000000" height="23.000000" transform="translate(0.500000 0.500000)" fill="#FFFFFF" fill-opacity="0"/>
	<path id="Shape (Stroke)" d="M12.78 4.55C12.95 4.46 13.15 4.48 13.3 4.6L22.3 11.6C22.42 11.7 22.5 11.84 22.5 12C22.5 12.15 22.42 12.29 22.3 12.39L13.3 19.39C13.15 19.51 12.95 19.53 12.78 19.44C12.6 19.36 12.5 19.19 12.5 19L12.5 5C12.5 4.8 12.6 4.63 12.78 4.55ZM13.5 6.02L13.5 17.97L21.18 12L13.5 6.02Z" fill="#414141" fill-opacity="1.000000" fill-rule="evenodd"/>
	<path id="Shape (Stroke)" d="M1.78 4.55C1.95 4.46 2.15 4.48 2.3 4.6L11.3 11.6C11.42 11.7 11.5 11.84 11.5 12C11.5 12.15 11.42 12.29 11.3 12.39L2.3 19.39C2.15 19.51 1.95 19.53 1.78 19.44C1.6 19.36 1.5 19.19 1.5 19L1.5 5C1.5 4.8 1.6 4.63 1.78 4.55ZM2.5 6.02L2.5 17.97L10.18 12L2.5 6.02Z" fill="#414141" fill-opacity="1.000000" fill-rule="evenodd"/>
</svg>
