<svg width="24.000000" height="24.000000" viewBox="0 0 24 24" fill="none" xmlns="http://www.w3.org/2000/svg" xmlns:xlink="http://www.w3.org/1999/xlink">
	<desc>
			Created with Pixso.
	</desc>
	<defs/>
	<rect id="feather-icon / repeat" rx="0.000000" width="23.000000" height="23.000000" transform="translate(0.500000 0.500000)" fill="#FFFFFF" fill-opacity="0"/>
	<path id="Shape (Stroke)" d="M16.64 0.64C16.84 0.45 17.15 0.45 17.35 0.64L21.35 4.64C21.54 4.84 21.54 5.15 21.35 5.35L17.35 9.35C17.15 9.54 16.84 9.54 16.64 9.35C16.45 9.15 16.45 8.84 16.64 8.64L20.29 5L16.64 1.35C16.45 1.15 16.45 0.84 16.64 0.64Z" fill="#414141" fill-opacity="1.000000" fill-rule="evenodd"/>
	<path id="Shape (Stroke)" d="M7 5.5C5.06 5.5 3.5 7.06 3.5 9L3.5 11C3.5 11.27 3.27 11.5 3 11.5C2.72 11.5 2.5 11.27 2.5 11L2.5 9C2.5 6.51 4.51 4.5 7 4.5L21 4.5C21.27 4.5 21.5 4.72 21.5 5C21.5 5.27 21.27 5.5 21 5.5L7 5.5Z" fill="#414141" fill-opacity="1.000000" fill-rule="evenodd"/>
	<path id="Shape (Stroke)" d="M7.35 14.64C7.54 14.84 7.54 15.15 7.35 15.35L3.7 19L7.35 22.64C7.54 22.84 7.54 23.15 7.35 23.35C7.15 23.54 6.84 23.54 6.64 23.35L2.64 19.35C2.45 19.15 2.45 18.84 2.64 18.64L6.64 14.64C6.84 14.45 7.15 14.45 7.35 14.64Z" fill="#414141" fill-opacity="1.000000" fill-rule="evenodd"/>
	<path id="Shape (Stroke)" d="M21 12.5C21.27 12.5 21.5 12.72 21.5 13L21.5 15C21.5 17.48 19.48 19.5 17 19.5L3 19.5C2.72 19.5 2.5 19.27 2.5 19C2.5 18.72 2.72 18.5 3 18.5L17 18.5C18.93 18.5 20.5 16.93 20.5 15L20.5 13C20.5 12.72 20.72 12.5 21 12.5Z" fill="#414141" fill-opacity="1.000000" fill-rule="evenodd"/>
</svg>
