<svg width="24.000000" height="24.000000" viewBox="0 0 24 24" fill="none" xmlns="http://www.w3.org/2000/svg" xmlns:xlink="http://www.w3.org/1999/xlink">
	<desc>
			Created with Pixso.
	</desc>
	<defs/>
	<rect id="feather-icon / edit-3" rx="0.000000" width="23.000000" height="23.000000" transform="translate(0.500000 0.500000)" fill="#FFFFFF" fill-opacity="0"/>
	<path id="Shape (Stroke)" d="M13.64 1.64C13.84 1.45 14.15 1.45 14.35 1.64L18.35 5.64C18.54 5.84 18.54 6.15 18.35 6.35L7.35 17.35C7.25 17.44 7.13 17.5 7 17.5L3 17.5C2.72 17.5 2.5 17.27 2.5 17L2.5 13C2.5 12.86 2.55 12.74 2.64 12.64L13.64 1.64ZM3.5 13.2L3.5 16.5L6.79 16.5L17.29 6L14 2.7L3.5 13.2Z" fill="#414141" fill-opacity="1.000000" fill-rule="evenodd"/>
	<path id="Shape (Stroke)" d="M2.5 22C2.5 21.72 2.72 21.5 3 21.5L21 21.5C21.27 21.5 21.5 21.72 21.5 22C21.5 22.27 21.27 22.5 21 22.5L3 22.5C2.72 22.5 2.5 22.27 2.5 22Z" fill="#414141" fill-opacity="1.000000" fill-rule="evenodd"/>
</svg>
