<svg width="24.000000" height="24.000000" viewBox="0 0 24 24" fill="none" xmlns="http://www.w3.org/2000/svg" xmlns:xlink="http://www.w3.org/1999/xlink">
	<desc>
			Created with Pixso.
	</desc>
	<defs/>
	<rect id="feather-icon / tag" rx="0.000000" width="23.000000" height="23.000000" transform="translate(0.500000 0.500000)" fill="#FFFFFF" fill-opacity="0"/>
	<path id="Shape (Stroke)" d="M1.5 2C1.5 1.72 1.72 1.5 2 1.5L12 1.5C12.13 1.5 12.25 1.55 12.35 1.64L20.94 10.23C21.91 11.21 21.91 12.78 20.94 13.76L20.94 13.76L13.77 20.93C13.3 21.4 12.66 21.66 12 21.66C11.34 21.66 10.7 21.4 10.23 20.93L1.64 12.35C1.55 12.25 1.5 12.13 1.5 12L1.5 2ZM2.5 2.5L2.5 11.79L10.94 20.22C11.22 20.5 11.6 20.66 12 20.66C12.4 20.66 12.78 20.5 13.06 20.22L20.23 13.05C20.23 13.05 20.23 13.05 20.23 13.05C20.81 12.47 20.81 11.52 20.23 10.94C20.23 10.94 20.23 10.94 20.23 10.94L11.79 2.5L2.5 2.5Z" fill="#414141" fill-opacity="1.000000" fill-rule="evenodd"/>
	<path id="Ellipse" d="M10 8.5C10 9.32 9.32 10 8.5 10C7.67 10 7 9.32 7 8.5C7 7.67 7.67 7 8.5 7C9.32 7 10 7.67 10 8.5Z" fill="#414141" fill-opacity="1.000000" fill-rule="nonzero"/>
</svg>
