<svg width="24.000000" height="24.000000" viewBox="0 0 24 24" fill="none" xmlns="http://www.w3.org/2000/svg" xmlns:xlink="http://www.w3.org/1999/xlink">
	<desc>
			Created with Pixso.
	</desc>
	<defs/>
	<rect id="feather-icon / chrome" rx="0.000000" width="23.000000" height="23.000000" transform="translate(0.500000 0.500000)" fill="#FFFFFF" fill-opacity="0"/>
	<path id="Oval (Stroke)" d="M1.5 12C1.5 6.2 6.2 1.5 12 1.5C17.79 1.5 22.5 6.2 22.5 12C22.5 17.79 17.79 22.5 12 22.5C6.2 22.5 1.5 17.79 1.5 12ZM12 2.5C6.75 2.5 2.5 6.75 2.5 12C2.5 17.24 6.75 21.5 12 21.5C17.24 21.5 21.5 17.24 21.5 12C21.5 6.75 17.24 2.5 12 2.5Z" fill="#414141" fill-opacity="1.000000" fill-rule="evenodd"/>
	<path id="Oval (Stroke)" d="M7.5 12C7.5 9.51 9.51 7.5 12 7.5C14.48 7.5 16.5 9.51 16.5 12C16.5 14.48 14.48 16.5 12 16.5C9.51 16.5 7.5 14.48 7.5 12ZM12 8.5C10.06 8.5 8.5 10.06 8.5 12C8.5 13.93 10.06 15.5 12 15.5C13.93 15.5 15.5 13.93 15.5 12C15.5 10.06 13.93 8.5 12 8.5Z" fill="#414141" fill-opacity="1.000000" fill-rule="evenodd"/>
	<path id="Shape (Stroke)" d="M11.5 8C11.5 7.72 11.72 7.5 12 7.5L21.16 7.5C21.44 7.5 21.66 7.72 21.66 8C21.66 8.27 21.44 8.5 21.16 8.5L12 8.5C11.72 8.5 11.5 8.27 11.5 8Z" fill="#414141" fill-opacity="1.000000" fill-rule="evenodd"/>
	<path id="Shape (Stroke)" d="M3.69 5.62C3.93 5.48 4.24 5.57 4.38 5.81L8.97 13.75C9.11 13.98 9.02 14.29 8.78 14.43C8.55 14.57 8.24 14.48 8.1 14.25L3.51 6.31C3.37 6.07 3.46 5.76 3.69 5.62Z" fill="#414141" fill-opacity="1.000000" fill-rule="evenodd"/>
	<path id="Shape (Stroke)" d="M15.7 13.56C15.94 13.7 16.02 14.01 15.89 14.25L11.31 22.18C11.17 22.42 10.86 22.51 10.62 22.37C10.39 22.23 10.3 21.92 10.44 21.69L15.02 13.75C15.16 13.51 15.46 13.42 15.7 13.56Z" fill="#414141" fill-opacity="1.000000" fill-rule="evenodd"/>
</svg>
