<svg width="24.000000" height="24.000000" viewBox="0 0 24 24" fill="none" xmlns="http://www.w3.org/2000/svg" xmlns:xlink="http://www.w3.org/1999/xlink">
	<desc>
			Created with Pixso.
	</desc>
	<defs/>
	<rect id="feather-icon / edit-2" rx="0.000000" width="23.000000" height="23.000000" transform="translate(0.500000 0.500000)" fill="#FFFFFF" fill-opacity="0"/>
	<path id="Shape (Stroke)" d="M15.64 2.64C15.84 2.45 16.15 2.45 16.35 2.64L21.35 7.64C21.54 7.84 21.54 8.15 21.35 8.35L8.35 21.35C8.25 21.44 8.13 21.5 8 21.5L3 21.5C2.72 21.5 2.5 21.27 2.5 21L2.5 16C2.5 15.86 2.55 15.74 2.64 15.64L15.64 2.64ZM3.5 16.2L3.5 20.5L7.79 20.5L20.29 8L16 3.7L3.5 16.2Z" fill="#414141" fill-opacity="1.000000" fill-rule="evenodd"/>
</svg>
