<svg width="24.000000" height="24.000000" viewBox="0 0 24 24" fill="none" xmlns="http://www.w3.org/2000/svg" xmlns:xlink="http://www.w3.org/1999/xlink">
	<desc>
			Created with Pixso.
	</desc>
	<defs/>
	<rect id="feather-icon / message-circle" rx="0.000000" width="23.000000" height="23.000000" transform="translate(0.500000 0.500000)" fill="#FFFFFF" fill-opacity="0"/>
	<path id="Shape (Stroke)" d="M12.49 3.5C11.25 3.49 10.03 3.78 8.92 4.34L8.92 4.34L8.92 4.34C6.21 5.7 4.5 8.47 4.5 11.5L4.5 11.5C4.49 12.74 4.78 13.96 5.34 15.07C5.4 15.19 5.41 15.33 5.37 15.45L3.79 20.2L8.54 18.62C8.66 18.58 8.8 18.59 8.92 18.65C10.03 19.21 11.25 19.5 12.49 19.5L12.5 19.5C15.52 19.49 18.29 17.78 19.65 15.07L19.65 15.07C20.21 13.96 20.5 12.74 20.5 11.5L21 11.5L20.5 11.5L20.5 11.01C20.26 6.96 17.03 3.73 12.98 3.5L12.5 3.5L12.49 3.5ZM21.5 11.49C21.5 11.49 21.5 11.49 21.5 11.49C21.5 12.89 21.17 14.27 20.54 15.52C19.02 18.57 15.9 20.49 12.5 20.5C11.17 20.5 9.86 20.2 8.66 19.63L3.15 21.47C2.97 21.53 2.78 21.48 2.64 21.35C2.51 21.21 2.46 21.02 2.52 20.84L4.36 15.33C3.79 14.13 3.49 12.82 3.5 11.49C3.5 11.49 3.5 11.49 3.5 11.49L4 11.5L3.5 11.5C3.5 11.49 3.5 11.49 3.5 11.49C3.5 8.09 5.42 4.97 8.47 3.45C8.47 3.45 8.47 3.45 8.47 3.45L8.69 3.89L8.47 3.45C8.47 3.45 8.47 3.45 8.47 3.45C9.72 2.82 11.1 2.49 12.5 2.5L13 2.5C13 2.5 13.01 2.5 13.02 2.5C17.59 2.75 21.24 6.4 21.5 10.97C21.5 10.98 21.5 10.99 21.5 11L21.5 11.49ZM12.5 20.5C12.5 20.5 12.5 20.5 12.5 20.5L12.5 20L12.5 20.5C12.5 20.5 12.5 20.5 12.5 20.5Z" fill="#414141" fill-opacity="1.000000" fill-rule="evenodd"/>
	<path id="Ellipse 11 (Stroke)" d="M9.5 12C9.77 12 10 11.77 10 11.5C10 11.22 9.77 11 9.5 11C9.22 11 9 11.22 9 11.5C9 11.77 9.22 12 9.5 12ZM9.5 13C10.32 13 11 12.32 11 11.5C11 10.67 10.32 10 9.5 10C8.67 10 8 10.67 8 11.5C8 12.32 8.67 13 9.5 13Z" fill="#414141" fill-opacity="1.000000" fill-rule="evenodd"/>
	<path id="Ellipse 13 (Stroke)" d="M15.5 12C15.77 12 16 11.77 16 11.5C16 11.22 15.77 11 15.5 11C15.22 11 15 11.22 15 11.5C15 11.77 15.22 12 15.5 12ZM15.5 13C16.32 13 17 12.32 17 11.5C17 10.67 16.32 10 15.5 10C14.67 10 14 10.67 14 11.5C14 12.32 14.67 13 15.5 13Z" fill="#414141" fill-opacity="1.000000" fill-rule="evenodd"/>
</svg>
