<svg width="25.000000" height="25.000000" viewBox="0 0 25 25" fill="none" xmlns="http://www.w3.org/2000/svg" xmlns:xlink="http://www.w3.org/1999/xlink">
	<desc>
			Created with Pixso.
	</desc>
	<defs/>
	<rect id="feather-icon / airplay" rx="0.000000" width="24.000000" height="24.000000" transform="translate(0.500000 0.500000)" fill="#FFFFFF" fill-opacity="0"/>
	<path id="Shape (Stroke)" d="M4.16 2.6C3.3 2.6 2.6 3.3 2.6 4.16L2.6 14.58C2.6 15.44 3.3 16.14 4.16 16.14L5.2 16.14C5.49 16.14 5.72 16.37 5.72 16.66C5.72 16.95 5.49 17.18 5.2 17.18L4.16 17.18C2.72 17.18 1.56 16.02 1.56 14.58L1.56 4.16C1.56 2.72 2.72 1.56 4.16 1.56L20.83 1.56C22.27 1.56 23.43 2.72 23.43 4.16L23.43 14.58C23.43 16.02 22.27 17.18 20.83 17.18L19.79 17.18C19.5 17.18 19.27 16.95 19.27 16.66C19.27 16.37 19.5 16.14 19.79 16.14L20.83 16.14C21.69 16.14 22.39 15.44 22.39 14.58L22.39 4.16C22.39 3.3 21.69 2.6 20.83 2.6L4.16 2.6Z" fill="#414141" fill-opacity="1.000000" fill-rule="evenodd"/>
	<path id="Shape (Stroke)" d="M8.4 20.31L16.59 20.31L12.5 15.39L8.4 20.31ZM12.5 14.58L12.09 14.25L6.89 20.5C6.76 20.65 6.73 20.87 6.82 21.05C6.9 21.23 7.08 21.35 7.29 21.35L17.7 21.35C17.91 21.35 18.09 21.23 18.17 21.05C18.26 20.87 18.23 20.65 18.1 20.5L12.9 14.25L12.5 14.58Z" fill="#414141" fill-opacity="1.000000" fill-rule="evenodd"/>
</svg>
