<svg width="24.000000" height="24.000000" viewBox="0 0 24 24" fill="none" xmlns="http://www.w3.org/2000/svg" xmlns:xlink="http://www.w3.org/1999/xlink">
	<desc>
			Created with Pixso.
	</desc>
	<defs/>
	<rect id="feather-icon / watch" rx="0.000000" width="23.000000" height="23.000000" transform="translate(0.500000 0.500000)" fill="#FFFFFF" fill-opacity="0"/>
	<path id="Oval (Stroke)" d="M4.5 12C4.5 7.85 7.85 4.5 12 4.5C16.14 4.5 19.5 7.85 19.5 12C19.5 16.14 16.14 19.5 12 19.5C7.85 19.5 4.5 16.14 4.5 12ZM12 5.5C8.41 5.5 5.5 8.41 5.5 12C5.5 15.58 8.41 18.5 12 18.5C15.58 18.5 18.5 15.58 18.5 12C18.5 8.41 15.58 5.5 12 5.5Z" fill="#414141" fill-opacity="1.000000" fill-rule="evenodd"/>
	<path id="Shape (Stroke)" d="M12 8.5C12.27 8.5 12.5 8.72 12.5 9L12.5 11.79L13.85 13.14C14.04 13.34 14.04 13.65 13.85 13.85C13.65 14.04 13.34 14.04 13.14 13.85L11.64 12.35C11.55 12.25 11.5 12.13 11.5 12L11.5 9C11.5 8.72 11.72 8.5 12 8.5Z" fill="#414141" fill-opacity="1.000000" fill-rule="evenodd"/>
	<path id="Path (Stroke)" d="M7.33 21.22L6.98 17.39L7.97 17.3L7.33 21.22Z" fill="#414141" fill-opacity="1.000000" fill-rule="evenodd"/>
	<path id="Path (Stroke)" d="M15.67 2.86C15.6 2.08 14.95 1.49 14.17 1.5L14.17 1.5L9.82 1.5C9.05 1.5 8.4 2.09 8.33 2.86L7.98 6.69L6.99 6.6L7.33 2.77C7.45 1.48 8.53 0.5 9.82 0.5L14.17 0.5L15.67 2.86ZM15.67 2.86L16.02 6.69L15.67 2.86ZM16.02 6.69L17.02 6.6L16.02 6.69ZM17.02 6.6L16.67 2.77L17.02 6.6Z" fill="#414141" fill-opacity="1.000000" fill-rule="evenodd"/>
</svg>
