<svg width="24.000000" height="24.000000" viewBox="0 0 24 24" fill="none" xmlns="http://www.w3.org/2000/svg" xmlns:xlink="http://www.w3.org/1999/xlink">
	<desc>
			Created with Pixso.
	</desc>
	<defs/>
	<rect id="feather-icon / share-2" rx="0.000000" width="23.000000" height="23.000000" transform="translate(0.500000 0.500000)" fill="#FFFFFF" fill-opacity="0"/>
	<path id="Oval (Stroke)" d="M14.5 5C14.5 3.06 16.06 1.5 18 1.5C19.93 1.5 21.5 3.06 21.5 5C21.5 6.93 19.93 8.5 18 8.5C16.06 8.5 14.5 6.93 14.5 5ZM18 2.5C16.61 2.5 15.5 3.61 15.5 5C15.5 6.38 16.61 7.5 18 7.5C19.38 7.5 20.5 6.38 20.5 5C20.5 3.61 19.38 2.5 18 2.5Z" fill="#414141" fill-opacity="1.000000" fill-rule="evenodd"/>
	<path id="Oval (Stroke)" d="M2.5 12C2.5 10.06 4.06 8.5 6 8.5C7.93 8.5 9.5 10.06 9.5 12C9.5 13.93 7.93 15.5 6 15.5C4.06 15.5 2.5 13.93 2.5 12ZM6 9.5C4.61 9.5 3.5 10.61 3.5 12C3.5 13.38 4.61 14.5 6 14.5C7.38 14.5 8.5 13.38 8.5 12C8.5 10.61 7.38 9.5 6 9.5Z" fill="#414141" fill-opacity="1.000000" fill-rule="evenodd"/>
	<path id="Oval (Stroke)" d="M14.5 19C14.5 17.06 16.06 15.5 18 15.5C19.93 15.5 21.5 17.06 21.5 19C21.5 20.93 19.93 22.5 18 22.5C16.06 22.5 14.5 20.93 14.5 19ZM18 16.5C16.61 16.5 15.5 17.61 15.5 19C15.5 20.38 16.61 21.5 18 21.5C19.38 21.5 20.5 20.38 20.5 19C20.5 17.61 19.38 16.5 18 16.5Z" fill="#414141" fill-opacity="1.000000" fill-rule="evenodd"/>
	<path id="Shape (Stroke)" d="M8.15 13.25C8.29 13.01 8.6 12.93 8.84 13.07L15.67 17.05C15.91 17.19 15.99 17.5 15.85 17.74C15.71 17.98 15.4 18.06 15.16 17.92L8.33 13.94C8.09 13.8 8.01 13.49 8.15 13.25Z" fill="#414141" fill-opacity="1.000000" fill-rule="evenodd"/>
	<path id="Shape (Stroke)" d="M15.84 6.25C15.98 6.49 15.9 6.8 15.66 6.94L8.84 10.92C8.6 11.06 8.29 10.98 8.15 10.74C8.01 10.5 8.09 10.19 8.33 10.05L15.15 6.07C15.39 5.93 15.7 6.01 15.84 6.25Z" fill="#414141" fill-opacity="1.000000" fill-rule="evenodd"/>
</svg>
