<svg width="24.000000" height="24.000000" viewBox="0 0 24 24" fill="none" xmlns="http://www.w3.org/2000/svg" xmlns:xlink="http://www.w3.org/1999/xlink">
	<desc>
			Created with Pixso.
	</desc>
	<defs/>
	<rect id="feather-icon / share" rx="0.000000" width="23.000000" height="23.000000" transform="translate(0.500000 0.500000)" fill="#FFFFFF" fill-opacity="0"/>
	<path id="Shape (Stroke)" d="M4 11.5C4.27 11.5 4.5 11.72 4.5 12L4.5 20C4.5 20.82 5.17 21.5 6 21.5L18 21.5C18.82 21.5 19.5 20.82 19.5 20L19.5 12C19.5 11.72 19.72 11.5 20 11.5C20.27 11.5 20.5 11.72 20.5 12L20.5 20C20.5 21.38 19.38 22.5 18 22.5L6 22.5C4.61 22.5 3.5 21.38 3.5 20L3.5 12C3.5 11.72 3.72 11.5 4 11.5Z" fill="#414141" fill-opacity="1.000000" fill-rule="evenodd"/>
	<path id="Shape (Stroke)" d="M11.64 1.64C11.84 1.45 12.15 1.45 12.35 1.64L16.35 5.64C16.54 5.84 16.54 6.15 16.35 6.35C16.15 6.54 15.84 6.54 15.64 6.35L12 2.7L8.35 6.35C8.15 6.54 7.84 6.54 7.64 6.35C7.45 6.15 7.45 5.84 7.64 5.64L11.64 1.64Z" fill="#414141" fill-opacity="1.000000" fill-rule="evenodd"/>
	<path id="Shape (Stroke)" d="M12 1.5C12.27 1.5 12.5 1.72 12.5 2L12.5 15C12.5 15.27 12.27 15.5 12 15.5C11.72 15.5 11.5 15.27 11.5 15L11.5 2C11.5 1.72 11.72 1.5 12 1.5Z" fill="#414141" fill-opacity="1.000000" fill-rule="evenodd"/>
</svg>
