<svg width="24.000000" height="24.000000" viewBox="0 0 24 24" fill="none" xmlns="http://www.w3.org/2000/svg" xmlns:xlink="http://www.w3.org/1999/xlink">
	<desc>
			Created with Pixso.
	</desc>
	<defs/>
	<rect id="feather-icon / music" rx="0.000000" width="23.000000" height="23.000000" transform="translate(0.500000 0.500000)" fill="#FFFFFF" fill-opacity="0"/>
	<path id="Shape (Stroke)" d="M14.5 17C14.5 15.61 15.61 14.5 17 14.5L21 14.5C21.27 14.5 21.5 14.72 21.5 15L21.5 17C21.5 18.38 20.38 19.5 19 19.5L17 19.5C15.61 19.5 14.5 18.38 14.5 17ZM17 15.5C16.17 15.5 15.5 16.17 15.5 17C15.5 17.82 16.17 18.5 17 18.5L19 18.5C19.82 18.5 20.5 17.82 20.5 17L20.5 15.5L17 15.5ZM2.5 19C2.5 17.61 3.61 16.5 5 16.5L9 16.5C9.27 16.5 9.5 16.72 9.5 17L9.5 19C9.5 20.38 8.38 21.5 7 21.5L5 21.5C3.61 21.5 2.5 20.38 2.5 19ZM5 17.5C4.17 17.5 3.5 18.17 3.5 19C3.5 19.82 4.17 20.5 5 20.5L7 20.5C7.82 20.5 8.5 19.82 8.5 19L8.5 17.5L5 17.5Z" fill="#414141" fill-opacity="1.000000" fill-rule="evenodd"/>
	<path id="Shape (Stroke)" d="M21.32 2.61C21.43 2.71 21.5 2.85 21.5 3L21.5 15C21.5 15.27 21.27 15.5 21 15.5C20.72 15.5 20.5 15.27 20.5 15L20.5 3.59L9.5 5.42L9.5 17C9.5 17.27 9.27 17.5 9 17.5C8.72 17.5 8.5 17.27 8.5 17L8.5 5C8.5 4.75 8.67 4.54 8.91 4.5L20.91 2.5C21.06 2.48 21.21 2.52 21.32 2.61Z" fill="#414141" fill-opacity="1.000000" fill-rule="evenodd"/>
</svg>
