<svg width="24.000000" height="24.000000" viewBox="0 0 24 24" fill="none" xmlns="http://www.w3.org/2000/svg" xmlns:xlink="http://www.w3.org/1999/xlink">
	<desc>
			Created with Pixso.
	</desc>
	<defs/>
	<rect id="feather-icon / disc" rx="0.000000" width="23.000000" height="23.000000" transform="translate(0.500000 0.500000)" fill="#FFFFFF" fill-opacity="0"/>
	<path id="Oval (Stroke)" d="M1.5 12C1.5 6.2 6.2 1.5 12 1.5C17.79 1.5 22.5 6.2 22.5 12C22.5 17.79 17.79 22.5 12 22.5C6.2 22.5 1.5 17.79 1.5 12ZM12 2.5C6.75 2.5 2.5 6.75 2.5 12C2.5 17.24 6.75 21.5 12 21.5C17.24 21.5 21.5 17.24 21.5 12C21.5 6.75 17.24 2.5 12 2.5Z" fill="#414141" fill-opacity="1.000000" fill-rule="evenodd"/>
	<path id="Oval (Stroke)" d="M8.5 12C8.5 10.06 10.06 8.5 12 8.5C13.93 8.5 15.5 10.06 15.5 12C15.5 13.93 13.93 15.5 12 15.5C10.06 15.5 8.5 13.93 8.5 12ZM12 9.5C10.61 9.5 9.5 10.61 9.5 12C9.5 13.38 10.61 14.5 12 14.5C13.38 14.5 14.5 13.38 14.5 12C14.5 10.61 13.38 9.5 12 9.5Z" fill="#414141" fill-opacity="1.000000" fill-rule="evenodd"/>
</svg>
