<svg width="24.500000" height="24.000000" viewBox="0 0 24.5 24" fill="none" xmlns="http://www.w3.org/2000/svg" xmlns:xlink="http://www.w3.org/1999/xlink">
	<desc>
			Created with Pixso.
	</desc>
	<defs/>
	<rect id="feather-icon / cloud-snow" rx="0.000000" width="23.000000" height="23.000000" transform="translate(0.500000 0.500000)" fill="#FFFFFF" fill-opacity="0"/>
	<path id="Union (Stroke)" d="M9 4.5C4.85 4.5 1.5 7.85 1.5 12C1.5 14.36 2.59 16.48 4.31 17.85C4.52 18.02 4.56 18.34 4.39 18.55C4.21 18.77 3.9 18.8 3.68 18.63C1.74 17.07 0.5 14.68 0.5 12C0.5 7.3 4.3 3.5 9 3.5C12.93 3.5 16.24 6.17 17.21 9.79C17.77 9.6 18.37 9.5 19 9.5C22.03 9.5 24.5 11.96 24.5 15C24.5 18.03 22.03 20.5 19 20.5C18.72 20.5 18.5 20.27 18.5 20C18.5 19.72 18.72 19.5 19 19.5C21.48 19.5 23.5 17.48 23.5 15C23.5 12.51 21.48 10.5 19 10.5C18.3 10.5 17.65 10.65 17.07 10.93C16.93 10.99 16.76 10.99 16.63 10.92C16.49 10.85 16.39 10.72 16.36 10.57C15.69 7.11 12.65 4.5 9 4.5Z" fill="#414141" fill-opacity="1.000000" fill-rule="evenodd"/>
</svg>
