<svg width="24.000000" height="24.000000" viewBox="0 0 24 24" fill="none" xmlns="http://www.w3.org/2000/svg" xmlns:xlink="http://www.w3.org/1999/xlink">
	<desc>
			Created with Pixso.
	</desc>
	<defs/>
	<rect id="feather-icon / log-out" rx="0.000000" width="23.000000" height="23.000000" transform="translate(0.500000 0.500000)" fill="#FFFFFF" fill-opacity="0"/>
	<path id="Shape (Stroke)" d="M5 2.5C4.17 2.5 3.5 3.17 3.5 4L3.5 20C3.5 20.82 4.17 21.5 5 21.5L10 21.5C10.27 21.5 10.5 21.72 10.5 22C10.5 22.27 10.27 22.5 10 22.5L5 22.5C3.61 22.5 2.5 21.38 2.5 20L2.5 4C2.5 2.61 3.61 1.5 5 1.5L10 1.5C10.27 1.5 10.5 1.72 10.5 2C10.5 2.27 10.27 2.5 10 2.5L5 2.5Z" fill="#414141" fill-opacity="1.000000" fill-rule="evenodd"/>
	<path id="Shape (Stroke)" d="M16.64 7.64C16.84 7.45 17.15 7.45 17.35 7.64L21.35 11.64C21.54 11.84 21.54 12.15 21.35 12.35L17.35 16.35C17.15 16.54 16.84 16.54 16.64 16.35C16.45 16.15 16.45 15.84 16.64 15.64L20.29 12L16.64 8.35C16.45 8.15 16.45 7.84 16.64 7.64Z" fill="#414141" fill-opacity="1.000000" fill-rule="evenodd"/>
	<path id="Shape (Stroke)" d="M8.5 12C8.5 11.72 8.72 11.5 9 11.5L21 11.5C21.27 11.5 21.5 11.72 21.5 12C21.5 12.27 21.27 12.5 21 12.5L9 12.5C8.72 12.5 8.5 12.27 8.5 12Z" fill="#414141" fill-opacity="1.000000" fill-rule="evenodd"/>
</svg>
