<svg width="24.500000" height="24.000000" viewBox="0 0 24.5 24" fill="none" xmlns="http://www.w3.org/2000/svg" xmlns:xlink="http://www.w3.org/1999/xlink">
	<desc>
			Created with Pixso.
	</desc>
	<defs/>
	<rect id="feather-icon / cloud-rain" rx="0.000000" width="23.000000" height="23.000000" transform="translate(0.500000 0.500000)" fill="#FFFFFF" fill-opacity="0"/>
	<path id="Vector (Stroke)" d="M8 12.5C8.27 12.5 8.5 12.72 8.5 13L8.5 21C8.5 21.27 8.27 21.5 8 21.5C7.72 21.5 7.5 21.27 7.5 21L7.5 13C7.5 12.72 7.72 12.5 8 12.5ZM16 12.5C16.27 12.5 16.5 12.72 16.5 13L16.5 21C16.5 21.27 16.27 21.5 16 21.5C15.72 21.5 15.5 21.27 15.5 21L15.5 13C15.5 12.72 15.72 12.5 16 12.5ZM12 14.5C12.27 14.5 12.5 14.72 12.5 15L12.5 23C12.5 23.27 12.27 23.5 12 23.5C11.72 23.5 11.5 23.27 11.5 23L11.5 15C11.5 14.72 11.72 14.5 12 14.5Z" fill="#414141" fill-opacity="1.000000" fill-rule="evenodd"/>
	<path id="Union (Stroke)" d="M9 1.5C4.85 1.5 1.5 4.85 1.5 9C1.5 11.36 2.59 13.48 4.31 14.85C4.52 15.02 4.56 15.34 4.39 15.55C4.21 15.77 3.9 15.8 3.68 15.63C1.74 14.07 0.5 11.68 0.5 9C0.5 4.3 4.3 0.5 9 0.5C12.93 0.5 16.24 3.17 17.21 6.79C17.77 6.6 18.37 6.5 19 6.5C22.03 6.5 24.5 8.96 24.5 12C24.5 15.03 22.03 17.5 19 17.5C18.72 17.5 18.5 17.27 18.5 17C18.5 16.72 18.72 16.5 19 16.5C21.48 16.5 23.5 14.48 23.5 12C23.5 9.51 21.48 7.5 19 7.5C18.3 7.5 17.65 7.65 17.07 7.93C16.93 7.99 16.76 7.99 16.63 7.92C16.49 7.85 16.39 7.72 16.36 7.57C15.69 4.11 12.65 1.5 9 1.5Z" fill="#414141" fill-opacity="1.000000" fill-rule="evenodd"/>
</svg>
