<svg width="24.000000" height="24.000000" viewBox="0 0 24 24" fill="none" xmlns="http://www.w3.org/2000/svg" xmlns:xlink="http://www.w3.org/1999/xlink">
	<desc>
			Created with Pixso.
	</desc>
	<defs/>
	<rect id="feather-icon / link-2" rx="0.000000" width="23.000000" height="23.000000" transform="translate(0.500000 0.500000)" fill="#FFFFFF" fill-opacity="0"/>
	<path id="Shape (Stroke)" d="M6 7.5C3.51 7.5 1.5 9.51 1.5 12C1.5 13.19 1.97 14.33 2.81 15.18C3.66 16.02 4.8 16.5 6 16.5L9 16.5C9.27 16.5 9.5 16.72 9.5 17C9.5 17.27 9.27 17.5 9 17.5L6 17.5C4.54 17.5 3.14 16.92 2.11 15.88C1.08 14.85 0.5 13.45 0.5 12C0.5 8.96 2.96 6.5 6 6.5L9 6.5C9.27 6.5 9.5 6.72 9.5 7C9.5 7.27 9.27 7.5 9 7.5L6 7.5ZM14.5 7C14.5 6.72 14.72 6.5 15 6.5L18 6.5C19.45 6.5 20.85 7.07 21.88 8.11C22.91 9.14 23.5 10.54 23.5 12C23.5 15.03 21.03 17.5 18 17.5L15 17.5C14.72 17.5 14.5 17.27 14.5 17C14.5 16.72 14.72 16.5 15 16.5L18 16.5C20.48 16.5 22.5 14.48 22.5 12C22.5 10.8 22.02 9.66 21.18 8.81C20.33 7.97 19.19 7.5 18 7.5L15 7.5C14.72 7.5 14.5 7.27 14.5 7Z" fill="#414141" fill-opacity="1.000000" fill-rule="evenodd"/>
	<path id="Shape (Stroke)" d="M7.5 12C7.5 11.72 7.72 11.5 8 11.5L16 11.5C16.27 11.5 16.5 11.72 16.5 12C16.5 12.27 16.27 12.5 16 12.5L8 12.5C7.72 12.5 7.5 12.27 7.5 12Z" fill="#414141" fill-opacity="1.000000" fill-rule="evenodd"/>
</svg>
