<svg width="24.000000" height="24.000000" viewBox="0 0 24 24" fill="none" xmlns="http://www.w3.org/2000/svg" xmlns:xlink="http://www.w3.org/1999/xlink">
	<desc>
			Created with Pixso.
	</desc>
	<defs/>
	<rect id="feather-icon / aperture" rx="0.000000" width="23.000000" height="23.000000" transform="translate(0.500000 0.500000)" fill="#FFFFFF" fill-opacity="0"/>
	<path id="Oval (Stroke)" d="M1.5 12C1.5 6.2 6.2 1.5 12 1.5C17.79 1.5 22.5 6.2 22.5 12C22.5 17.79 17.79 22.5 12 22.5C6.2 22.5 1.5 17.79 1.5 12ZM12 2.5C6.75 2.5 2.5 6.75 2.5 12C2.5 17.24 6.75 21.5 12 21.5C17.24 21.5 21.5 17.24 21.5 12C21.5 6.75 17.24 2.5 12 2.5Z" fill="#414141" fill-opacity="1.000000" fill-rule="evenodd"/>
	<path id="Shape (Stroke)" d="M14.05 7.56C14.29 7.42 14.6 7.51 14.74 7.75L20.48 17.68C20.61 17.92 20.53 18.23 20.29 18.37C20.06 18.51 19.75 18.42 19.61 18.18L13.87 8.25C13.73 8.01 13.82 7.7 14.05 7.56Z" fill="#414141" fill-opacity="1.000000" fill-rule="evenodd"/>
	<path id="Shape (Stroke)" d="M9.19 8C9.19 7.72 9.41 7.5 9.69 7.5L21.17 7.5C21.44 7.5 21.67 7.72 21.67 8C21.67 8.27 21.44 8.5 21.17 8.5L9.69 8.5C9.41 8.5 9.19 8.27 9.19 8Z" fill="#414141" fill-opacity="1.000000" fill-rule="evenodd"/>
	<path id="Shape (Stroke)" d="M13.36 1.62C13.6 1.76 13.68 2.07 13.55 2.31L7.81 12.25C7.67 12.48 7.36 12.57 7.12 12.43C6.89 12.29 6.8 11.98 6.94 11.75L12.68 1.81C12.82 1.57 13.13 1.48 13.36 1.62Z" fill="#414141" fill-opacity="1.000000" fill-rule="evenodd"/>
	<path id="Shape (Stroke)" d="M3.69 5.62C3.93 5.48 4.24 5.57 4.38 5.81L10.12 15.75C10.25 15.98 10.17 16.29 9.93 16.43C9.7 16.57 9.39 16.48 9.25 16.25L3.51 6.31C3.37 6.07 3.46 5.76 3.69 5.62Z" fill="#414141" fill-opacity="1.000000" fill-rule="evenodd"/>
	<path id="Shape (Stroke)" d="M2.32 16C2.32 15.72 2.55 15.5 2.82 15.5L14.3 15.5C14.58 15.5 14.8 15.72 14.8 16C14.8 16.27 14.58 16.5 14.3 16.5L2.82 16.5C2.55 16.5 2.32 16.27 2.32 16Z" fill="#414141" fill-opacity="1.000000" fill-rule="evenodd"/>
	<path id="Shape (Stroke)" d="M16.86 11.56C17.1 11.7 17.18 12.01 17.05 12.25L11.31 22.18C11.17 22.42 10.86 22.51 10.62 22.37C10.39 22.23 10.3 21.92 10.44 21.68L16.18 11.75C16.32 11.51 16.63 11.42 16.86 11.56Z" fill="#414141" fill-opacity="1.000000" fill-rule="evenodd"/>
</svg>
