<svg width="24.000000" height="24.000000" viewBox="0 0 24 24" fill="none" xmlns="http://www.w3.org/2000/svg" xmlns:xlink="http://www.w3.org/1999/xlink">
	<desc>
			Created with Pixso.
	</desc>
	<defs/>
	<rect id="feather-icon / volume" rx="0.000000" width="23.000000" height="23.000000" transform="translate(0.500000 0.500000)" fill="#FFFFFF" fill-opacity="0"/>
	<path id="Shape (Stroke)" d="M16.21 4.54C16.39 4.63 16.5 4.8 16.5 5L16.5 19C16.5 19.19 16.39 19.36 16.21 19.45C16.04 19.53 15.83 19.51 15.68 19.39L10.82 15.5L7 15.5C6.72 15.5 6.5 15.27 6.5 15L6.5 9C6.5 8.72 6.72 8.5 7 8.5L10.82 8.5L15.68 4.6C15.83 4.48 16.04 4.46 16.21 4.54ZM15.5 6.04L11.31 9.39C11.22 9.46 11.11 9.5 11 9.5L7.5 9.5L7.5 14.5L11 14.5C11.11 14.5 11.22 14.53 11.31 14.6L15.5 17.95L15.5 6.04Z" fill="#414141" fill-opacity="1.000000" fill-rule="evenodd"/>
</svg>
