<svg width="24.000000" height="24.000000" viewBox="0 0 24 24" fill="none" xmlns="http://www.w3.org/2000/svg" xmlns:xlink="http://www.w3.org/1999/xlink">
	<desc>
			Created with Pixso.
	</desc>
	<defs/>
	<rect id="feather-icon / sunset" rx="0.000000" width="23.000000" height="23.000000" transform="translate(0.500000 0.500000)" fill="#FFFFFF" fill-opacity="0"/>
	<path id="Shape (Stroke)" d="M6.5 17C6.5 13.96 8.96 11.5 12 11.5C15.03 11.5 17.5 13.96 17.5 17C17.5 17.27 17.27 17.5 17 17.5C16.72 17.5 16.5 17.27 16.5 17C16.5 14.51 14.48 12.5 12 12.5C9.51 12.5 7.5 14.51 7.5 17C7.5 17.27 7.27 17.5 7 17.5C6.72 17.5 6.5 17.27 6.5 17Z" fill="#414141" fill-opacity="1.000000" fill-rule="evenodd"/>
	<path id="Shape (Stroke)" d="M12 0.5C12.27 0.5 12.5 0.72 12.5 1L12.5 8C12.5 8.27 12.27 8.5 12 8.5C11.72 8.5 11.5 8.27 11.5 8L11.5 1C11.5 0.72 11.72 0.5 12 0.5Z" fill="#414141" fill-opacity="1.000000" fill-rule="evenodd"/>
	<path id="Shape (Stroke)" d="M3.86 8.86C4.06 8.67 4.37 8.67 4.57 8.86L5.99 10.28C6.18 10.48 6.18 10.79 5.99 10.99C5.79 11.18 5.48 11.18 5.28 10.99L3.86 9.57C3.66 9.37 3.66 9.06 3.86 8.86Z" fill="#414141" fill-opacity="1.000000" fill-rule="evenodd"/>
	<path id="Shape (Stroke)" d="M0.5 17C0.5 16.72 0.72 16.5 1 16.5L3 16.5C3.27 16.5 3.5 16.72 3.5 17C3.5 17.27 3.27 17.5 3 17.5L1 17.5C0.72 17.5 0.5 17.27 0.5 17Z" fill="#414141" fill-opacity="1.000000" fill-rule="evenodd"/>
	<path id="Shape (Stroke)" d="M20.5 17C20.5 16.72 20.72 16.5 21 16.5L23 16.5C23.27 16.5 23.5 16.72 23.5 17C23.5 17.27 23.27 17.5 23 17.5L21 17.5C20.72 17.5 20.5 17.27 20.5 17Z" fill="#414141" fill-opacity="1.000000" fill-rule="evenodd"/>
	<path id="Shape (Stroke)" d="M20.13 8.86C20.32 9.06 20.32 9.37 20.13 9.57L18.71 10.99C18.51 11.18 18.2 11.18 18 10.99C17.81 10.79 17.81 10.48 18 10.28L19.42 8.86C19.62 8.67 19.93 8.67 20.13 8.86Z" fill="#414141" fill-opacity="1.000000" fill-rule="evenodd"/>
	<path id="Shape (Stroke)" d="M0.5 21C0.5 20.72 0.72 20.5 1 20.5L23 20.5C23.27 20.5 23.5 20.72 23.5 21C23.5 21.27 23.27 21.5 23 21.5L1 21.5C0.72 21.5 0.5 21.27 0.5 21Z" fill="#414141" fill-opacity="1.000000" fill-rule="evenodd"/>
	<path id="Shape (Stroke)" d="M7.64 3.64C7.84 3.45 8.15 3.45 8.35 3.64L12 7.29L15.64 3.64C15.84 3.45 16.15 3.45 16.35 3.64C16.54 3.84 16.54 4.15 16.35 4.35L12.35 8.35C12.15 8.54 11.84 8.54 11.64 8.35L7.64 4.35C7.45 4.15 7.45 3.84 7.64 3.64Z" fill="#414141" fill-opacity="1.000000" fill-rule="evenodd"/>
</svg>
