<svg width="24.000000" height="24.000000" viewBox="0 0 24 24" fill="none" xmlns="http://www.w3.org/2000/svg" xmlns:xlink="http://www.w3.org/1999/xlink">
	<desc>
			Created with Pixso.
	</desc>
	<defs/>
	<rect id="feather-icon / compass" rx="0.000000" width="23.000000" height="23.000000" transform="translate(0.500000 0.500000)" fill="#FFFFFF" fill-opacity="0"/>
	<path id="Oval (Stroke)" d="M1.5 12C1.5 6.2 6.2 1.5 12 1.5C17.79 1.5 22.5 6.2 22.5 12C22.5 17.79 17.79 22.5 12 22.5C6.2 22.5 1.5 17.79 1.5 12ZM12 2.5C6.75 2.5 2.5 6.75 2.5 12C2.5 17.24 6.75 21.5 12 21.5C17.24 21.5 21.5 17.24 21.5 12C21.5 6.75 17.24 2.5 12 2.5Z" fill="#414141" fill-opacity="1.000000" fill-rule="evenodd"/>
	<path id="Shape (Stroke)" d="M16.59 7.4C16.72 7.54 16.77 7.73 16.71 7.91L14.59 14.27C14.54 14.42 14.42 14.54 14.27 14.59L7.91 16.71C7.74 16.77 7.54 16.72 7.4 16.59C7.27 16.45 7.22 16.26 7.28 16.08L9.4 9.72C9.45 9.57 9.57 9.45 9.72 9.4L16.08 7.28C16.26 7.22 16.46 7.27 16.59 7.4ZM10.27 10.27L8.55 15.44L13.72 13.72L15.45 8.55L10.27 10.27Z" fill="#414141" fill-opacity="1.000000" fill-rule="evenodd"/>
</svg>
