<svg width="24.000000" height="24.000000" viewBox="0 0 24 24" fill="none" xmlns="http://www.w3.org/2000/svg" xmlns:xlink="http://www.w3.org/1999/xlink">
	<desc>
			Created with Pixso.
	</desc>
	<defs/>
	<rect id="feather-icon / film" rx="0.000000" width="23.000000" height="23.000000" transform="translate(0.500000 0.500000)" fill="#FFFFFF" fill-opacity="0"/>
	<path id="Rectangle-path (Stroke)" d="M1.5 4.18C1.5 2.69 2.69 1.5 4.17 1.5L19.82 1.5C21.3 1.5 22.5 2.69 22.5 4.18L22.5 19.81C22.5 21.3 21.3 22.5 19.82 22.5L4.17 22.5C2.69 22.5 1.5 21.3 1.5 19.81L1.5 4.18ZM4.17 2.5C3.25 2.5 2.5 3.25 2.5 4.18L2.5 19.81C2.5 20.74 3.25 21.5 4.17 21.5L19.82 21.5C20.74 21.5 21.5 20.74 21.5 19.81L21.5 4.18C21.5 3.25 20.74 2.5 19.82 2.5L4.17 2.5Z" fill="#414141" fill-opacity="1.000000" fill-rule="evenodd"/>
	<path id="Shape (Stroke)" d="M7 1.5C7.27 1.5 7.5 1.72 7.5 2L7.5 22C7.5 22.27 7.27 22.5 7 22.5C6.72 22.5 6.5 22.27 6.5 22L6.5 2C6.5 1.72 6.72 1.5 7 1.5Z" fill="#414141" fill-opacity="1.000000" fill-rule="evenodd"/>
	<path id="Shape (Stroke)" d="M17 1.5C17.27 1.5 17.5 1.72 17.5 2L17.5 22C17.5 22.27 17.27 22.5 17 22.5C16.72 22.5 16.5 22.27 16.5 22L16.5 2C16.5 1.72 16.72 1.5 17 1.5Z" fill="#414141" fill-opacity="1.000000" fill-rule="evenodd"/>
	<path id="Shape (Stroke)" d="M1.5 12C1.5 11.72 1.72 11.5 2 11.5L22 11.5C22.27 11.5 22.5 11.72 22.5 12C22.5 12.27 22.27 12.5 22 12.5L2 12.5C1.72 12.5 1.5 12.27 1.5 12Z" fill="#414141" fill-opacity="1.000000" fill-rule="evenodd"/>
	<path id="Shape (Stroke)" d="M1.5 7C1.5 6.72 1.72 6.5 2 6.5L7 6.5C7.27 6.5 7.5 6.72 7.5 7C7.5 7.27 7.27 7.5 7 7.5L2 7.5C1.72 7.5 1.5 7.27 1.5 7Z" fill="#414141" fill-opacity="1.000000" fill-rule="evenodd"/>
	<path id="Shape (Stroke)" d="M1.5 17C1.5 16.72 1.72 16.5 2 16.5L7 16.5C7.27 16.5 7.5 16.72 7.5 17C7.5 17.27 7.27 17.5 7 17.5L2 17.5C1.72 17.5 1.5 17.27 1.5 17Z" fill="#414141" fill-opacity="1.000000" fill-rule="evenodd"/>
	<path id="Shape (Stroke)" d="M16.5 17C16.5 16.72 16.72 16.5 17 16.5L22 16.5C22.27 16.5 22.5 16.72 22.5 17C22.5 17.27 22.27 17.5 22 17.5L17 17.5C16.72 17.5 16.5 17.27 16.5 17Z" fill="#414141" fill-opacity="1.000000" fill-rule="evenodd"/>
	<path id="Shape (Stroke)" d="M16.5 7C16.5 6.72 16.72 6.5 17 6.5L22 6.5C22.27 6.5 22.5 6.72 22.5 7C22.5 7.27 22.27 7.5 22 7.5L17 7.5C16.72 7.5 16.5 7.27 16.5 7Z" fill="#414141" fill-opacity="1.000000" fill-rule="evenodd"/>
</svg>
