<svg width="24.000000" height="24.000000" viewBox="0 0 24 24" fill="none" xmlns="http://www.w3.org/2000/svg" xmlns:xlink="http://www.w3.org/1999/xlink">
	<desc>
			Created with Pixso.
	</desc>
	<defs/>
	<rect id="feather-icon / pause" rx="0.000000" width="23.000000" height="23.000000" transform="translate(0.500000 0.500000)" fill="#FFFFFF" fill-opacity="0"/>
	<path id="Rectangle-path (Stroke)" d="M5.5 4C5.5 3.72 5.72 3.5 6 3.5L10 3.5C10.27 3.5 10.5 3.72 10.5 4L10.5 20C10.5 20.27 10.27 20.5 10 20.5L6 20.5C5.72 20.5 5.5 20.27 5.5 20L5.5 4ZM6.5 4.5L6.5 19.5L9.5 19.5L9.5 4.5L6.5 4.5Z" fill="#414141" fill-opacity="1.000000" fill-rule="evenodd"/>
	<path id="Rectangle-path (Stroke)" d="M13.5 4C13.5 3.72 13.72 3.5 14 3.5L18 3.5C18.27 3.5 18.5 3.72 18.5 4L18.5 20C18.5 20.27 18.27 20.5 18 20.5L14 20.5C13.72 20.5 13.5 20.27 13.5 20L13.5 4ZM14.5 4.5L14.5 19.5L17.5 19.5L17.5 4.5L14.5 4.5Z" fill="#414141" fill-opacity="1.000000" fill-rule="evenodd"/>
</svg>
