<svg width="24.000000" height="24.000000" viewBox="0 0 24 24" fill="none" xmlns="http://www.w3.org/2000/svg" xmlns:xlink="http://www.w3.org/1999/xlink">
	<desc>
			Created with Pixso.
	</desc>
	<defs/>
	<rect id="feather-icon / battery" rx="0.000000" width="23.000000" height="23.000000" transform="translate(0.500000 0.500000)" fill="#FFFFFF" fill-opacity="0"/>
	<path id="Rectangle-path (Stroke)" d="M0.5 8C0.5 6.61 1.61 5.5 3 5.5L17 5.5C18.38 5.5 19.5 6.61 19.5 8L19.5 16C19.5 17.38 18.38 18.5 17 18.5L3 18.5C1.61 18.5 0.5 17.38 0.5 16L0.5 8ZM3 6.5C2.17 6.5 1.5 7.17 1.5 8L1.5 16C1.5 16.82 2.17 17.5 3 17.5L17 17.5C17.82 17.5 18.5 16.82 18.5 16L18.5 8C18.5 7.17 17.82 6.5 17 6.5L3 6.5Z" fill="#414141" fill-opacity="1.000000" fill-rule="evenodd"/>
	<path id="Shape (Stroke)" d="M23 10.5C23.27 10.5 23.5 10.72 23.5 11L23.5 13C23.5 13.27 23.27 13.5 23 13.5C22.72 13.5 22.5 13.27 22.5 13L22.5 11C22.5 10.72 22.72 10.5 23 10.5Z" fill="#414141" fill-opacity="1.000000" fill-rule="evenodd"/>
</svg>
