<svg width="25.000000" height="25.000000" viewBox="0 0 25 25" fill="none" xmlns="http://www.w3.org/2000/svg" xmlns:xlink="http://www.w3.org/1999/xlink">
	<desc>
			Created with Pixso.
	</desc>
	<defs/>
	<rect id="feather-icon / bell-off" rx="0.000000" width="24.000000" height="24.000000" transform="translate(0.500000 0.500000)" fill="#FFFFFF" fill-opacity="0"/>
	<path id="Shape (Stroke)" d="M15.91 3.52C13.83 2.31 11.26 2.29 9.17 3.47C8.91 3.61 8.6 3.52 8.46 3.27C8.32 3.02 8.4 2.7 8.66 2.56C11.07 1.2 14.04 1.22 16.43 2.62C18.83 4.02 20.31 6.59 20.31 9.37L19.79 9.37L20.31 9.37L20.31 9.37L20.31 13.54C20.31 13.82 20.07 14.06 19.79 14.06C19.5 14.06 19.26 13.82 19.26 13.54L19.26 9.37L19.26 9.37C19.27 6.96 17.99 4.73 15.91 3.52ZM6.25 5.55C6.51 5.68 6.61 6 6.48 6.25C5.98 7.22 5.72 8.29 5.72 9.37L5.72 9.37L5.72 14.58C5.72 15.6 5.31 16.52 4.63 17.18L17.7 17.18C17.99 17.18 18.22 17.42 18.22 17.7C18.22 17.99 17.99 18.22 17.7 18.22L2.08 18.22C1.79 18.22 1.56 17.99 1.56 17.7C1.56 17.42 1.79 17.18 2.08 17.18C3.52 17.18 4.68 16.02 4.68 14.58L4.68 9.37L6.25 5.55ZM10.43 21.42C10.68 21.27 11 21.36 11.14 21.61C11.42 22.09 11.94 22.39 12.5 22.39C13.05 22.39 13.57 22.09 13.85 21.61C13.99 21.36 14.31 21.27 14.56 21.42C14.81 21.56 14.89 21.88 14.75 22.13C14.28 22.93 13.42 23.43 12.5 23.43C11.57 23.43 10.71 22.93 10.24 22.13C10.1 21.88 10.18 21.56 10.43 21.42Z" fill="#414141" fill-opacity="1.000000" fill-rule="evenodd"/>
	<path id="Shape (Stroke)" d="M0.67 0.67C0.87 0.47 1.2 0.47 1.41 0.67L24.32 23.59C24.53 23.79 24.53 24.12 24.32 24.32C24.12 24.53 23.79 24.53 23.58 24.32L0.67 1.41C0.47 1.2 0.47 0.87 0.67 0.67Z" fill="#414141" fill-opacity="1.000000" fill-rule="evenodd"/>
</svg>
