<svg width="24.000000" height="24.000000" viewBox="0 0 24 24" fill="none" xmlns="http://www.w3.org/2000/svg" xmlns:xlink="http://www.w3.org/1999/xlink">
	<desc>
			Created with Pixso.
	</desc>
	<defs/>
	<rect id="feather-icon / chevrons-right" rx="0.000000" width="23.000000" height="23.000000" transform="translate(0.500000 0.500000)" fill="#FFFFFF" fill-opacity="0"/>
	<path id="Shape (Stroke)" d="M12.64 6.64C12.84 6.45 13.15 6.45 13.35 6.64L18.35 11.64C18.54 11.84 18.54 12.15 18.35 12.35L13.35 17.35C13.15 17.54 12.84 17.54 12.64 17.35C12.45 17.15 12.45 16.84 12.64 16.64L17.29 12L12.64 7.35C12.45 7.15 12.45 6.84 12.64 6.64Z" fill="#414141" fill-opacity="1.000000" fill-rule="evenodd"/>
	<path id="Shape (Stroke)" d="M5.64 6.64C5.84 6.45 6.15 6.45 6.35 6.64L11.35 11.64C11.54 11.84 11.54 12.15 11.35 12.35L6.35 17.35C6.15 17.54 5.84 17.54 5.64 17.35C5.45 17.15 5.45 16.84 5.64 16.64L10.29 12L5.64 7.35C5.45 7.15 5.45 6.84 5.64 6.64Z" fill="#414141" fill-opacity="1.000000" fill-rule="evenodd"/>
</svg>
