<svg width="24.000000" height="24.000000" viewBox="0 0 24 24" fill="none" xmlns="http://www.w3.org/2000/svg" xmlns:xlink="http://www.w3.org/1999/xlink">
	<desc>
			Created with Pixso.
	</desc>
	<defs/>
	<rect id="feather-icon / settings" rx="0.000000" width="23.000000" height="23.000000" transform="translate(0.500000 0.500000)" fill="#FFFFFF" fill-opacity="0"/>
	<path id="Oval (Stroke)" d="M8.5 12C8.5 10.06 10.06 8.5 12 8.5C13.93 8.5 15.5 10.06 15.5 12C15.5 13.93 13.93 15.5 12 15.5C10.06 15.5 8.5 13.93 8.5 12ZM12 9.5C10.61 9.5 9.5 10.61 9.5 12C9.5 13.38 10.61 14.5 12 14.5C13.38 14.5 14.5 13.38 14.5 12C14.5 10.61 13.38 9.5 12 9.5Z" fill="#414141" fill-opacity="1.000000" fill-rule="evenodd"/>
	<path id="Shape (Stroke)" d="M12 1.5C11.17 1.5 10.5 2.17 10.5 3L10.5 3.16L10.5 3.17C10.49 4.02 9.98 4.8 9.19 5.13C9.14 5.16 9.08 5.17 9.01 5.17C8.23 5.47 7.35 5.29 6.75 4.7L6.74 4.7L6.68 4.64C6.4 4.36 6.02 4.2 5.62 4.2C5.22 4.2 4.84 4.36 4.56 4.64C4.28 4.92 4.12 5.3 4.12 5.7C4.12 6.1 4.28 6.48 4.56 6.76L4.62 6.83C5.23 7.45 5.41 8.38 5.06 9.18C4.75 10 3.97 10.55 3.1 10.58L3.08 10.58L3 10.58C2.17 10.58 1.5 11.25 1.5 12.08C1.5 12.9 2.17 13.58 3 13.58L3.17 13.58C4.02 13.58 4.8 14.09 5.13 14.88C5.49 15.68 5.32 16.62 4.7 17.24L4.7 17.25L4.64 17.31C4.36 17.59 4.2 17.97 4.2 18.37C4.2 18.77 4.36 19.15 4.64 19.43C4.92 19.71 5.3 19.87 5.7 19.87C6.1 19.87 6.48 19.71 6.76 19.43L6.83 19.37C7.45 18.76 8.38 18.58 9.18 18.93C10 19.24 10.55 20.02 10.58 20.89L10.58 20.91L10.58 21C10.58 21.82 11.25 22.5 12.08 22.5C12.9 22.5 13.58 21.82 13.58 21L13.58 20.83L13.58 20.82C13.58 19.97 14.09 19.19 14.88 18.86C15.68 18.5 16.62 18.67 17.25 19.29L17.25 19.29L17.31 19.35C17.59 19.63 17.97 19.79 18.37 19.79C18.77 19.79 19.15 19.63 19.43 19.35C19.71 19.07 19.87 18.69 19.87 18.29C19.87 17.89 19.71 17.51 19.43 17.23L19.37 17.16C18.75 16.54 18.58 15.6 18.94 14.8C19.27 14.01 20.05 13.5 20.9 13.5L20.91 13.5L21 13.5C21.82 13.5 22.5 12.82 22.5 12C22.5 11.17 21.82 10.5 21 10.5L20.83 10.5L20.82 10.5C19.97 10.49 19.19 9.98 18.86 9.19C18.83 9.14 18.82 9.08 18.82 9.01C18.52 8.23 18.7 7.35 19.29 6.75L19.29 6.74L19.35 6.68C19.63 6.4 19.79 6.02 19.79 5.62C19.79 5.22 19.63 4.84 19.35 4.56C19.07 4.28 18.69 4.12 18.29 4.12C17.89 4.12 17.51 4.28 17.23 4.56L17.16 4.62C16.54 5.24 15.6 5.41 14.8 5.05C14.01 4.72 13.5 3.94 13.5 3.09L13.5 3.08L13.5 3C13.5 2.17 12.82 1.5 12 1.5ZM9.5 3C9.5 1.61 10.61 0.5 12 0.5C13.38 0.5 14.5 1.61 14.5 3L14.5 3.08C14.5 3.54 14.77 3.95 15.19 4.14L15.2 4.14C15.63 4.33 16.13 4.24 16.46 3.91L16.52 3.85C16.99 3.38 17.63 3.12 18.29 3.12C18.95 3.12 19.59 3.38 20.06 3.85C20.53 4.32 20.79 4.96 20.79 5.62C20.79 6.28 20.53 6.92 20.06 7.39L20 7.45C19.67 7.78 19.58 8.28 19.77 8.71C19.8 8.77 19.81 8.82 19.81 8.88C20.01 9.25 20.4 9.49 20.83 9.5L21 9.5C22.38 9.5 23.5 10.61 23.5 12C23.5 13.38 22.38 14.5 21 14.5L20.91 14.5C20.45 14.5 20.03 14.77 19.85 15.19L19.85 15.2C19.66 15.63 19.75 16.13 20.08 16.46L20.14 16.52C20.61 16.99 20.87 17.63 20.87 18.29C20.87 18.95 20.61 19.59 20.14 20.06C19.67 20.53 19.03 20.79 18.37 20.79C17.71 20.79 17.07 20.53 16.6 20.06L16.54 20C16.21 19.67 15.71 19.58 15.28 19.77L15.27 19.77C14.85 19.95 14.58 20.37 14.58 20.83L14.58 21C14.58 22.38 13.46 23.5 12.08 23.5C10.69 23.5 9.58 22.38 9.58 21L9.58 20.91C9.56 20.44 9.26 20.03 8.82 19.86C8.81 19.86 8.8 19.86 8.79 19.85C8.36 19.66 7.86 19.75 7.53 20.08L7.47 20.14C7 20.61 6.36 20.87 5.7 20.87C5.04 20.87 4.4 20.61 3.93 20.14C3.46 19.67 3.2 19.03 3.2 18.37C3.2 17.71 3.46 17.07 3.93 16.6L3.99 16.54C4.32 16.21 4.41 15.71 4.22 15.28L4.22 15.27C4.03 14.85 3.62 14.58 3.16 14.58L3 14.58C1.61 14.58 0.5 13.46 0.5 12.08C0.5 10.69 1.61 9.58 3 9.58L3.08 9.58C3.55 9.56 3.96 9.26 4.13 8.82C4.13 8.81 4.13 8.8 4.14 8.79C4.33 8.36 4.24 7.86 3.91 7.53L3.85 7.47C3.38 7 3.12 6.36 3.12 5.7C3.12 5.04 3.38 4.4 3.85 3.93C4.32 3.46 4.96 3.2 5.62 3.2C6.28 3.2 6.92 3.46 7.39 3.93L7.45 3.99C7.78 4.32 8.28 4.41 8.71 4.22C8.77 4.19 8.82 4.18 8.88 4.18C9.25 3.98 9.49 3.59 9.5 3.16L9.5 3Z" fill="#414141" fill-opacity="1.000000" fill-rule="evenodd"/>
</svg>
