<svg width="24.000000" height="24.000000" viewBox="0 0 24 24" fill="none" xmlns="http://www.w3.org/2000/svg" xmlns:xlink="http://www.w3.org/1999/xlink">
	<desc>
			Created with Pixso.
	</desc>
	<defs/>
	<rect id="feather-icon / award" rx="0.000000" width="23.000000" height="23.000000" transform="translate(0.500000 0.500000)" fill="#FFFFFF" fill-opacity="0"/>
	<path id="Oval (Stroke)" d="M4.5 8C4.5 3.85 7.85 0.5 12 0.5C16.14 0.5 19.5 3.85 19.5 8C19.5 12.14 16.14 15.5 12 15.5C7.85 15.5 4.5 12.14 4.5 8ZM12 1.5C8.41 1.5 5.5 4.41 5.5 8C5.5 11.58 8.41 14.5 12 14.5C15.58 14.5 18.5 11.58 18.5 8C18.5 4.41 15.58 1.5 12 1.5Z" fill="#414141" fill-opacity="1.000000" fill-rule="evenodd"/>
	<path id="Shape (Stroke)" d="M15.72 13.38C15.99 13.34 16.25 13.54 16.28 13.81L17.49 22.93C17.52 23.12 17.43 23.31 17.27 23.41C17.11 23.52 16.9 23.52 16.74 23.42L12 20.58L7.25 23.42C7.09 23.52 6.88 23.52 6.72 23.41C6.56 23.31 6.47 23.12 6.5 22.93L7.71 13.82C7.75 13.55 8 13.35 8.27 13.39C8.54 13.43 8.74 13.68 8.7 13.95L7.63 22.03L11.74 19.57C11.9 19.47 12.09 19.47 12.25 19.57L16.36 22.03L15.29 13.94C15.25 13.67 15.45 13.42 15.72 13.38Z" fill="#414141" fill-opacity="1.000000" fill-rule="evenodd"/>
</svg>
