<svg width="24.000000" height="24.000000" viewBox="0 0 24 24" fill="none" xmlns="http://www.w3.org/2000/svg" xmlns:xlink="http://www.w3.org/1999/xlink">
	<desc>
			Created with Pixso.
	</desc>
	<defs/>
	<rect id="feather-icon / maximize-2" rx="0.000000" width="23.000000" height="23.000000" transform="translate(0.500000 0.500000)" fill="#FFFFFF" fill-opacity="0"/>
	<path id="Shape (Stroke)" d="M14.5 3C14.5 2.72 14.72 2.5 15 2.5L21 2.5C21.27 2.5 21.5 2.72 21.5 3L21.5 9C21.5 9.27 21.27 9.5 21 9.5C20.72 9.5 20.5 9.27 20.5 9L20.5 3.5L15 3.5C14.72 3.5 14.5 3.27 14.5 3Z" fill="#414141" fill-opacity="1.000000" fill-rule="evenodd"/>
	<path id="Shape (Stroke)" d="M3 14.5C3.27 14.5 3.5 14.72 3.5 15L3.5 20.5L9 20.5C9.27 20.5 9.5 20.72 9.5 21C9.5 21.27 9.27 21.5 9 21.5L3 21.5C2.72 21.5 2.5 21.27 2.5 21L2.5 15C2.5 14.72 2.72 14.5 3 14.5Z" fill="#414141" fill-opacity="1.000000" fill-rule="evenodd"/>
	<path id="Shape (Stroke)" d="M21.35 2.64C21.54 2.84 21.54 3.15 21.35 3.35L14.35 10.35C14.15 10.54 13.84 10.54 13.64 10.35C13.45 10.15 13.45 9.84 13.64 9.64L20.64 2.64C20.84 2.45 21.15 2.45 21.35 2.64Z" fill="#414141" fill-opacity="1.000000" fill-rule="evenodd"/>
	<path id="Shape (Stroke)" d="M10.35 13.64C10.54 13.84 10.54 14.15 10.35 14.35L3.35 21.35C3.15 21.54 2.84 21.54 2.64 21.35C2.45 21.15 2.45 20.84 2.64 20.64L9.64 13.64C9.84 13.45 10.15 13.45 10.35 13.64Z" fill="#414141" fill-opacity="1.000000" fill-rule="evenodd"/>
</svg>
