<svg width="25.000000" height="25.000000" viewBox="0 0 25 25" fill="none" xmlns="http://www.w3.org/2000/svg" xmlns:xlink="http://www.w3.org/1999/xlink">
	<desc>
			Created with Pixso.
	</desc>
	<defs/>
	<rect id="feather-icon / bookmark" rx="0.000000" width="24.000000" height="24.000000" transform="translate(0.500000 0.500000)" fill="#FFFFFF" fill-opacity="0"/>
	<path id="Shape (Stroke)" d="M7.29 3.64C6.42 3.64 5.72 4.34 5.72 5.2L5.72 20.86L12.19 16.24C12.37 16.11 12.62 16.11 12.8 16.24L19.27 20.86L19.27 5.2C19.27 4.34 18.57 3.64 17.7 3.64L7.29 3.64ZM4.68 5.2C4.68 3.77 5.85 2.6 7.29 2.6L17.7 2.6C19.14 2.6 20.31 3.77 20.31 5.2L20.31 21.87C20.31 22.06 20.2 22.24 20.02 22.33C19.85 22.42 19.64 22.41 19.48 22.29L12.5 17.3L5.51 22.29C5.35 22.41 5.14 22.42 4.97 22.33C4.79 22.24 4.68 22.06 4.68 21.87L4.68 5.2Z" fill="#414141" fill-opacity="1.000000" fill-rule="evenodd"/>
</svg>
