<svg width="24.000000" height="24.000000" viewBox="0 0 24 24" fill="none" xmlns="http://www.w3.org/2000/svg" xmlns:xlink="http://www.w3.org/1999/xlink">
	<desc>
			Created with Pixso.
	</desc>
	<defs/>
	<rect id="feather-icon / trending-up" rx="0.000000" width="23.000000" height="23.000000" transform="translate(0.500000 0.500000)" fill="#FFFFFF" fill-opacity="0"/>
	<path id="Shape (Stroke)" d="M23.35 5.64C23.54 5.84 23.54 6.15 23.35 6.35L13.85 15.85C13.65 16.04 13.34 16.04 13.14 15.85L8.5 11.2L1.35 18.35C1.15 18.54 0.84 18.54 0.64 18.35C0.45 18.15 0.45 17.84 0.64 17.64L8.14 10.14C8.34 9.95 8.65 9.95 8.85 10.14L13.5 14.79L22.64 5.64C22.84 5.45 23.15 5.45 23.35 5.64Z" fill="#414141" fill-opacity="1.000000" fill-rule="evenodd"/>
	<path id="Shape (Stroke)" d="M16.5 6C16.5 5.72 16.72 5.5 17 5.5L23 5.5C23.27 5.5 23.5 5.72 23.5 6L23.5 12C23.5 12.27 23.27 12.5 23 12.5C22.72 12.5 22.5 12.27 22.5 12L22.5 6.5L17 6.5C16.72 6.5 16.5 6.27 16.5 6Z" fill="#414141" fill-opacity="1.000000" fill-rule="evenodd"/>
</svg>
