<svg width="24.000000" height="24.000000" viewBox="0 0 24 24" fill="none" xmlns="http://www.w3.org/2000/svg" xmlns:xlink="http://www.w3.org/1999/xlink">
	<desc>
			Created with Pixso.
	</desc>
	<defs/>
	<rect id="feather-icon / bag" rx="0.000000" width="23.000000" height="23.000000" transform="translate(0.500000 0.500000)" fill="#C4C4C4" fill-opacity="0"/>
	<path id="Rectangle 6259 (Stroke)" d="M7.65 5.43C7.87 3.2 9.75 1.5 12 1.5C14.24 1.5 16.12 3.2 16.34 5.43L16.49 6.95L15.5 7.04L15.34 5.53C15.17 3.81 13.73 2.5 12 2.5C10.26 2.5 8.82 3.81 8.64 5.53L8.49 7.04L7.5 6.95L7.65 5.43Z" fill="#414141" fill-opacity="1.000000" fill-rule="evenodd"/>
	<path id="Rectangle 6258 (Stroke)" d="M18.06 7L5.93 7L5.06 21L18.93 21L18.06 7ZM5.93 6C5.41 6 4.97 6.41 4.94 6.93L4.06 20.93C4.03 21.51 4.48 22 5.06 22L18.93 22C19.51 22 19.96 21.51 19.93 20.93L19.05 6.93C19.02 6.41 18.58 6 18.06 6L5.93 6Z" fill="#414141" fill-opacity="1.000000" fill-rule="evenodd"/>
</svg>
