<svg width="24.000000" height="24.000000" viewBox="0 0 24 24" fill="none" xmlns="http://www.w3.org/2000/svg" xmlns:xlink="http://www.w3.org/1999/xlink">
	<desc>
			Created with Pixso.
	</desc>
	<defs/>
	<rect id="feather-icon / loader" rx="0.000000" width="23.000000" height="23.000000" transform="translate(0.500000 0.500000)" fill="#FFFFFF" fill-opacity="0"/>
	<path id="Shape (Stroke)" d="M12 1.5C12.27 1.5 12.5 1.72 12.5 2L12.5 6C12.5 6.27 12.27 6.5 12 6.5C11.72 6.5 11.5 6.27 11.5 6L11.5 2C11.5 1.72 11.72 1.5 12 1.5Z" fill="#414141" fill-opacity="1.000000" fill-rule="evenodd"/>
	<path id="Shape (Stroke)" d="M12 17.5C12.27 17.5 12.5 17.72 12.5 18L12.5 22C12.5 22.27 12.27 22.5 12 22.5C11.72 22.5 11.5 22.27 11.5 22L11.5 18C11.5 17.72 11.72 17.5 12 17.5Z" fill="#414141" fill-opacity="1.000000" fill-rule="evenodd"/>
	<path id="Shape (Stroke)" d="M4.57 4.57C4.77 4.38 5.08 4.38 5.28 4.57L8.11 7.4C8.3 7.6 8.3 7.91 8.11 8.11C7.91 8.3 7.6 8.3 7.4 8.11L4.57 5.28C4.38 5.08 4.38 4.77 4.57 4.57Z" fill="#414141" fill-opacity="1.000000" fill-rule="evenodd"/>
	<path id="Shape (Stroke)" d="M15.88 15.88C16.08 15.69 16.39 15.69 16.59 15.88L19.42 18.71C19.61 18.91 19.61 19.22 19.42 19.42C19.22 19.61 18.91 19.61 18.71 19.42L15.88 16.59C15.68 16.39 15.68 16.08 15.88 15.88Z" fill="#414141" fill-opacity="1.000000" fill-rule="evenodd"/>
	<path id="Shape (Stroke)" d="M1.5 12C1.5 11.72 1.72 11.5 2 11.5L6 11.5C6.27 11.5 6.5 11.72 6.5 12C6.5 12.27 6.27 12.5 6 12.5L2 12.5C1.72 12.5 1.5 12.27 1.5 12Z" fill="#414141" fill-opacity="1.000000" fill-rule="evenodd"/>
	<path id="Shape (Stroke)" d="M17.5 12C17.5 11.72 17.72 11.5 18 11.5L22 11.5C22.27 11.5 22.5 11.72 22.5 12C22.5 12.27 22.27 12.5 22 12.5L18 12.5C17.72 12.5 17.5 12.27 17.5 12Z" fill="#414141" fill-opacity="1.000000" fill-rule="evenodd"/>
	<path id="Shape (Stroke)" d="M8.11 15.88C8.3 16.08 8.3 16.39 8.11 16.59L5.28 19.42C5.08 19.61 4.77 19.61 4.57 19.42C4.38 19.22 4.38 18.91 4.57 18.71L7.4 15.88C7.6 15.69 7.91 15.69 8.11 15.88Z" fill="#414141" fill-opacity="1.000000" fill-rule="evenodd"/>
	<path id="Shape (Stroke)" d="M19.42 4.57C19.61 4.77 19.61 5.08 19.42 5.28L16.59 8.11C16.39 8.3 16.08 8.3 15.88 8.11C15.68 7.91 15.68 7.6 15.88 7.4L18.71 4.57C18.91 4.38 19.22 4.38 19.42 4.57Z" fill="#414141" fill-opacity="1.000000" fill-rule="evenodd"/>
</svg>
