<svg width="24.000000" height="24.000000" viewBox="0 0 24 24" fill="none" xmlns="http://www.w3.org/2000/svg" xmlns:xlink="http://www.w3.org/1999/xlink">
	<desc>
			Created with Pixso.
	</desc>
	<defs/>
	<rect id="feather-icon / toggle-right" rx="0.000000" width="23.000000" height="23.000000" transform="translate(0.500000 0.500000)" fill="#FFFFFF" fill-opacity="0"/>
	<path id="Rectangle-path (Stroke)" d="M0.5 12C0.5 7.85 3.85 4.5 8 4.5L16 4.5C20.14 4.5 23.5 7.85 23.5 12C23.5 16.14 20.14 19.5 16 19.5L8 19.5C3.85 19.5 0.5 16.14 0.5 12ZM8 5.5C4.41 5.5 1.5 8.41 1.5 12C1.5 15.58 4.41 18.5 8 18.5L16 18.5C19.58 18.5 22.5 15.58 22.5 12C22.5 8.41 19.58 5.5 16 5.5L8 5.5Z" fill="#414141" fill-opacity="1.000000" fill-rule="evenodd"/>
	<path id="Oval (Stroke)" d="M12.5 12C12.5 10.06 14.06 8.5 16 8.5C17.93 8.5 19.5 10.06 19.5 12C19.5 13.93 17.93 15.5 16 15.5C14.06 15.5 12.5 13.93 12.5 12ZM16 9.5C14.61 9.5 13.5 10.61 13.5 12C13.5 13.38 14.61 14.5 16 14.5C17.38 14.5 18.5 13.38 18.5 12C18.5 10.61 17.38 9.5 16 9.5Z" fill="#414141" fill-opacity="1.000000" fill-rule="evenodd"/>
</svg>
