<svg width="24.000000" height="24.000000" viewBox="0 0 24 24" fill="none" xmlns="http://www.w3.org/2000/svg" xmlns:xlink="http://www.w3.org/1999/xlink">
	<desc>
			Created with Pixso.
	</desc>
	<defs/>
	<rect id="feather-icon / image" rx="0.000000" width="23.000000" height="23.000000" transform="translate(0.500000 0.500000)" fill="#FFFFFF" fill-opacity="0"/>
	<path id="Rectangle-path (Stroke)" d="M2.5 5C2.5 3.61 3.61 2.5 5 2.5L19 2.5C20.38 2.5 21.5 3.61 21.5 5L21.5 19C21.5 20.38 20.38 21.5 19 21.5L5 21.5C3.61 21.5 2.5 20.38 2.5 19L2.5 5ZM5 3.5C4.17 3.5 3.5 4.17 3.5 5L3.5 19C3.5 19.82 4.17 20.5 5 20.5L19 20.5C19.82 20.5 20.5 19.82 20.5 19L20.5 5C20.5 4.17 19.82 3.5 19 3.5L5 3.5Z" fill="#414141" fill-opacity="1.000000" fill-rule="evenodd"/>
	<path id="Oval (Stroke)" d="M6.5 8.5C6.5 7.39 7.39 6.5 8.5 6.5C9.6 6.5 10.5 7.39 10.5 8.5C10.5 9.6 9.6 10.5 8.5 10.5C7.39 10.5 6.5 9.6 6.5 8.5ZM8.5 7.5C7.94 7.5 7.5 7.94 7.5 8.5C7.5 9.05 7.94 9.5 8.5 9.5C9.05 9.5 9.5 9.05 9.5 8.5C9.5 7.94 9.05 7.5 8.5 7.5Z" fill="#414141" fill-opacity="1.000000" fill-rule="evenodd"/>
	<path id="Shape (Stroke)" d="M15.64 9.64C15.84 9.45 16.15 9.45 16.35 9.64L21.35 14.64C21.54 14.84 21.54 15.15 21.35 15.35C21.15 15.54 20.84 15.54 20.64 15.35L16 10.7L5.35 21.35C5.15 21.54 4.84 21.54 4.64 21.35C4.45 21.15 4.45 20.84 4.64 20.64L15.64 9.64Z" fill="#414141" fill-opacity="1.000000" fill-rule="evenodd"/>
</svg>
