<svg width="24.000000" height="24.000000" viewBox="0 0 24 24" fill="none" xmlns="http://www.w3.org/2000/svg" xmlns:xlink="http://www.w3.org/1999/xlink">
	<desc>
			Created with Pixso.
	</desc>
	<defs/>
	<rect id="feather-icon / alert-triangle" rx="0.000000" width="23.000000" height="23.000000" transform="translate(0.500000 0.500000)" fill="#FFFFFF" fill-opacity="0"/>
	<path id="Shape (Stroke)" d="M9.86 4.6C10.31 3.85 11.12 3.39 11.99 3.39C12.87 3.39 13.68 3.85 14.13 4.6L14.13 4.6L22.61 18.75C23.05 19.51 23.05 20.46 22.61 21.23C22.17 22.01 21.36 22.49 20.47 22.5L20.46 22.5L3.52 22.5C2.63 22.49 1.81 22.01 1.37 21.23C0.93 20.46 0.94 19.51 1.38 18.75L1.39 18.74L9.85 4.6L9.86 4.6ZM10.71 5.11C10.71 5.11 10.71 5.11 10.71 5.11L2.25 19.25C1.98 19.71 1.98 20.28 2.24 20.74C2.51 21.2 3 21.49 3.53 21.5L20.46 21.5C20.99 21.49 21.48 21.2 21.75 20.74C22.01 20.28 22.01 19.71 21.74 19.25L13.28 5.11C13.28 5.11 13.28 5.11 13.28 5.11C13 4.67 12.52 4.39 11.99 4.39C11.47 4.39 10.98 4.67 10.71 5.11Z" fill="#414141" fill-opacity="1.000000" fill-rule="evenodd"/>
	<path id="Shape (Stroke)" d="M12 9.5C12.27 9.5 12.5 9.72 12.5 10L12.5 14C12.5 14.27 12.27 14.5 12 14.5C11.72 14.5 11.5 14.27 11.5 14L11.5 10C11.5 9.72 11.72 9.5 12 9.5Z" fill="#414141" fill-opacity="1.000000" fill-rule="evenodd"/>
	<path id="Ellipse" d="M13 18C13 18.55 12.55 19 12 19C11.44 19 11 18.55 11 18C11 17.44 11.44 17 12 17C12.55 17 13 17.44 13 18Z" fill="#414141" fill-opacity="1.000000" fill-rule="nonzero"/>
</svg>
