<svg width="24.000000" height="24.000000" viewBox="0 0 24 24" fill="none" xmlns="http://www.w3.org/2000/svg" xmlns:xlink="http://www.w3.org/1999/xlink">
	<desc>
			Created with Pixso.
	</desc>
	<defs/>
	<rect id="feather-icon / rotate-ccw" rx="0.000000" width="23.000000" height="23.000000" transform="translate(0.500000 0.500000)" fill="#FFFFFF" fill-opacity="0"/>
	<path id="Shape (Stroke)" d="M2 3.5C2.27 3.5 2.5 3.72 2.5 4L2.5 9.5L8 9.5C8.27 9.5 8.5 9.72 8.5 10C8.5 10.27 8.27 10.5 8 10.5L2 10.5C1.72 10.5 1.5 10.27 1.5 10L1.5 4C1.5 3.72 1.72 3.5 2 3.5Z" fill="#414141" fill-opacity="1.000000" fill-rule="evenodd"/>
	<path id="Shape (Stroke)" d="M6.29 5.28C9.28 2.29 13.89 1.64 17.59 3.69C21.29 5.74 23.2 9.99 22.26 14.11C21.32 18.24 17.76 21.25 13.54 21.49C9.32 21.73 5.44 19.15 4.03 15.16C3.94 14.9 4.08 14.62 4.34 14.52C4.6 14.43 4.89 14.57 4.98 14.83C6.24 18.4 9.7 20.71 13.48 20.49C17.26 20.27 20.44 17.58 21.28 13.89C22.12 10.2 20.42 6.4 17.11 4.57C13.79 2.73 9.67 3.31 6.99 5.99L6.98 6L2.34 10.36C2.14 10.55 1.82 10.54 1.63 10.34C1.44 10.14 1.45 9.82 1.65 9.63L6.29 5.28Z" fill="#414141" fill-opacity="1.000000" fill-rule="evenodd"/>
</svg>
