<svg width="24.000000" height="24.000000" viewBox="0 0 24 24" fill="none" xmlns="http://www.w3.org/2000/svg" xmlns:xlink="http://www.w3.org/1999/xlink">
	<desc>
			Created with Pixso.
	</desc>
	<defs/>
	<rect id="feather-icon / arrow-up-right" rx="0.000000" width="23.000000" height="23.000000" transform="translate(0.500000 0.500000)" fill="#FFFFFF" fill-opacity="0"/>
	<path id="Shape (Stroke)" d="M18.35 5.64C18.54 5.84 18.54 6.15 18.35 6.35L6.35 18.35C6.15 18.54 5.84 18.54 5.64 18.35C5.45 18.15 5.45 17.84 5.64 17.64L17.64 5.64C17.84 5.45 18.15 5.45 18.35 5.64Z" fill="#414141" fill-opacity="1.000000" fill-rule="evenodd"/>
	<path id="Shape (Stroke)" d="M8.5 6C8.5 5.72 8.72 5.5 9 5.5L18 5.5C18.27 5.5 18.5 5.72 18.5 6L18.5 15C18.5 15.27 18.27 15.5 18 15.5C17.72 15.5 17.5 15.27 17.5 15L17.5 6.5L9 6.5C8.72 6.5 8.5 6.27 8.5 6Z" fill="#414141" fill-opacity="1.000000" fill-rule="evenodd"/>
</svg>
