<svg width="24.000000" height="24.000000" viewBox="0 0 24 24" fill="none" xmlns="http://www.w3.org/2000/svg" xmlns:xlink="http://www.w3.org/1999/xlink">
	<desc>
			Created with Pixso.
	</desc>
	<defs/>
	<rect id="feather-icon / save" rx="0.000000" width="23.000000" height="23.000000" transform="translate(0.500000 0.500000)" fill="#FFFFFF" fill-opacity="0"/>
	<path id="Shape (Stroke)" d="M5 3.5C4.17 3.5 3.5 4.17 3.5 5L3.5 19C3.5 19.82 4.17 20.5 5 20.5L19 20.5C19.82 20.5 20.5 19.82 20.5 19L20.5 8.2L15.79 3.5L5 3.5ZM2.5 5C2.5 3.61 3.61 2.5 5 2.5L16 2.5C16.13 2.5 16.25 2.55 16.35 2.64L21.35 7.64C21.44 7.74 21.5 7.86 21.5 8L21.5 19C21.5 20.38 20.38 21.5 19 21.5L5 21.5C3.61 21.5 2.5 20.38 2.5 19L2.5 5Z" fill="#414141" fill-opacity="1.000000" fill-rule="evenodd"/>
	<path id="Shape (Stroke)" d="M6.5 13C6.5 12.72 6.72 12.5 7 12.5L17 12.5C17.27 12.5 17.5 12.72 17.5 13L17.5 21C17.5 21.27 17.27 21.5 17 21.5C16.72 21.5 16.5 21.27 16.5 21L16.5 13.5L7.5 13.5L7.5 21C7.5 21.27 7.27 21.5 7 21.5C6.72 21.5 6.5 21.27 6.5 21L6.5 13Z" fill="#414141" fill-opacity="1.000000" fill-rule="evenodd"/>
	<path id="Shape (Stroke)" d="M7 2.5C7.27 2.5 7.5 2.72 7.5 3L7.5 7.5L15 7.5C15.27 7.5 15.5 7.72 15.5 8C15.5 8.27 15.27 8.5 15 8.5L7 8.5C6.72 8.5 6.5 8.27 6.5 8L6.5 3C6.5 2.72 6.72 2.5 7 2.5Z" fill="#414141" fill-opacity="1.000000" fill-rule="evenodd"/>
</svg>
