<svg width="24.000000" height="24.000000" viewBox="0 0 24 24" fill="none" xmlns="http://www.w3.org/2000/svg" xmlns:xlink="http://www.w3.org/1999/xlink">
	<desc>
			Created with Pixso.
	</desc>
	<defs/>
	<rect id="feather-icon / external-link" rx="0.000000" width="23.000000" height="23.000000" transform="translate(0.500000 0.500000)" fill="#FFFFFF" fill-opacity="0"/>
	<path id="Shape (Stroke)" d="M5 6.5C4.17 6.5 3.5 7.17 3.5 8L3.5 19C3.5 19.82 4.17 20.5 5 20.5L16 20.5C16.82 20.5 17.5 19.82 17.5 19L17.5 13C17.5 12.72 17.72 12.5 18 12.5C18.27 12.5 18.5 12.72 18.5 13L18.5 19C18.5 20.38 17.38 21.5 16 21.5L5 21.5C3.61 21.5 2.5 20.38 2.5 19L2.5 8C2.5 6.61 3.61 5.5 5 5.5L11 5.5C11.27 5.5 11.5 5.72 11.5 6C11.5 6.27 11.27 6.5 11 6.5L5 6.5Z" fill="#414141" fill-opacity="1.000000" fill-rule="evenodd"/>
	<path id="Shape (Stroke)" d="M14.5 3C14.5 2.72 14.72 2.5 15 2.5L21 2.5C21.27 2.5 21.5 2.72 21.5 3L21.5 9C21.5 9.27 21.27 9.5 21 9.5C20.72 9.5 20.5 9.27 20.5 9L20.5 3.5L15 3.5C14.72 3.5 14.5 3.27 14.5 3Z" fill="#414141" fill-opacity="1.000000" fill-rule="evenodd"/>
	<path id="Shape (Stroke)" d="M21.35 2.64C21.54 2.84 21.54 3.15 21.35 3.35L10.35 14.35C10.15 14.54 9.84 14.54 9.64 14.35C9.45 14.15 9.45 13.84 9.64 13.64L20.64 2.64C20.84 2.45 21.15 2.45 21.35 2.64Z" fill="#414141" fill-opacity="1.000000" fill-rule="evenodd"/>
</svg>
