<svg width="24.000000" height="24.000000" viewBox="0 0 24 24" fill="none" xmlns="http://www.w3.org/2000/svg" xmlns:xlink="http://www.w3.org/1999/xlink">
	<desc>
			Created with Pixso.
	</desc>
	<defs/>
	<rect id="feather-icon / pie-chart" rx="0.000000" width="23.000000" height="23.000000" transform="translate(0.500000 0.500000)" fill="#FFFFFF" fill-opacity="0"/>
	<path id="Shape (Stroke)" d="M8.45 2.63C8.57 2.88 8.45 3.17 8.2 3.28C4.28 4.99 1.99 9.1 2.59 13.33C3.19 17.55 6.54 20.86 10.77 21.41C15 21.96 19.08 19.62 20.75 15.69C20.85 15.44 21.15 15.32 21.4 15.42C21.66 15.53 21.77 15.83 21.67 16.08C19.83 20.43 15.32 23.01 10.64 22.4C5.96 21.79 2.26 18.14 1.6 13.47C0.94 8.79 3.47 4.25 7.8 2.37C8.05 2.26 8.34 2.37 8.45 2.63Z" fill="#414141" fill-opacity="1.000000" fill-rule="evenodd"/>
	<path id="Shape (Stroke)" d="M11.64 1.64C11.74 1.55 11.86 1.5 12 1.5C14.78 1.5 17.45 2.6 19.42 4.57C21.39 6.54 22.5 9.21 22.5 12C22.5 12.27 22.27 12.5 22 12.5L12 12.5C11.72 12.5 11.5 12.27 11.5 12L11.5 2C11.5 1.86 11.55 1.74 11.64 1.64ZM12.5 2.51L12.5 11.5L21.48 11.5C21.36 9.16 20.38 6.94 18.71 5.28C17.05 3.61 14.83 2.63 12.5 2.51Z" fill="#414141" fill-opacity="1.000000" fill-rule="evenodd"/>
</svg>
