<svg width="24.000000" height="24.000000" viewBox="0 0 24 24" fill="none" xmlns="http://www.w3.org/2000/svg" xmlns:xlink="http://www.w3.org/1999/xlink">
	<desc>
			Created with Pixso.
	</desc>
	<defs/>
	<rect id="feather-icon / zoom-in" rx="0.000000" width="23.000000" height="23.000000" transform="translate(0.500000 0.500000)" fill="#FFFFFF" fill-opacity="0"/>
	<path id="Oval (Stroke)" d="M2.5 11C2.5 6.3 6.3 2.5 11 2.5C15.69 2.5 19.5 6.3 19.5 11C19.5 15.69 15.69 19.5 11 19.5C6.3 19.5 2.5 15.69 2.5 11ZM11 3.5C6.85 3.5 3.5 6.85 3.5 11C3.5 15.14 6.85 18.5 11 18.5C15.14 18.5 18.5 15.14 18.5 11C18.5 6.85 15.14 3.5 11 3.5Z" fill="#414141" fill-opacity="1.000000" fill-rule="evenodd"/>
	<path id="Shape (Stroke)" d="M16.29 16.29C16.49 16.1 16.8 16.1 17 16.29L21.35 20.64C21.54 20.84 21.54 21.15 21.35 21.35C21.15 21.54 20.83 21.54 20.64 21.35L16.29 17C16.09 16.8 16.09 16.49 16.29 16.29Z" fill="#414141" fill-opacity="1.000000" fill-rule="evenodd"/>
	<path id="Shape (Stroke)" d="M11 7.5C11.27 7.5 11.5 7.72 11.5 8L11.5 14C11.5 14.27 11.27 14.5 11 14.5C10.72 14.5 10.5 14.27 10.5 14L10.5 8C10.5 7.72 10.72 7.5 11 7.5Z" fill="#414141" fill-opacity="1.000000" fill-rule="evenodd"/>
	<path id="Shape (Stroke)" d="M7.5 11C7.5 10.72 7.72 10.5 8 10.5L14 10.5C14.27 10.5 14.5 10.72 14.5 11C14.5 11.27 14.27 11.5 14 11.5L8 11.5C7.72 11.5 7.5 11.27 7.5 11Z" fill="#414141" fill-opacity="1.000000" fill-rule="evenodd"/>
</svg>
