<svg width="24.000000" height="24.000000" viewBox="0 0 24 24" fill="none" xmlns="http://www.w3.org/2000/svg" xmlns:xlink="http://www.w3.org/1999/xlink">
	<desc>
			Created with Pixso.
	</desc>
	<defs/>
	<rect id="feather-icon / art" rx="0.000000" width="23.000000" height="23.000000" transform="translate(0.500000 0.500000)" fill="#FFFFFF" fill-opacity="0"/>
	<path id="Vector 178 (Stroke)" d="M12.53 3.52C12.45 3.47 12.32 3.44 12.09 3.49C11.87 3.53 11.72 3.62 11.61 3.73C11.5 3.85 11.41 4.01 11.35 4.25C11.23 4.73 11.28 5.44 11.5 6.33C11.68 7.09 11.99 7.95 12.39 8.84C12.66 7.76 12.85 6.77 12.93 5.92C13.03 4.95 12.97 4.25 12.79 3.84C12.71 3.65 12.62 3.56 12.53 3.52ZM13.05 10.2C13.5 8.67 13.82 7.22 13.93 6.01C14.02 5.01 13.99 4.1 13.71 3.45C13.57 3.11 13.34 2.82 13.01 2.64C12.68 2.46 12.29 2.43 11.9 2.5C11.5 2.58 11.16 2.76 10.89 3.04C10.63 3.31 10.47 3.64 10.38 4.01C10.2 4.73 10.29 5.63 10.52 6.57C10.81 7.71 11.32 9 11.98 10.3C11.7 11.2 11.38 12.14 11.03 13.07C10.63 14.12 10.19 15.15 9.73 16.13C8.2 16.76 6.81 17.5 5.78 18.29C5.02 18.87 4.41 19.52 4.15 20.21C4.01 20.56 3.97 20.94 4.05 21.32C4.13 21.7 4.34 22.04 4.64 22.35C4.91 22.62 5.25 22.77 5.63 22.77C5.99 22.76 6.33 22.62 6.63 22.42C7.24 22.02 7.86 21.31 8.47 20.44C9.14 19.47 9.82 18.25 10.47 16.91C11.09 16.66 11.74 16.43 12.4 16.22C13.38 15.91 14.37 15.66 15.31 15.48C16.12 16.48 16.96 17.32 17.75 17.89C18.44 18.38 19.18 18.73 19.88 18.65C20.65 18.57 21.18 18.01 21.47 17.15C21.61 16.72 21.66 16.31 21.59 15.93C21.52 15.54 21.33 15.21 21.06 14.96C20.53 14.46 19.7 14.25 18.81 14.18C17.92 14.12 16.85 14.2 15.72 14.39C15.23 13.76 14.75 13.07 14.29 12.35C13.84 11.65 13.42 10.92 13.05 10.2ZM12.63 11.53C12.43 12.16 12.2 12.79 11.96 13.42C11.68 14.16 11.38 14.9 11.06 15.61C11.4 15.49 11.75 15.38 12.09 15.27C12.93 15 13.79 14.77 14.62 14.59C14.22 14.05 13.82 13.48 13.45 12.89C13.16 12.45 12.89 11.99 12.63 11.53ZM16.45 15.29C17.1 16.03 17.75 16.65 18.33 17.07C18.97 17.53 19.46 17.69 19.78 17.66C20.02 17.63 20.31 17.48 20.52 16.84C20.63 16.52 20.64 16.28 20.61 16.11C20.58 15.94 20.5 15.81 20.38 15.69C20.1 15.43 19.57 15.24 18.74 15.18C18.08 15.13 17.3 15.17 16.45 15.29ZM9.04 17.53C8 18.01 7.09 18.54 6.39 19.08C5.68 19.62 5.25 20.13 5.08 20.56C5 20.77 4.99 20.95 5.02 21.11C5.06 21.27 5.15 21.45 5.35 21.64C5.45 21.74 5.53 21.77 5.61 21.77C5.72 21.76 5.87 21.72 6.09 21.58C6.53 21.29 7.06 20.71 7.65 19.87C8.1 19.2 8.57 18.41 9.04 17.53Z" fill="#414141" fill-opacity="1.000000" fill-rule="evenodd"/>
</svg>
