<svg width="24.000000" height="24.000000" viewBox="0 0 24 24" fill="none" xmlns="http://www.w3.org/2000/svg" xmlns:xlink="http://www.w3.org/1999/xlink">
	<desc>
			Created with Pixso.
	</desc>
	<defs/>
	<rect id="feather-icon / corner-right-up" rx="0.000000" width="23.000000" height="23.000000" transform="translate(0.500000 0.500000)" fill="#FFFFFF" fill-opacity="0"/>
	<path id="Shape (Stroke)" d="M14.64 3.64C14.84 3.45 15.15 3.45 15.35 3.64L20.35 8.64C20.54 8.84 20.54 9.15 20.35 9.35C20.15 9.54 19.84 9.54 19.64 9.35L15 4.7L10.35 9.35C10.15 9.54 9.84 9.54 9.64 9.35C9.45 9.15 9.45 8.84 9.64 8.64L14.64 3.64Z" fill="#414141" fill-opacity="1.000000" fill-rule="evenodd"/>
	<path id="Shape (Stroke)" d="M15 3.5C15.27 3.5 15.5 3.72 15.5 4L15.5 16C15.5 18.48 13.48 20.5 11 20.5L4 20.5C3.72 20.5 3.5 20.27 3.5 20C3.5 19.72 3.72 19.5 4 19.5L11 19.5C12.93 19.5 14.5 17.93 14.5 16L14.5 4C14.5 3.72 14.72 3.5 15 3.5Z" fill="#414141" fill-opacity="1.000000" fill-rule="evenodd"/>
</svg>
