<svg width="24.000000" height="24.000000" viewBox="0 0 24 24" fill="none" xmlns="http://www.w3.org/2000/svg" xmlns:xlink="http://www.w3.org/1999/xlink">
	<desc>
			Created with Pixso.
	</desc>
	<defs/>
	<rect id="feather-icon / help-circle" rx="0.000000" width="23.000000" height="23.000000" transform="translate(0.500000 0.500000)" fill="#FFFFFF" fill-opacity="0"/>
	<path id="Shape (Stroke)" d="M12.34 7.53C11.14 7.32 9.96 8.01 9.56 9.16C9.47 9.42 9.18 9.56 8.92 9.47C8.66 9.37 8.52 9.09 8.61 8.83C9.18 7.22 10.83 6.25 12.51 6.54C14.19 6.83 15.42 8.29 15.41 10C15.41 11.26 14.47 12.14 13.69 12.66C13.29 12.93 12.89 13.13 12.59 13.26C12.44 13.33 12.31 13.38 12.22 13.42C12.18 13.43 12.14 13.45 12.12 13.45L12.09 13.46L12.08 13.47L12.08 13.47L12.07 13.47C12.07 13.47 12.07 13.47 11.91 13L12.07 13.47C11.81 13.56 11.53 13.41 11.44 13.15C11.35 12.89 11.5 12.61 11.76 12.52L12.34 7.53ZM11.76 12.52L11.76 12.52L11.78 12.51C11.8 12.51 11.83 12.5 11.87 12.48C11.94 12.45 12.05 12.41 12.18 12.35C12.44 12.23 12.79 12.06 13.14 11.83C13.86 11.35 14.41 10.73 14.41 10C14.42 8.78 13.54 7.73 12.34 7.53L11.76 12.52Z" fill="#414141" fill-opacity="1.000000" fill-rule="evenodd"/>
	<path id="Oval (Stroke)" d="M1.5 12C1.5 6.2 6.2 1.5 12 1.5C17.79 1.5 22.5 6.2 22.5 12C22.5 17.79 17.79 22.5 12 22.5C6.2 22.5 1.5 17.79 1.5 12ZM12 2.5C6.75 2.5 2.5 6.75 2.5 12C2.5 17.24 6.75 21.5 12 21.5C17.24 21.5 21.5 17.24 21.5 12C21.5 6.75 17.24 2.5 12 2.5Z" fill="#414141" fill-opacity="1.000000" fill-rule="evenodd"/>
	<path id="Ellipse" d="M13 17C13 17.55 12.55 18 12 18C11.44 18 11 17.55 11 17C11 16.44 11.44 16 12 16C12.55 16 13 16.44 13 17Z" fill="#414141" fill-opacity="1.000000" fill-rule="nonzero"/>
</svg>
