<svg width="24.000000" height="24.000000" viewBox="0 0 24 24" fill="none" xmlns="http://www.w3.org/2000/svg" xmlns:xlink="http://www.w3.org/1999/xlink">
	<desc>
			Created with Pixso.
	</desc>
	<defs/>
	<rect id="feather-icon / skip-back" rx="0.000000" width="23.000000" height="23.000000" transform="translate(0.500000 0.500000)" fill="#FFFFFF" fill-opacity="0"/>
	<path id="Shape (Stroke)" d="M19.21 3.54C19.39 3.63 19.5 3.8 19.5 4L19.5 20C19.5 20.19 19.39 20.36 19.21 20.45C19.04 20.53 18.83 20.51 18.68 20.39L8.68 12.39C8.56 12.29 8.5 12.15 8.5 12C8.5 11.84 8.56 11.7 8.68 11.6L18.68 3.6C18.83 3.48 19.04 3.46 19.21 3.54ZM9.8 12L18.5 18.95L18.5 5.04L9.8 12Z" fill="#414141" fill-opacity="1.000000" fill-rule="evenodd"/>
	<path id="Shape (Stroke)" d="M5 4.5C5.27 4.5 5.5 4.72 5.5 5L5.5 19C5.5 19.27 5.27 19.5 5 19.5C4.72 19.5 4.5 19.27 4.5 19L4.5 5C4.5 4.72 4.72 4.5 5 4.5Z" fill="#414141" fill-opacity="1.000000" fill-rule="evenodd"/>
</svg>
