<svg width="24.000000" height="24.000000" viewBox="0 0 24 24" fill="none" xmlns="http://www.w3.org/2000/svg" xmlns:xlink="http://www.w3.org/1999/xlink">
	<desc>
			Created with Pixso.
	</desc>
	<defs/>
	<rect id="feather-icon / corner-left-up" rx="0.000000" width="23.000000" height="23.000000" transform="translate(0.500000 0.500000)" fill="#FFFFFF" fill-opacity="0"/>
	<path id="Shape (Stroke)" d="M8.64 3.64C8.84 3.45 9.15 3.45 9.35 3.64L14.35 8.64C14.54 8.84 14.54 9.15 14.35 9.35C14.15 9.54 13.84 9.54 13.64 9.35L9 4.7L4.35 9.35C4.15 9.54 3.84 9.54 3.64 9.35C3.45 9.15 3.45 8.84 3.64 8.64L8.64 3.64Z" fill="#414141" fill-opacity="1.000000" fill-rule="evenodd"/>
	<path id="Shape (Stroke)" d="M9 3.5C9.27 3.5 9.5 3.72 9.5 4L9.5 16C9.5 17.93 11.06 19.5 13 19.5L20 19.5C20.27 19.5 20.5 19.72 20.5 20C20.5 20.27 20.27 20.5 20 20.5L13 20.5C10.51 20.5 8.5 18.48 8.5 16L8.5 4C8.5 3.72 8.72 3.5 9 3.5Z" fill="#414141" fill-opacity="1.000000" fill-rule="evenodd"/>
</svg>
