<svg width="24.000000" height="24.000000" viewBox="0 0 24 24" fill="none" xmlns="http://www.w3.org/2000/svg" xmlns:xlink="http://www.w3.org/1999/xlink">
	<desc>
			Created with Pixso.
	</desc>
	<defs/>
	<rect id="feather-icon / volume-x" rx="0.000000" width="23.000000" height="23.000000" transform="translate(0.500000 0.500000)" fill="#FFFFFF" fill-opacity="0"/>
	<path id="Shape (Stroke)" d="M10.21 4.54C10.39 4.63 10.5 4.8 10.5 5L10.5 19C10.5 19.19 10.39 19.36 10.21 19.45C10.04 19.53 9.83 19.51 9.68 19.39L4.82 15.5L1 15.5C0.72 15.5 0.5 15.27 0.5 15L0.5 9C0.5 8.72 0.72 8.5 1 8.5L4.82 8.5L9.68 4.6C9.83 4.48 10.04 4.46 10.21 4.54ZM9.5 6.04L5.31 9.39C5.22 9.46 5.11 9.5 5 9.5L1.5 9.5L1.5 14.5L5 14.5C5.11 14.5 5.22 14.53 5.31 14.6L9.5 17.95L9.5 6.04Z" fill="#414141" fill-opacity="1.000000" fill-rule="evenodd"/>
	<path id="Shape (Stroke)" d="M22.35 8.64C22.54 8.84 22.54 9.15 22.35 9.35L16.35 15.35C16.15 15.54 15.84 15.54 15.64 15.35C15.45 15.15 15.45 14.84 15.64 14.64L21.64 8.64C21.84 8.45 22.15 8.45 22.35 8.64Z" fill="#414141" fill-opacity="1.000000" fill-rule="evenodd"/>
	<path id="Shape (Stroke)" d="M15.64 8.64C15.84 8.45 16.15 8.45 16.35 8.64L22.35 14.64C22.54 14.84 22.54 15.15 22.35 15.35C22.15 15.54 21.84 15.54 21.64 15.35L15.64 9.35C15.45 9.15 15.45 8.84 15.64 8.64Z" fill="#414141" fill-opacity="1.000000" fill-rule="evenodd"/>
</svg>
