<svg width="24.000000" height="24.000000" viewBox="0 0 24 24" fill="none" xmlns="http://www.w3.org/2000/svg" xmlns:xlink="http://www.w3.org/1999/xlink">
	<desc>
			Created with Pixso.
	</desc>
	<defs/>
	<rect id="feather-icon / cpu" rx="0.000000" width="23.000000" height="23.000000" transform="translate(0.500000 0.500000)" fill="#FFFFFF" fill-opacity="0"/>
	<path id="Rectangle-path (Stroke)" d="M3.5 6C3.5 4.61 4.61 3.5 6 3.5L18 3.5C19.38 3.5 20.5 4.61 20.5 6L20.5 18C20.5 19.38 19.38 20.5 18 20.5L6 20.5C4.61 20.5 3.5 19.38 3.5 18L3.5 6ZM6 4.5C5.17 4.5 4.5 5.17 4.5 6L4.5 18C4.5 18.82 5.17 19.5 6 19.5L18 19.5C18.82 19.5 19.5 18.82 19.5 18L19.5 6C19.5 5.17 18.82 4.5 18 4.5L6 4.5Z" fill="#414141" fill-opacity="1.000000" fill-rule="evenodd"/>
	<path id="Rectangle-path (Stroke)" d="M8.5 9C8.5 8.72 8.72 8.5 9 8.5L15 8.5C15.27 8.5 15.5 8.72 15.5 9L15.5 15C15.5 15.27 15.27 15.5 15 15.5L9 15.5C8.72 15.5 8.5 15.27 8.5 15L8.5 9ZM9.5 9.5L9.5 14.5L14.5 14.5L14.5 9.5L9.5 9.5Z" fill="#414141" fill-opacity="1.000000" fill-rule="evenodd"/>
	<path id="Shape (Stroke)" d="M9 0.5C9.27 0.5 9.5 0.72 9.5 1L9.5 4C9.5 4.27 9.27 4.5 9 4.5C8.72 4.5 8.5 4.27 8.5 4L8.5 1C8.5 0.72 8.72 0.5 9 0.5Z" fill="#414141" fill-opacity="1.000000" fill-rule="evenodd"/>
	<path id="Shape (Stroke)" d="M15 0.5C15.27 0.5 15.5 0.72 15.5 1L15.5 4C15.5 4.27 15.27 4.5 15 4.5C14.72 4.5 14.5 4.27 14.5 4L14.5 1C14.5 0.72 14.72 0.5 15 0.5Z" fill="#414141" fill-opacity="1.000000" fill-rule="evenodd"/>
	<path id="Shape (Stroke)" d="M9 19.5C9.27 19.5 9.5 19.72 9.5 20L9.5 23C9.5 23.27 9.27 23.5 9 23.5C8.72 23.5 8.5 23.27 8.5 23L8.5 20C8.5 19.72 8.72 19.5 9 19.5Z" fill="#414141" fill-opacity="1.000000" fill-rule="evenodd"/>
	<path id="Shape (Stroke)" d="M15 19.5C15.27 19.5 15.5 19.72 15.5 20L15.5 23C15.5 23.27 15.27 23.5 15 23.5C14.72 23.5 14.5 23.27 14.5 23L14.5 20C14.5 19.72 14.72 19.5 15 19.5Z" fill="#414141" fill-opacity="1.000000" fill-rule="evenodd"/>
	<path id="Shape (Stroke)" d="M19.5 9C19.5 8.72 19.72 8.5 20 8.5L23 8.5C23.27 8.5 23.5 8.72 23.5 9C23.5 9.27 23.27 9.5 23 9.5L20 9.5C19.72 9.5 19.5 9.27 19.5 9Z" fill="#414141" fill-opacity="1.000000" fill-rule="evenodd"/>
	<path id="Shape (Stroke)" d="M19.5 14C19.5 13.72 19.72 13.5 20 13.5L23 13.5C23.27 13.5 23.5 13.72 23.5 14C23.5 14.27 23.27 14.5 23 14.5L20 14.5C19.72 14.5 19.5 14.27 19.5 14Z" fill="#414141" fill-opacity="1.000000" fill-rule="evenodd"/>
	<path id="Shape (Stroke)" d="M0.5 9C0.5 8.72 0.72 8.5 1 8.5L4 8.5C4.27 8.5 4.5 8.72 4.5 9C4.5 9.27 4.27 9.5 4 9.5L1 9.5C0.72 9.5 0.5 9.27 0.5 9Z" fill="#414141" fill-opacity="1.000000" fill-rule="evenodd"/>
	<path id="Shape (Stroke)" d="M0.5 14C0.5 13.72 0.72 13.5 1 13.5L4 13.5C4.27 13.5 4.5 13.72 4.5 14C4.5 14.27 4.27 14.5 4 14.5L1 14.5C0.72 14.5 0.5 14.27 0.5 14Z" fill="#414141" fill-opacity="1.000000" fill-rule="evenodd"/>
</svg>
