<svg width="24.000000" height="24.000000" viewBox="0 0 24 24" fill="none" xmlns="http://www.w3.org/2000/svg" xmlns:xlink="http://www.w3.org/1999/xlink">
	<desc>
			Created with Pixso.
	</desc>
	<defs/>
	<rect id="feather-icon / arrow-right" rx="0.000000" width="23.000000" height="23.000000" transform="translate(0.500000 0.500000)" fill="#FFFFFF" fill-opacity="0"/>
	<path id="Shape (Stroke)" d="M3.5 12C3.5 11.72 3.72 11.5 4 11.5L20 11.5C20.27 11.5 20.5 11.72 20.5 12C20.5 12.27 20.27 12.5 20 12.5L4 12.5C3.72 12.5 3.5 12.27 3.5 12Z" fill="#414141" fill-opacity="1.000000" fill-rule="evenodd"/>
	<path id="Shape (Stroke)" d="M13.64 5.64C13.84 5.45 14.15 5.45 14.35 5.64L20.35 11.64C20.54 11.84 20.54 12.15 20.35 12.35L14.35 18.35C14.15 18.54 13.84 18.54 13.64 18.35C13.45 18.15 13.45 17.84 13.64 17.64L19.29 12L13.64 6.35C13.45 6.15 13.45 5.84 13.64 5.64Z" fill="#414141" fill-opacity="1.000000" fill-rule="evenodd"/>
</svg>
