<svg width="24.000000" height="24.000000" viewBox="0 0 24 24" fill="none" xmlns="http://www.w3.org/2000/svg" xmlns:xlink="http://www.w3.org/1999/xlink">
	<desc>
			Created with Pixso.
	</desc>
	<defs/>
	<rect id="feather-icon / message-square-notice" rx="0.000000" width="23.000000" height="23.000000" transform="translate(0.500000 0.500000)" fill="#FFFFFF" fill-opacity="0"/>
	<path id="Shape (Stroke)" d="M5 3.5C4.17 3.5 3.5 4.17 3.5 5L3.5 19.79L6.64 16.64C6.74 16.55 6.86 16.5 7 16.5L19 16.5C19.82 16.5 20.5 15.82 20.5 15L20.5 5C20.5 4.17 19.82 3.5 19 3.5L5 3.5ZM2.5 5C2.5 3.61 3.61 2.5 5 2.5L19 2.5C20.38 2.5 21.5 3.61 21.5 5L21.5 15C21.5 16.38 20.38 17.5 19 17.5L7.2 17.5L3.35 21.35C3.21 21.49 2.99 21.53 2.8 21.46C2.62 21.38 2.5 21.2 2.5 21L2.5 5Z" fill="#414141" fill-opacity="1.000000" fill-rule="evenodd"/>
	<path id="Vector 181 (Stroke)" d="M5.5 7C5.5 6.72 5.72 6.5 6 6.5L18 6.5C18.27 6.5 18.5 6.72 18.5 7C18.5 7.27 18.27 7.5 18 7.5L6 7.5C5.72 7.5 5.5 7.27 5.5 7Z" fill="#414141" fill-opacity="1.000000" fill-rule="evenodd"/>
	<path id="Vector 182 (Stroke)" d="M5.5 10C5.5 9.72 5.72 9.5 6 9.5L18 9.5C18.27 9.5 18.5 9.72 18.5 10C18.5 10.27 18.27 10.5 18 10.5L6 10.5C5.72 10.5 5.5 10.27 5.5 10Z" fill="#414141" fill-opacity="1.000000" fill-rule="evenodd"/>
	<path id="Vector 183 (Stroke)" d="M5.5 13C5.5 12.72 5.72 12.5 6 12.5L18 12.5C18.27 12.5 18.5 12.72 18.5 13C18.5 13.27 18.27 13.5 18 13.5L6 13.5C5.72 13.5 5.5 13.27 5.5 13Z" fill="#414141" fill-opacity="1.000000" fill-rule="evenodd"/>
	<path id="Ellipse 8" d="M22 4C22 6.2 20.2 8 18 8C15.79 8 14 6.2 14 4C14 1.79 15.79 0 18 0C20.2 0 22 1.79 22 4Z" fill="#FF6633" fill-opacity="1.000000" fill-rule="nonzero"/>
</svg>
