<svg width="24.000000" height="24.000000" viewBox="0 0 24 24" fill="none" xmlns="http://www.w3.org/2000/svg" xmlns:xlink="http://www.w3.org/1999/xlink">
	<desc>
			Created with Pixso.
	</desc>
	<defs/>
	<rect id="feather-icon / corner-down-right" rx="0.000000" width="23.000000" height="23.000000" transform="translate(0.500000 0.500000)" fill="#FFFFFF" fill-opacity="0"/>
	<path id="Shape (Stroke)" d="M14.64 9.64C14.84 9.45 15.15 9.45 15.35 9.64L20.35 14.64C20.54 14.84 20.54 15.15 20.35 15.35L15.35 20.35C15.15 20.54 14.84 20.54 14.64 20.35C14.45 20.15 14.45 19.84 14.64 19.64L19.29 15L14.64 10.35C14.45 10.15 14.45 9.84 14.64 9.64Z" fill="#414141" fill-opacity="1.000000" fill-rule="evenodd"/>
	<path id="Shape (Stroke)" d="M4 3.5C4.27 3.5 4.5 3.72 4.5 4L4.5 11C4.5 12.93 6.06 14.5 8 14.5L20 14.5C20.27 14.5 20.5 14.72 20.5 15C20.5 15.27 20.27 15.5 20 15.5L8 15.5C5.51 15.5 3.5 13.48 3.5 11L3.5 4C3.5 3.72 3.72 3.5 4 3.5Z" fill="#414141" fill-opacity="1.000000" fill-rule="evenodd"/>
</svg>
