<svg width="25.000000" height="25.000000" viewBox="0 0 25 25" fill="none" xmlns="http://www.w3.org/2000/svg" xmlns:xlink="http://www.w3.org/1999/xlink">
	<desc>
			Created with Pixso.
	</desc>
	<defs/>
	<rect id="feather-icon / box" rx="0.000000" width="24.000000" height="24.000000" transform="translate(0.500000 0.500000)" fill="#FFFFFF" fill-opacity="0"/>
	<path id="Shape (Stroke)" d="M11.8 1.97L3.47 6.14L3.47 6.14C2.94 6.4 2.6 6.94 2.6 7.54L2.6 17.46C2.59 18.05 2.93 18.6 3.46 18.86L11.79 23.03C12.23 23.25 12.75 23.25 13.19 23.03L21.52 18.86L21.52 18.86C22.06 18.6 22.39 18.06 22.39 17.46L22.39 7.54C22.39 6.94 22.06 6.4 21.52 6.14L21.52 6.14L13.19 1.97C12.75 1.75 12.24 1.75 11.8 1.97ZM11.34 1.04C12.07 0.68 12.92 0.68 13.65 1.04L13.66 1.04L21.99 5.21C22.87 5.65 23.43 6.55 23.43 7.54L23.43 17.46C23.43 18.45 22.87 19.35 21.99 19.79L13.66 23.96C12.92 24.33 12.06 24.33 11.33 23.96L2.99 19.79L2.99 19.79C2.11 19.35 1.55 18.44 1.56 17.45L1.56 7.54C1.56 6.55 2.12 5.65 3 5.21L11.33 1.04L11.34 1.04Z" fill="#414141" fill-opacity="1.000000" fill-rule="evenodd"/>
	<path id="Shape (Stroke)" d="M1.95 6.18C2.08 5.92 2.39 5.82 2.65 5.95L12.5 10.87L22.35 5.95C22.6 5.82 22.92 5.92 23.05 6.18C23.17 6.44 23.07 6.75 22.81 6.88L12.73 11.92C12.58 11.99 12.41 11.99 12.26 11.92L2.18 6.88C1.92 6.75 1.82 6.44 1.95 6.18Z" fill="#414141" fill-opacity="1.000000" fill-rule="evenodd"/>
	<path id="Shape (Stroke)" d="M12.5 10.93C12.78 10.93 13.01 11.17 13.01 11.45L13.01 23.7C13.01 23.99 12.78 24.22 12.5 24.22C12.21 24.22 11.97 23.99 11.97 23.7L11.97 11.45C11.97 11.17 12.21 10.93 12.5 10.93Z" fill="#414141" fill-opacity="1.000000" fill-rule="evenodd"/>
</svg>
