<svg width="24.000000" height="24.000000" viewBox="0 0 24 24" fill="none" xmlns="http://www.w3.org/2000/svg" xmlns:xlink="http://www.w3.org/1999/xlink">
	<desc>
			Created with Pixso.
	</desc>
	<defs/>
	<rect id="feather-icon / triangle" rx="0.000000" width="23.000000" height="23.000000" transform="translate(0.500000 0.500000)" fill="#FFFFFF" fill-opacity="0"/>
	<path id="Shape (Stroke)" d="M9.86 3.6C10.31 2.85 11.12 2.39 11.99 2.39C12.87 2.39 13.68 2.85 14.13 3.6L14.13 3.6L22.61 17.75C23.05 18.51 23.05 19.46 22.61 20.23C22.17 21.01 21.36 21.49 20.47 21.5L20.46 21.5L3.52 21.5C2.63 21.49 1.81 21.01 1.37 20.23C0.93 19.46 0.94 18.51 1.38 17.75L1.39 17.74L9.85 3.6L9.86 3.6ZM10.71 4.11C10.71 4.11 10.71 4.11 10.71 4.11L2.25 18.25C1.98 18.71 1.98 19.28 2.24 19.74C2.51 20.2 3 20.49 3.53 20.5L20.46 20.5C20.99 20.49 21.48 20.2 21.75 19.74C22.01 19.28 22.01 18.71 21.74 18.25L13.28 4.11C13.28 4.11 13.28 4.11 13.28 4.11C13 3.67 12.52 3.39 11.99 3.39C11.47 3.39 10.98 3.67 10.71 4.11Z" fill="#414141" fill-opacity="1.000000" fill-rule="evenodd"/>
</svg>
