<svg width="24.000000" height="24.000000" viewBox="0 0 24 24" fill="none" xmlns="http://www.w3.org/2000/svg" xmlns:xlink="http://www.w3.org/1999/xlink">
	<desc>
			Created with Pixso.
	</desc>
	<defs/>
	<rect id="feather-icon / droplet" rx="0.000000" width="23.000000" height="23.000000" transform="translate(0.500000 0.500000)" fill="#FFFFFF" fill-opacity="0"/>
	<path id="Shape (Stroke)" d="M10.99 2.18C11.13 2.18 11.25 2.24 11.35 2.33L17.01 7.99C19.44 10.42 20.17 14.08 18.85 17.26C17.54 20.43 14.44 22.5 11 22.5C7.56 22.5 4.46 20.43 3.15 17.26C1.83 14.08 2.56 10.42 4.99 7.99L10.64 2.33C10.73 2.24 10.86 2.18 10.99 2.18ZM11 3.39L5.7 8.7C3.55 10.84 2.91 14.07 4.07 16.87C5.23 19.68 7.97 21.5 11 21.5C14.03 21.5 16.77 19.68 17.93 16.87C19.09 14.07 18.45 10.84 16.3 8.7L11 3.39Z" fill="#414141" fill-opacity="1.000000" fill-rule="evenodd"/>
</svg>
