<svg width="24.000000" height="24.000000" viewBox="0 0 24 24" fill="none" xmlns="http://www.w3.org/2000/svg" xmlns:xlink="http://www.w3.org/1999/xlink">
	<desc>
			Created with Pixso.
	</desc>
	<defs/>
	<rect id="feather-icon / video-off" rx="0.000000" width="23.000000" height="23.000000" transform="translate(0.500000 0.500000)" fill="#FFFFFF" fill-opacity="0"/>
	<path id="Shape (Stroke)" d="M3 5.5C2.17 5.5 1.5 6.17 1.5 7L1.5 17C1.5 17.82 2.17 18.5 3 18.5L14 18.5C14.82 18.5 15.5 17.82 15.5 17L15.5 16C15.5 15.72 15.72 15.5 16 15.5C16.27 15.5 16.5 15.72 16.5 16L16.5 17C16.5 18.38 15.38 19.5 14 19.5L3 19.5C1.61 19.5 0.5 18.38 0.5 17L0.5 7C0.5 5.61 1.61 4.5 3 4.5L5 4.5C5.27 4.5 5.5 4.72 5.5 5C5.5 5.27 5.27 5.5 5 5.5L3 5.5ZM10.16 5C10.16 4.72 10.38 4.5 10.66 4.5L14 4.5C15.38 4.5 16.5 5.61 16.5 7L16.5 10.13L17.05 10.68L22.7 6.59C22.85 6.48 23.06 6.46 23.22 6.55C23.39 6.64 23.5 6.81 23.5 7L23.5 17C23.5 17.27 23.27 17.5 23 17.5C22.72 17.5 22.5 17.27 22.5 17L22.5 7.97L17.29 11.74C17.09 11.88 16.82 11.86 16.64 11.69L15.64 10.69C15.55 10.59 15.5 10.47 15.5 10.33L15.5 7C15.5 6.17 14.82 5.5 14 5.5L10.66 5.5C10.38 5.5 10.16 5.27 10.16 5Z" fill="#414141" fill-opacity="1.000000" fill-rule="evenodd"/>
	<path id="Shape (Stroke)" d="M0.64 0.64C0.84 0.45 1.15 0.45 1.35 0.64L23.35 22.64C23.54 22.84 23.54 23.15 23.35 23.35C23.15 23.54 22.84 23.54 22.64 23.35L0.64 1.35C0.45 1.15 0.45 0.84 0.64 0.64Z" fill="#414141" fill-opacity="1.000000" fill-rule="evenodd"/>
</svg>
