<svg width="24.000000" height="24.000000" viewBox="0 0 24 24" fill="none" xmlns="http://www.w3.org/2000/svg" xmlns:xlink="http://www.w3.org/1999/xlink">
	<desc>
			Created with Pixso.
	</desc>
	<defs/>
	<rect id="feather-icon / message-square-empty" rx="0.000000" width="23.000000" height="23.000000" transform="translate(0.500000 0.500000)" fill="#FFFFFF" fill-opacity="0"/>
	<path id="Shape (Stroke)" d="M5 3.5C4.17 3.5 3.5 4.17 3.5 5L3.5 19.79L6.64 16.64C6.74 16.55 6.86 16.5 7 16.5L19 16.5C19.82 16.5 20.5 15.82 20.5 15L20.5 5C20.5 4.17 19.82 3.5 19 3.5L5 3.5ZM2.5 5C2.5 3.61 3.61 2.5 5 2.5L19 2.5C20.38 2.5 21.5 3.61 21.5 5L21.5 15C21.5 16.38 20.38 17.5 19 17.5L7.2 17.5L3.35 21.35C3.21 21.49 2.99 21.53 2.8 21.46C2.62 21.38 2.5 21.2 2.5 21L2.5 5Z" fill="#414141" fill-opacity="1.000000" fill-rule="evenodd"/>
</svg>
