<svg width="24.000000" height="24.000000" viewBox="0 0 24 24" fill="none" xmlns="http://www.w3.org/2000/svg" xmlns:xlink="http://www.w3.org/1999/xlink">
	<desc>
			Created with Pixso.
	</desc>
	<defs/>
	<rect id="feather-icon / arrow-up" rx="0.000000" width="23.000000" height="23.000000" transform="translate(0.500000 0.500000)" fill="#FFFFFF" fill-opacity="0"/>
	<path id="Shape (Stroke)" d="M12 3.5C12.27 3.5 12.5 3.72 12.5 4L12.5 20C12.5 20.27 12.27 20.5 12 20.5C11.72 20.5 11.5 20.27 11.5 20L11.5 4C11.5 3.72 11.72 3.5 12 3.5Z" fill="#414141" fill-opacity="1.000000" fill-rule="evenodd"/>
	<path id="Shape (Stroke)" d="M11.64 3.64C11.84 3.45 12.15 3.45 12.35 3.64L18.35 9.64C18.54 9.84 18.54 10.15 18.35 10.35C18.15 10.54 17.84 10.54 17.64 10.35L12 4.7L6.35 10.35C6.15 10.54 5.84 10.54 5.64 10.35C5.45 10.15 5.45 9.84 5.64 9.64L11.64 3.64Z" fill="#414141" fill-opacity="1.000000" fill-rule="evenodd"/>
</svg>
