<svg width="24.000000" height="24.000000" viewBox="0 0 24 24" fill="none" xmlns="http://www.w3.org/2000/svg" xmlns:xlink="http://www.w3.org/1999/xlink">
	<desc>
			Created with Pixso.
	</desc>
	<defs/>
	<rect id="feather-icon / cloud-lightning" rx="0.000000" width="23.000000" height="23.000000" transform="translate(0.500000 0.500000)" fill="#FFFFFF" fill-opacity="0"/>
	<path id="Shape (Stroke)" d="M0.76 6.87C1.73 3.12 5.11 0.5 8.99 0.5C12.73 0.5 16.02 2.94 17.11 6.5L17.99 6.5C20.82 6.49 23.19 8.63 23.47 11.44C23.75 14.25 21.86 16.82 19.09 17.39C18.82 17.44 18.56 17.27 18.5 17C18.45 16.72 18.62 16.46 18.89 16.41C21.16 15.95 22.71 13.84 22.48 11.54C22.24 9.24 20.31 7.49 18 7.5L16.73 7.5C16.51 7.5 16.31 7.34 16.25 7.12C15.4 3.81 12.41 1.5 8.99 1.5C5.57 1.5 2.58 3.81 1.73 7.12C0.87 10.43 2.36 13.9 5.36 15.56C5.6 15.69 5.68 16 5.55 16.24C5.42 16.48 5.11 16.57 4.87 16.43C1.48 14.56 -0.21 10.62 0.76 6.87Z" fill="#414141" fill-opacity="1.000000" fill-rule="evenodd"/>
	<path id="Shape (Stroke)" d="M13.27 10.58C13.5 10.73 13.56 11.04 13.41 11.27L9.93 16.5L15 16.5C15.18 16.5 15.35 16.6 15.44 16.76C15.52 16.92 15.51 17.12 15.41 17.27L11.41 23.27C11.26 23.5 10.95 23.56 10.72 23.41C10.49 23.26 10.43 22.95 10.58 22.72L14.06 17.5L9 17.5C8.81 17.5 8.64 17.39 8.55 17.23C8.47 17.07 8.48 16.87 8.58 16.72L12.58 10.72C12.73 10.49 13.04 10.43 13.27 10.58Z" fill="#414141" fill-opacity="1.000000" fill-rule="evenodd"/>
</svg>
