<svg width="24.000000" height="24.000000" viewBox="0 0 24 24" fill="none" xmlns="http://www.w3.org/2000/svg" xmlns:xlink="http://www.w3.org/1999/xlink">
	<desc>
			Created with Pixso.
	</desc>
	<defs/>
	<rect id="feather-icon / scissors" rx="0.000000" width="23.000000" height="23.000000" transform="translate(0.500000 0.500000)" fill="#FFFFFF" fill-opacity="0"/>
	<path id="Oval (Stroke)" d="M2.5 6C2.5 4.06 4.06 2.5 6 2.5C7.93 2.5 9.5 4.06 9.5 6C9.5 7.93 7.93 9.5 6 9.5C4.06 9.5 2.5 7.93 2.5 6ZM6 3.5C4.61 3.5 3.5 4.61 3.5 6C3.5 7.38 4.61 8.5 6 8.5C7.38 8.5 8.5 7.38 8.5 6C8.5 4.61 7.38 3.5 6 3.5Z" fill="#414141" fill-opacity="1.000000" fill-rule="evenodd"/>
	<path id="Oval (Stroke)" d="M2.5 18C2.5 16.06 4.06 14.5 6 14.5C7.93 14.5 9.5 16.06 9.5 18C9.5 19.93 7.93 21.5 6 21.5C4.06 21.5 2.5 19.93 2.5 18ZM6 15.5C4.61 15.5 3.5 16.61 3.5 18C3.5 19.38 4.61 20.5 6 20.5C7.38 20.5 8.5 19.38 8.5 18C8.5 16.61 7.38 15.5 6 15.5Z" fill="#414141" fill-opacity="1.000000" fill-rule="evenodd"/>
	<path id="Shape (Stroke)" d="M20.35 3.64C20.55 3.84 20.55 4.15 20.35 4.35L8.47 16.23C8.27 16.42 7.96 16.42 7.76 16.23C7.57 16.03 7.57 15.72 7.76 15.52L19.64 3.64C19.84 3.45 20.16 3.45 20.35 3.64Z" fill="#414141" fill-opacity="1.000000" fill-rule="evenodd"/>
	<path id="Shape (Stroke)" d="M14.11 14.12C14.31 13.93 14.62 13.93 14.82 14.12L20.35 19.64C20.54 19.84 20.54 20.15 20.35 20.35C20.15 20.54 19.84 20.54 19.64 20.35L14.11 14.83C13.91 14.63 13.91 14.32 14.11 14.12Z" fill="#414141" fill-opacity="1.000000" fill-rule="evenodd"/>
	<path id="Shape (Stroke)" d="M7.76 7.76C7.96 7.57 8.27 7.57 8.47 7.76L12.35 11.64C12.55 11.84 12.55 12.15 12.35 12.35C12.16 12.54 11.84 12.54 11.64 12.35L7.76 8.47C7.57 8.27 7.57 7.96 7.76 7.76Z" fill="#414141" fill-opacity="1.000000" fill-rule="evenodd"/>
</svg>
