<svg width="24.000000" height="24.000000" viewBox="0 0 24 24" fill="none" xmlns="http://www.w3.org/2000/svg" xmlns:xlink="http://www.w3.org/1999/xlink">
	<desc>
			Created with Pixso.
	</desc>
	<defs/>
	<rect id="feather-icon / zap" rx="0.000000" width="23.000000" height="23.000000" transform="translate(0.500000 0.500000)" fill="#FFFFFF" fill-opacity="0"/>
	<path id="Shape (Stroke)" d="M13.19 1.54C13.4 1.62 13.52 1.84 13.49 2.06L12.56 9.5L21 9.5C21.19 9.5 21.37 9.61 21.45 9.78C21.53 9.96 21.5 10.17 21.38 10.32L11.38 22.32C11.24 22.49 11 22.54 10.8 22.45C10.59 22.37 10.47 22.15 10.5 21.93L11.43 14.5L3 14.5C2.8 14.5 2.62 14.38 2.54 14.21C2.46 14.03 2.49 13.82 2.61 13.68L12.61 1.68C12.75 1.5 12.99 1.45 13.19 1.54ZM4.06 13.5L12 13.5C12.14 13.5 12.27 13.56 12.37 13.66C12.47 13.77 12.51 13.91 12.49 14.06L11.7 20.36L19.93 10.5L12 10.5C11.85 10.5 11.72 10.43 11.62 10.33C11.52 10.22 11.48 10.08 11.5 9.93L12.29 3.63L4.06 13.5Z" fill="#414141" fill-opacity="1.000000" fill-rule="evenodd"/>
</svg>
