<svg width="24.000000" height="24.000000" viewBox="0 0 24 24" fill="none" xmlns="http://www.w3.org/2000/svg" xmlns:xlink="http://www.w3.org/1999/xlink">
	<desc>
			Created with Pixso.
	</desc>
	<defs/>
	<rect id="feather-icon / wifi" rx="0.000000" width="23.000000" height="23.000000" transform="translate(0.500000 0.500000)" fill="#FFFFFF" fill-opacity="0"/>
	<path id="Shape (Stroke)" d="M18.33 13.93C14.44 10.68 8.79 10.68 4.89 13.93C4.68 14.1 4.37 14.07 4.19 13.86C4.01 13.65 4.04 13.33 4.25 13.16C8.52 9.61 14.71 9.61 18.97 13.16C19.18 13.33 19.21 13.65 19.04 13.86C18.86 14.07 18.55 14.1 18.33 13.93Z" fill="#414141" fill-opacity="1.000000" fill-rule="evenodd"/>
	<path id="Shape (Stroke)" d="M21.83 10.37C15.97 5.2 7.18 5.2 1.33 10.37C1.12 10.55 0.8 10.53 0.62 10.32C0.44 10.12 0.46 9.8 0.66 9.62C6.9 4.12 16.25 4.12 22.49 9.62C22.69 9.8 22.71 10.12 22.53 10.32C22.35 10.53 22.03 10.55 21.83 10.37Z" fill="#414141" fill-opacity="1.000000" fill-rule="evenodd"/>
	<path id="Shape (Stroke)" d="M14.76 17.51C12.86 16.15 10.3 16.15 8.39 17.51C8.17 17.67 7.86 17.62 7.7 17.39C7.54 17.17 7.59 16.85 7.82 16.69C10.07 15.09 13.09 15.09 15.34 16.69C15.57 16.85 15.62 17.17 15.46 17.39C15.3 17.62 14.99 17.67 14.76 17.51Z" fill="#414141" fill-opacity="1.000000" fill-rule="evenodd"/>
	<path id="Ellipse" d="M13 21C13 21.55 12.55 22 12 22C11.44 22 11 21.55 11 21C11 20.44 11.44 20 12 20C12.55 20 13 20.44 13 21Z" fill="#414141" fill-opacity="1.000000" fill-rule="nonzero"/>
</svg>
