<svg width="24.000000" height="24.000000" viewBox="0 0 24 24" fill="none" xmlns="http://www.w3.org/2000/svg" xmlns:xlink="http://www.w3.org/1999/xlink">
	<desc>
			Created with Pixso.
	</desc>
	<defs/>
	<rect id="feather-icon / lock" rx="0.000000" width="23.000000" height="23.000000" transform="translate(0.500000 0.500000)" fill="#FFFFFF" fill-opacity="0"/>
	<path id="Rectangle-path (Stroke)" d="M2.5 13C2.5 11.61 3.61 10.5 5 10.5L19 10.5C20.38 10.5 21.5 11.61 21.5 13L21.5 20C21.5 21.38 20.38 22.5 19 22.5L5 22.5C3.61 22.5 2.5 21.38 2.5 20L2.5 13ZM5 11.5C4.17 11.5 3.5 12.17 3.5 13L3.5 20C3.5 20.82 4.17 21.5 5 21.5L19 21.5C19.82 21.5 20.5 20.82 20.5 20L20.5 13C20.5 12.17 19.82 11.5 19 11.5L5 11.5Z" fill="#414141" fill-opacity="1.000000" fill-rule="evenodd"/>
	<path id="Shape (Stroke)" d="M12 2.5C9.51 2.5 7.5 4.51 7.5 7L7.5 11C7.5 11.27 7.27 11.5 7 11.5C6.72 11.5 6.5 11.27 6.5 11L6.5 7C6.5 3.96 8.96 1.5 12 1.5C15.03 1.5 17.5 3.96 17.5 7L17.5 11C17.5 11.27 17.27 11.5 17 11.5C16.72 11.5 16.5 11.27 16.5 11L16.5 7C16.5 4.51 14.48 2.5 12 2.5Z" fill="#414141" fill-opacity="1.000000" fill-rule="evenodd"/>
</svg>
