<svg width="24.000000" height="24.000000" viewBox="0 0 24 24" fill="none" xmlns="http://www.w3.org/2000/svg" xmlns:xlink="http://www.w3.org/1999/xlink">
	<desc>
			Created with Pixso.
	</desc>
	<defs/>
	<rect id="feather-icon / trash" rx="0.000000" width="23.000000" height="23.000000" transform="translate(0.500000 0.500000)" fill="#FFFFFF" fill-opacity="0"/>
	<path id="Shape (Stroke)" d="M2.5 6C2.5 5.72 2.72 5.5 3 5.5L21 5.5C21.27 5.5 21.5 5.72 21.5 6C21.5 6.27 21.27 6.5 21 6.5L3 6.5C2.72 6.5 2.5 6.27 2.5 6Z" fill="#414141" fill-opacity="1.000000" fill-rule="evenodd"/>
	<path id="Shape (Stroke)" d="M10 2.5C9.17 2.5 8.5 3.17 8.5 4L8.5 6C8.5 6.27 8.27 6.5 8 6.5C7.72 6.5 7.5 6.27 7.5 6L7.5 4C7.5 2.61 8.61 1.5 10 1.5L14 1.5C15.38 1.5 16.5 2.61 16.5 4L16.5 6C16.5 6.27 16.27 6.5 16 6.5C15.72 6.5 15.5 6.27 15.5 6L15.5 4C15.5 3.17 14.82 2.5 14 2.5L10 2.5ZM5 5.5C5.27 5.5 5.5 5.72 5.5 6L5.5 20C5.5 20.82 6.17 21.5 7 21.5L17 21.5C17.82 21.5 18.5 20.82 18.5 20L18.5 6C18.5 5.72 18.72 5.5 19 5.5C19.27 5.5 19.5 5.72 19.5 6L19.5 20C19.5 21.38 18.38 22.5 17 22.5L7 22.5C5.61 22.5 4.5 21.38 4.5 20L4.5 6C4.5 5.72 4.72 5.5 5 5.5Z" fill="#414141" fill-opacity="1.000000" fill-rule="evenodd"/>
</svg>
