<svg width="24.000000" height="24.000000" viewBox="0 0 24 24" fill="none" xmlns="http://www.w3.org/2000/svg" xmlns:xlink="http://www.w3.org/1999/xlink">
	<desc>
			Created with Pixso.
	</desc>
	<defs/>
	<rect id="feather-icon / coin" rx="0.000000" width="23.000000" height="23.000000" transform="translate(0.500000 0.500000)" fill="#FFFFFF" fill-opacity="0"/>
	<path id="Oval (Stroke)" d="M3.79 4.62C5.22 2.72 7.23 1.5 9.5 1.5C11.76 1.5 13.77 2.72 15.2 4.62C16.63 6.53 17.5 9.14 17.5 12C17.5 14.85 16.63 17.46 15.2 19.37C13.77 21.27 11.76 22.5 9.5 22.5C7.23 22.5 5.22 21.27 3.79 19.37C2.36 17.46 1.5 14.85 1.5 12C1.5 9.14 2.36 6.53 3.79 4.62ZM4.59 5.22C3.31 6.94 2.5 9.33 2.5 12C2.5 14.66 3.31 17.05 4.59 18.77C5.88 20.48 7.62 21.5 9.5 21.5C11.37 21.5 13.11 20.48 14.4 18.77C15.68 17.05 16.5 14.66 16.5 12C16.5 9.33 15.68 6.94 14.4 5.22C13.11 3.51 11.37 2.5 9.5 2.5C7.62 2.5 5.88 3.51 4.59 5.22Z" fill="#414141" fill-opacity="1.000000" fill-rule="evenodd"/>
	<path id="Oval (Stroke)" d="M9 2C9 1.72 9.22 1.5 9.5 1.5L14.5 1.5C16.76 1.5 18.77 2.72 20.2 4.62C21.63 6.53 22.5 9.14 22.5 12C22.5 14.85 21.63 17.46 20.2 19.37C18.77 21.27 16.76 22.5 14.5 22.5L9.5 22.5C9.22 22.5 9 22.27 9 22C9 21.72 9.22 21.5 9.5 21.5L14.5 21.5C16.37 21.5 18.11 20.48 19.4 18.77C20.68 17.05 21.5 14.66 21.5 12C21.5 9.33 20.68 6.94 19.4 5.22C18.11 3.51 16.37 2.5 14.5 2.5L9.5 2.5C9.22 2.5 9 2.27 9 2Z" fill="#414141" fill-opacity="1.000000" fill-rule="evenodd"/>
</svg>
