<svg width="25.000000" height="25.000000" viewBox="0 0 25 25" fill="none" xmlns="http://www.w3.org/2000/svg" xmlns:xlink="http://www.w3.org/1999/xlink">
	<desc>
			Created with Pixso.
	</desc>
	<defs/>
	<rect id="feather-icon / camera" rx="0.000000" width="24.000000" height="24.000000" transform="translate(0.500000 0.500000)" fill="#FFFFFF" fill-opacity="0"/>
	<path id="Shape (Stroke)" d="M8.94 2.83C9.03 2.69 9.2 2.6 9.37 2.6L15.62 2.6C15.79 2.6 15.96 2.69 16.05 2.83L17.98 5.72L21.87 5.72C23.31 5.72 24.48 6.89 24.48 8.33L24.48 19.79C24.48 21.23 23.31 22.39 21.87 22.39L3.12 22.39C1.68 22.39 0.52 21.23 0.52 19.79L0.52 8.33C0.52 6.89 1.68 5.72 3.12 5.72L7.01 5.72L8.94 2.83ZM9.65 3.64L7.72 6.53C7.62 6.68 7.46 6.77 7.29 6.77L3.12 6.77C2.26 6.77 1.56 7.47 1.56 8.33L1.56 19.79C1.56 20.65 2.26 21.35 3.12 21.35L21.87 21.35C22.73 21.35 23.43 20.65 23.43 19.79L23.43 8.33C23.43 7.47 22.73 6.77 21.87 6.77L17.7 6.77C17.53 6.77 17.37 6.68 17.27 6.53L15.34 3.64L9.65 3.64Z" fill="#414141" fill-opacity="1.000000" fill-rule="evenodd"/>
	<path id="Oval (Stroke)" d="M7.81 13.54C7.81 10.95 9.91 8.85 12.5 8.85C15.08 8.85 17.18 10.95 17.18 13.54C17.18 16.13 15.08 18.22 12.5 18.22C9.91 18.22 7.81 16.13 7.81 13.54ZM12.5 9.89C10.48 9.89 8.85 11.52 8.85 13.54C8.85 15.55 10.48 17.18 12.5 17.18C14.51 17.18 16.14 15.55 16.14 13.54C16.14 11.52 14.51 9.89 12.5 9.89Z" fill="#414141" fill-opacity="1.000000" fill-rule="evenodd"/>
</svg>
