<svg width="24.000000" height="24.000000" viewBox="0 0 24 24" fill="none" xmlns="http://www.w3.org/2000/svg" xmlns:xlink="http://www.w3.org/1999/xlink">
	<desc>
			Created with Pixso.
	</desc>
	<defs/>
	<rect id="feather-icon / plus" rx="0.000000" width="23.000000" height="23.000000" transform="translate(0.500000 0.500000)" fill="#FFFFFF" fill-opacity="0"/>
	<path id="Shape (Stroke)" d="M12 4.5C12.27 4.5 12.5 4.72 12.5 5L12.5 19C12.5 19.27 12.27 19.5 12 19.5C11.72 19.5 11.5 19.27 11.5 19L11.5 5C11.5 4.72 11.72 4.5 12 4.5Z" fill="#414141" fill-opacity="1.000000" fill-rule="evenodd"/>
	<path id="Shape (Stroke)" d="M4.5 12C4.5 11.72 4.72 11.5 5 11.5L19 11.5C19.27 11.5 19.5 11.72 19.5 12C19.5 12.27 19.27 12.5 19 12.5L5 12.5C4.72 12.5 4.5 12.27 4.5 12Z" fill="#414141" fill-opacity="1.000000" fill-rule="evenodd"/>
</svg>
