<svg width="24.000000" height="24.000000" viewBox="0 0 24 24" fill="none" xmlns="http://www.w3.org/2000/svg" xmlns:xlink="http://www.w3.org/1999/xlink">
	<desc>
			Created with Pixso.
	</desc>
	<defs/>
	<rect id="feather-icon / inbox" rx="0.000000" width="23.000000" height="23.000000" transform="translate(0.500000 0.500000)" fill="#FFFFFF" fill-opacity="0"/>
	<path id="Shape (Stroke)" d="M1.5 13C1.5 12.72 1.72 12.5 2 12.5L8 12.5C8.16 12.5 8.32 12.58 8.41 12.72L10.26 15.5L13.73 15.5L15.58 12.72C15.67 12.58 15.83 12.5 16 12.5L22 12.5C22.27 12.5 22.5 12.72 22.5 13C22.5 13.27 22.27 13.5 22 13.5L16.26 13.5L14.41 16.27C14.32 16.41 14.16 16.5 14 16.5L10 16.5C9.83 16.5 9.67 16.41 9.58 16.27L7.73 13.5L2 13.5C1.72 13.5 1.5 13.27 1.5 13Z" fill="#414141" fill-opacity="1.000000" fill-rule="evenodd"/>
	<path id="Vector 185 (Stroke)" d="M5.01 4.98C5.41 4.08 6.31 3.5 7.29 3.5L16.7 3.5C17.68 3.5 18.58 4.08 18.98 4.98L22.28 12.4L21.82 12.61L22.28 12.4C22.42 12.72 22.5 13.07 22.5 13.42L22.5 18C22.5 19.38 21.38 20.5 20 20.5L4 20.5C2.61 20.5 1.5 19.38 1.5 18L1.5 13.42C1.5 13.07 1.57 12.72 1.71 12.4L2.17 12.61L1.71 12.4L5.01 4.98ZM7.29 4.5C6.7 4.5 6.16 4.84 5.92 5.39L2.62 12.81C2.54 13 2.5 13.21 2.5 13.42L2.5 18C2.5 18.82 3.17 19.5 4 19.5L20 19.5C20.82 19.5 21.5 18.82 21.5 18L21.5 13.42C21.5 13.21 21.45 13 21.37 12.81L18.07 5.39C17.83 4.84 17.29 4.5 16.7 4.5L7.29 4.5Z" fill="#414141" fill-opacity="1.000000" fill-rule="evenodd"/>
</svg>
