<svg width="24.000000" height="24.000000" viewBox="0 0 24 24" fill="none" xmlns="http://www.w3.org/2000/svg" xmlns:xlink="http://www.w3.org/1999/xlink">
	<desc>
			Created with Pixso.
	</desc>
	<defs/>
	<rect id="feather-icon / chevrons-left" rx="0.000000" width="23.000000" height="23.000000" transform="translate(0.500000 0.500000)" fill="#FFFFFF" fill-opacity="0"/>
	<path id="Vector" d="M11.35 7.35C11.54 7.15 11.54 6.84 11.35 6.64C11.15 6.45 10.84 6.45 10.64 6.64L5.64 11.64C5.45 11.84 5.45 12.15 5.64 12.35L10.64 17.35C10.84 17.54 11.15 17.54 11.35 17.35C11.54 17.15 11.54 16.84 11.35 16.64L6.7 12L11.35 7.35ZM18.35 7.35C18.54 7.15 18.54 6.84 18.35 6.64C18.15 6.45 17.84 6.45 17.64 6.64L12.64 11.64C12.45 11.84 12.45 12.15 12.64 12.35L17.64 17.35C17.84 17.54 18.15 17.54 18.35 17.35C18.54 17.15 18.54 16.84 18.35 16.64L13.7 12L18.35 7.35Z" fill="#414141" fill-opacity="1.000000" fill-rule="evenodd"/>
</svg>
