<svg width="24.000000" height="24.000000" viewBox="0 0 24 24" fill="none" xmlns="http://www.w3.org/2000/svg" xmlns:xlink="http://www.w3.org/1999/xlink">
	<desc>
			Created with Pixso.
	</desc>
	<defs/>
	<rect id="feather-icon / thermometer" rx="0.000000" width="23.000000" height="23.000000" transform="translate(0.500000 0.500000)" fill="#FFFFFF" fill-opacity="0"/>
	<path id="Shape (Stroke)" d="M8.5 3.5C8.5 1.84 9.84 0.5 11.5 0.5C13.15 0.5 14.5 1.84 14.5 3.5L14.5 14.5C16.17 15.75 16.89 17.93 16.28 19.95C15.64 22.06 13.7 23.5 11.5 23.5C9.29 23.5 7.35 22.06 6.71 19.95C6.1 17.93 6.82 15.75 8.5 14.5L8.5 3.5ZM11.5 1.5C10.39 1.5 9.5 2.39 9.5 3.5L9.5 14.75C9.5 14.92 9.41 15.08 9.27 15.17C7.81 16.15 7.16 17.97 7.67 19.66C8.18 21.34 9.73 22.5 11.5 22.5C13.26 22.5 14.81 21.34 15.32 19.66C15.83 17.97 15.18 16.15 13.72 15.17C13.58 15.08 13.5 14.92 13.5 14.75L13.5 3.5C13.5 2.39 12.6 1.5 11.5 1.5Z" fill="#414141" fill-opacity="1.000000" fill-rule="evenodd"/>
</svg>
