<svg width="24.000000" height="24.000000" viewBox="0 0 24 24" fill="none" xmlns="http://www.w3.org/2000/svg" xmlns:xlink="http://www.w3.org/1999/xlink">
	<desc>
			Created with Pixso.
	</desc>
	<defs/>
	<rect id="feather-icon / file-text" rx="0.000000" width="23.000000" height="23.000000" transform="translate(0.500000 0.500000)" fill="#FFFFFF" fill-opacity="0"/>
	<path id="Shape (Stroke)" d="M3.5 4C3.5 2.61 4.61 1.5 6 1.5L14 1.5C14.13 1.5 14.25 1.55 14.35 1.64L20.35 7.64C20.44 7.74 20.5 7.86 20.5 8L20.5 20C20.5 21.38 19.38 22.5 18 22.5L6 22.5C4.61 22.5 3.5 21.38 3.5 20L3.5 4ZM6 2.5C5.17 2.5 4.5 3.17 4.5 4L4.5 20C4.5 20.82 5.17 21.5 6 21.5L18 21.5C18.82 21.5 19.5 20.82 19.5 20L19.5 8.2L13.79 2.5L6 2.5Z" fill="#414141" fill-opacity="1.000000" fill-rule="evenodd"/>
	<path id="Shape (Stroke)" d="M14 1.5C14.27 1.5 14.5 1.72 14.5 2L14.5 7.5L20 7.5C20.27 7.5 20.5 7.72 20.5 8C20.5 8.27 20.27 8.5 20 8.5L14 8.5C13.72 8.5 13.5 8.27 13.5 8L13.5 2C13.5 1.72 13.72 1.5 14 1.5Z" fill="#414141" fill-opacity="1.000000" fill-rule="evenodd"/>
	<path id="Shape (Stroke)" d="M7.5 13C7.5 12.72 7.72 12.5 8 12.5L16 12.5C16.27 12.5 16.5 12.72 16.5 13C16.5 13.27 16.27 13.5 16 13.5L8 13.5C7.72 13.5 7.5 13.27 7.5 13Z" fill="#414141" fill-opacity="1.000000" fill-rule="evenodd"/>
	<path id="Shape (Stroke)" d="M7.5 17C7.5 16.72 7.72 16.5 8 16.5L16 16.5C16.27 16.5 16.5 16.72 16.5 17C16.5 17.27 16.27 17.5 16 17.5L8 17.5C7.72 17.5 7.5 17.27 7.5 17Z" fill="#414141" fill-opacity="1.000000" fill-rule="evenodd"/>
	<path id="Shape (Stroke)" d="M7.5 9C7.5 8.72 7.72 8.5 8 8.5L10 8.5C10.27 8.5 10.5 8.72 10.5 9C10.5 9.27 10.27 9.5 10 9.5L8 9.5C7.72 9.5 7.5 9.27 7.5 9Z" fill="#414141" fill-opacity="1.000000" fill-rule="evenodd"/>
</svg>
