<svg width="24.000000" height="24.000000" viewBox="0 0 24 24" fill="none" xmlns="http://www.w3.org/2000/svg" xmlns:xlink="http://www.w3.org/1999/xlink">
	<desc>
			Created with Pixso.
	</desc>
	<defs/>
	<rect id="feather-icon / credit-card" rx="0.000000" width="23.000000" height="23.000000" transform="translate(0.500000 0.500000)" fill="#FFFFFF" fill-opacity="0"/>
	<path id="Rectangle-path (Stroke)" d="M0.5 6C0.5 4.61 1.61 3.5 3 3.5L21 3.5C22.38 3.5 23.5 4.61 23.5 6L23.5 18C23.5 19.38 22.38 20.5 21 20.5L3 20.5C1.61 20.5 0.5 19.38 0.5 18L0.5 6ZM3 4.5C2.17 4.5 1.5 5.17 1.5 6L1.5 18C1.5 18.82 2.17 19.5 3 19.5L21 19.5C21.82 19.5 22.5 18.82 22.5 18L22.5 6C22.5 5.17 21.82 4.5 21 4.5L3 4.5Z" fill="#414141" fill-opacity="1.000000" fill-rule="evenodd"/>
	<path id="Shape (Stroke)" d="M0.5 10C0.5 9.72 0.72 9.5 1 9.5L23 9.5C23.27 9.5 23.5 9.72 23.5 10C23.5 10.27 23.27 10.5 23 10.5L1 10.5C0.72 10.5 0.5 10.27 0.5 10Z" fill="#414141" fill-opacity="1.000000" fill-rule="evenodd"/>
</svg>
