<svg width="24.000000" height="24.000000" viewBox="0 0 24 24" fill="none" xmlns="http://www.w3.org/2000/svg" xmlns:xlink="http://www.w3.org/1999/xlink">
	<desc>
			Created with Pixso.
	</desc>
	<defs/>
	<rect id="feather-icon / file" rx="0.000000" width="23.000000" height="23.000000" transform="translate(0.500000 0.500000)" fill="#FFFFFF" fill-opacity="0"/>
	<path id="Shape (Stroke)" d="M3.5 4C3.5 2.61 4.61 1.5 6 1.5L13 1.5C13.13 1.5 13.25 1.55 13.35 1.64L20.35 8.64C20.44 8.74 20.5 8.86 20.5 9L20.5 20C20.5 21.38 19.38 22.5 18 22.5L6 22.5C4.61 22.5 3.5 21.38 3.5 20L3.5 4ZM6 2.5C5.17 2.5 4.5 3.17 4.5 4L4.5 20C4.5 20.82 5.17 21.5 6 21.5L18 21.5C18.82 21.5 19.5 20.82 19.5 20L19.5 9.2L12.79 2.5L6 2.5Z" fill="#414141" fill-opacity="1.000000" fill-rule="evenodd"/>
	<path id="Shape (Stroke)" d="M13 1.5C13.27 1.5 13.5 1.72 13.5 2L13.5 8.5L20 8.5C20.27 8.5 20.5 8.72 20.5 9C20.5 9.27 20.27 9.5 20 9.5L13 9.5C12.72 9.5 12.5 9.27 12.5 9L12.5 2C12.5 1.72 12.72 1.5 13 1.5Z" fill="#414141" fill-opacity="1.000000" fill-rule="evenodd"/>
</svg>
