<svg width="24.000000" height="24.000000" viewBox="0 0 24 24" fill="none" xmlns="http://www.w3.org/2000/svg" xmlns:xlink="http://www.w3.org/1999/xlink">
	<desc>
			Created with Pixso.
	</desc>
	<defs/>
	<rect id="feather-icon / printer" rx="0.000000" width="23.000000" height="23.000000" transform="translate(0.500000 0.500000)" fill="#FFFFFF" fill-opacity="0"/>
	<path id="Shape (Stroke)" d="M5.5 2C5.5 1.72 5.72 1.5 6 1.5L18 1.5C18.27 1.5 18.5 1.72 18.5 2L18.5 9C18.5 9.27 18.27 9.5 18 9.5C17.72 9.5 17.5 9.27 17.5 9L17.5 2.5L6.5 2.5L6.5 9C6.5 9.27 6.27 9.5 6 9.5C5.72 9.5 5.5 9.27 5.5 9L5.5 2Z" fill="#414141" fill-opacity="1.000000" fill-rule="evenodd"/>
	<path id="Shape (Stroke)" d="M4 9.5C3.17 9.5 2.5 10.17 2.5 11L2.5 16C2.5 16.82 3.17 17.5 4 17.5L6 17.5C6.27 17.5 6.5 17.72 6.5 18C6.5 18.27 6.27 18.5 6 18.5L4 18.5C2.61 18.5 1.5 17.38 1.5 16L1.5 11C1.5 9.61 2.61 8.5 4 8.5L20 8.5C21.38 8.5 22.5 9.61 22.5 11L22.5 16C22.5 17.38 21.38 18.5 20 18.5L18 18.5C17.72 18.5 17.5 18.27 17.5 18C17.5 17.72 17.72 17.5 18 17.5L20 17.5C20.82 17.5 21.5 16.82 21.5 16L21.5 11C21.5 10.17 20.82 9.5 20 9.5L4 9.5Z" fill="#414141" fill-opacity="1.000000" fill-rule="evenodd"/>
	<path id="Rectangle-path (Stroke)" d="M5.5 14C5.5 13.72 5.72 13.5 6 13.5L18 13.5C18.27 13.5 18.5 13.72 18.5 14L18.5 22C18.5 22.27 18.27 22.5 18 22.5L6 22.5C5.72 22.5 5.5 22.27 5.5 22L5.5 14ZM6.5 14.5L6.5 21.5L17.5 21.5L17.5 14.5L6.5 14.5Z" fill="#414141" fill-opacity="1.000000" fill-rule="evenodd"/>
</svg>
