<svg width="24.000000" height="24.000000" viewBox="0 0 24 24" fill="none" xmlns="http://www.w3.org/2000/svg" xmlns:xlink="http://www.w3.org/1999/xlink">
	<desc>
			Created with Pixso.
	</desc>
	<defs/>
	<rect id="feather-icon / more-horizontal" rx="0.000000" width="23.000000" height="23.000000" transform="translate(0.500000 0.500000)" fill="#FFFFFF" fill-opacity="0"/>
	<path id="Oval (Stroke)" d="M9.5 12C9.5 10.61 10.61 9.5 12 9.5C13.38 9.5 14.5 10.61 14.5 12C14.5 13.38 13.38 14.5 12 14.5C10.61 14.5 9.5 13.38 9.5 12ZM12 10.5C11.17 10.5 10.5 11.17 10.5 12C10.5 12.82 11.17 13.5 12 13.5C12.82 13.5 13.5 12.82 13.5 12C13.5 11.17 12.82 10.5 12 10.5Z" fill="#414141" fill-opacity="1.000000" fill-rule="evenodd"/>
	<path id="Oval (Stroke)" d="M17.5 12C17.5 10.61 18.61 9.5 20 9.5C21.38 9.5 22.5 10.61 22.5 12C22.5 13.38 21.38 14.5 20 14.5C18.61 14.5 17.5 13.38 17.5 12ZM20 10.5C19.17 10.5 18.5 11.17 18.5 12C18.5 12.82 19.17 13.5 20 13.5C20.82 13.5 21.5 12.82 21.5 12C21.5 11.17 20.82 10.5 20 10.5Z" fill="#414141" fill-opacity="1.000000" fill-rule="evenodd"/>
	<path id="Oval (Stroke)" d="M1.5 12C1.5 10.61 2.61 9.5 4 9.5C5.38 9.5 6.5 10.61 6.5 12C6.5 13.38 5.38 14.5 4 14.5C2.61 14.5 1.5 13.38 1.5 12ZM4 10.5C3.17 10.5 2.5 11.17 2.5 12C2.5 12.82 3.17 13.5 4 13.5C4.82 13.5 5.5 12.82 5.5 12C5.5 11.17 4.82 10.5 4 10.5Z" fill="#414141" fill-opacity="1.000000" fill-rule="evenodd"/>
</svg>
