<svg width="24.000000" height="24.000000" viewBox="0 0 24 24" fill="none" xmlns="http://www.w3.org/2000/svg" xmlns:xlink="http://www.w3.org/1999/xlink">
	<desc>
			Created with Pixso.
	</desc>
	<defs/>
	<rect id="feather-icon / dot in circle " rx="0.000000" width="23.000000" height="23.000000" transform="translate(0.500000 0.500000)" fill="#FFFFFF" fill-opacity="0"/>
	<path id="Oval (Stroke)" d="M1.5 12C1.5 6.2 6.2 1.5 12 1.5C17.79 1.5 22.5 6.2 22.5 12C22.5 17.79 17.79 22.5 12 22.5C6.2 22.5 1.5 17.79 1.5 12ZM12 2.5C6.75 2.5 2.5 6.75 2.5 12C2.5 17.24 6.75 21.5 12 21.5C17.24 21.5 21.5 17.24 21.5 12C21.5 6.75 17.24 2.5 12 2.5Z" fill="#414141" fill-opacity="1.000000" fill-rule="evenodd"/>
	<path id="Oval" d="M12 16C9.79 16 8 14.2 8 12C8 9.79 9.79 8 12 8C14.2 8 16 9.79 16 12C16 14.2 14.2 16 12 16Z" fill="#414141" fill-opacity="1.000000" fill-rule="evenodd"/>
</svg>
