<svg width="24.000000" height="24.000000" viewBox="0 0 24 24" fill="none" xmlns="http://www.w3.org/2000/svg" xmlns:xlink="http://www.w3.org/1999/xlink">
	<desc>
			Created with Pixso.
	</desc>
	<defs/>
	<rect id="feather-icon / globe" rx="0.000000" width="23.000000" height="23.000000" transform="translate(0.500000 0.500000)" fill="#FFFFFF" fill-opacity="0"/>
	<path id="Oval (Stroke)" d="M1.5 12C1.5 6.2 6.2 1.5 12 1.5C17.79 1.5 22.5 6.2 22.5 12C22.5 17.79 17.79 22.5 12 22.5C6.2 22.5 1.5 17.79 1.5 12ZM12 2.5C6.75 2.5 2.5 6.75 2.5 12C2.5 17.24 6.75 21.5 12 21.5C17.24 21.5 21.5 17.24 21.5 12C21.5 6.75 17.24 2.5 12 2.5Z" fill="#414141" fill-opacity="1.000000" fill-rule="evenodd"/>
	<path id="Shape (Stroke)" d="M1.5 12C1.5 11.72 1.72 11.5 2 11.5L22 11.5C22.27 11.5 22.5 11.72 22.5 12C22.5 12.27 22.27 12.5 22 12.5L2 12.5C1.72 12.5 1.5 12.27 1.5 12Z" fill="#414141" fill-opacity="1.000000" fill-rule="evenodd"/>
	<path id="Shape (Stroke)" d="M12.18 1.53C12.25 1.56 12.32 1.6 12.37 1.66C14.95 4.49 16.41 8.16 16.5 11.98C16.5 11.99 16.5 12 16.5 12.01C16.41 15.83 14.95 19.5 12.36 22.33C12.27 22.44 12.14 22.5 12 22.5C11.85 22.5 11.72 22.44 11.63 22.33C9.04 19.5 7.58 15.83 7.5 12.01C7.5 12 7.5 11.99 7.5 11.98C7.58 8.16 9.04 4.49 11.63 1.66C11.76 1.51 11.98 1.45 12.18 1.53ZM8.5 12C8.57 15.39 9.81 18.65 12 21.24C14.18 18.65 15.42 15.39 15.5 12C15.42 8.6 14.18 5.34 12 2.75C9.81 5.34 8.57 8.6 8.5 12Z" fill="#414141" fill-opacity="1.000000" fill-rule="evenodd"/>
</svg>
