<svg width="24.000000" height="24.000000" viewBox="0 0 24 24" fill="none" xmlns="http://www.w3.org/2000/svg" xmlns:xlink="http://www.w3.org/1999/xlink">
	<desc>
			Created with Pixso.
	</desc>
	<defs/>
	<rect id="feather-icon / copy" rx="0.000000" width="23.000000" height="23.000000" transform="translate(0.500000 0.500000)" fill="#FFFFFF" fill-opacity="0"/>
	<path id="Rectangle-path (Stroke)" d="M8.5 11C8.5 9.61 9.61 8.5 11 8.5L20 8.5C21.38 8.5 22.5 9.61 22.5 11L22.5 20C22.5 21.38 21.38 22.5 20 22.5L11 22.5C9.61 22.5 8.5 21.38 8.5 20L8.5 11ZM11 9.5C10.17 9.5 9.5 10.17 9.5 11L9.5 20C9.5 20.82 10.17 21.5 11 21.5L20 21.5C20.82 21.5 21.5 20.82 21.5 20L21.5 11C21.5 10.17 20.82 9.5 20 9.5L11 9.5Z" fill="#414141" fill-opacity="1.000000" fill-rule="evenodd"/>
	<path id="Shape (Stroke)" d="M4 2.5C3.17 2.5 2.5 3.17 2.5 4L2.5 13C2.5 13.82 3.17 14.5 4 14.5L5 14.5C5.27 14.5 5.5 14.72 5.5 15C5.5 15.27 5.27 15.5 5 15.5L4 15.5C2.61 15.5 1.5 14.38 1.5 13L1.5 4C1.5 2.61 2.61 1.5 4 1.5L13 1.5C14.38 1.5 15.5 2.61 15.5 4L15.5 5C15.5 5.27 15.27 5.5 15 5.5C14.72 5.5 14.5 5.27 14.5 5L14.5 4C14.5 3.17 13.82 2.5 13 2.5L4 2.5Z" fill="#414141" fill-opacity="1.000000" fill-rule="evenodd"/>
</svg>
