<svg width="24.000000" height="24.000000" viewBox="0 0 24 24" fill="none" xmlns="http://www.w3.org/2000/svg" xmlns:xlink="http://www.w3.org/1999/xlink">
	<desc>
			Created with Pixso.
	</desc>
	<defs/>
	<rect id="feather-icon / voicemail" rx="0.000000" width="23.000000" height="23.000000" transform="translate(0.500000 0.500000)" fill="#FFFFFF" fill-opacity="0"/>
	<path id="Oval (Stroke)" d="M0.5 11.5C0.5 8.73 2.73 6.5 5.5 6.5C8.26 6.5 10.5 8.73 10.5 11.5C10.5 14.26 8.26 16.5 5.5 16.5C2.73 16.5 0.5 14.26 0.5 11.5ZM5.5 7.5C3.29 7.5 1.5 9.29 1.5 11.5C1.5 13.7 3.29 15.5 5.5 15.5C7.7 15.5 9.5 13.7 9.5 11.5C9.5 9.29 7.7 7.5 5.5 7.5Z" fill="#414141" fill-opacity="1.000000" fill-rule="evenodd"/>
	<path id="Oval (Stroke)" d="M13.5 11.5C13.5 8.73 15.73 6.5 18.5 6.5C21.26 6.5 23.5 8.73 23.5 11.5C23.5 14.26 21.26 16.5 18.5 16.5C15.73 16.5 13.5 14.26 13.5 11.5ZM18.5 7.5C16.29 7.5 14.5 9.29 14.5 11.5C14.5 13.7 16.29 15.5 18.5 15.5C20.7 15.5 22.5 13.7 22.5 11.5C22.5 9.29 20.7 7.5 18.5 7.5Z" fill="#414141" fill-opacity="1.000000" fill-rule="evenodd"/>
	<path id="Shape (Stroke)" d="M5 16C5 15.72 5.22 15.5 5.5 15.5L18.5 15.5C18.77 15.5 19 15.72 19 16C19 16.27 18.77 16.5 18.5 16.5L5.5 16.5C5.22 16.5 5 16.27 5 16Z" fill="#414141" fill-opacity="1.000000" fill-rule="evenodd"/>
</svg>
