<svg width="24.000000" height="24.000000" viewBox="0 0 24 24" fill="none" xmlns="http://www.w3.org/2000/svg" xmlns:xlink="http://www.w3.org/1999/xlink">
	<desc>
			Created with Pixso.
	</desc>
	<defs/>
	<rect id="feather-icon / alert-octagon" rx="0.000000" width="23.000000" height="23.000000" transform="translate(0.500000 0.500000)" fill="#FFFFFF" fill-opacity="0"/>
	<path id="Vector" d="M7.5 1.64C7.59 1.55 7.72 1.5 7.85 1.5L16.14 1.5C16.27 1.5 16.4 1.55 16.49 1.64L22.35 7.5C22.44 7.6 22.5 7.72 22.5 7.85L22.5 16.14C22.5 16.27 22.44 16.39 22.35 16.49L16.49 22.35C16.4 22.44 16.27 22.5 16.14 22.5L7.85 22.5C7.72 22.5 7.59 22.44 7.5 22.35L1.64 16.49C1.55 16.39 1.5 16.27 1.5 16.14L1.5 7.85C1.5 7.72 1.55 7.6 1.64 7.5L7.5 1.64ZM8.06 2.5L2.5 8.06L2.5 15.93L8.06 21.5L15.93 21.5L21.5 15.93L21.5 8.06L15.93 2.5L8.06 2.5ZM12 7.5C12.27 7.5 12.5 7.72 12.5 8L12.5 12C12.5 12.27 12.27 12.5 12 12.5C11.72 12.5 11.5 12.27 11.5 12L11.5 8C11.5 7.72 11.72 7.5 12 7.5ZM12 17C12.55 17 13 16.55 13 16C13 15.44 12.55 15 12 15C11.44 15 11 15.44 11 16C11 16.55 11.44 17 12 17Z" fill="#414141" fill-opacity="1.000000" fill-rule="evenodd"/>
</svg>
