<svg width="24.000000" height="24.000000" viewBox="0 0 24 24" fill="none" xmlns="http://www.w3.org/2000/svg" xmlns:xlink="http://www.w3.org/1999/xlink">
	<desc>
			Created with Pixso.
	</desc>
	<defs/>
	<rect id="feather-icon / power" rx="0.000000" width="23.000000" height="23.000000" transform="translate(0.500000 0.500000)" fill="#FFFFFF" fill-opacity="0"/>
	<path id="Shape (Stroke)" d="M5.98 6.28C6.17 6.48 6.17 6.79 5.98 6.99C2.66 10.31 2.66 15.69 5.98 19.01C9.3 22.33 14.68 22.33 18 19.01C21.32 15.69 21.32 10.31 18 6.99C17.81 6.79 17.81 6.48 18 6.28C18.2 6.09 18.51 6.09 18.71 6.28C22.42 9.99 22.42 16.01 18.71 19.72C15 23.43 8.98 23.43 5.27 19.72C1.56 16.01 1.56 9.99 5.27 6.28C5.47 6.09 5.78 6.09 5.98 6.28Z" fill="#414141" fill-opacity="1.000000" fill-rule="evenodd"/>
	<path id="Shape (Stroke)" d="M12 1.5C12.27 1.5 12.5 1.72 12.5 2L12.5 12C12.5 12.27 12.27 12.5 12 12.5C11.72 12.5 11.5 12.27 11.5 12L11.5 2C11.5 1.72 11.72 1.5 12 1.5Z" fill="#414141" fill-opacity="1.000000" fill-rule="evenodd"/>
</svg>
