<svg width="24.000000" height="24.000000" viewBox="0 0 24 24" fill="none" xmlns="http://www.w3.org/2000/svg" xmlns:xlink="http://www.w3.org/1999/xlink">
	<desc>
			Created with Pixso.
	</desc>
	<defs/>
	<rect id="feather-icon / more-vertical" rx="0.000000" width="23.000000" height="23.000000" transform="translate(0.500000 0.500000)" fill="#FFFFFF" fill-opacity="0"/>
	<path id="Oval (Stroke)" d="M9.5 12C9.5 10.61 10.61 9.5 12 9.5C13.38 9.5 14.5 10.61 14.5 12C14.5 13.38 13.38 14.5 12 14.5C10.61 14.5 9.5 13.38 9.5 12ZM12 10.5C11.17 10.5 10.5 11.17 10.5 12C10.5 12.82 11.17 13.5 12 13.5C12.82 13.5 13.5 12.82 13.5 12C13.5 11.17 12.82 10.5 12 10.5Z" fill="#414141" fill-opacity="1.000000" fill-rule="evenodd"/>
	<path id="Oval (Stroke)" d="M9.5 4C9.5 2.61 10.61 1.5 12 1.5C13.38 1.5 14.5 2.61 14.5 4C14.5 5.38 13.38 6.5 12 6.5C10.61 6.5 9.5 5.38 9.5 4ZM12 2.5C11.17 2.5 10.5 3.17 10.5 4C10.5 4.82 11.17 5.5 12 5.5C12.82 5.5 13.5 4.82 13.5 4C13.5 3.17 12.82 2.5 12 2.5Z" fill="#414141" fill-opacity="1.000000" fill-rule="evenodd"/>
	<path id="Oval (Stroke)" d="M9.5 20C9.5 18.61 10.61 17.5 12 17.5C13.38 17.5 14.5 18.61 14.5 20C14.5 21.38 13.38 22.5 12 22.5C10.61 22.5 9.5 21.38 9.5 20ZM12 18.5C11.17 18.5 10.5 19.17 10.5 20C10.5 20.82 11.17 21.5 12 21.5C12.82 21.5 13.5 20.82 13.5 20C13.5 19.17 12.82 18.5 12 18.5Z" fill="#414141" fill-opacity="1.000000" fill-rule="evenodd"/>
</svg>
