<svg width="24.000000" height="24.000000" viewBox="0 0 24 24" fill="none" xmlns="http://www.w3.org/2000/svg" xmlns:xlink="http://www.w3.org/1999/xlink">
	<desc>
			Created with Pixso.
	</desc>
	<defs/>
	<rect id="feather-icon / cloud" rx="0.000000" width="23.000000" height="23.000000" transform="translate(0.500000 0.500000)" fill="#FFFFFF" fill-opacity="0"/>
	<path id="Union (Stroke)" d="M16.4 11.37C16.12 11.23 15.93 10.97 15.87 10.67C15.25 7.44 12.41 5 9 5C5.13 5 2 8.13 2 12C2 15.86 5.13 19 9 19L19 19C21.2 19 23 17.2 23 15C23 12.79 21.2 11 19 11C18.38 11 17.8 11.13 17.28 11.38C17 11.51 16.67 11.51 16.4 11.37ZM16.6 9.49C15.55 6.3 12.54 4 9 4C4.58 4 1 7.58 1 12C1 16.41 4.58 20 9 20L19 20C21.76 20 24 17.76 24 15C24 12.23 21.76 10 19 10C18.58 10 18.18 10.04 17.8 10.14C17.47 10.22 17.15 10.33 16.85 10.48C16.79 10.14 16.7 9.81 16.6 9.49Z" fill="#414141" fill-opacity="1.000000" fill-rule="evenodd"/>
</svg>
