<svg width="24.000000" height="24.000000" viewBox="0 0 24 24" fill="none" xmlns="http://www.w3.org/2000/svg" xmlns:xlink="http://www.w3.org/1999/xlink">
	<desc>
			Created with Pixso.
	</desc>
	<defs/>
	<rect id="feather-icon / slack" rx="0.000000" width="23.000000" height="23.000000" transform="translate(0.500000 0.500000)" fill="#FFFFFF" fill-opacity="0"/>
	<path id="Shape (Stroke)" d="M17.75 1.32C19.98 2.52 21.41 5.03 22.55 8.85C23.7 12.65 23.86 15.52 22.65 17.75C21.44 19.98 18.93 21.41 15.14 22.55C11.34 23.7 8.47 23.87 6.24 22.65C4.01 21.44 2.58 18.94 1.43 15.14C0.29 11.34 0.12 8.47 1.33 6.24C2.55 4.01 5.05 2.58 8.85 1.44C12.65 0.29 15.52 0.11 17.75 1.32ZM17.27 2.2C15.41 1.19 12.88 1.27 9.14 2.39C5.39 3.52 3.23 4.86 2.21 6.72C1.2 8.58 1.27 11.11 2.39 14.85C3.52 18.59 4.85 20.76 6.72 21.77C8.58 22.79 11.11 22.72 14.85 21.6C18.59 20.47 20.76 19.13 21.77 17.27C22.78 15.41 22.72 12.88 21.59 9.14L21.59 9.14C20.47 5.37 19.13 3.2 17.27 2.2Z" fill="#414141" fill-opacity="1.000000" fill-rule="evenodd"/>
	<path id="Shape (Stroke)" d="M12.4 5.51C12.66 5.42 12.95 5.56 13.04 5.82L16.62 16.22C16.71 16.48 16.57 16.77 16.31 16.86C16.05 16.95 15.76 16.81 15.67 16.55L12.09 6.15C12 5.89 12.14 5.6 12.4 5.51Z" fill="#414141" fill-opacity="1.000000" fill-rule="evenodd"/>
	<path id="Shape (Stroke)" d="M7.68 7.13C7.94 7.04 8.23 7.18 8.32 7.44L11.9 17.84C11.99 18.1 11.85 18.39 11.59 18.48C11.33 18.57 11.04 18.43 10.95 18.17L7.37 7.77C7.28 7.51 7.42 7.22 7.68 7.13Z" fill="#414141" fill-opacity="1.000000" fill-rule="evenodd"/>
	<path id="Shape (Stroke)" d="M16.86 7.68C16.95 7.94 16.81 8.23 16.55 8.32L6.15 11.9C5.89 11.99 5.6 11.85 5.51 11.59C5.42 11.33 5.56 11.04 5.82 10.95L16.22 7.37C16.48 7.28 16.77 7.42 16.86 7.68Z" fill="#414141" fill-opacity="1.000000" fill-rule="evenodd"/>
	<path id="Shape (Stroke)" d="M18.48 12.4C18.57 12.66 18.43 12.95 18.17 13.04L7.77 16.62C7.51 16.71 7.22 16.57 7.13 16.31C7.04 16.05 7.18 15.76 7.44 15.67L17.84 12.09C18.1 12 18.39 12.14 18.48 12.4Z" fill="#414141" fill-opacity="1.000000" fill-rule="evenodd"/>
</svg>
