<svg width="24.000000" height="24.000000" viewBox="0 0 24 24" fill="none" xmlns="http://www.w3.org/2000/svg" xmlns:xlink="http://www.w3.org/1999/xlink">
	<desc>
			Created with Pixso.
	</desc>
	<defs/>
	<rect id="feather-icon / delivery" rx="0.000000" width="23.000000" height="23.000000" transform="translate(0.500000 0.500000)" fill="#FFFFFF" fill-opacity="0"/>
	<path id="Vector 179 (Stroke)" d="M1.5 7C1.5 6.17 2.17 5.5 3 5.5L16.38 5.5C16.94 5.5 17.46 5.82 17.72 6.32L19.32 9.53C19.36 9.61 19.42 9.68 19.49 9.73L21.83 11.28C22.25 11.56 22.5 12.03 22.5 12.53L22.5 16C22.5 16.82 21.82 17.5 21 17.5L19 17.5L19 16.5L21 16.5C21.27 16.5 21.5 16.27 21.5 16L21.5 12.53C21.5 12.36 21.41 12.21 21.27 12.11L18.94 10.56C18.72 10.41 18.55 10.21 18.43 9.98L16.83 6.77C16.74 6.6 16.57 6.5 16.38 6.5L3 6.5C2.72 6.5 2.5 6.72 2.5 7L2.5 16C2.5 16.27 2.72 16.5 3 16.5L4.5 16.5L4.5 17.5L3 17.5C2.17 17.5 1.5 16.82 1.5 16L1.5 7ZM9.5 16.5L14.5 16.5L14.5 17.5L9.5 17.5L9.5 16.5Z" fill="#414141" fill-opacity="1.000000" fill-rule="evenodd"/>
	<path id="Ellipse 9 (Stroke)" d="M7 19C8.1 19 9 18.1 9 17C9 15.89 8.1 15 7 15C5.89 15 5 15.89 5 17C5 18.1 5.89 19 7 19ZM7 20C8.65 20 10 18.65 10 17C10 15.34 8.65 14 7 14C5.34 14 4 15.34 4 17C4 18.65 5.34 20 7 20Z" fill="#414141" fill-opacity="1.000000" fill-rule="evenodd"/>
	<path id="Ellipse 10 (Stroke)" d="M17 19C18.1 19 19 18.1 19 17C19 15.89 18.1 15 17 15C15.89 15 15 15.89 15 17C15 18.1 15.89 19 17 19ZM17 20C18.65 20 20 18.65 20 17C20 15.34 18.65 14 17 14C15.34 14 14 15.34 14 17C14 18.65 15.34 20 17 20Z" fill="#414141" fill-opacity="1.000000" fill-rule="evenodd"/>
</svg>
