<svg width="24.000000" height="24.000000" viewBox="0 0 24 24" fill="none" xmlns="http://www.w3.org/2000/svg" xmlns:xlink="http://www.w3.org/1999/xlink">
	<desc>
			Created with Pixso.
	</desc>
	<defs/>
	<rect id="feather-icon / feather" rx="0.000000" width="23.000000" height="23.000000" transform="translate(0.500000 0.500000)" fill="#FFFFFF" fill-opacity="0"/>
	<path id="Shape (Stroke)" d="M11.39 4.39C13.93 1.85 18.05 1.85 20.59 4.39C23.13 6.93 23.13 11.05 20.59 13.59L13.85 20.35C13.75 20.44 13.63 20.5 13.5 20.5L5 20.5C4.72 20.5 4.5 20.27 4.5 20L4.5 11.5C4.5 11.36 4.55 11.24 4.64 11.14L11.39 4.39ZM19.88 5.1C17.73 2.95 14.25 2.95 12.1 5.1L5.5 11.7L5.5 19.5L13.29 19.5L19.88 12.88C22.03 10.73 22.03 7.25 19.88 5.1Z" fill="#414141" fill-opacity="1.000000" fill-rule="evenodd"/>
	<path id="Shape (Stroke)" d="M16.35 8.64C16.54 8.84 16.54 9.15 16.35 9.35L2.35 23.35C2.15 23.54 1.84 23.54 1.64 23.35C1.45 23.15 1.45 22.84 1.64 22.64L15.64 8.64C15.84 8.45 16.15 8.45 16.35 8.64Z" fill="#414141" fill-opacity="1.000000" fill-rule="evenodd"/>
	<path id="Shape (Stroke)" d="M8.5 16C8.5 15.72 8.72 15.5 9 15.5L17 15.5C17.27 15.5 17.5 15.72 17.5 16C17.5 16.27 17.27 16.5 17 16.5L9 16.5C8.72 16.5 8.5 16.27 8.5 16Z" fill="#414141" fill-opacity="1.000000" fill-rule="evenodd"/>
</svg>
