<svg width="24.000000" height="24.000000" viewBox="0 0 24 24" fill="none" xmlns="http://www.w3.org/2000/svg" xmlns:xlink="http://www.w3.org/1999/xlink">
	<desc>
			Created with Pixso.
	</desc>
	<defs/>
	<rect id="feather-icon / refresh-cw" rx="0.000000" width="23.000000" height="23.000000" transform="translate(0.500000 0.500000)" fill="#FFFFFF" fill-opacity="0"/>
	<path id="Shape (Stroke)" d="M23 3.5C23.27 3.5 23.5 3.72 23.5 4L23.5 10C23.5 10.27 23.27 10.5 23 10.5L17 10.5C16.72 10.5 16.5 10.27 16.5 10C16.5 9.72 16.72 9.5 17 9.5L22.5 9.5L22.5 4C22.5 3.72 22.72 3.5 23 3.5Z" fill="#414141" fill-opacity="1.000000" fill-rule="evenodd"/>
	<path id="Shape (Stroke)" d="M0.5 14C0.5 13.72 0.72 13.5 1 13.5L7 13.5C7.27 13.5 7.5 13.72 7.5 14C7.5 14.27 7.27 14.5 7 14.5L1.5 14.5L1.5 20C1.5 20.27 1.27 20.5 1 20.5C0.72 20.5 0.5 20.27 0.5 20L0.5 14Z" fill="#414141" fill-opacity="1.000000" fill-rule="evenodd"/>
	<path id="Shape (Stroke)" d="M18 5.99C15.94 3.92 12.96 3.06 10.12 3.71C7.27 4.35 4.95 6.41 3.98 9.16C3.89 9.42 3.6 9.56 3.34 9.47C3.08 9.37 2.94 9.09 3.04 8.83C4.12 5.75 6.71 3.45 9.9 2.73C13.07 2.01 16.4 2.97 18.7 5.28L23.34 9.63C23.54 9.82 23.55 10.14 23.36 10.34C23.17 10.54 22.86 10.55 22.66 10.36L18.01 6L18 5.99ZM0.63 13.65C0.82 13.45 1.14 13.44 1.34 13.63L5.98 17.99L5.99 18C8.05 20.07 11.03 20.93 13.88 20.28C16.72 19.64 19.04 17.58 20.01 14.83C20.11 14.57 20.39 14.43 20.65 14.52C20.91 14.62 21.05 14.9 20.96 15.16C19.87 18.24 17.28 20.54 14.1 21.26C10.92 21.98 7.59 21.02 5.29 18.71L0.65 14.36C0.45 14.17 0.44 13.85 0.63 13.65Z" fill="#414141" fill-opacity="1.000000" fill-rule="evenodd"/>
</svg>
