<svg width="24.000000" height="24.000000" viewBox="0 0 24 24" fill="none" xmlns="http://www.w3.org/2000/svg" xmlns:xlink="http://www.w3.org/1999/xlink">
	<desc>
			Created with Pixso.
	</desc>
	<defs/>
	<rect id="feather-icon / users" rx="0.000000" width="23.000000" height="23.000000" transform="translate(0.500000 0.500000)" fill="#FFFFFF" fill-opacity="0"/>
	<path id="Shape (Stroke)" d="M0.5 19C0.5 16.51 2.51 14.5 5 14.5L13 14.5C15.48 14.5 17.5 16.51 17.5 19L17.5 21C17.5 21.27 17.27 21.5 17 21.5C16.72 21.5 16.5 21.27 16.5 21L16.5 19C16.5 17.06 14.93 15.5 13 15.5L5 15.5C3.06 15.5 1.5 17.06 1.5 19L1.5 21C1.5 21.27 1.27 21.5 1 21.5C0.72 21.5 0.5 21.27 0.5 21L0.5 19Z" fill="#414141" fill-opacity="1.000000" fill-rule="evenodd"/>
	<path id="Oval (Stroke)" d="M4.5 7C4.5 4.51 6.51 2.5 9 2.5C11.48 2.5 13.5 4.51 13.5 7C13.5 9.48 11.48 11.5 9 11.5C6.51 11.5 4.5 9.48 4.5 7ZM9 3.5C7.06 3.5 5.5 5.06 5.5 7C5.5 8.93 7.06 10.5 9 10.5C10.93 10.5 12.5 8.93 12.5 7C12.5 5.06 10.93 3.5 9 3.5Z" fill="#414141" fill-opacity="1.000000" fill-rule="evenodd"/>
	<path id="Shape (Stroke)" d="M19.51 15C19.58 14.73 19.85 14.57 20.12 14.64C22.11 15.15 23.49 16.94 23.5 18.99L23.5 19L23.5 21C23.5 21.27 23.27 21.5 23 21.5C22.72 21.5 22.5 21.27 22.5 21L22.5 19C22.5 19 22.5 19 22.5 19C22.5 19 22.5 19 22.5 19C22.49 17.4 21.41 16.01 19.87 15.61C19.6 15.54 19.44 15.27 19.51 15Z" fill="#414141" fill-opacity="1.000000" fill-rule="evenodd"/>
	<path id="Shape (Stroke)" d="M15.51 3C15.58 2.73 15.85 2.57 16.12 2.64C18.11 3.15 19.5 4.94 19.5 7C19.5 9.06 18.11 10.85 16.12 11.36C15.85 11.43 15.58 11.27 15.51 11C15.44 10.73 15.6 10.46 15.87 10.39C17.42 9.99 18.5 8.6 18.5 7C18.5 5.4 17.42 4.01 15.87 3.61C15.6 3.54 15.44 3.27 15.51 3Z" fill="#414141" fill-opacity="1.000000" fill-rule="evenodd"/>
</svg>
