<svg width="24.000000" height="24.000000" viewBox="0 0 24 24" fill="none" xmlns="http://www.w3.org/2000/svg" xmlns:xlink="http://www.w3.org/1999/xlink">
	<desc>
			Created with Pixso.
	</desc>
	<defs/>
	<rect id="feather-icon / corner-up-left" rx="0.000000" width="23.000000" height="23.000000" transform="translate(0.500000 0.500000)" fill="#FFFFFF" fill-opacity="0"/>
	<path id="Shape (Stroke)" d="M9.35 3.64C9.54 3.84 9.54 4.15 9.35 4.35L4.7 9L9.35 13.64C9.54 13.84 9.54 14.15 9.35 14.35C9.15 14.54 8.84 14.54 8.64 14.35L3.64 9.35C3.45 9.15 3.45 8.84 3.64 8.64L8.64 3.64C8.84 3.45 9.15 3.45 9.35 3.64Z" fill="#414141" fill-opacity="1.000000" fill-rule="evenodd"/>
	<path id="Shape (Stroke)" d="M3.5 9C3.5 8.72 3.72 8.5 4 8.5L16 8.5C18.48 8.5 20.5 10.51 20.5 13L20.5 20C20.5 20.27 20.27 20.5 20 20.5C19.72 20.5 19.5 20.27 19.5 20L19.5 13C19.5 11.06 17.93 9.5 16 9.5L4 9.5C3.72 9.5 3.5 9.27 3.5 9Z" fill="#414141" fill-opacity="1.000000" fill-rule="evenodd"/>
</svg>
