<svg width="24.000000" height="24.000000" viewBox="0 0 24 24" fill="none" xmlns="http://www.w3.org/2000/svg" xmlns:xlink="http://www.w3.org/1999/xlink">
	<desc>
			Created with Pixso.
	</desc>
	<defs/>
	<rect id="feather-icon / corner-up-right" rx="0.000000" width="23.000000" height="23.000000" transform="translate(0.500000 0.500000)" fill="#FFFFFF" fill-opacity="0"/>
	<path id="Shape (Stroke)" d="M14.64 3.64C14.84 3.45 15.15 3.45 15.35 3.64L20.35 8.64C20.54 8.84 20.54 9.15 20.35 9.35L15.35 14.35C15.15 14.54 14.84 14.54 14.64 14.35C14.45 14.15 14.45 13.84 14.64 13.64L19.29 9L14.64 4.35C14.45 4.15 14.45 3.84 14.64 3.64Z" fill="#414141" fill-opacity="1.000000" fill-rule="evenodd"/>
	<path id="Shape (Stroke)" d="M8 9.5C6.06 9.5 4.5 11.06 4.5 13L4.5 20C4.5 20.27 4.27 20.5 4 20.5C3.72 20.5 3.5 20.27 3.5 20L3.5 13C3.5 10.51 5.51 8.5 8 8.5L20 8.5C20.27 8.5 20.5 8.72 20.5 9C20.5 9.27 20.27 9.5 20 9.5L8 9.5Z" fill="#414141" fill-opacity="1.000000" fill-rule="evenodd"/>
</svg>
