<svg width="25.000000" height="25.000000" viewBox="0 0 25 25" fill="none" xmlns="http://www.w3.org/2000/svg" xmlns:xlink="http://www.w3.org/1999/xlink">
	<desc>
			Created with Pixso.
	</desc>
	<defs/>
	<rect id="feather-icon / bell" rx="0.000000" width="24.000000" height="24.000000" transform="translate(0.500000 0.500000)" fill="#FFFFFF" fill-opacity="0"/>
	<path id="Shape (Stroke)" d="M12.5 2.6C8.75 2.6 5.72 5.63 5.72 9.37L5.72 14.58C5.72 15.6 5.31 16.52 4.63 17.18L20.36 17.18C19.68 16.52 19.27 15.6 19.27 14.58L19.27 9.37C19.27 5.63 16.24 2.6 12.5 2.6ZM22.91 17.18C21.47 17.18 20.31 16.02 20.31 14.58L20.31 9.37C20.31 5.06 16.81 1.56 12.5 1.56C8.18 1.56 4.68 5.06 4.68 9.37L4.68 14.58C4.68 16.02 3.52 17.18 2.08 17.18C1.79 17.18 1.56 17.42 1.56 17.7C1.56 17.99 1.79 18.22 2.08 18.22L22.91 18.22L22.91 17.18ZM10.24 21.61C10.33 21.45 10.51 21.35 10.69 21.35L14.3 21.35C14.48 21.35 14.66 21.45 14.75 21.61C14.84 21.77 14.84 21.97 14.75 22.13C14.28 22.93 13.42 23.43 12.5 23.43C11.57 23.43 10.71 22.93 10.24 22.13C10.15 21.97 10.15 21.77 10.24 21.61Z" fill="#414141" fill-opacity="1.000000" fill-rule="evenodd"/>
</svg>
