<svg width="24.000000" height="24.000000" viewBox="0 0 24 24" fill="none" xmlns="http://www.w3.org/2000/svg" xmlns:xlink="http://www.w3.org/1999/xlink">
	<desc>
			Created with Pixso.
	</desc>
	<defs/>
	<rect id="feather-icon / thumbs-down" rx="0.000000" width="23.000000" height="23.000000" transform="translate(0.500000 0.500000)" fill="#FFFFFF" fill-opacity="0"/>
	<path id="Shape (Stroke)" d="M21.5 4.03C21.36 3.14 20.58 2.48 19.67 2.5L19.66 2.5L17.5 2.5L17.5 12.5L19.67 12.5C20.58 12.51 21.36 11.85 21.5 10.96L21.5 4.03ZM16.5 12.89L16.5 2.5L5.71 2.5C4.96 2.49 4.32 3.03 4.21 3.77L2.83 12.77C2.76 13.21 2.89 13.65 3.18 13.98C3.47 14.31 3.89 14.5 4.33 14.5L4.33 14.5L10 14.5C10.27 14.5 10.5 14.72 10.5 15L10.5 19C10.5 20.27 11.45 21.32 12.68 21.48L16.5 12.89ZM17.32 13.5L13.45 22.2C13.37 22.38 13.19 22.5 13 22.5C11.06 22.5 9.5 20.93 9.5 19L9.5 15.5L4.34 15.5C3.6 15.5 2.91 15.19 2.42 14.64C1.94 14.08 1.73 13.35 1.84 12.62L3.22 3.62C3.41 2.39 4.47 1.48 5.72 1.5L19.66 1.5C21.08 1.47 22.3 2.52 22.49 3.93C22.49 3.95 22.5 3.97 22.5 4L22.5 11C22.5 11.02 22.49 11.04 22.49 11.06C22.3 12.47 21.08 13.52 19.66 13.5L17.32 13.5Z" fill="#414141" fill-opacity="1.000000" fill-rule="evenodd"/>
</svg>
