<svg width="24.000000" height="24.000000" viewBox="0 0 24 24" fill="none" xmlns="http://www.w3.org/2000/svg" xmlns:xlink="http://www.w3.org/1999/xlink">
	<desc>
			Created with Pixso.
	</desc>
	<defs/>
	<rect id="feather-icon / download" rx="0.000000" width="23.000000" height="23.000000" transform="translate(0.500000 0.500000)" fill="#FFFFFF" fill-opacity="0"/>
	<path id="Shape (Stroke)" d="M3 16.5C3.27 16.5 3.5 16.72 3.5 17L3.5 20C3.5 20.82 4.17 21.5 5 21.5L19 21.5C19.82 21.5 20.5 20.82 20.5 20L20.5 17C20.5 16.72 20.72 16.5 21 16.5C21.27 16.5 21.5 16.72 21.5 17L21.5 20C21.5 21.38 20.38 22.5 19 22.5L5 22.5C3.61 22.5 2.5 21.38 2.5 20L2.5 17C2.5 16.72 2.72 16.5 3 16.5Z" fill="#414141" fill-opacity="1.000000" fill-rule="evenodd"/>
	<path id="Shape (Stroke)" d="M7.64 11.64C7.84 11.45 8.15 11.45 8.35 11.64L12 15.29L15.64 11.64C15.84 11.45 16.15 11.45 16.35 11.64C16.54 11.84 16.54 12.15 16.35 12.35L12.35 16.35C12.15 16.54 11.84 16.54 11.64 16.35L7.64 12.35C7.45 12.15 7.45 11.84 7.64 11.64Z" fill="#414141" fill-opacity="1.000000" fill-rule="evenodd"/>
	<path id="Shape (Stroke)" d="M12 1.5C12.27 1.5 12.5 1.72 12.5 2L12.5 16C12.5 16.27 12.27 16.5 12 16.5C11.72 16.5 11.5 16.27 11.5 16L11.5 2C11.5 1.72 11.72 1.5 12 1.5Z" fill="#414141" fill-opacity="1.000000" fill-rule="evenodd"/>
</svg>
