<svg width="24.000000" height="24.000000" viewBox="0 0 24 24" fill="none" xmlns="http://www.w3.org/2000/svg" xmlns:xlink="http://www.w3.org/1999/xlink">
	<desc>
			Created with Pixso.
	</desc>
	<defs/>
	<rect id="feather-icon / twitter" rx="0.000000" width="23.000000" height="23.000000" transform="translate(0.500000 0.500000)" fill="#FFFFFF" fill-opacity="0"/>
	<path id="Shape (Stroke)" d="M20 3.95C18.63 2.56 16.55 2.11 14.7 2.81C12.75 3.56 11.47 5.44 11.5 7.53L11.5 8.03C8.27 7.96 5.27 6.36 3.41 3.71C3.3 3.56 3.13 3.48 2.95 3.5C2.77 3.52 2.61 3.63 2.54 3.79L3 4C2.54 3.79 2.54 3.79 2.54 3.79L2.54 3.79L2.54 3.8L2.53 3.8L2.52 3.83C2.51 3.85 2.5 3.87 2.49 3.91C2.46 3.98 2.42 4.09 2.37 4.22C2.27 4.49 2.15 4.87 2.03 5.34C1.78 6.28 1.56 7.58 1.62 9.02C1.69 10.46 2.05 12.05 3 13.54C3.83 14.86 5.09 16.07 6.96 17.05C5.16 18.07 3.1 18.58 1.01 18.5C0.78 18.49 0.58 18.64 0.51 18.86C0.45 19.08 0.55 19.32 0.75 19.43C5.39 22.01 10.57 22.02 14.6 19.87C18.65 17.72 21.5 13.42 21.5 7.5L21.5 7.49C21.5 7.27 21.48 7.05 21.45 6.83C22.44 5.79 23.14 4.51 23.48 3.11C23.53 2.91 23.45 2.7 23.28 2.58C23.1 2.46 22.88 2.47 22.71 2.59C21.88 3.17 20.97 3.63 20 3.95ZM19.48 4.85C18.38 3.59 16.62 3.15 15.06 3.75C13.5 4.34 12.47 5.85 12.5 7.52L12.5 7.53L12.5 7.53L12.5 8.53C12.5 8.8 12.28 9.02 12.01 9.02C8.58 9.11 5.33 7.63 3.16 5.02C3.1 5.19 3.05 5.38 3 5.59C2.77 6.46 2.56 7.66 2.62 8.97C2.68 10.28 3 11.69 3.84 13.01C4.67 14.32 6.03 15.57 8.2 16.54C8.36 16.61 8.48 16.77 8.49 16.95C8.51 17.13 8.43 17.31 8.28 17.41C6.7 18.48 4.89 19.16 3.02 19.4C6.87 20.94 10.92 20.7 14.14 18.99C17.84 17.02 20.5 13.07 20.5 7.5C20.5 7.25 20.47 7 20.42 6.76C20.39 6.6 20.44 6.43 20.56 6.31C21.2 5.69 21.71 4.95 22.07 4.15C21.41 4.5 20.72 4.79 20 5C19.81 5.06 19.61 5 19.48 4.85Z" fill="#414141" fill-opacity="1.000000" fill-rule="evenodd"/>
</svg>
