<svg width="24.000000" height="24.000000" viewBox="0 0 24 24" fill="none" xmlns="http://www.w3.org/2000/svg" xmlns:xlink="http://www.w3.org/1999/xlink">
	<desc>
			Created with Pixso.
	</desc>
	<defs/>
	<rect id="feather-icon / clipboard" rx="0.000000" width="23.000000" height="23.000000" transform="translate(0.500000 0.500000)" fill="#FFFFFF" fill-opacity="0"/>
	<path id="Shape (Stroke)" d="M6 4.5C5.17 4.5 4.5 5.17 4.5 6L4.5 20C4.5 20.82 5.17 21.5 6 21.5L18 21.5C18.82 21.5 19.5 20.82 19.5 20L19.5 6C19.5 5.17 18.82 4.5 18 4.5L16 4.5C15.72 4.5 15.5 4.27 15.5 4C15.5 3.72 15.72 3.5 16 3.5L18 3.5C19.38 3.5 20.5 4.61 20.5 6L20.5 20C20.5 21.38 19.38 22.5 18 22.5L6 22.5C4.61 22.5 3.5 21.38 3.5 20L3.5 6C3.5 4.61 4.61 3.5 6 3.5L8 3.5C8.27 3.5 8.5 3.72 8.5 4C8.5 4.27 8.27 4.5 8 4.5L6 4.5Z" fill="#414141" fill-opacity="1.000000" fill-rule="evenodd"/>
	<path id="Rectangle-path (Stroke)" d="M7.5 3C7.5 2.17 8.17 1.5 9 1.5L15 1.5C15.82 1.5 16.5 2.17 16.5 3L16.5 5C16.5 5.82 15.82 6.5 15 6.5L9 6.5C8.17 6.5 7.5 5.82 7.5 5L7.5 3ZM9 2.5C8.72 2.5 8.5 2.72 8.5 3L8.5 5C8.5 5.27 8.72 5.5 9 5.5L15 5.5C15.27 5.5 15.5 5.27 15.5 5L15.5 3C15.5 2.72 15.27 2.5 15 2.5L9 2.5Z" fill="#414141" fill-opacity="1.000000" fill-rule="evenodd"/>
</svg>
