<svg width="24.000000" height="24.000000" viewBox="0 0 24 24" fill="none" xmlns="http://www.w3.org/2000/svg" xmlns:xlink="http://www.w3.org/1999/xlink">
	<desc>
			Created with Pixso.
	</desc>
	<defs/>
	<rect id="feather-icon / wind" rx="0.000000" width="23.000000" height="23.000000" transform="translate(0.500000 0.500000)" fill="#FFFFFF" fill-opacity="0"/>
	<path id="Shape (Stroke)" d="M11.75 4.7C11.16 4.36 10.42 4.45 9.94 4.94C9.75 5.13 9.43 5.13 9.23 4.94C9.04 4.75 9.04 4.43 9.23 4.23C10.03 3.43 11.27 3.26 12.25 3.83C13.24 4.4 13.71 5.55 13.42 6.65C13.12 7.74 12.13 8.5 10.99 8.5C10.99 8.5 10.99 8.5 10.99 8.5L11 8L11 8.5L10.99 8.5L2 8.5C1.72 8.5 1.5 8.27 1.5 8C1.5 7.72 1.72 7.5 2 7.5L11 7.5L11 7.5C11.68 7.5 12.27 7.04 12.45 6.39C12.63 5.73 12.34 5.04 11.75 4.7ZM20.49 7.76C19.71 7.31 18.72 7.44 18.08 8.08C17.88 8.27 17.57 8.27 17.37 8.08C17.18 7.88 17.18 7.57 17.37 7.37C18.33 6.41 19.82 6.22 20.99 6.9C22.17 7.58 22.74 8.96 22.39 10.27C22.04 11.58 20.85 12.49 19.5 12.5L19.5 12.5L2 12.5C1.72 12.5 1.5 12.27 1.5 12C1.5 11.72 1.72 11.5 2 11.5L19.5 11.5C20.4 11.49 21.19 10.88 21.42 10.01C21.66 9.14 21.27 8.22 20.49 7.76ZM13.99 15.5C15.13 15.49 16.12 16.25 16.42 17.34C16.71 18.44 16.24 19.59 15.25 20.16C14.27 20.73 13.03 20.56 12.23 19.76C12.04 19.56 12.04 19.25 12.23 19.05C12.43 18.86 12.75 18.86 12.94 19.05C13.42 19.54 14.16 19.63 14.75 19.29C15.34 18.95 15.63 18.26 15.45 17.6C15.27 16.95 14.68 16.49 14 16.5L14 16.5L2 16.5C1.72 16.5 1.5 16.27 1.5 16C1.5 15.72 1.72 15.5 2 15.5L13.99 15.5Z" fill="#414141" fill-opacity="1.000000" fill-rule="evenodd"/>
</svg>
