<svg width="24.000000" height="24.000000" viewBox="0 0 24 24" fill="none" xmlns="http://www.w3.org/2000/svg" xmlns:xlink="http://www.w3.org/1999/xlink">
	<desc>
			Created with Pixso.
	</desc>
	<defs/>
	<rect id="feather-icon / bar-chart" rx="0.000000" width="23.000000" height="23.000000" transform="translate(0.500000 0.500000)" fill="#FFFFFF" fill-opacity="0"/>
	<path id="Rectangle-path (Stroke)" d="M17.5 3C17.5 2.72 17.72 2.5 18 2.5L22 2.5C22.27 2.5 22.5 2.72 22.5 3L22.5 21C22.5 21.27 22.27 21.5 22 21.5L18 21.5C17.72 21.5 17.5 21.27 17.5 21L17.5 3ZM18.5 3.5L18.5 20.5L21.5 20.5L21.5 3.5L18.5 3.5Z" fill="#414141" fill-opacity="1.000000" fill-rule="evenodd"/>
	<path id="Rectangle-path (Stroke)" d="M9.5 8C9.5 7.72 9.72 7.5 10 7.5L14 7.5C14.27 7.5 14.5 7.72 14.5 8L14.5 21C14.5 21.27 14.27 21.5 14 21.5L10 21.5C9.72 21.5 9.5 21.27 9.5 21L9.5 8ZM10.5 8.5L10.5 20.5L13.5 20.5L13.5 8.5L10.5 8.5Z" fill="#414141" fill-opacity="1.000000" fill-rule="evenodd"/>
	<path id="Rectangle-path (Stroke)" d="M1.5 13C1.5 12.72 1.72 12.5 2 12.5L6 12.5C6.27 12.5 6.5 12.72 6.5 13L6.5 21C6.5 21.27 6.27 21.5 6 21.5L2 21.5C1.72 21.5 1.5 21.27 1.5 21L1.5 13ZM2.5 13.5L2.5 20.5L5.5 20.5L5.5 13.5L2.5 13.5Z" fill="#414141" fill-opacity="1.000000" fill-rule="evenodd"/>
</svg>
