<svg width="24.000000" height="24.000000" viewBox="0 0 24 24" fill="none" xmlns="http://www.w3.org/2000/svg" xmlns:xlink="http://www.w3.org/1999/xlink">
	<desc>
			Created with Pixso.
	</desc>
	<defs/>
	<rect id="feather-icon / mic" rx="0.000000" width="23.000000" height="23.000000" transform="translate(0.500000 0.500000)" fill="#FFFFFF" fill-opacity="0"/>
	<path id="Shape (Stroke)" d="M8.5 4C8.5 2.06 10.06 0.5 12 0.5C13.93 0.5 15.5 2.06 15.5 4L15.5 12C15.5 13.93 13.93 15.5 12 15.5C10.06 15.5 8.5 13.93 8.5 12L8.5 4ZM12 1.5C10.61 1.5 9.5 2.61 9.5 4L9.5 12C9.5 13.38 10.61 14.5 12 14.5C13.38 14.5 14.5 13.38 14.5 12L14.5 4C14.5 2.61 13.38 1.5 12 1.5Z" fill="#414141" fill-opacity="1.000000" fill-rule="evenodd"/>
	<path id="Shape (Stroke)" d="M5 9.5C5.27 9.5 5.5 9.72 5.5 10L5.5 12C5.5 15.58 8.41 18.5 12 18.5C15.58 18.5 18.5 15.58 18.5 12L18.5 10C18.5 9.72 18.72 9.5 19 9.5C19.27 9.5 19.5 9.72 19.5 10L19.5 12C19.5 16.14 16.14 19.5 12 19.5C7.85 19.5 4.5 16.14 4.5 12L4.5 10C4.5 9.72 4.72 9.5 5 9.5Z" fill="#414141" fill-opacity="1.000000" fill-rule="evenodd"/>
	<path id="Shape (Stroke)" d="M12 18.5C12.27 18.5 12.5 18.72 12.5 19L12.5 23C12.5 23.27 12.27 23.5 12 23.5C11.72 23.5 11.5 23.27 11.5 23L11.5 19C11.5 18.72 11.72 18.5 12 18.5Z" fill="#414141" fill-opacity="1.000000" fill-rule="evenodd"/>
	<path id="Shape (Stroke)" d="M7.5 23C7.5 22.72 7.72 22.5 8 22.5L16 22.5C16.27 22.5 16.5 22.72 16.5 23C16.5 23.27 16.27 23.5 16 23.5L8 23.5C7.72 23.5 7.5 23.27 7.5 23Z" fill="#414141" fill-opacity="1.000000" fill-rule="evenodd"/>
</svg>
