<svg width="24.000000" height="24.000000" viewBox="0 0 24 24" fill="none" xmlns="http://www.w3.org/2000/svg" xmlns:xlink="http://www.w3.org/1999/xlink">
	<desc>
			Created with Pixso.
	</desc>
	<defs/>
	<rect id="feather-icon / arrow-down-left" rx="0.000000" width="23.000000" height="23.000000" transform="translate(0.500000 0.500000)" fill="#FFFFFF" fill-opacity="0"/>
	<path id="Shape (Stroke)" d="M18.35 5.64C18.54 5.84 18.54 6.15 18.35 6.35L6.35 18.35C6.15 18.54 5.84 18.54 5.64 18.35C5.45 18.15 5.45 17.84 5.64 17.64L17.64 5.64C17.84 5.45 18.15 5.45 18.35 5.64Z" fill="#414141" fill-opacity="1.000000" fill-rule="evenodd"/>
	<path id="Shape (Stroke)" d="M6 8.5C6.27 8.5 6.5 8.72 6.5 9L6.5 17.5L15 17.5C15.27 17.5 15.5 17.72 15.5 18C15.5 18.27 15.27 18.5 15 18.5L6 18.5C5.72 18.5 5.5 18.27 5.5 18L5.5 9C5.5 8.72 5.72 8.5 6 8.5Z" fill="#414141" fill-opacity="1.000000" fill-rule="evenodd"/>
</svg>
