<svg width="24.000000" height="24.000000" viewBox="0 0 24 24" fill="none" xmlns="http://www.w3.org/2000/svg" xmlns:xlink="http://www.w3.org/1999/xlink">
	<desc>
			Created with Pixso.
	</desc>
	<defs/>
	<rect id="feather-icon / width" rx="0.000000" width="23.000000" height="23.000000" transform="translate(0.500000 0.500000)" fill="#FFFFFF" fill-opacity="0"/>
	<path id="Shape (Stroke)" d="M15.86 7.4C16.05 7.2 16.37 7.2 16.56 7.4L20.81 11.64C21 11.84 21 12.15 20.81 12.35L16.56 16.59C16.37 16.79 16.05 16.79 15.86 16.59C15.66 16.4 15.66 16.08 15.86 15.88L19.75 12L15.86 8.11C15.66 7.91 15.66 7.59 15.86 7.4Z" fill="#414141" fill-opacity="1.000000" fill-rule="evenodd"/>
	<path id="Shape (Stroke)" d="M7.59 7.4C7.79 7.59 7.79 7.91 7.59 8.11L3.7 12L7.59 15.88C7.79 16.08 7.79 16.4 7.59 16.59C7.4 16.79 7.08 16.79 6.88 16.59L2.64 12.35C2.45 12.15 2.45 11.84 2.64 11.64L6.88 7.4C7.08 7.2 7.4 7.2 7.59 7.4Z" fill="#414141" fill-opacity="1.000000" fill-rule="evenodd"/>
	<path id="Shape (Stroke)" d="M20.39 12C20.39 12.27 20.17 12.5 19.89 12.5L3 12.5C2.72 12.5 2.5 12.27 2.5 12C2.5 11.72 2.72 11.5 3 11.5L19.89 11.5C20.17 11.5 20.39 11.72 20.39 12Z" fill="#414141" fill-opacity="1.000000" fill-rule="evenodd"/>
</svg>
