<svg width="24.000000" height="24.000000" viewBox="0 0 24 24" fill="none" xmlns="http://www.w3.org/2000/svg" xmlns:xlink="http://www.w3.org/1999/xlink">
	<desc>
			Created with Pixso.
	</desc>
	<defs/>
	<rect id="feather-icon / arrow-left" rx="0.000000" width="23.000000" height="23.000000" transform="translate(0.500000 0.500000)" fill="#FFFFFF" fill-opacity="0"/>
	<path id="Shape (Stroke)" d="M3.5 12C3.5 11.72 3.72 11.5 4 11.5L20 11.5C20.27 11.5 20.5 11.72 20.5 12C20.5 12.27 20.27 12.5 20 12.5L4 12.5C3.72 12.5 3.5 12.27 3.5 12Z" fill="#414141" fill-opacity="1.000000" fill-rule="evenodd"/>
	<path id="Shape (Stroke)" d="M10.35 5.64C10.54 5.84 10.54 6.15 10.35 6.35L4.7 12L10.35 17.64C10.54 17.84 10.54 18.15 10.35 18.35C10.15 18.54 9.84 18.54 9.64 18.35L3.64 12.35C3.45 12.15 3.45 11.84 3.64 11.64L9.64 5.64C9.84 5.45 10.15 5.45 10.35 5.64Z" fill="#414141" fill-opacity="1.000000" fill-rule="evenodd"/>
</svg>
