<svg width="24.000000" height="24.000000" viewBox="0 0 24 24" fill="none" xmlns="http://www.w3.org/2000/svg" xmlns:xlink="http://www.w3.org/1999/xlink">
	<desc>
			Created with Pixso.
	</desc>
	<defs/>
	<rect id="feather-icon / type" rx="0.000000" width="23.000000" height="23.000000" transform="translate(0.500000 0.500000)" fill="#FFFFFF" fill-opacity="0"/>
	<path id="Shape (Stroke)" d="M3.5 3C3.5 2.72 3.72 2.5 4 2.5L20 2.5C20.27 2.5 20.5 2.72 20.5 3L20.5 6C20.5 6.27 20.27 6.5 20 6.5C19.72 6.5 19.5 6.27 19.5 6L19.5 3.5L4.5 3.5L4.5 6C4.5 6.27 4.27 6.5 4 6.5C3.72 6.5 3.5 6.27 3.5 6L3.5 3Z" fill="#414141" fill-opacity="1.000000" fill-rule="evenodd"/>
	<path id="Shape (Stroke)" d="M8.5 19C8.5 18.72 8.72 18.5 9 18.5L15 18.5C15.27 18.5 15.5 18.72 15.5 19C15.5 19.27 15.27 19.5 15 19.5L9 19.5C8.72 19.5 8.5 19.27 8.5 19Z" fill="#414141" fill-opacity="1.000000" fill-rule="evenodd"/>
	<path id="Shape (Stroke)" d="M12 2.5C12.27 2.5 12.5 2.72 12.5 3L12.5 19C12.5 19.27 12.27 19.5 12 19.5C11.72 19.5 11.5 19.27 11.5 19L11.5 3C11.5 2.72 11.72 2.5 12 2.5Z" fill="#414141" fill-opacity="1.000000" fill-rule="evenodd"/>
</svg>
