<svg width="24.000000" height="24.000000" viewBox="0 0 24 24" fill="none" xmlns="http://www.w3.org/2000/svg" xmlns:xlink="http://www.w3.org/1999/xlink">
	<desc>
			Created with Pixso.
	</desc>
	<defs/>
	<rect id="feather-icon / octagon" rx="0.000000" width="23.000000" height="23.000000" transform="translate(0.500000 0.500000)" fill="#FFFFFF" fill-opacity="0"/>
	<path id="Vector 187 (Stroke)" d="M7.64 1.64C7.74 1.55 7.86 1.5 8 1.5L16 1.5C16.13 1.5 16.25 1.55 16.35 1.64L22.35 7.64C22.44 7.74 22.5 7.86 22.5 8L22.5 16C22.5 16.13 22.44 16.25 22.35 16.35L16.35 22.35C16.25 22.44 16.13 22.5 16 22.5L8 22.5C7.86 22.5 7.74 22.44 7.64 22.35L1.64 16.35C1.55 16.25 1.5 16.13 1.5 16L1.5 8C1.5 7.86 1.55 7.74 1.64 7.64L7.64 1.64ZM8.2 2.5L2.5 8.2L2.5 15.79L8.2 21.5L15.79 21.5L21.5 15.79L21.5 8.2L15.79 2.5L8.2 2.5Z" fill="#414141" fill-opacity="1.000000" fill-rule="evenodd"/>
</svg>
