<svg width="24.000000" height="24.000000" viewBox="0 0 24 24" fill="none" xmlns="http://www.w3.org/2000/svg" xmlns:xlink="http://www.w3.org/1999/xlink">
	<desc>
			Created with Pixso.
	</desc>
	<defs/>
	<rect id="feather-icon / refresh-ccw" rx="0.000000" width="23.000000" height="23.000000" transform="translate(0.500000 0.500000)" fill="#FFFFFF" fill-opacity="0"/>
	<path id="Shape (Stroke)" d="M1 3.5C1.27 3.5 1.5 3.72 1.5 4L1.5 9.5L7 9.5C7.27 9.5 7.5 9.72 7.5 10C7.5 10.27 7.27 10.5 7 10.5L1 10.5C0.72 10.5 0.5 10.27 0.5 10L0.5 4C0.5 3.72 0.72 3.5 1 3.5Z" fill="#414141" fill-opacity="1.000000" fill-rule="evenodd"/>
	<path id="Shape (Stroke)" d="M16.5 14C16.5 13.72 16.72 13.5 17 13.5L23 13.5C23.27 13.5 23.5 13.72 23.5 14L23.5 20C23.5 20.27 23.27 20.5 23 20.5C22.72 20.5 22.5 20.27 22.5 20L22.5 14.5L17 14.5C16.72 14.5 16.5 14.27 16.5 14Z" fill="#414141" fill-opacity="1.000000" fill-rule="evenodd"/>
	<path id="Shape (Stroke)" d="M5.29 5.28C7.59 2.97 10.92 2.01 14.1 2.73C17.28 3.45 19.87 5.75 20.96 8.83C21.05 9.09 20.91 9.37 20.65 9.47C20.39 9.56 20.11 9.42 20.01 9.16C19.04 6.41 16.72 4.35 13.88 3.71C11.03 3.06 8.05 3.92 5.99 5.99L5.98 6L1.34 10.36C1.14 10.55 0.82 10.54 0.63 10.34C0.44 10.14 0.45 9.82 0.65 9.63L5.29 5.28ZM23.36 13.65C23.55 13.85 23.54 14.17 23.34 14.36L18.7 18.71C16.4 21.02 13.07 21.98 9.9 21.26C6.71 20.54 4.12 18.24 3.04 15.16C2.94 14.9 3.08 14.62 3.34 14.52C3.6 14.43 3.89 14.57 3.98 14.83C4.95 17.58 7.27 19.64 10.12 20.28C12.96 20.93 15.94 20.07 18 18L18.01 17.99L22.66 13.63C22.86 13.44 23.17 13.45 23.36 13.65Z" fill="#414141" fill-opacity="1.000000" fill-rule="evenodd"/>
</svg>
