<svg width="24.000000" height="24.000000" viewBox="0 0 24 24" fill="none" xmlns="http://www.w3.org/2000/svg" xmlns:xlink="http://www.w3.org/1999/xlink">
	<desc>
			Created with Pixso.
	</desc>
	<defs/>
	<rect id="feather-icon / chevrons-down" rx="0.000000" width="23.000000" height="23.000000" transform="translate(0.500000 0.500000)" fill="#FFFFFF" fill-opacity="0"/>
	<path id="Vector" d="M7.35 5.64C7.15 5.45 6.84 5.45 6.64 5.64C6.45 5.84 6.45 6.15 6.64 6.35L11.64 11.35C11.84 11.54 12.15 11.54 12.35 11.35L17.35 6.35C17.54 6.15 17.54 5.84 17.35 5.64C17.15 5.45 16.84 5.45 16.64 5.64L12 10.29L7.35 5.64ZM7.35 12.64C7.15 12.45 6.84 12.45 6.64 12.64C6.45 12.84 6.45 13.15 6.64 13.35L11.64 18.35C11.84 18.54 12.15 18.54 12.35 18.35L17.35 13.35C17.54 13.15 17.54 12.84 17.35 12.64C17.15 12.45 16.84 12.45 16.64 12.64L12 17.29L7.35 12.64Z" fill="#414141" fill-opacity="1.000000" fill-rule="evenodd"/>
</svg>
