<svg width="24.000000" height="24.000000" viewBox="0 0 24 24" fill="none" xmlns="http://www.w3.org/2000/svg" xmlns:xlink="http://www.w3.org/1999/xlink">
	<desc>
			Created with Pixso.
	</desc>
	<defs/>
	<rect id="feather-icon / headphones" rx="0.000000" width="23.000000" height="23.000000" transform="translate(0.500000 0.500000)" fill="#FFFFFF" fill-opacity="0"/>
	<path id="Shape (Stroke)" d="M12 3.5C7.3 3.5 3.5 7.3 3.5 12L3.5 18C3.5 18.27 3.27 18.5 3 18.5C2.72 18.5 2.5 18.27 2.5 18L2.5 12C2.5 6.75 6.75 2.5 12 2.5C17.24 2.5 21.5 6.75 21.5 12L21.5 18C21.5 18.27 21.27 18.5 21 18.5C20.72 18.5 20.5 18.27 20.5 18L20.5 12C20.5 7.3 16.69 3.5 12 3.5Z" fill="#414141" fill-opacity="1.000000" fill-rule="evenodd"/>
	<path id="Shape (Stroke)" d="M2.5 14C2.5 13.72 2.72 13.5 3 13.5L6 13.5C7.38 13.5 8.5 14.61 8.5 16L8.5 19C8.5 20.38 7.38 21.5 6 21.5L5 21.5C3.61 21.5 2.5 20.38 2.5 19L2.5 14ZM3.5 14.5L3.5 19C3.5 19.82 4.17 20.5 5 20.5L6 20.5C6.82 20.5 7.5 19.82 7.5 19L7.5 16C7.5 15.17 6.82 14.5 6 14.5L3.5 14.5ZM18 14.5C17.17 14.5 16.5 15.17 16.5 16L16.5 19C16.5 19.82 17.17 20.5 18 20.5L19 20.5C19.82 20.5 20.5 19.82 20.5 19L20.5 14.5L18 14.5ZM15.5 16C15.5 14.61 16.61 13.5 18 13.5L21 13.5C21.27 13.5 21.5 13.72 21.5 14L21.5 19C21.5 20.38 20.38 21.5 19 21.5L18 21.5C16.61 21.5 15.5 20.38 15.5 19L15.5 16Z" fill="#414141" fill-opacity="1.000000" fill-rule="evenodd"/>
</svg>
