<svg width="24.000000" height="24.000000" viewBox="0 0 24 24" fill="none" xmlns="http://www.w3.org/2000/svg" xmlns:xlink="http://www.w3.org/1999/xlink">
	<desc>
			Created with Pixso.
	</desc>
	<defs/>
	<rect id="feather-icon / instagram" rx="0.000000" width="23.000000" height="23.000000" transform="translate(0.500000 0.500000)" fill="#FFFFFF" fill-opacity="0"/>
	<path id="Rectangle-path (Stroke)" d="M1.5 7C1.5 3.96 3.96 1.5 7 1.5L17 1.5C20.03 1.5 22.5 3.96 22.5 7L22.5 17C22.5 20.03 20.03 22.5 17 22.5L7 22.5C3.96 22.5 1.5 20.03 1.5 17L1.5 7ZM7 2.5C4.51 2.5 2.5 4.51 2.5 7L2.5 17C2.5 19.48 4.51 21.5 7 21.5L17 21.5C19.48 21.5 21.5 19.48 21.5 17L21.5 7C21.5 4.51 19.48 2.5 17 2.5L7 2.5Z" fill="#414141" fill-opacity="1.000000" fill-rule="evenodd"/>
	<path id="Shape (Stroke)" d="M12.55 8.49C11.06 8.27 9.59 9.03 8.91 10.38C8.23 11.73 8.5 13.36 9.56 14.43C10.63 15.49 12.26 15.76 13.61 15.08C14.96 14.4 15.72 12.93 15.5 11.44C15.27 9.91 14.08 8.72 12.55 8.49ZM8.02 9.93C8.89 8.19 10.78 7.22 12.7 7.5C14.66 7.79 16.2 9.33 16.49 11.29C16.77 13.21 15.8 15.1 14.06 15.97C12.33 16.84 10.23 16.51 8.86 15.13C7.48 13.76 7.15 11.66 8.02 9.93Z" fill="#414141" fill-opacity="1.000000" fill-rule="evenodd"/>
</svg>
