<svg width="24.000000" height="24.000000" viewBox="0 0 24 24" fill="none" xmlns="http://www.w3.org/2000/svg" xmlns:xlink="http://www.w3.org/1999/xlink">
	<desc>
			Created with Pixso.
	</desc>
	<defs/>
	<rect id="feather-icon / x-square" rx="0.000000" width="23.000000" height="23.000000" transform="translate(0.500000 0.500000)" fill="#FFFFFF" fill-opacity="0"/>
	<path id="Rectangle-path (Stroke)" d="M2.5 5C2.5 3.61 3.61 2.5 5 2.5L19 2.5C20.38 2.5 21.5 3.61 21.5 5L21.5 19C21.5 20.38 20.38 21.5 19 21.5L5 21.5C3.61 21.5 2.5 20.38 2.5 19L2.5 5ZM5 3.5C4.17 3.5 3.5 4.17 3.5 5L3.5 19C3.5 19.82 4.17 20.5 5 20.5L19 20.5C19.82 20.5 20.5 19.82 20.5 19L20.5 5C20.5 4.17 19.82 3.5 19 3.5L5 3.5Z" fill="#414141" fill-opacity="1.000000" fill-rule="evenodd"/>
	<path id="Shape (Stroke)" d="M8.64 8.64C8.84 8.45 9.15 8.45 9.35 8.64L15.35 14.64C15.54 14.84 15.54 15.15 15.35 15.35C15.15 15.54 14.84 15.54 14.64 15.35L8.64 9.35C8.45 9.15 8.45 8.84 8.64 8.64Z" fill="#414141" fill-opacity="1.000000" fill-rule="evenodd"/>
	<path id="Shape (Stroke)" d="M15.35 8.64C15.54 8.84 15.54 9.15 15.35 9.35L9.35 15.35C9.15 15.54 8.84 15.54 8.64 15.35C8.45 15.15 8.45 14.84 8.64 14.64L14.64 8.64C14.84 8.45 15.15 8.45 15.35 8.64Z" fill="#414141" fill-opacity="1.000000" fill-rule="evenodd"/>
</svg>
