<svg width="24.000000" height="24.000000" viewBox="0 0 24 24" fill="none" xmlns="http://www.w3.org/2000/svg" xmlns:xlink="http://www.w3.org/1999/xlink">
	<desc>
			Created with Pixso.
	</desc>
	<defs/>
	<rect id="feather-icon / volume-1" rx="0.000000" width="23.000000" height="23.000000" transform="translate(0.500000 0.500000)" fill="#FFFFFF" fill-opacity="0"/>
	<path id="Shape (Stroke)" d="M13.21 4.54C13.39 4.63 13.5 4.8 13.5 5L13.5 19C13.5 19.19 13.39 19.36 13.21 19.45C13.04 19.53 12.83 19.51 12.68 19.39L7.82 15.5L4 15.5C3.72 15.5 3.5 15.27 3.5 15L3.5 9C3.5 8.72 3.72 8.5 4 8.5L7.82 8.5L12.68 4.6C12.83 4.48 13.04 4.46 13.21 4.54ZM12.5 6.04L8.31 9.39C8.22 9.46 8.11 9.5 8 9.5L4.5 9.5L4.5 14.5L8 14.5C8.11 14.5 8.22 14.53 8.31 14.6L12.5 17.95L12.5 6.04Z" fill="#414141" fill-opacity="1.000000" fill-rule="evenodd"/>
	<path id="Shape (Stroke)" d="M17.18 8.1C17.38 7.91 17.69 7.91 17.89 8.1C20.03 10.25 20.03 13.73 17.89 15.88C17.69 16.07 17.38 16.07 17.18 15.88C16.99 15.68 16.99 15.37 17.18 15.17C18.94 13.41 18.94 10.57 17.18 8.81C16.99 8.61 16.99 8.3 17.18 8.1Z" fill="#414141" fill-opacity="1.000000" fill-rule="evenodd"/>
</svg>
