<svg width="24.000000" height="24.000000" viewBox="0 0 24 24" fill="none" xmlns="http://www.w3.org/2000/svg" xmlns:xlink="http://www.w3.org/1999/xlink">
	<desc>
			Created with Pixso.
	</desc>
	<defs/>
	<rect id="feather-icon / life-buoy" rx="0.000000" width="23.000000" height="23.000000" transform="translate(0.500000 0.500000)" fill="#FFFFFF" fill-opacity="0"/>
	<path id="Oval (Stroke)" d="M1.5 12C1.5 6.2 6.2 1.5 12 1.5C17.79 1.5 22.5 6.2 22.5 12C22.5 17.79 17.79 22.5 12 22.5C6.2 22.5 1.5 17.79 1.5 12ZM12 2.5C6.75 2.5 2.5 6.75 2.5 12C2.5 17.24 6.75 21.5 12 21.5C17.24 21.5 21.5 17.24 21.5 12C21.5 6.75 17.24 2.5 12 2.5Z" fill="#414141" fill-opacity="1.000000" fill-rule="evenodd"/>
	<path id="Oval (Stroke)" d="M7.5 12C7.5 9.51 9.51 7.5 12 7.5C14.48 7.5 16.5 9.51 16.5 12C16.5 14.48 14.48 16.5 12 16.5C9.51 16.5 7.5 14.48 7.5 12ZM12 8.5C10.06 8.5 8.5 10.06 8.5 12C8.5 13.93 10.06 15.5 12 15.5C13.93 15.5 15.5 13.93 15.5 12C15.5 10.06 13.93 8.5 12 8.5Z" fill="#414141" fill-opacity="1.000000" fill-rule="evenodd"/>
	<path id="Shape (Stroke)" d="M4.57 4.57C4.77 4.38 5.08 4.38 5.28 4.57L9.52 8.81C9.71 9.01 9.71 9.32 9.52 9.52C9.32 9.71 9.01 9.71 8.81 9.52L4.57 5.28C4.38 5.08 4.38 4.77 4.57 4.57Z" fill="#414141" fill-opacity="1.000000" fill-rule="evenodd"/>
	<path id="Shape (Stroke)" d="M14.47 14.47C14.66 14.28 14.98 14.28 15.18 14.47L19.42 18.71C19.61 18.91 19.61 19.22 19.42 19.42C19.22 19.61 18.91 19.61 18.71 19.42L14.47 15.18C14.27 14.98 14.27 14.67 14.47 14.47Z" fill="#414141" fill-opacity="1.000000" fill-rule="evenodd"/>
	<path id="Shape (Stroke)" d="M19.42 4.57C19.61 4.77 19.61 5.08 19.42 5.28L15.18 9.52C14.98 9.71 14.66 9.71 14.47 9.52C14.27 9.32 14.27 9.01 14.47 8.81L18.71 4.57C18.91 4.38 19.22 4.38 19.42 4.57Z" fill="#414141" fill-opacity="1.000000" fill-rule="evenodd"/>
	<path id="Shape (Stroke)" d="M18.71 5.28C18.9 5.48 18.9 5.79 18.71 5.99L15.18 9.52C14.98 9.71 14.66 9.71 14.47 9.52C14.27 9.32 14.27 9.01 14.47 8.81L18 5.28C18.19 5.09 18.51 5.09 18.71 5.28Z" fill="#414141" fill-opacity="1.000000" fill-rule="evenodd"/>
	<path id="Shape (Stroke)" d="M9.52 14.47C9.71 14.67 9.71 14.98 9.52 15.18L5.28 19.42C5.08 19.61 4.77 19.61 4.57 19.42C4.38 19.22 4.38 18.91 4.57 18.71L8.81 14.47C9.01 14.28 9.32 14.28 9.52 14.47Z" fill="#414141" fill-opacity="1.000000" fill-rule="evenodd"/>
</svg>
