<svg width="25.000000" height="24.000000" viewBox="0 0 25 24" fill="none" xmlns="http://www.w3.org/2000/svg" xmlns:xlink="http://www.w3.org/1999/xlink">
	<desc>
			Created with Pixso.
	</desc>
	<defs/>
	<rect id="feather-icon / upload-cloud" rx="0.000000" width="24.000000" height="23.000000" transform="translate(0.500000 0.500000)" fill="#FFFFFF" fill-opacity="0"/>
	<path id="Shape (Stroke)" d="M12.64 11.64C12.84 11.45 13.15 11.45 13.35 11.64L17.35 15.64C17.54 15.84 17.54 16.15 17.35 16.35C17.15 16.54 16.84 16.54 16.64 16.35L13 12.7L9.35 16.35C9.15 16.54 8.84 16.54 8.64 16.35C8.45 16.15 8.45 15.84 8.64 15.64L12.64 11.64Z" fill="#414141" fill-opacity="1.000000" fill-rule="evenodd"/>
	<path id="Shape (Stroke)" d="M13 11.5C13.27 11.5 13.5 11.72 13.5 12L13.5 21C13.5 21.27 13.27 21.5 13 21.5C12.72 21.5 12.5 21.27 12.5 21L12.5 12C12.5 11.72 12.72 11.5 13 11.5Z" fill="#414141" fill-opacity="1.000000" fill-rule="evenodd"/>
	<path id="Shape (Stroke)" d="M2.45 7.07C4.08 3.95 7.46 2.15 10.96 2.55C14.32 2.94 17.13 5.28 18.11 8.49L19 8.49C21.51 8.5 23.7 10.2 24.32 12.64C24.94 15.07 23.83 17.62 21.63 18.82C21.38 18.96 21.08 18.87 20.95 18.62C20.82 18.38 20.91 18.08 21.15 17.95C22.95 16.96 23.86 14.88 23.35 12.88C22.85 10.89 21.05 9.5 19 9.49L17.74 9.49C17.51 9.49 17.31 9.34 17.25 9.12C16.48 6.11 13.93 3.9 10.84 3.55C7.76 3.19 4.77 4.78 3.34 7.53C1.91 10.28 2.32 13.64 4.37 15.96C4.55 16.17 4.53 16.49 4.33 16.67C4.12 16.85 3.81 16.83 3.62 16.63C1.29 13.99 0.83 10.19 2.45 7.07Z" fill="#414141" fill-opacity="1.000000" fill-rule="evenodd"/>
	<path id="Shape (Stroke)" d="M12.64 11.64C12.84 11.45 13.15 11.45 13.35 11.64L17.35 15.64C17.54 15.84 17.54 16.15 17.35 16.35C17.15 16.54 16.84 16.54 16.64 16.35L13 12.7L9.35 16.35C9.15 16.54 8.84 16.54 8.64 16.35C8.45 16.15 8.45 15.84 8.64 15.64L12.64 11.64Z" fill="#414141" fill-opacity="1.000000" fill-rule="evenodd"/>
</svg>
