<svg width="24.000000" height="24.000000" viewBox="0 0 24 24" fill="none" xmlns="http://www.w3.org/2000/svg" xmlns:xlink="http://www.w3.org/1999/xlink">
	<desc>
			Created with Pixso.
	</desc>
	<defs/>
	<rect id="feather-icon / navigation-2" rx="0.000000" width="23.000000" height="23.000000" transform="translate(0.500000 0.500000)" fill="#FFFFFF" fill-opacity="0"/>
	<path id="Shape (Stroke)" d="M12 2.5C12.2 2.5 12.39 2.63 12.46 2.82L19.46 21.82C19.54 22.02 19.48 22.24 19.32 22.38C19.16 22.51 18.93 22.53 18.75 22.43L12 18.57L5.24 22.43C5.06 22.53 4.83 22.51 4.67 22.38C4.51 22.24 4.45 22.02 4.53 21.82L11.53 2.82C11.6 2.63 11.79 2.5 12 2.5ZM5.94 20.88L11.75 17.56C11.9 17.47 12.09 17.47 12.24 17.56L18.05 20.88L12 4.44L5.94 20.88Z" fill="#414141" fill-opacity="1.000000" fill-rule="evenodd"/>
</svg>
