<svg width="24.000000" height="24.000000" viewBox="0 0 24 24" fill="none" xmlns="http://www.w3.org/2000/svg" xmlns:xlink="http://www.w3.org/1999/xlink">
	<desc>
			Created with Pixso.
	</desc>
	<defs/>
	<rect id="feather-icon / folder" rx="0.000000" width="23.000000" height="23.000000" transform="translate(0.500000 0.500000)" fill="#FFFFFF" fill-opacity="0"/>
	<path id="Shape (Stroke)" d="M4 3.5C3.17 3.5 2.5 4.17 2.5 5L2.5 19C2.5 19.82 3.17 20.5 4 20.5L20 20.5C20.82 20.5 21.5 19.82 21.5 19L21.5 8C21.5 7.17 20.82 6.5 20 6.5L11 6.5C10.83 6.5 10.67 6.41 10.58 6.27L8.73 3.5L4 3.5ZM1.5 5C1.5 3.61 2.61 2.5 4 2.5L9 2.5C9.16 2.5 9.32 2.58 9.41 2.72L11.26 5.5L20 5.5C21.38 5.5 22.5 6.61 22.5 8L22.5 19C22.5 20.38 21.38 21.5 20 21.5L4 21.5C2.61 21.5 1.5 20.38 1.5 19L1.5 5Z" fill="#414141" fill-opacity="1.000000" fill-rule="evenodd"/>
</svg>
