<svg width="24.000000" height="24.000000" viewBox="0 0 24 24" fill="none" xmlns="http://www.w3.org/2000/svg" xmlns:xlink="http://www.w3.org/1999/xlink">
	<desc>
			Created with Pixso.
	</desc>
	<defs/>
	<rect id="feather-icon / battery-charging" rx="0.000000" width="23.000000" height="23.000000" transform="translate(0.500000 0.500000)" fill="#FFFFFF" fill-opacity="0"/>
	<path id="Shape (Stroke)" d="M3 6.5C2.17 6.5 1.5 7.17 1.5 8L1.5 16C1.5 16.82 2.17 17.5 3 17.5L5 17.5C5.27 17.5 5.5 17.72 5.5 18C5.5 18.27 5.27 18.5 5 18.5L3 18.5C1.61 18.5 0.5 17.38 0.5 16L0.5 8C0.5 6.61 1.61 5.5 3 5.5L6.18 5.5C6.46 5.5 6.68 5.72 6.68 6C6.68 6.27 6.46 6.5 6.18 6.5L3 6.5ZM14.49 6C14.49 5.72 14.72 5.5 14.99 5.5L16.99 5.5C18.37 5.5 19.49 6.61 19.49 8L19.49 16C19.49 17.38 18.37 18.5 16.99 18.5L13.8 18.5C13.53 18.5 13.3 18.27 13.3 18C13.3 17.72 13.53 17.5 13.8 17.5L16.99 17.5C17.82 17.5 18.49 16.82 18.49 16L18.49 8C18.49 7.17 17.82 6.5 16.99 6.5L14.99 6.5C14.72 6.5 14.49 6.27 14.49 6Z" fill="#414141" fill-opacity="1.000000" fill-rule="evenodd"/>
	<path id="Shape (Stroke)" d="M23 10.5C23.27 10.5 23.5 10.72 23.5 11L23.5 13C23.5 13.27 23.27 13.5 23 13.5C22.72 13.5 22.5 13.27 22.5 13L22.5 11C22.5 10.72 22.72 10.5 23 10.5Z" fill="#414141" fill-opacity="1.000000" fill-rule="evenodd"/>
	<path id="Shape (Stroke)" d="M11.27 5.58C11.5 5.73 11.56 6.04 11.41 6.27L7.93 11.5L13 11.5C13.18 11.5 13.35 11.6 13.44 11.76C13.52 11.92 13.51 12.12 13.41 12.27L9.41 18.27C9.26 18.5 8.95 18.56 8.72 18.41C8.49 18.26 8.43 17.95 8.58 17.72L12.06 12.5L7 12.5C6.81 12.5 6.64 12.39 6.55 12.23C6.47 12.07 6.48 11.87 6.58 11.72L10.58 5.72C10.73 5.49 11.04 5.43 11.27 5.58Z" fill="#414141" fill-opacity="1.000000" fill-rule="evenodd"/>
</svg>
