<svg width="24.000000" height="24.000000" viewBox="0 0 24 24" fill="none" xmlns="http://www.w3.org/2000/svg" xmlns:xlink="http://www.w3.org/1999/xlink">
	<desc>
			Created with Pixso.
	</desc>
	<defs/>
	<rect id="feather-icon / user-minus" rx="0.000000" width="23.000000" height="23.000000" transform="translate(0.500000 0.500000)" fill="#FFFFFF" fill-opacity="0"/>
	<path id="Shape (Stroke)" d="M0.5 19C0.5 16.51 2.51 14.5 5 14.5L12 14.5C14.48 14.5 16.5 16.51 16.5 19L16.5 21C16.5 21.27 16.27 21.5 16 21.5C15.72 21.5 15.5 21.27 15.5 21L15.5 19C15.5 17.06 13.93 15.5 12 15.5L5 15.5C3.06 15.5 1.5 17.06 1.5 19L1.5 21C1.5 21.27 1.27 21.5 1 21.5C0.72 21.5 0.5 21.27 0.5 21L0.5 19Z" fill="#414141" fill-opacity="1.000000" fill-rule="evenodd"/>
	<path id="Oval (Stroke)" d="M4 7C4 4.51 6.01 2.5 8.5 2.5C10.98 2.5 13 4.51 13 7C13 9.48 10.98 11.5 8.5 11.5C6.01 11.5 4 9.48 4 7ZM8.5 3.5C6.56 3.5 5 5.06 5 7C5 8.93 6.56 10.5 8.5 10.5C10.43 10.5 12 8.93 12 7C12 5.06 10.43 3.5 8.5 3.5Z" fill="#414141" fill-opacity="1.000000" fill-rule="evenodd"/>
	<path id="Shape (Stroke)" d="M16.5 11C16.5 10.72 16.72 10.5 17 10.5L23 10.5C23.27 10.5 23.5 10.72 23.5 11C23.5 11.27 23.27 11.5 23 11.5L17 11.5C16.72 11.5 16.5 11.27 16.5 11Z" fill="#414141" fill-opacity="1.000000" fill-rule="evenodd"/>
</svg>
