<svg width="24.000000" height="24.000000" viewBox="0 0 24 24" fill="none" xmlns="http://www.w3.org/2000/svg" xmlns:xlink="http://www.w3.org/1999/xlink">
	<desc>
			Created with Pixso.
	</desc>
	<defs/>
	<rect id="feather-icon / rewind" rx="0.000000" width="23.000000" height="23.000000" transform="translate(0.500000 0.500000)" fill="#FFFFFF" fill-opacity="0"/>
	<path id="Shape (Stroke)" d="M11.21 4.55C11.39 4.63 11.5 4.8 11.5 5L11.5 19C11.5 19.19 11.39 19.36 11.21 19.44C11.04 19.53 10.84 19.51 10.69 19.39L1.69 12.39C1.57 12.29 1.5 12.15 1.5 12C1.5 11.84 1.57 11.7 1.69 11.6L10.69 4.6C10.84 4.48 11.04 4.46 11.21 4.55ZM2.81 12L10.5 17.97L10.5 6.02L2.81 12Z" fill="#414141" fill-opacity="1.000000" fill-rule="evenodd"/>
	<path id="Shape (Stroke)" d="M22.21 4.55C22.39 4.63 22.5 4.8 22.5 5L22.5 19C22.5 19.19 22.39 19.36 22.21 19.44C22.04 19.53 21.84 19.51 21.69 19.39L12.69 12.39C12.57 12.29 12.5 12.15 12.5 12C12.5 11.84 12.57 11.7 12.69 11.6L21.69 4.6C21.84 4.48 22.04 4.46 22.21 4.55ZM13.81 12L21.5 17.97L21.5 6.02L13.81 12Z" fill="#414141" fill-opacity="1.000000" fill-rule="evenodd"/>
</svg>
