<svg width="25.000000" height="25.000000" viewBox="0 0 25 25" fill="none" xmlns="http://www.w3.org/2000/svg" xmlns:xlink="http://www.w3.org/1999/xlink">
	<desc>
			Created with Pixso.
	</desc>
	<defs/>
	<rect id="feather-icon / camera-off" rx="0.000000" width="24.000000" height="24.000000" transform="translate(0.500000 0.500000)" fill="#FFFFFF" fill-opacity="0"/>
	<path id="Shape (Stroke)" d="M0.67 0.67C0.87 0.47 1.2 0.47 1.41 0.67L24.32 23.59C24.53 23.79 24.53 24.12 24.32 24.32C24.12 24.53 23.79 24.53 23.58 24.32L0.67 1.41C0.47 1.2 0.47 0.87 0.67 0.67Z" fill="#414141" fill-opacity="1.000000" fill-rule="evenodd"/>
	<path id="Shape (Stroke)" d="M8.85 3.12C8.85 2.83 9.08 2.6 9.37 2.6L15.62 2.6C15.79 2.6 15.96 2.69 16.05 2.83L17.98 5.72L21.87 5.72C23.31 5.72 24.48 6.89 24.48 8.33L24.48 18.06C24.48 18.35 24.24 18.58 23.95 18.58C23.67 18.58 23.43 18.35 23.43 18.06L23.43 8.33C23.43 7.47 22.73 6.77 21.87 6.77L17.7 6.77C17.53 6.77 17.37 6.68 17.27 6.53L15.34 3.64L9.37 3.64C9.08 3.64 8.85 3.41 8.85 3.12ZM3.12 6.77C2.26 6.77 1.56 7.47 1.56 8.33L1.56 19.79C1.56 20.65 2.26 21.35 3.12 21.35L21.87 21.35C22.16 21.35 22.39 21.58 22.39 21.87C22.39 22.16 22.16 22.39 21.87 22.39L3.12 22.39C1.68 22.39 0.52 21.23 0.52 19.79L0.52 8.33C0.52 6.89 1.68 5.72 3.12 5.72L6.25 5.72C6.53 5.72 6.77 5.96 6.77 6.25C6.77 6.53 6.53 6.77 6.25 6.77L3.12 6.77ZM10.55 9.83C10.72 10.06 10.65 10.39 10.42 10.55C9.21 11.38 8.61 12.85 8.9 14.28C9.19 15.72 10.32 16.84 11.75 17.13C13.19 17.42 14.66 16.83 15.49 15.62C15.65 15.38 15.97 15.32 16.21 15.48C16.45 15.64 16.51 15.97 16.34 16.21C15.28 17.76 13.39 18.53 11.54 18.15C9.7 17.78 8.25 16.34 7.88 14.49C7.51 12.64 8.27 10.75 9.83 9.69C10.07 9.53 10.39 9.59 10.55 9.83Z" fill="#414141" fill-opacity="1.000000" fill-rule="evenodd"/>
</svg>
