<svg width="24.000000" height="24.000000" viewBox="0 0 24 24" fill="none" xmlns="http://www.w3.org/2000/svg" xmlns:xlink="http://www.w3.org/1999/xlink">
	<desc>
			Created with Pixso.
	</desc>
	<defs/>
	<rect id="feather-icon / video" rx="0.000000" width="23.000000" height="23.000000" transform="translate(0.500000 0.500000)" fill="#FFFFFF" fill-opacity="0"/>
	<path id="Shape (Stroke)" d="M23.22 6.55C23.39 6.64 23.5 6.81 23.5 7L23.5 17C23.5 17.18 23.39 17.35 23.22 17.44C23.06 17.53 22.86 17.51 22.7 17.4L15.7 12.4C15.57 12.31 15.5 12.16 15.5 12C15.5 11.83 15.57 11.68 15.7 11.59L22.7 6.59C22.86 6.48 23.06 6.46 23.22 6.55ZM16.85 12L22.5 16.02L22.5 7.97L16.85 12Z" fill="#414141" fill-opacity="1.000000" fill-rule="evenodd"/>
	<path id="Rectangle-path (Stroke)" d="M0.5 7C0.5 5.61 1.61 4.5 3 4.5L14 4.5C15.38 4.5 16.5 5.61 16.5 7L16.5 17C16.5 18.38 15.38 19.5 14 19.5L3 19.5C1.61 19.5 0.5 18.38 0.5 17L0.5 7ZM3 5.5C2.17 5.5 1.5 6.17 1.5 7L1.5 17C1.5 17.82 2.17 18.5 3 18.5L14 18.5C14.82 18.5 15.5 17.82 15.5 17L15.5 7C15.5 6.17 14.82 5.5 14 5.5L3 5.5Z" fill="#414141" fill-opacity="1.000000" fill-rule="evenodd"/>
</svg>
