<svg width="24.000000" height="24.000000" viewBox="0 0 24 24" fill="none" xmlns="http://www.w3.org/2000/svg" xmlns:xlink="http://www.w3.org/1999/xlink">
	<desc>
			Created with Pixso.
	</desc>
	<defs/>
	<rect id="feather-icon / moon" rx="0.000000" width="23.000000" height="23.000000" transform="translate(0.500000 0.500000)" fill="#FFFFFF" fill-opacity="0"/>
	<path id="Shape (Stroke)" d="M11.64 2.75C11.74 2.92 11.73 3.13 11.61 3.29C9.7 5.88 9.96 9.48 12.24 11.75C14.51 14.03 18.11 14.3 20.7 12.38C20.86 12.27 21.07 12.25 21.24 12.35C21.41 12.45 21.51 12.63 21.49 12.83C21.03 17.83 16.76 21.61 11.74 21.45C6.73 21.3 2.69 17.27 2.54 12.25C2.38 7.23 6.16 2.96 11.16 2.5C11.36 2.48 11.54 2.58 11.64 2.75ZM10.2 3.66C6.26 4.52 3.41 8.09 3.54 12.22C3.68 16.71 7.28 20.31 11.77 20.45C15.9 20.58 19.47 17.73 20.33 13.79C17.47 15.31 13.89 14.81 11.53 12.46C9.18 10.1 8.69 6.52 10.2 3.66Z" fill="#414141" fill-opacity="1.000000" fill-rule="evenodd"/>
</svg>
