<svg width="24.000000" height="24.000000" viewBox="0 0 24 24" fill="none" xmlns="http://www.w3.org/2000/svg" xmlns:xlink="http://www.w3.org/1999/xlink">
	<desc>
			Created with Pixso.
	</desc>
	<defs/>
	<rect id="feather-icon / activity" rx="0.000000" width="23.000000" height="23.000000" transform="translate(0.500000 0.500000)" fill="#FFFFFF" fill-opacity="0"/>
	<path id="Shape (Stroke)" d="M9 1.5C9.21 1.5 9.4 1.63 9.47 1.84L15 18.41L17.52 10.84C17.59 10.63 17.78 10.5 18 10.5L22 10.5C22.27 10.5 22.5 10.72 22.5 11C22.5 11.27 22.27 11.5 22 11.5L18.36 11.5L15.47 20.15C15.4 20.36 15.21 20.5 15 20.5C14.78 20.5 14.59 20.36 14.52 20.15L9 3.58L6.47 11.15C6.4 11.36 6.21 11.5 6 11.5L2 11.5C1.72 11.5 1.5 11.27 1.5 11C1.5 10.72 1.72 10.5 2 10.5L5.63 10.5L8.52 1.84C8.59 1.63 8.78 1.5 9 1.5Z" fill="#414141" fill-opacity="1.000000" fill-rule="evenodd"/>
</svg>
