<svg width="25.000000" height="25.000000" viewBox="0 0 25 25" fill="none" xmlns="http://www.w3.org/2000/svg" xmlns:xlink="http://www.w3.org/1999/xlink">
	<desc>
			Created with Pixso.
	</desc>
	<defs/>
	<rect id="feather-icon / book" rx="0.000000" width="24.000000" height="24.000000" transform="translate(0.500000 0.500000)" fill="#FFFFFF" fill-opacity="0"/>
	<path id="Shape (Stroke)" d="M6.77 18.22C5.62 18.22 4.68 19.16 4.68 20.31C4.68 20.6 4.45 20.83 4.16 20.83C3.87 20.83 3.64 20.6 3.64 20.31C3.64 18.58 5.04 17.18 6.77 17.18L20.83 17.18C21.12 17.18 21.35 17.42 21.35 17.7C21.35 17.99 21.12 18.22 20.83 18.22L6.77 18.22Z" fill="#414141" fill-opacity="1.000000" fill-rule="evenodd"/>
	<path id="Shape (Stroke)" d="M6.77 2.6C5.62 2.6 4.68 3.53 4.68 4.68L4.68 20.31C4.68 21.46 5.62 22.39 6.77 22.39L20.31 22.39L20.31 2.6L6.77 2.6ZM3.64 4.68C3.64 2.96 5.04 1.56 6.77 1.56L20.83 1.56C21.12 1.56 21.35 1.79 21.35 2.08L21.35 22.91C21.35 23.2 21.12 23.43 20.83 23.43L6.77 23.43C5.04 23.43 3.64 22.03 3.64 20.31L3.64 4.68Z" fill="#414141" fill-opacity="1.000000" fill-rule="evenodd"/>
</svg>
