<svg width="24.000000" height="24.000000" viewBox="0 0 24 24" fill="none" xmlns="http://www.w3.org/2000/svg" xmlns:xlink="http://www.w3.org/1999/xlink">
	<desc>
			Created with Pixso.
	</desc>
	<defs/>
	<rect id="feather-icon / star" rx="0.000000" width="23.000000" height="23.000000" transform="translate(0.500000 0.500000)" fill="#FFFFFF" fill-opacity="0"/>
	<path id="Shape (Stroke)" d="M12 1.5C12.18 1.5 12.36 1.6 12.44 1.77L15.42 7.8L22.07 8.77C22.25 8.8 22.41 8.93 22.47 9.11C22.53 9.29 22.48 9.49 22.34 9.62L17.53 14.31L18.67 20.93C18.7 21.12 18.62 21.31 18.47 21.42C18.32 21.53 18.11 21.55 17.94 21.46L12 18.33L6.05 21.46C5.88 21.55 5.67 21.53 5.52 21.42C5.37 21.31 5.29 21.12 5.32 20.93L6.46 14.31L1.65 9.62C1.51 9.49 1.46 9.29 1.52 9.11C1.58 8.93 1.74 8.8 1.92 8.77L8.57 7.8L11.55 1.77C11.63 1.6 11.81 1.5 12 1.5ZM12 3.12L9.35 8.48C9.28 8.62 9.14 8.73 8.98 8.75L3.07 9.61L7.34 13.78C7.46 13.89 7.52 14.06 7.49 14.22L6.48 20.1L11.76 17.32C11.91 17.25 12.08 17.25 12.23 17.32L17.51 20.1L16.5 14.22C16.47 14.06 16.53 13.89 16.65 13.78L20.92 9.61L15.01 8.75C14.85 8.73 14.71 8.62 14.64 8.48L12 3.12Z" fill="#414141" fill-opacity="1.000000" fill-rule="evenodd"/>
</svg>
