<svg width="24.000000" height="24.000000" viewBox="0 0 24 24" fill="none" xmlns="http://www.w3.org/2000/svg" xmlns:xlink="http://www.w3.org/1999/xlink">
	<desc>
			Created with Pixso.
	</desc>
	<defs/>
	<rect id="feather-icon / percent" rx="0.000000" width="23.000000" height="23.000000" transform="translate(0.500000 0.500000)" fill="#FFFFFF" fill-opacity="0"/>
	<path id="Shape (Stroke)" d="M19.35 4.64C19.54 4.84 19.54 5.15 19.35 5.35L5.35 19.35C5.15 19.54 4.84 19.54 4.64 19.35C4.45 19.15 4.45 18.84 4.64 18.64L18.64 4.64C18.84 4.45 19.15 4.45 19.35 4.64Z" fill="#414141" fill-opacity="1.000000" fill-rule="evenodd"/>
	<path id="Oval (Stroke)" d="M3.5 6.5C3.5 4.84 4.84 3.5 6.5 3.5C8.15 3.5 9.5 4.84 9.5 6.5C9.5 8.15 8.15 9.5 6.5 9.5C4.84 9.5 3.5 8.15 3.5 6.5ZM6.5 4.5C5.39 4.5 4.5 5.39 4.5 6.5C4.5 7.6 5.39 8.5 6.5 8.5C7.6 8.5 8.5 7.6 8.5 6.5C8.5 5.39 7.6 4.5 6.5 4.5Z" fill="#414141" fill-opacity="1.000000" fill-rule="evenodd"/>
	<path id="Oval (Stroke)" d="M14.5 17.5C14.5 15.84 15.84 14.5 17.5 14.5C19.15 14.5 20.5 15.84 20.5 17.5C20.5 19.15 19.15 20.5 17.5 20.5C15.84 20.5 14.5 19.15 14.5 17.5ZM17.5 15.5C16.39 15.5 15.5 16.39 15.5 17.5C15.5 18.6 16.39 19.5 17.5 19.5C18.6 19.5 19.5 18.6 19.5 17.5C19.5 16.39 18.6 15.5 17.5 15.5Z" fill="#414141" fill-opacity="1.000000" fill-rule="evenodd"/>
</svg>
