<svg width="24.000000" height="24.000000" viewBox="0 0 24 24" fill="none" xmlns="http://www.w3.org/2000/svg" xmlns:xlink="http://www.w3.org/1999/xlink">
	<desc>
			Created with Pixso.
	</desc>
	<defs/>
	<rect id="feather-icon / sun" rx="0.000000" width="23.000000" height="23.000000" transform="translate(0.500000 0.500000)" fill="#FFFFFF" fill-opacity="0"/>
	<path id="Oval (Stroke)" d="M6.5 12C6.5 8.96 8.96 6.5 12 6.5C15.03 6.5 17.5 8.96 17.5 12C17.5 15.03 15.03 17.5 12 17.5C8.96 17.5 6.5 15.03 6.5 12ZM12 7.5C9.51 7.5 7.5 9.51 7.5 12C7.5 14.48 9.51 16.5 12 16.5C14.48 16.5 16.5 14.48 16.5 12C16.5 9.51 14.48 7.5 12 7.5Z" fill="#414141" fill-opacity="1.000000" fill-rule="evenodd"/>
	<path id="Shape (Stroke)" d="M12 0.5C12.27 0.5 12.5 0.72 12.5 1L12.5 3C12.5 3.27 12.27 3.5 12 3.5C11.72 3.5 11.5 3.27 11.5 3L11.5 1C11.5 0.72 11.72 0.5 12 0.5Z" fill="#414141" fill-opacity="1.000000" fill-rule="evenodd"/>
	<path id="Shape (Stroke)" d="M12 20.5C12.27 20.5 12.5 20.72 12.5 21L12.5 23C12.5 23.27 12.27 23.5 12 23.5C11.72 23.5 11.5 23.27 11.5 23L11.5 21C11.5 20.72 11.72 20.5 12 20.5Z" fill="#414141" fill-opacity="1.000000" fill-rule="evenodd"/>
	<path id="Shape (Stroke)" d="M3.86 3.86C4.06 3.67 4.37 3.67 4.57 3.86L5.99 5.28C6.18 5.48 6.18 5.79 5.99 5.99C5.79 6.18 5.48 6.18 5.28 5.99L3.86 4.57C3.66 4.37 3.66 4.06 3.86 3.86Z" fill="#414141" fill-opacity="1.000000" fill-rule="evenodd"/>
	<path id="Shape (Stroke)" d="M18 18C18.2 17.81 18.51 17.81 18.71 18L20.13 19.42C20.32 19.62 20.32 19.93 20.13 20.13C19.93 20.32 19.62 20.32 19.42 20.13L18 18.71C17.81 18.51 17.81 18.2 18 18Z" fill="#414141" fill-opacity="1.000000" fill-rule="evenodd"/>
	<path id="Shape (Stroke)" d="M0.5 12C0.5 11.72 0.72 11.5 1 11.5L3 11.5C3.27 11.5 3.5 11.72 3.5 12C3.5 12.27 3.27 12.5 3 12.5L1 12.5C0.72 12.5 0.5 12.27 0.5 12Z" fill="#414141" fill-opacity="1.000000" fill-rule="evenodd"/>
	<path id="Shape (Stroke)" d="M20.5 12C20.5 11.72 20.72 11.5 21 11.5L23 11.5C23.27 11.5 23.5 11.72 23.5 12C23.5 12.27 23.27 12.5 23 12.5L21 12.5C20.72 12.5 20.5 12.27 20.5 12Z" fill="#414141" fill-opacity="1.000000" fill-rule="evenodd"/>
	<path id="Shape (Stroke)" d="M5.99 18C6.18 18.2 6.18 18.51 5.99 18.71L4.57 20.13C4.37 20.32 4.06 20.32 3.86 20.13C3.66 19.93 3.66 19.62 3.86 19.42L5.28 18C5.48 17.81 5.79 17.81 5.99 18Z" fill="#414141" fill-opacity="1.000000" fill-rule="evenodd"/>
	<path id="Shape (Stroke)" d="M20.13 3.86C20.32 4.06 20.32 4.37 20.13 4.57L18.71 5.99C18.51 6.18 18.2 6.18 18 5.99C17.81 5.79 17.81 5.48 18 5.28L19.42 3.86C19.62 3.67 19.93 3.67 20.13 3.86Z" fill="#414141" fill-opacity="1.000000" fill-rule="evenodd"/>
</svg>
