<svg width="24.000000" height="24.000000" viewBox="0 0 24 24" fill="none" xmlns="http://www.w3.org/2000/svg" xmlns:xlink="http://www.w3.org/1999/xlink">
	<desc>
			Created with Pixso.
	</desc>
	<defs/>
	<rect id="feather-icon / shield" rx="0.000000" width="23.000000" height="23.000000" transform="translate(0.500000 0.500000)" fill="#FFFFFF" fill-opacity="0"/>
	<path id="Shape (Stroke)" d="M11.87 1.51C11.95 1.49 12.04 1.49 12.12 1.51L20.12 3.51C20.34 3.57 20.5 3.77 20.5 4L20.5 12C20.5 15.22 18.35 17.85 16.33 19.62C15.3 20.52 14.28 21.22 13.51 21.7C13.13 21.94 12.81 22.12 12.58 22.25C12.47 22.31 12.38 22.36 12.32 22.39C12.29 22.41 12.26 22.42 12.25 22.43L12.23 22.44L12.22 22.44L12.22 22.44L12.22 22.44C12.22 22.44 12.22 22.44 12 22C11.77 22.44 11.77 22.44 11.77 22.44L11.77 22.44L11.77 22.44L11.76 22.44L11.75 22.43C11.73 22.42 11.7 22.41 11.67 22.39C11.61 22.36 11.52 22.31 11.41 22.25C11.18 22.12 10.86 21.94 10.48 21.7C9.71 21.22 8.69 20.52 7.66 19.62C5.64 17.85 3.5 15.22 3.5 12L3.5 4C3.5 3.77 3.65 3.57 3.87 3.51L11.87 1.51ZM12 22L11.77 22.44C11.91 22.51 12.08 22.51 12.22 22.44L12 22ZM12 21.43C11.96 21.41 11.93 21.39 11.89 21.37C11.68 21.26 11.38 21.08 11.01 20.85C10.28 20.39 9.3 19.72 8.33 18.87C6.35 17.14 4.5 14.77 4.5 12L4.5 4.39L12 2.51L19.5 4.39L19.5 12C19.5 14.77 17.64 17.14 15.66 18.87C14.69 19.72 13.71 20.39 12.98 20.85C12.61 21.08 12.31 21.26 12.1 21.37C12.06 21.39 12.03 21.41 12 21.43Z" fill="#414141" fill-opacity="1.000000" fill-rule="evenodd"/>
	<path id="Line 8 (Stroke)" d="M0.64 0.64C0.84 0.45 1.15 0.45 1.35 0.64L23.35 22.64C23.54 22.84 23.54 23.15 23.35 23.35C23.15 23.54 22.84 23.54 22.64 23.35L0.64 1.35C0.45 1.15 0.45 0.84 0.64 0.64Z" fill="#414141" fill-opacity="1.000000" fill-rule="evenodd"/>
</svg>
