<svg width="24.000000" height="24.000000" viewBox="0 0 24 24" fill="none" xmlns="http://www.w3.org/2000/svg" xmlns:xlink="http://www.w3.org/1999/xlink">
	<desc>
			Created with Pixso.
	</desc>
	<defs/>
	<rect id="feather-icon / draganddrop" rx="0.000000" width="23.000000" height="23.000000" transform="translate(0.500000 0.500000)" fill="#FFFFFF" fill-opacity="0"/>
	<path id="Oval (Stroke)" d="M5.5 12C5.5 10.61 6.61 9.5 8 9.5C9.38 9.5 10.5 10.61 10.5 12C10.5 13.38 9.38 14.5 8 14.5C6.61 14.5 5.5 13.38 5.5 12ZM8 10.5C7.17 10.5 6.5 11.17 6.5 12C6.5 12.82 7.17 13.5 8 13.5C8.82 13.5 9.5 12.82 9.5 12C9.5 11.17 8.82 10.5 8 10.5Z" fill="#414141" fill-opacity="1.000000" fill-rule="evenodd"/>
	<path id="Oval (Stroke)" d="M5.5 4C5.5 2.61 6.61 1.5 8 1.5C9.38 1.5 10.5 2.61 10.5 4C10.5 5.38 9.38 6.5 8 6.5C6.61 6.5 5.5 5.38 5.5 4ZM8 2.5C7.17 2.5 6.5 3.17 6.5 4C6.5 4.82 7.17 5.5 8 5.5C8.82 5.5 9.5 4.82 9.5 4C9.5 3.17 8.82 2.5 8 2.5Z" fill="#414141" fill-opacity="1.000000" fill-rule="evenodd"/>
	<path id="Oval (Stroke)" d="M5.5 20C5.5 18.61 6.61 17.5 8 17.5C9.38 17.5 10.5 18.61 10.5 20C10.5 21.38 9.38 22.5 8 22.5C6.61 22.5 5.5 21.38 5.5 20ZM8 18.5C7.17 18.5 6.5 19.17 6.5 20C6.5 20.82 7.17 21.5 8 21.5C8.82 21.5 9.5 20.82 9.5 20C9.5 19.17 8.82 18.5 8 18.5Z" fill="#414141" fill-opacity="1.000000" fill-rule="evenodd"/>
	<path id="Oval (Stroke)" d="M13.5 12C13.5 10.61 14.61 9.5 16 9.5C17.38 9.5 18.5 10.61 18.5 12C18.5 13.38 17.38 14.5 16 14.5C14.61 14.5 13.5 13.38 13.5 12ZM16 10.5C15.17 10.5 14.5 11.17 14.5 12C14.5 12.82 15.17 13.5 16 13.5C16.82 13.5 17.5 12.82 17.5 12C17.5 11.17 16.82 10.5 16 10.5Z" fill="#414141" fill-opacity="1.000000" fill-rule="evenodd"/>
	<path id="Oval (Stroke)" d="M13.5 4C13.5 2.61 14.61 1.5 16 1.5C17.38 1.5 18.5 2.61 18.5 4C18.5 5.38 17.38 6.5 16 6.5C14.61 6.5 13.5 5.38 13.5 4ZM16 2.5C15.17 2.5 14.5 3.17 14.5 4C14.5 4.82 15.17 5.5 16 5.5C16.82 5.5 17.5 4.82 17.5 4C17.5 3.17 16.82 2.5 16 2.5Z" fill="#414141" fill-opacity="1.000000" fill-rule="evenodd"/>
	<path id="Oval (Stroke)" d="M13.5 20C13.5 18.61 14.61 17.5 16 17.5C17.38 17.5 18.5 18.61 18.5 20C18.5 21.38 17.38 22.5 16 22.5C14.61 22.5 13.5 21.38 13.5 20ZM16 18.5C15.17 18.5 14.5 19.17 14.5 20C14.5 20.82 15.17 21.5 16 21.5C16.82 21.5 17.5 20.82 17.5 20C17.5 19.17 16.82 18.5 16 18.5Z" fill="#414141" fill-opacity="1.000000" fill-rule="evenodd"/>
</svg>
