<svg width="24.000000" height="24.000000" viewBox="0 0 24 24" fill="none" xmlns="http://www.w3.org/2000/svg" xmlns:xlink="http://www.w3.org/1999/xlink">
	<desc>
			Created with Pixso.
	</desc>
	<defs/>
	<rect id="feather-icon / tablet" rx="0.000000" width="23.000000" height="23.000000" transform="translate(0.500000 0.500000)" fill="#FFFFFF" fill-opacity="0"/>
	<path id="Rectangle-path (Stroke)" d="M20.5 20C20.5 21.38 19.38 22.5 18 22.5L6 22.5C4.61 22.5 3.5 21.38 3.5 20L3.5 4C3.5 2.61 4.61 1.5 6 1.5L18 1.5C19.38 1.5 20.5 2.61 20.5 4L20.5 20ZM18 21.5C18.82 21.5 19.5 20.82 19.5 20L19.5 4C19.5 3.17 18.82 2.5 18 2.5L6 2.5C5.17 2.5 4.5 3.17 4.5 4L4.5 20C4.5 20.82 5.17 21.5 6 21.5L18 21.5Z" fill="#414141" fill-opacity="1.000000" fill-rule="evenodd"/>
	<path id="Ellipse" d="M13 18C13 18.55 12.55 19 12 19C11.44 19 11 18.55 11 18C11 17.44 11.44 17 12 17C12.55 17 13 17.44 13 18Z" fill="#414141" fill-opacity="1.000000" fill-rule="nonzero"/>
</svg>
