<svg width="24.000000" height="24.000000" viewBox="0 0 24 24" fill="none" xmlns="http://www.w3.org/2000/svg" xmlns:xlink="http://www.w3.org/1999/xlink">
	<desc>
			Created with Pixso.
	</desc>
	<defs/>
	<rect id="feather-icon / pocket" rx="0.000000" width="23.000000" height="23.000000" transform="translate(0.500000 0.500000)" fill="#FFFFFF" fill-opacity="0"/>
	<path id="Shape (Stroke)" d="M4 3.5C3.17 3.5 2.5 4.17 2.5 5L2.5 11C2.5 13.51 3.5 15.93 5.28 17.71C7.06 19.49 9.48 20.5 12 20.5C17.24 20.5 21.5 16.24 21.5 11L21.5 5C21.5 4.17 20.82 3.5 20 3.5L4 3.5ZM1.5 5C1.5 3.61 2.61 2.5 4 2.5L20 2.5C21.38 2.5 22.5 3.61 22.5 5L22.5 11C22.5 16.79 17.79 21.5 12 21.5C9.21 21.5 6.54 20.39 4.57 18.42C2.6 16.45 1.5 13.78 1.5 11L1.5 5Z" fill="#414141" fill-opacity="1.000000" fill-rule="evenodd"/>
	<path id="Shape (Stroke)" d="M7.64 9.64C7.84 9.45 8.15 9.45 8.35 9.64L12 13.29L15.64 9.64C15.84 9.45 16.15 9.45 16.35 9.64C16.54 9.84 16.54 10.15 16.35 10.35L12.35 14.35C12.15 14.54 11.84 14.54 11.64 14.35L7.64 10.35C7.45 10.15 7.45 9.84 7.64 9.64Z" fill="#414141" fill-opacity="1.000000" fill-rule="evenodd"/>
</svg>
