<svg width="24.000000" height="24.000000" viewBox="0 0 24 24" fill="none" xmlns="http://www.w3.org/2000/svg" xmlns:xlink="http://www.w3.org/1999/xlink">
	<desc>
			Created with Pixso.
	</desc>
	<defs/>
	<rect id="feather-icon / delete" rx="0.000000" width="23.000000" height="23.000000" transform="translate(0.500000 0.500000)" fill="#FFFFFF" fill-opacity="0"/>
	<path id="Shape (Stroke)" d="M7.62 3.67C7.71 3.56 7.85 3.5 8 3.5L21 3.5C22.38 3.5 23.5 4.61 23.5 6L23.5 18C23.5 19.38 22.38 20.5 21 20.5L8 20.5C7.85 20.5 7.71 20.43 7.62 20.32L0.62 12.32C0.45 12.14 0.45 11.85 0.62 11.67L7.62 3.67ZM8.22 4.5L1.66 12L8.22 19.5L21 19.5C21.82 19.5 22.5 18.82 22.5 18L22.5 6C22.5 5.17 21.82 4.5 21 4.5L8.22 4.5Z" fill="#414141" fill-opacity="1.000000" fill-rule="evenodd"/>
	<path id="Shape (Stroke)" d="M18.35 8.64C18.54 8.84 18.54 9.15 18.35 9.35L12.35 15.35C12.15 15.54 11.84 15.54 11.64 15.35C11.45 15.15 11.45 14.84 11.64 14.64L17.64 8.64C17.84 8.45 18.15 8.45 18.35 8.64Z" fill="#414141" fill-opacity="1.000000" fill-rule="evenodd"/>
	<path id="Shape (Stroke)" d="M11.64 8.64C11.84 8.45 12.15 8.45 12.35 8.64L18.35 14.64C18.54 14.84 18.54 15.15 18.35 15.35C18.15 15.54 17.84 15.54 17.64 15.35L11.64 9.35C11.45 9.15 11.45 8.84 11.64 8.64Z" fill="#414141" fill-opacity="1.000000" fill-rule="evenodd"/>
</svg>
