<svg width="24.000000" height="24.000000" viewBox="0 0 24 24" fill="none" xmlns="http://www.w3.org/2000/svg" xmlns:xlink="http://www.w3.org/1999/xlink">
	<desc>
			Created with Pixso.
	</desc>
	<defs/>
	<rect id="feather-icon / shuffle" rx="0.000000" width="23.000000" height="23.000000" transform="translate(0.500000 0.500000)" fill="#FFFFFF" fill-opacity="0"/>
	<path id="Shape (Stroke)" d="M14.5 3C14.5 2.72 14.72 2.5 15 2.5L20 2.5C20.27 2.5 20.5 2.72 20.5 3L20.5 8C20.5 8.27 20.27 8.5 20 8.5C19.72 8.5 19.5 8.27 19.5 8L19.5 3.5L15 3.5C14.72 3.5 14.5 3.27 14.5 3Z" fill="#414141" fill-opacity="1.000000" fill-rule="evenodd"/>
	<path id="Shape (Stroke)" d="M20.35 2.64C20.54 2.84 20.54 3.15 20.35 3.35L3.35 20.35C3.15 20.54 2.84 20.54 2.64 20.35C2.45 20.15 2.45 19.84 2.64 19.64L19.64 2.64C19.84 2.45 20.15 2.45 20.35 2.64Z" fill="#414141" fill-opacity="1.000000" fill-rule="evenodd"/>
	<path id="Shape (Stroke)" d="M20 15.5C20.27 15.5 20.5 15.72 20.5 16L20.5 21C20.5 21.27 20.27 21.5 20 21.5L15 21.5C14.72 21.5 14.5 21.27 14.5 21C14.5 20.72 14.72 20.5 15 20.5L19.5 20.5L19.5 16C19.5 15.72 19.72 15.5 20 15.5Z" fill="#414141" fill-opacity="1.000000" fill-rule="evenodd"/>
	<path id="Shape (Stroke)" d="M13.64 14.64C13.84 14.45 14.15 14.45 14.35 14.64L20.35 20.64C20.54 20.84 20.54 21.15 20.35 21.35C20.15 21.54 19.84 21.54 19.64 21.35L13.64 15.35C13.45 15.15 13.45 14.84 13.64 14.64Z" fill="#414141" fill-opacity="1.000000" fill-rule="evenodd"/>
	<path id="Shape (Stroke)" d="M2.64 3.64C2.84 3.45 3.15 3.45 3.35 3.64L8.35 8.64C8.54 8.84 8.54 9.15 8.35 9.35C8.15 9.54 7.84 9.54 7.64 9.35L2.64 4.35C2.45 4.15 2.45 3.84 2.64 3.64Z" fill="#414141" fill-opacity="1.000000" fill-rule="evenodd"/>
</svg>
