<svg width="24.000000" height="24.000000" viewBox="0 0 24 24" fill="none" xmlns="http://www.w3.org/2000/svg" xmlns:xlink="http://www.w3.org/1999/xlink">
	<desc>
			Created with Pixso.
	</desc>
	<defs/>
	<rect id="feather-icon / cloud-off" rx="0.000000" width="23.000000" height="23.000000" transform="translate(0.500000 0.500000)" fill="#FFFFFF" fill-opacity="0"/>
	<path id="Path (Stroke)" d="M5.56 4.75C5.7 5 5.61 5.3 5.37 5.43C2.35 7.1 0.86 10.6 1.75 13.93C2.64 17.26 5.67 19.55 9.12 19.5L9.12 19.5L18.12 19.5C18.65 19.49 19.16 19.4 19.65 19.23C19.91 19.13 20.2 19.27 20.29 19.52C20.39 19.78 20.25 20.07 20 20.16C19.4 20.38 18.76 20.49 18.13 20.5L9.13 20.5C5.23 20.56 1.79 17.95 0.78 14.19C-0.22 10.42 1.47 6.45 4.88 4.56C5.12 4.42 5.43 4.51 5.56 4.75Z" fill="#414141" fill-opacity="1.000000" fill-rule="evenodd"/>
	<path id="Shape" d="M1 1L23 1" stroke="#414141" stroke-opacity="1.000000" stroke-width="1.000000" stroke-linejoin="round" stroke-linecap="round"/>
	<path id="Vector 184 (Stroke)" d="M9 4C9 3.72 9.22 3.5 9.5 3.5C11.57 3.5 15.98 4.7 17.38 9.5C19.1 9.57 20.93 10.1 22.15 11.26C22.82 11.89 23.3 12.7 23.47 13.71C23.63 14.71 23.49 15.87 22.96 17.18C22.86 17.44 22.57 17.56 22.31 17.46C22.05 17.36 21.93 17.07 22.03 16.81C22.5 15.62 22.61 14.65 22.48 13.87C22.35 13.1 21.99 12.48 21.46 11.98C20.4 10.98 18.67 10.5 17 10.5C16.77 10.5 16.57 10.34 16.51 10.12C15.39 5.63 11.37 4.5 9.5 4.5C9.22 4.5 9 4.27 9 4Z" fill="#414141" fill-opacity="1.000000" fill-rule="evenodd"/>
</svg>
