<svg width="25.000000" height="25.000000" viewBox="0 0 25 25" fill="none" xmlns="http://www.w3.org/2000/svg" xmlns:xlink="http://www.w3.org/1999/xlink">
	<desc>
			Created with Pixso.
	</desc>
	<defs/>
	<rect id="feather-icon / briefcase" rx="0.000000" width="24.000000" height="24.000000" transform="translate(0.500000 0.500000)" fill="#FFFFFF" fill-opacity="0"/>
	<path id="Rectangle-path (Stroke)" d="M1.56 9.37C1.56 7.93 2.72 6.77 4.16 6.77L20.83 6.77C22.27 6.77 23.43 7.93 23.43 9.37L23.43 19.79C23.43 21.23 22.27 22.39 20.83 22.39L4.16 22.39C2.72 22.39 1.56 21.23 1.56 19.79L1.56 9.37ZM4.16 7.81C3.3 7.81 2.6 8.51 2.6 9.37L2.6 19.79C2.6 20.65 3.3 21.35 4.16 21.35L20.83 21.35C21.69 21.35 22.39 20.65 22.39 19.79L22.39 9.37C22.39 8.51 21.69 7.81 20.83 7.81L4.16 7.81Z" fill="#414141" fill-opacity="1.000000" fill-rule="evenodd"/>
	<path id="Shape (Stroke)" d="M7.81 5.2C7.81 3.77 8.97 2.6 10.41 2.6L14.58 2.6C16.02 2.6 17.18 3.77 17.18 5.2L17.18 21.87C17.18 22.16 16.95 22.39 16.66 22.39C16.37 22.39 16.14 22.16 16.14 21.87L16.14 5.2C16.14 4.34 15.44 3.64 14.58 3.64L10.41 3.64C9.55 3.64 8.85 4.34 8.85 5.2L8.85 21.87C8.85 22.16 8.62 22.39 8.33 22.39C8.04 22.39 7.81 22.16 7.81 21.87L7.81 5.2Z" fill="#414141" fill-opacity="1.000000" fill-rule="evenodd"/>
</svg>
