<svg width="24.000000" height="24.000000" viewBox="0 0 24 24" fill="none" xmlns="http://www.w3.org/2000/svg" xmlns:xlink="http://www.w3.org/1999/xlink">
	<desc>
			Created with Pixso.
	</desc>
	<defs/>
	<rect id="feather-icon / ascending" rx="0.000000" width="23.000000" height="23.000000" transform="translate(0.500000 0.500000)" fill="#FFFFFF" fill-opacity="0"/>
	<path id="Rectangle-path (Stroke)" d="M21 17.5C21.27 17.5 21.5 17.72 21.5 18L21.5 22C21.5 22.27 21.27 22.5 21 22.5L3 22.5C2.72 22.5 2.5 22.27 2.5 22L2.5 18C2.5 17.72 2.72 17.5 3 17.5L21 17.5ZM20.5 18.5L3.5 18.5L3.5 21.5L20.5 21.5L20.5 18.5Z" fill="#414141" fill-opacity="1.000000" fill-rule="evenodd"/>
	<path id="Rectangle-path (Stroke)" d="M16 9.5C16.27 9.5 16.5 9.72 16.5 10L16.5 14C16.5 14.27 16.27 14.5 16 14.5L3 14.5C2.72 14.5 2.5 14.27 2.5 14L2.5 10C2.5 9.72 2.72 9.5 3 9.5L16 9.5ZM15.5 10.5L3.5 10.5L3.5 13.5L15.5 13.5L15.5 10.5Z" fill="#414141" fill-opacity="1.000000" fill-rule="evenodd"/>
	<path id="Rectangle-path (Stroke)" d="M11 1.5C11.27 1.5 11.5 1.72 11.5 2L11.5 6C11.5 6.27 11.27 6.5 11 6.5L3 6.5C2.72 6.5 2.5 6.27 2.5 6L2.5 2C2.5 1.72 2.72 1.5 3 1.5L11 1.5ZM10.5 2.5L3.5 2.5L3.5 5.5L10.5 5.5L10.5 2.5Z" fill="#414141" fill-opacity="1.000000" fill-rule="evenodd"/>
</svg>
