<svg width="25.000000" height="25.000000" viewBox="0 0 25 25" fill="none" xmlns="http://www.w3.org/2000/svg" xmlns:xlink="http://www.w3.org/1999/xlink">
	<desc>
			Created with Pixso.
	</desc>
	<defs/>
	<rect id="feather-icon / calendar" rx="0.000000" width="24.000000" height="24.000000" transform="translate(0.500000 0.500000)" fill="#FFFFFF" fill-opacity="0"/>
	<path id="Rectangle-path (Stroke)" d="M2.6 6.25C2.6 4.81 3.76 3.64 5.2 3.64L19.79 3.64C21.22 3.64 22.39 4.81 22.39 6.25L22.39 20.83C22.39 22.27 21.22 23.43 19.79 23.43L5.2 23.43C3.76 23.43 2.6 22.27 2.6 20.83L2.6 6.25ZM5.2 4.68C4.34 4.68 3.64 5.38 3.64 6.25L3.64 20.83C3.64 21.69 4.34 22.39 5.2 22.39L19.79 22.39C20.65 22.39 21.35 21.69 21.35 20.83L21.35 6.25C21.35 5.38 20.65 4.68 19.79 4.68L5.2 4.68Z" fill="#414141" fill-opacity="1.000000" fill-rule="evenodd"/>
	<path id="Shape (Stroke)" d="M16.66 1.56C16.95 1.56 17.18 1.79 17.18 2.08L17.18 6.25C17.18 6.53 16.95 6.77 16.66 6.77C16.37 6.77 16.14 6.53 16.14 6.25L16.14 2.08C16.14 1.79 16.37 1.56 16.66 1.56Z" fill="#414141" fill-opacity="1.000000" fill-rule="evenodd"/>
	<path id="Shape (Stroke)" d="M8.33 1.56C8.62 1.56 8.85 1.79 8.85 2.08L8.85 6.25C8.85 6.53 8.62 6.77 8.33 6.77C8.04 6.77 7.81 6.53 7.81 6.25L7.81 2.08C7.81 1.79 8.04 1.56 8.33 1.56Z" fill="#414141" fill-opacity="1.000000" fill-rule="evenodd"/>
	<path id="Shape (Stroke)" d="M2.6 10.41C2.6 10.12 2.83 9.89 3.12 9.89L21.87 9.89C22.16 9.89 22.39 10.12 22.39 10.41C22.39 10.7 22.16 10.93 21.87 10.93L3.12 10.93C2.83 10.93 2.6 10.7 2.6 10.41Z" fill="#414141" fill-opacity="1.000000" fill-rule="evenodd"/>
</svg>
