<svg width="24.000000" height="24.000000" viewBox="0 0 24 24" fill="none" xmlns="http://www.w3.org/2000/svg" xmlns:xlink="http://www.w3.org/1999/xlink">
	<desc>
			Created with Pixso.
	</desc>
	<defs/>
	<rect id="feather-icon / radio" rx="0.000000" width="23.000000" height="23.000000" transform="translate(0.500000 0.500000)" fill="#FFFFFF" fill-opacity="0"/>
	<path id="Oval (Stroke)" d="M9.5 12C9.5 10.61 10.61 9.5 12 9.5C13.38 9.5 14.5 10.61 14.5 12C14.5 13.38 13.38 14.5 12 14.5C10.61 14.5 9.5 13.38 9.5 12ZM12 10.5C11.17 10.5 10.5 11.17 10.5 12C10.5 12.82 11.17 13.5 12 13.5C12.82 13.5 13.5 12.82 13.5 12C13.5 11.17 12.82 10.5 12 10.5Z" fill="#414141" fill-opacity="1.000000" fill-rule="evenodd"/>
	<path id="Shape (Stroke)" d="M5.28 4.57C5.48 4.77 5.48 5.08 5.28 5.28C1.57 8.99 1.57 15 5.28 18.71C5.48 18.91 5.48 19.22 5.28 19.42C5.08 19.61 4.77 19.61 4.57 19.42C0.47 15.32 0.47 8.67 4.57 4.57C4.77 4.38 5.08 4.38 5.28 4.57ZM18.71 4.57C18.91 4.38 19.22 4.38 19.42 4.57C23.52 8.67 23.52 15.32 19.42 19.42C19.22 19.61 18.91 19.61 18.71 19.42C18.52 19.22 18.52 18.91 18.71 18.71C22.42 15 22.42 8.99 18.71 5.28C18.52 5.08 18.52 4.77 18.71 4.57ZM8.11 7.39C8.31 7.59 8.31 7.9 8.11 8.1C7.08 9.13 6.5 10.53 6.5 11.99C6.5 13.45 7.08 14.85 8.11 15.88C8.31 16.08 8.31 16.39 8.11 16.59C7.92 16.78 7.6 16.78 7.41 16.59C6.18 15.37 5.5 13.72 5.5 11.99C5.5 10.27 6.18 8.61 7.41 7.39C7.6 7.2 7.92 7.2 8.11 7.39ZM15.88 7.4C16.08 7.21 16.4 7.21 16.59 7.4C17.81 8.62 18.5 10.27 18.5 12C18.5 13.73 17.81 15.38 16.59 16.6C16.4 16.79 16.08 16.79 15.88 16.6C15.69 16.4 15.69 16.09 15.88 15.89C16.92 14.86 17.5 13.46 17.5 12C17.5 10.54 16.92 9.14 15.88 8.11C15.69 7.91 15.69 7.6 15.88 7.4Z" fill="#414141" fill-opacity="1.000000" fill-rule="evenodd"/>
</svg>
