<svg width="24.000000" height="24.000000" viewBox="0 0 24 24" fill="none" xmlns="http://www.w3.org/2000/svg" xmlns:xlink="http://www.w3.org/1999/xlink">
	<desc>
			Created with Pixso.
	</desc>
	<defs/>
	<rect id="feather-icon / file-edit" rx="0.000000" width="23.000000" height="23.000000" transform="translate(0.500000 0.500000)" fill="#FFFFFF" fill-opacity="0"/>
	<path id="Shape (Stroke)" d="M17.5 2C17.5 1.72 17.72 1.5 18 1.5L22 1.5C22.27 1.5 22.5 1.72 22.5 2L22.5 18.77C22.5 18.86 22.47 18.95 22.42 19.03L20.42 22.26C20.33 22.41 20.17 22.5 20 22.5C19.82 22.5 19.66 22.41 19.57 22.26L17.57 19.03C17.52 18.95 17.5 18.86 17.5 18.77L17.5 2ZM18.5 2.5L18.5 18.63L20 21.05L21.5 18.63L21.5 2.5L18.5 2.5Z" fill="#414141" fill-opacity="1.000000" fill-rule="evenodd"/>
	<path id="Shape (Stroke)" d="M1.5 4C1.5 2.61 2.61 1.5 4 1.5L8 1.5C8.13 1.5 8.25 1.55 8.35 1.64L15.35 8.64C15.44 8.74 15.5 8.86 15.5 9L15.5 20C15.5 21.38 14.38 22.5 13 22.5L4 22.5C2.61 22.5 1.5 21.38 1.5 20L1.5 4ZM4 2.5C3.17 2.5 2.5 3.17 2.5 4L2.5 20C2.5 20.82 3.17 21.5 4 21.5L13 21.5C13.82 21.5 14.5 20.82 14.5 20L14.5 9.2L7.79 2.5L4 2.5Z" fill="#414141" fill-opacity="1.000000" fill-rule="evenodd"/>
	<path id="Shape (Stroke)" d="M8 1.5C8.27 1.5 8.5 1.72 8.5 2L8.5 8.5L15 8.5C15.27 8.5 15.5 8.72 15.5 9C15.5 9.27 15.27 9.5 15 9.5L8 9.5C7.72 9.5 7.5 9.27 7.5 9L7.5 2C7.5 1.72 7.72 1.5 8 1.5Z" fill="#414141" fill-opacity="1.000000" fill-rule="evenodd"/>
	<path id="Shape (Stroke)" d="M4.5 14C4.5 13.72 4.72 13.5 5 13.5L9 13.5C9.27 13.5 9.5 13.72 9.5 14C9.5 14.27 9.27 14.5 9 14.5L5 14.5C4.72 14.5 4.5 14.27 4.5 14Z" fill="#414141" fill-opacity="1.000000" fill-rule="evenodd"/>
	<path id="Shape (Stroke)" d="M4.5 18C4.5 17.72 4.72 17.5 5 17.5L12 17.5C12.27 17.5 12.5 17.72 12.5 18C12.5 18.27 12.27 18.5 12 18.5L5 18.5C4.72 18.5 4.5 18.27 4.5 18Z" fill="#414141" fill-opacity="1.000000" fill-rule="evenodd"/>
</svg>
