<svg width="24.000000" height="24.000000" viewBox="0 0 24 24" fill="none" xmlns="http://www.w3.org/2000/svg" xmlns:xlink="http://www.w3.org/1999/xlink">
	<desc>
			Created with Pixso.
	</desc>
	<defs/>
	<rect id="feather-icon / pause-circle" rx="0.000000" width="23.000000" height="23.000000" transform="translate(0.500000 0.500000)" fill="#FFFFFF" fill-opacity="0"/>
	<path id="Oval (Stroke)" d="M1.5 12C1.5 6.2 6.2 1.5 12 1.5C17.79 1.5 22.5 6.2 22.5 12C22.5 17.79 17.79 22.5 12 22.5C6.2 22.5 1.5 17.79 1.5 12ZM12 2.5C6.75 2.5 2.5 6.75 2.5 12C2.5 17.24 6.75 21.5 12 21.5C17.24 21.5 21.5 17.24 21.5 12C21.5 6.75 17.24 2.5 12 2.5Z" fill="#414141" fill-opacity="1.000000" fill-rule="evenodd"/>
	<path id="Shape (Stroke)" d="M10 8.5C10.27 8.5 10.5 8.72 10.5 9L10.5 15C10.5 15.27 10.27 15.5 10 15.5C9.72 15.5 9.5 15.27 9.5 15L9.5 9C9.5 8.72 9.72 8.5 10 8.5Z" fill="#414141" fill-opacity="1.000000" fill-rule="evenodd"/>
	<path id="Shape (Stroke)" d="M14 8.5C14.27 8.5 14.5 8.72 14.5 9L14.5 15C14.5 15.27 14.27 15.5 14 15.5C13.72 15.5 13.5 15.27 13.5 15L13.5 9C13.5 8.72 13.72 8.5 14 8.5Z" fill="#414141" fill-opacity="1.000000" fill-rule="evenodd"/>
</svg>
