<svg width="24.000000" height="24.000000" viewBox="0 0 24 24" fill="none" xmlns="http://www.w3.org/2000/svg" xmlns:xlink="http://www.w3.org/1999/xlink">
	<desc>
			Created with Pixso.
	</desc>
	<defs/>
	<rect id="feather-icon / link" rx="0.000000" width="23.000000" height="23.000000" transform="translate(0.500000 0.500000)" fill="#FFFFFF" fill-opacity="0"/>
	<path id="Shape (Stroke)" d="M13.12 3.11C15.28 1.02 18.71 1.05 20.83 3.17C22.95 5.29 22.98 8.72 20.9 10.88L20.89 10.89L17.89 13.89C16.76 15.02 15.2 15.6 13.61 15.49C12.01 15.37 10.55 14.57 9.59 13.29C9.43 13.07 9.47 12.76 9.7 12.59C9.92 12.43 10.23 12.47 10.4 12.7C11.18 13.74 12.38 14.4 13.68 14.49C14.98 14.58 16.26 14.1 17.18 13.18L20.18 10.18C21.88 8.42 21.86 5.61 20.12 3.88C18.39 2.14 15.58 2.12 13.82 3.82L12.1 5.53C11.9 5.72 11.58 5.72 11.39 5.53C11.2 5.33 11.2 5.02 11.39 4.82L13.12 3.11Z" fill="#414141" fill-opacity="1.000000" fill-rule="evenodd"/>
	<path id="Shape (Stroke)" d="M6.1 10.1C7.23 8.97 8.79 8.39 10.38 8.5C11.97 8.62 13.44 9.42 14.39 10.7C14.56 10.92 14.51 11.23 14.29 11.4C14.07 11.56 13.76 11.52 13.59 11.29C12.81 10.25 11.61 9.6 10.31 9.5C9.01 9.41 7.73 9.89 6.81 10.81L3.81 13.81C2.11 15.57 2.13 18.38 3.87 20.11C5.6 21.85 8.41 21.87 10.17 20.17L11.88 18.46C12.08 18.27 12.39 18.27 12.59 18.46C12.78 18.66 12.78 18.97 12.59 19.17L10.87 20.89C8.71 22.97 5.28 22.94 3.16 20.82C1.04 18.7 1.01 15.27 3.09 13.11L3.1 13.1L6.1 10.1Z" fill="#414141" fill-opacity="1.000000" fill-rule="evenodd"/>
</svg>
