<svg width="24.000000" height="24.000000" viewBox="0 0 24 24" fill="none" xmlns="http://www.w3.org/2000/svg" xmlns:xlink="http://www.w3.org/1999/xlink">
	<desc>
			Created with Pixso.
	</desc>
	<defs/>
	<rect id="feather-icon / layers" rx="0.000000" width="23.000000" height="23.000000" transform="translate(0.500000 0.500000)" fill="#FFFFFF" fill-opacity="0"/>
	<path id="Shape (Stroke)" d="M11.77 1.55C11.91 1.48 12.08 1.48 12.22 1.55L22.22 6.55C22.39 6.63 22.5 6.81 22.5 7C22.5 7.18 22.39 7.36 22.22 7.44L12.22 12.44C12.08 12.51 11.91 12.51 11.77 12.44L1.77 7.44C1.6 7.36 1.5 7.18 1.5 7C1.5 6.81 1.6 6.63 1.77 6.55L11.77 1.55ZM3.11 7L12 11.44L20.88 7L12 2.55L3.11 7Z" fill="#414141" fill-opacity="1.000000" fill-rule="evenodd"/>
	<path id="Shape (Stroke)" d="M1.55 16.77C1.67 16.52 1.97 16.42 2.22 16.55L12 21.44L21.77 16.55C22.02 16.42 22.32 16.52 22.44 16.77C22.57 17.02 22.47 17.32 22.22 17.44L12.22 22.44C12.08 22.51 11.91 22.51 11.77 22.44L1.77 17.44C1.52 17.32 1.42 17.02 1.55 16.77Z" fill="#414141" fill-opacity="1.000000" fill-rule="evenodd"/>
	<path id="Shape (Stroke)" d="M1.55 11.77C1.67 11.52 1.97 11.42 2.22 11.55L12 16.44L21.77 11.55C22.02 11.42 22.32 11.52 22.44 11.77C22.57 12.02 22.47 12.32 22.22 12.44L12.22 17.44C12.08 17.51 11.91 17.51 11.77 17.44L1.77 12.44C1.52 12.32 1.42 12.02 1.55 11.77Z" fill="#414141" fill-opacity="1.000000" fill-rule="evenodd"/>
</svg>
