<svg width="24.000000" height="24.000000" viewBox="0 0 24 24" fill="none" xmlns="http://www.w3.org/2000/svg" xmlns:xlink="http://www.w3.org/1999/xlink">
	<desc>
			Created with Pixso.
	</desc>
	<defs/>
	<rect id="feather-icon / tv" rx="0.000000" width="23.000000" height="23.000000" transform="translate(0.500000 0.500000)" fill="#FFFFFF" fill-opacity="0"/>
	<path id="Rectangle-path (Stroke)" d="M1.5 9C1.5 7.61 2.61 6.5 4 6.5L20 6.5C21.38 6.5 22.5 7.61 22.5 9L22.5 20C22.5 21.38 21.38 22.5 20 22.5L4 22.5C2.61 22.5 1.5 21.38 1.5 20L1.5 9ZM4 7.5C3.17 7.5 2.5 8.17 2.5 9L2.5 20C2.5 20.82 3.17 21.5 4 21.5L20 21.5C20.82 21.5 21.5 20.82 21.5 20L21.5 9C21.5 8.17 20.82 7.5 20 7.5L4 7.5Z" fill="#414141" fill-opacity="1.000000" fill-rule="evenodd"/>
	<path id="Shape (Stroke)" d="M6.64 1.64C6.84 1.45 7.15 1.45 7.35 1.64L12 6.29L16.64 1.64C16.84 1.45 17.15 1.45 17.35 1.64C17.54 1.84 17.54 2.15 17.35 2.35L12.35 7.35C12.15 7.54 11.84 7.54 11.64 7.35L6.64 2.35C6.45 2.15 6.45 1.84 6.64 1.64Z" fill="#414141" fill-opacity="1.000000" fill-rule="evenodd"/>
</svg>
