<svg width="24.000000" height="24.000000" viewBox="0 0 24 24" fill="none" xmlns="http://www.w3.org/2000/svg" xmlns:xlink="http://www.w3.org/1999/xlink">
	<desc>
			Created with Pixso.
	</desc>
	<defs/>
	<rect id="feather-icon / facebook" rx="0.000000" width="23.000000" height="23.000000" transform="translate(0.500000 0.500000)" fill="#FFFFFF" fill-opacity="0"/>
	<path id="Shape (Stroke)" d="M8.5 7C8.5 3.96 10.96 1.5 14 1.5L17 1.5C17.27 1.5 17.5 1.72 17.5 2L17.5 6C17.5 6.27 17.27 6.5 17 6.5L14 6.5C13.72 6.5 13.5 6.72 13.5 7L13.5 9.5L17 9.5C17.15 9.5 17.29 9.57 17.39 9.69C17.48 9.81 17.52 9.97 17.48 10.12L16.48 14.12C16.42 14.34 16.22 14.5 16 14.5L13.5 14.5L13.5 22C13.5 22.27 13.27 22.5 13 22.5L9 22.5C8.72 22.5 8.5 22.27 8.5 22L8.5 14.5L6 14.5C5.72 14.5 5.5 14.27 5.5 14L5.5 10C5.5 9.72 5.72 9.5 6 9.5L8.5 9.5L8.5 7ZM14 2.5C11.51 2.5 9.5 4.51 9.5 7L9.5 10C9.5 10.27 9.27 10.5 9 10.5L6.5 10.5L6.5 13.5L9 13.5C9.27 13.5 9.5 13.72 9.5 14L9.5 21.5L12.5 21.5L12.5 14C12.5 13.72 12.72 13.5 13 13.5L15.6 13.5L16.35 10.5L13 10.5C12.72 10.5 12.5 10.27 12.5 10L12.5 7C12.5 6.17 13.17 5.5 14 5.5L16.5 5.5L16.5 2.5L14 2.5Z" fill="#414141" fill-opacity="1.000000" fill-rule="evenodd"/>
</svg>
