<svg width="24.000000" height="24.000000" viewBox="0 0 24 24" fill="none" xmlns="http://www.w3.org/2000/svg" xmlns:xlink="http://www.w3.org/1999/xlink">
	<desc>
			Created with Pixso.
	</desc>
	<defs/>
	<rect id="feather-icon / thumbs-up" rx="0.000000" width="23.000000" height="23.000000" transform="translate(0.500000 0.500000)" fill="#FFFFFF" fill-opacity="0"/>
	<path id="Shape (Stroke)" d="M10.54 1.79C10.62 1.61 10.8 1.5 11 1.5C12.93 1.5 14.5 3.06 14.5 5L14.5 8.5L19.65 8.5C20.39 8.49 21.08 8.8 21.56 9.35C22.05 9.91 22.26 10.64 22.15 11.37L20.77 20.37C20.58 21.6 19.52 22.51 18.27 22.5L4 22.5C2.61 22.5 1.5 21.38 1.5 20L1.5 13C1.5 11.61 2.61 10.5 4 10.5L6.67 10.5L10.54 1.79ZM6.5 11.5L4 11.5C3.17 11.5 2.5 12.17 2.5 13L2.5 20C2.5 20.82 3.17 21.5 4 21.5L6.5 21.5L6.5 11.5ZM7.5 21.5L7.5 11.1L11.31 2.52C12.54 2.67 13.5 3.72 13.5 5L13.5 9C13.5 9.27 13.72 9.5 14 9.5L19.66 9.5L19.66 9.5C20.1 9.49 20.52 9.68 20.81 10.01C21.1 10.34 21.23 10.78 21.16 11.22L19.78 20.22C19.67 20.96 19.03 21.5 18.28 21.5L7.5 21.5Z" fill="#414141" fill-opacity="1.000000" fill-rule="evenodd"/>
</svg>
