<svg width="24.000000" height="24.000000" viewBox="0 0 24 24" fill="none" xmlns="http://www.w3.org/2000/svg" xmlns:xlink="http://www.w3.org/1999/xlink">
	<desc>
			Created with Pixso.
	</desc>
	<defs/>
	<rect id="feather-icon / anchor" rx="0.000000" width="23.000000" height="23.000000" transform="translate(0.500000 0.500000)" fill="#FFFFFF" fill-opacity="0"/>
	<path id="Oval (Stroke)" d="M8.5 5C8.5 3.06 10.06 1.5 12 1.5C13.93 1.5 15.5 3.06 15.5 5C15.5 6.93 13.93 8.5 12 8.5C10.06 8.5 8.5 6.93 8.5 5ZM12 2.5C10.61 2.5 9.5 3.61 9.5 5C9.5 6.38 10.61 7.5 12 7.5C13.38 7.5 14.5 6.38 14.5 5C14.5 3.61 13.38 2.5 12 2.5Z" fill="#414141" fill-opacity="1.000000" fill-rule="evenodd"/>
	<path id="Shape (Stroke)" d="M12 7.5C12.27 7.5 12.5 7.72 12.5 8L12.5 22C12.5 22.27 12.27 22.5 12 22.5C11.72 22.5 11.5 22.27 11.5 22L11.5 8C11.5 7.72 11.72 7.5 12 7.5Z" fill="#414141" fill-opacity="1.000000" fill-rule="evenodd"/>
	<path id="Shape (Stroke)" d="M1.64 11.64C1.74 11.55 1.86 11.5 2 11.5L5 11.5C5.27 11.5 5.5 11.72 5.5 12C5.5 12.27 5.27 12.5 5 12.5L2.51 12.5C2.77 17.51 6.92 21.5 12 21.5C17.07 21.5 21.22 17.51 21.48 12.5L19 12.5C18.72 12.5 18.5 12.27 18.5 12C18.5 11.72 18.72 11.5 19 11.5L22 11.5C22.27 11.5 22.5 11.72 22.5 12C22.5 17.79 17.79 22.5 12 22.5C6.2 22.5 1.5 17.79 1.5 12C1.5 11.86 1.55 11.74 1.64 11.64Z" fill="#414141" fill-opacity="1.000000" fill-rule="evenodd"/>
</svg>
