<svg width="24.000000" height="24.000000" viewBox="0 0 24 24" fill="none" xmlns="http://www.w3.org/2000/svg" xmlns:xlink="http://www.w3.org/1999/xlink">
	<desc>
			Created with Pixso.
	</desc>
	<defs/>
	<rect id="feather-icon / crosshair" rx="0.000000" width="23.000000" height="23.000000" transform="translate(0.500000 0.500000)" fill="#FFFFFF" fill-opacity="0"/>
	<path id="Oval (Stroke)" d="M1.5 12C1.5 6.2 6.2 1.5 12 1.5C17.79 1.5 22.5 6.2 22.5 12C22.5 17.79 17.79 22.5 12 22.5C6.2 22.5 1.5 17.79 1.5 12ZM12 2.5C6.75 2.5 2.5 6.75 2.5 12C2.5 17.24 6.75 21.5 12 21.5C17.24 21.5 21.5 17.24 21.5 12C21.5 6.75 17.24 2.5 12 2.5Z" fill="#414141" fill-opacity="1.000000" fill-rule="evenodd"/>
	<path id="Shape (Stroke)" d="M17.5 12C17.5 11.72 17.72 11.5 18 11.5L22 11.5C22.27 11.5 22.5 11.72 22.5 12C22.5 12.27 22.27 12.5 22 12.5L18 12.5C17.72 12.5 17.5 12.27 17.5 12Z" fill="#414141" fill-opacity="1.000000" fill-rule="evenodd"/>
	<path id="Shape (Stroke)" d="M1.5 12C1.5 11.72 1.72 11.5 2 11.5L6 11.5C6.27 11.5 6.5 11.72 6.5 12C6.5 12.27 6.27 12.5 6 12.5L2 12.5C1.72 12.5 1.5 12.27 1.5 12Z" fill="#414141" fill-opacity="1.000000" fill-rule="evenodd"/>
	<path id="Shape (Stroke)" d="M12 1.5C12.27 1.5 12.5 1.72 12.5 2L12.5 6C12.5 6.27 12.27 6.5 12 6.5C11.72 6.5 11.5 6.27 11.5 6L11.5 2C11.5 1.72 11.72 1.5 12 1.5Z" fill="#414141" fill-opacity="1.000000" fill-rule="evenodd"/>
	<path id="Shape (Stroke)" d="M12 17.5C12.27 17.5 12.5 17.72 12.5 18L12.5 22C12.5 22.27 12.27 22.5 12 22.5C11.72 22.5 11.5 22.27 11.5 22L11.5 18C11.5 17.72 11.72 17.5 12 17.5Z" fill="#414141" fill-opacity="1.000000" fill-rule="evenodd"/>
</svg>
