<svg width="24.000000" height="24.000000" viewBox="0 0 24 24" fill="none" xmlns="http://www.w3.org/2000/svg" xmlns:xlink="http://www.w3.org/1999/xlink">
	<desc>
			Created with Pixso.
	</desc>
	<defs/>
	<rect id="feather-icon / monitor" rx="0.000000" width="23.000000" height="23.000000" transform="translate(0.500000 0.500000)" fill="#FFFFFF" fill-opacity="0"/>
	<path id="Rectangle-path (Stroke)" d="M1.5 5C1.5 3.61 2.61 2.5 4 2.5L20 2.5C21.38 2.5 22.5 3.61 22.5 5L22.5 15C22.5 16.38 21.38 17.5 20 17.5L4 17.5C2.61 17.5 1.5 16.38 1.5 15L1.5 5ZM4 3.5C3.17 3.5 2.5 4.17 2.5 5L2.5 15C2.5 15.82 3.17 16.5 4 16.5L20 16.5C20.82 16.5 21.5 15.82 21.5 15L21.5 5C21.5 4.17 20.82 3.5 20 3.5L4 3.5Z" fill="#414141" fill-opacity="1.000000" fill-rule="evenodd"/>
	<path id="Shape (Stroke)" d="M7.5 21C7.5 20.72 7.72 20.5 8 20.5L16 20.5C16.27 20.5 16.5 20.72 16.5 21C16.5 21.27 16.27 21.5 16 21.5L8 21.5C7.72 21.5 7.5 21.27 7.5 21Z" fill="#414141" fill-opacity="1.000000" fill-rule="evenodd"/>
	<path id="Shape (Stroke)" d="M12 16.5C12.27 16.5 12.5 16.72 12.5 17L12.5 21C12.5 21.27 12.27 21.5 12 21.5C11.72 21.5 11.5 21.27 11.5 21L11.5 17C11.5 16.72 11.72 16.5 12 16.5Z" fill="#414141" fill-opacity="1.000000" fill-rule="evenodd"/>
</svg>
