<svg width="24.000000" height="24.000000" viewBox="0 0 24 24" fill="none" xmlns="http://www.w3.org/2000/svg" xmlns:xlink="http://www.w3.org/1999/xlink">
	<desc>
			Created with Pixso.
	</desc>
	<defs/>
	<rect id="feather-icon / map-pin" rx="0.000000" width="23.000000" height="23.000000" transform="translate(0.500000 0.500000)" fill="#FFFFFF" fill-opacity="0"/>
	<path id="Shape (Stroke)" d="M12 1.5C7.3 1.5 3.5 5.3 3.5 10C3.5 13.29 5.63 16.42 7.86 18.78C8.96 19.94 10.07 20.9 10.9 21.56C11.32 21.89 11.66 22.14 11.9 22.32C11.93 22.34 11.97 22.36 12 22.39C12.02 22.36 12.06 22.34 12.09 22.32C12.33 22.14 12.67 21.89 13.09 21.56C13.92 20.9 15.03 19.94 16.13 18.78C18.36 16.42 20.5 13.29 20.5 10C20.5 5.3 16.69 1.5 12 1.5ZM12 23C11.72 23.41 11.72 23.41 11.72 23.41L11.72 23.41L11.72 23.41L11.71 23.41L11.69 23.39C11.67 23.38 11.64 23.36 11.61 23.34C11.54 23.29 11.44 23.22 11.32 23.13C11.06 22.95 10.71 22.68 10.28 22.34C9.42 21.66 8.28 20.67 7.13 19.46C4.86 17.07 2.5 13.7 2.5 10C2.5 4.75 6.75 0.5 12 0.5C17.24 0.5 21.5 4.75 21.5 10C21.5 13.7 19.13 17.07 16.86 19.46C15.71 20.67 14.57 21.66 13.71 22.34C13.28 22.68 12.93 22.95 12.67 23.13C12.55 23.22 12.45 23.29 12.38 23.34C12.35 23.36 12.32 23.38 12.3 23.39L12.28 23.41L12.27 23.41L12.27 23.41L12.27 23.41C12.27 23.41 12.27 23.41 12 23ZM12 23L12.27 23.41C12.1 23.52 11.89 23.52 11.72 23.41L12 23Z" fill="#414141" fill-opacity="1.000000" fill-rule="evenodd"/>
	<path id="Oval (Stroke)" d="M8.5 10C8.5 8.06 10.06 6.5 12 6.5C13.93 6.5 15.5 8.06 15.5 10C15.5 11.93 13.93 13.5 12 13.5C10.06 13.5 8.5 11.93 8.5 10ZM12 7.5C10.61 7.5 9.5 8.61 9.5 10C9.5 11.38 10.61 12.5 12 12.5C13.38 12.5 14.5 11.38 14.5 10C14.5 8.61 13.38 7.5 12 7.5Z" fill="#414141" fill-opacity="1.000000" fill-rule="evenodd"/>
</svg>
