<svg width="24.000000" height="24.000000" viewBox="0 0 24 24" fill="none" xmlns="http://www.w3.org/2000/svg" xmlns:xlink="http://www.w3.org/1999/xlink">
	<desc>
			Created with Pixso.
	</desc>
	<defs/>
	<rect id="feather-icon / mail" rx="0.000000" width="23.000000" height="23.000000" transform="translate(0.500000 0.500000)" fill="#FFFFFF" fill-opacity="0"/>
	<path id="Shape (Stroke)" d="M4 4.5C3.17 4.5 2.5 5.17 2.5 6L2.5 18C2.5 18.82 3.17 19.5 4 19.5L20 19.5C20.82 19.5 21.5 18.82 21.5 18L21.5 6C21.5 5.17 20.82 4.5 20 4.5L4 4.5ZM1.5 6C1.5 4.62 2.62 3.5 4 3.5L20 3.5C21.37 3.5 22.5 4.62 22.5 6L22.5 18C22.5 19.37 21.37 20.5 20 20.5L4 20.5C2.62 20.5 1.5 19.37 1.5 18L1.5 6Z" fill="#414141" fill-opacity="1.000000" fill-rule="evenodd"/>
	<path id="Shape (Stroke)" d="M1.58 5.71C1.74 5.48 2.06 5.43 2.28 5.59L12 12.38L21.71 5.59C21.93 5.43 22.25 5.48 22.41 5.71C22.56 5.93 22.51 6.25 22.28 6.4L12.28 13.4C12.11 13.53 11.88 13.53 11.71 13.4L1.71 6.4C1.48 6.25 1.43 5.93 1.58 5.71Z" fill="#414141" fill-opacity="1.000000" fill-rule="evenodd"/>
</svg>
