<svg width="24.000000" height="24.000000" viewBox="0 0 24 24" fill="none" xmlns="http://www.w3.org/2000/svg" xmlns:xlink="http://www.w3.org/1999/xlink">
	<desc>
			Created with Pixso.
	</desc>
	<defs/>
	<rect id="feather-icon / umbrella" rx="0.000000" width="23.000000" height="23.000000" transform="translate(0.500000 0.500000)" fill="#FFFFFF" fill-opacity="0"/>
	<path id="Shape (Stroke)" d="M0.5 11.95C1.06 6.02 6.04 1.5 12 1.5C17.95 1.5 22.93 6.02 23.49 11.95C23.51 12.09 23.46 12.23 23.36 12.33C23.27 12.44 23.14 12.5 23 12.5L13.08 12.5L18.37 18.67C18.45 18.76 18.5 18.88 18.5 19C18.5 20.93 16.93 22.5 15 22.5C13.06 22.5 11.5 20.93 11.5 19L11.5 12.5L1 12.5C0.85 12.5 0.72 12.44 0.63 12.33C0.53 12.23 0.48 12.09 0.5 11.95ZM12 11.5C12 11.5 11.99 11.5 11.99 11.5L1.56 11.5C2.32 6.35 6.74 2.5 12 2.5C17.25 2.5 21.67 6.35 22.43 11.5L12 11.5ZM12.5 13.35L12.5 19C12.5 20.38 13.61 21.5 15 21.5C16.32 21.5 17.4 20.47 17.49 19.17L12.5 13.35Z" fill="#414141" fill-opacity="1.000000" fill-rule="evenodd"/>
</svg>
