<svg width="24.000000" height="24.000000" viewBox="0 0 24 24" fill="none" xmlns="http://www.w3.org/2000/svg" xmlns:xlink="http://www.w3.org/1999/xlink">
	<desc>
			Created with Pixso.
	</desc>
	<defs/>
	<rect id="feather-icon / height" rx="0.000000" width="23.000000" height="23.000000" transform="translate(0.500000 0.500000)" fill="#FFFFFF" fill-opacity="0"/>
	<path id="Shape (Stroke)" d="M7.13 7.86C6.93 7.67 6.93 7.35 7.13 7.16L11.37 2.91C11.56 2.72 11.88 2.72 12.08 2.91L16.32 7.16C16.51 7.35 16.51 7.67 16.32 7.86C16.12 8.06 15.81 8.06 15.61 7.86L11.72 3.97L7.83 7.86C7.64 8.06 7.32 8.06 7.13 7.86Z" fill="#414141" fill-opacity="1.000000" fill-rule="evenodd"/>
	<path id="Shape (Stroke)" d="M7.13 16.13C7.32 15.93 7.64 15.93 7.83 16.13L11.72 20.02L15.61 16.13C15.81 15.93 16.12 15.93 16.32 16.13C16.51 16.32 16.51 16.64 16.32 16.83L12.08 21.08C11.88 21.27 11.56 21.27 11.37 21.08L7.13 16.83C6.93 16.64 6.93 16.32 7.13 16.13Z" fill="#414141" fill-opacity="1.000000" fill-rule="evenodd"/>
	<path id="Shape (Stroke)" d="M11.72 3.32C12 3.32 12.22 3.55 12.22 3.82L12.22 20.72C12.22 21 12 21.22 11.72 21.22C11.45 21.22 11.22 21 11.22 20.72L11.22 3.82C11.22 3.55 11.45 3.32 11.72 3.32Z" fill="#414141" fill-opacity="1.000000" fill-rule="evenodd"/>
</svg>
