<svg width="24.000000" height="24.000000" viewBox="0 0 24 24" fill="none" xmlns="http://www.w3.org/2000/svg" xmlns:xlink="http://www.w3.org/1999/xlink">
	<desc>
			Created with Pixso.
	</desc>
	<defs/>
	<rect id="feather-icon / skip-forward" rx="0.000000" width="23.000000" height="23.000000" transform="translate(0.500000 0.500000)" fill="#FFFFFF" fill-opacity="0"/>
	<path id="Shape (Stroke)" d="M3.78 3.54C3.95 3.46 4.16 3.48 4.31 3.6L14.31 11.6C14.43 11.7 14.5 11.84 14.5 12C14.5 12.15 14.43 12.29 14.31 12.39L4.31 20.39C4.16 20.51 3.95 20.53 3.78 20.45C3.6 20.36 3.5 20.19 3.5 20L3.5 4C3.5 3.8 3.6 3.63 3.78 3.54ZM4.5 5.04L4.5 18.95L13.19 12L4.5 5.04Z" fill="#414141" fill-opacity="1.000000" fill-rule="evenodd"/>
	<path id="Shape (Stroke)" d="M18 4.5C18.27 4.5 18.5 4.72 18.5 5L18.5 19C18.5 19.27 18.27 19.5 18 19.5C17.72 19.5 17.5 19.27 17.5 19L17.5 5C17.5 4.72 17.72 4.5 18 4.5Z" fill="#414141" fill-opacity="1.000000" fill-rule="evenodd"/>
</svg>
