<svg width="24.000000" height="24.000000" viewBox="0 0 24 24" fill="none" xmlns="http://www.w3.org/2000/svg" xmlns:xlink="http://www.w3.org/1999/xlink">
	<desc>
			Created with Pixso.
	</desc>
	<defs/>
	<rect id="feather-icon / filter" rx="0.000000" width="23.000000" height="23.000000" transform="translate(0.500000 0.500000)" fill="#FFFFFF" fill-opacity="0"/>
	<path id="Shape (Stroke)" d="M1.54 2.78C1.62 2.61 1.8 2.5 2 2.5L22 2.5C22.19 2.5 22.37 2.61 22.45 2.78C22.53 2.96 22.5 3.17 22.38 3.32L14.5 12.64L14.5 21C14.5 21.17 14.41 21.33 14.26 21.42C14.11 21.51 13.93 21.52 13.77 21.44L9.77 19.44C9.6 19.36 9.5 19.18 9.5 19L9.5 12.64L1.61 3.32C1.49 3.17 1.46 2.96 1.54 2.78ZM3.07 3.5L10.38 12.13C10.45 12.22 10.5 12.34 10.5 12.46L10.5 18.69L13.5 20.19L13.5 12.46C13.5 12.34 13.54 12.22 13.61 12.13L20.92 3.5L3.07 3.5Z" fill="#414141" fill-opacity="1.000000" fill-rule="evenodd"/>
</svg>
