<svg width="24.000000" height="24.000000" viewBox="0 0 24 24" fill="none" xmlns="http://www.w3.org/2000/svg" xmlns:xlink="http://www.w3.org/1999/xlink">
	<desc>
			Created with Pixso.
	</desc>
	<defs/>
	<rect id="feather-icon / hash" rx="0.000000" width="23.000000" height="23.000000" transform="translate(0.500000 0.500000)" fill="#FFFFFF" fill-opacity="0"/>
	<path id="Shape (Stroke)" d="M3.5 9C3.5 8.72 3.72 8.5 4 8.5L20 8.5C20.27 8.5 20.5 8.72 20.5 9C20.5 9.27 20.27 9.5 20 9.5L4 9.5C3.72 9.5 3.5 9.27 3.5 9Z" fill="#414141" fill-opacity="1.000000" fill-rule="evenodd"/>
	<path id="Shape (Stroke)" d="M3.5 15C3.5 14.72 3.72 14.5 4 14.5L20 14.5C20.27 14.5 20.5 14.72 20.5 15C20.5 15.27 20.27 15.5 20 15.5L4 15.5C3.72 15.5 3.5 15.27 3.5 15Z" fill="#414141" fill-opacity="1.000000" fill-rule="evenodd"/>
	<path id="Shape (Stroke)" d="M10.05 2.5C10.33 2.53 10.52 2.78 10.49 3.05L8.49 21.05C8.46 21.32 8.21 21.52 7.94 21.49C7.66 21.46 7.47 21.21 7.5 20.94L9.5 2.94C9.53 2.67 9.78 2.47 10.05 2.5Z" fill="#414141" fill-opacity="1.000000" fill-rule="evenodd"/>
	<path id="Shape (Stroke)" d="M16.05 2.5C16.33 2.53 16.52 2.78 16.49 3.05L14.49 21.05C14.46 21.32 14.21 21.52 13.94 21.49C13.66 21.46 13.47 21.21 13.5 20.94L15.5 2.94C15.53 2.67 15.78 2.47 16.05 2.5Z" fill="#414141" fill-opacity="1.000000" fill-rule="evenodd"/>
</svg>
