<svg width="24.000000" height="24.000000" viewBox="0 0 24 24" fill="none" xmlns="http://www.w3.org/2000/svg" xmlns:xlink="http://www.w3.org/1999/xlink">
	<desc>
			Created with Pixso.
	</desc>
	<defs/>
	<rect id="feather-icon / move" rx="0.000000" width="23.000000" height="23.000000" transform="translate(0.500000 0.500000)" fill="#FFFFFF" fill-opacity="0"/>
	<path id="Shape (Stroke)" d="M5.35 8.64C5.54 8.84 5.54 9.15 5.35 9.35L2.7 12L5.35 14.64C5.54 14.84 5.54 15.15 5.35 15.35C5.15 15.54 4.84 15.54 4.64 15.35L1.64 12.35C1.45 12.15 1.45 11.84 1.64 11.64L4.64 8.64C4.84 8.45 5.15 8.45 5.35 8.64Z" fill="#414141" fill-opacity="1.000000" fill-rule="evenodd"/>
	<path id="Shape (Stroke)" d="M11.64 1.64C11.84 1.45 12.15 1.45 12.35 1.64L15.35 4.64C15.54 4.84 15.54 5.15 15.35 5.35C15.15 5.54 14.84 5.54 14.64 5.35L12 2.7L9.35 5.35C9.15 5.54 8.84 5.54 8.64 5.35C8.45 5.15 8.45 4.84 8.64 4.64L11.64 1.64Z" fill="#414141" fill-opacity="1.000000" fill-rule="evenodd"/>
	<path id="Shape (Stroke)" d="M8.64 18.64C8.84 18.45 9.15 18.45 9.35 18.64L12 21.29L14.64 18.64C14.84 18.45 15.15 18.45 15.35 18.64C15.54 18.84 15.54 19.15 15.35 19.35L12.35 22.35C12.15 22.54 11.84 22.54 11.64 22.35L8.64 19.35C8.45 19.15 8.45 18.84 8.64 18.64Z" fill="#414141" fill-opacity="1.000000" fill-rule="evenodd"/>
	<path id="Shape (Stroke)" d="M18.64 8.64C18.84 8.45 19.15 8.45 19.35 8.64L22.35 11.64C22.54 11.84 22.54 12.15 22.35 12.35L19.35 15.35C19.15 15.54 18.84 15.54 18.64 15.35C18.45 15.15 18.45 14.84 18.64 14.64L21.29 12L18.64 9.35C18.45 9.15 18.45 8.84 18.64 8.64Z" fill="#414141" fill-opacity="1.000000" fill-rule="evenodd"/>
	<path id="Shape (Stroke)" d="M1.5 12C1.5 11.72 1.72 11.5 2 11.5L22 11.5C22.27 11.5 22.5 11.72 22.5 12C22.5 12.27 22.27 12.5 22 12.5L2 12.5C1.72 12.5 1.5 12.27 1.5 12Z" fill="#414141" fill-opacity="1.000000" fill-rule="evenodd"/>
	<path id="Shape (Stroke)" d="M12 1.5C12.27 1.5 12.5 1.72 12.5 2L12.5 22C12.5 22.27 12.27 22.5 12 22.5C11.72 22.5 11.5 22.27 11.5 22L11.5 2C11.5 1.72 11.72 1.5 12 1.5Z" fill="#414141" fill-opacity="1.000000" fill-rule="evenodd"/>
</svg>
