<svg width="24.000000" height="24.000000" viewBox="0 0 24 24" fill="none" xmlns="http://www.w3.org/2000/svg" xmlns:xlink="http://www.w3.org/1999/xlink">
	<desc>
			Created with Pixso.
	</desc>
	<defs/>
	<path id="Shape (Stroke)" d="M22.5 23C22.5 23.27 22.27 23.5 22 23.5L16 23.5C15.72 23.5 15.5 23.27 15.5 23L15.5 17C15.5 16.72 15.72 16.5 16 16.5C16.27 16.5 16.5 16.72 16.5 17L16.5 22.5L22 22.5C22.27 22.5 22.5 22.72 22.5 23Z" fill="#414141" fill-opacity="1.000000" fill-rule="evenodd"/>
	<path id="Path (Stroke)" d="M20 18C22.07 15.94 22.93 12.96 22.29 10.11C21.64 7.27 19.58 4.95 16.83 3.98C16.57 3.88 16.43 3.6 16.53 3.34C16.62 3.08 16.9 2.94 17.16 3.03C20.24 4.12 22.54 6.71 23.26 9.89C23.98 13.07 23.02 16.4 20.72 18.7L16.36 23.34C16.17 23.54 15.86 23.55 15.66 23.36C15.45 23.17 15.44 22.85 15.63 22.65L19.99 18.01L20 18Z" fill="#414141" fill-opacity="1.000000" fill-rule="evenodd"/>
	<path id="Shape (Stroke)" d="M8 0.5C8.27 0.5 8.5 0.72 8.5 1L8.5 7C8.5 7.27 8.27 7.5 8 7.5C7.72 7.5 7.5 7.27 7.5 7L7.5 1.5L2 1.5C1.72 1.5 1.5 1.27 1.5 1C1.5 0.72 1.72 0.5 2 0.5L8 0.5Z" fill="#414141" fill-opacity="1.000000" fill-rule="evenodd"/>
	<path id="Path (Stroke)" d="M8.34 0.63C8.54 0.82 8.55 1.14 8.36 1.34L4 5.98L3.99 5.99C1.92 8.05 1.06 11.03 1.71 13.88C2.35 16.72 4.41 19.04 7.16 20.01C7.42 20.11 7.56 20.39 7.47 20.65C7.37 20.91 7.09 21.05 6.83 20.96C3.75 19.87 1.45 17.28 0.73 14.1C0.01 10.92 0.97 7.59 3.28 5.29L7.63 0.65C7.82 0.45 8.14 0.44 8.34 0.63Z" fill="#414141" fill-opacity="1.000000" fill-rule="evenodd"/>
	<path id="Rectangle-path (Stroke)" d="M10.96 6.78C11.65 5.59 13.18 5.18 14.38 5.87L16.11 6.87C17.31 7.56 17.72 9.09 17.03 10.28L13.03 17.21C12.33 18.41 10.81 18.81 9.61 18.12L7.88 17.12C6.68 16.43 6.27 14.91 6.96 13.71L10.96 6.78ZM13.88 6.73C13.16 6.32 12.24 6.56 11.83 7.28L7.83 14.21C7.41 14.93 7.66 15.84 8.38 16.26L10.11 17.26C10.83 17.67 11.75 17.43 12.16 16.71L16.16 9.78C16.58 9.06 16.33 8.15 15.61 7.73L13.88 6.73Z" fill="#414141" fill-opacity="1.000000" fill-rule="evenodd"/>
</svg>
