<svg width="24.000000" height="24.000000" viewBox="0 0 24 24" fill="none" xmlns="http://www.w3.org/2000/svg" xmlns:xlink="http://www.w3.org/1999/xlink">
	<desc>
			Created with Pixso.
	</desc>
	<defs/>
	<rect id="feather-icon / art" rx="0.000000" width="23.000000" height="23.000000" transform="translate(0.500000 0.500000)" fill="#FFFFFF" fill-opacity="0"/>
	<path id="Vector (Stroke)" d="M18.14 3.29C16.61 4.12 14.85 5.55 13.36 7.38L13.36 7.38C11.85 9.23 10.81 10.89 10.31 12.2C10.06 12.85 9.95 13.38 9.97 13.79C9.99 14.19 10.11 14.44 10.32 14.61C10.53 14.79 10.87 14.9 11.37 14.89C11.87 14.87 12.48 14.72 13.16 14.42C14.54 13.82 16.15 12.63 17.63 10.8C19.14 8.95 20.33 7.07 20.97 5.52C21.29 4.75 21.47 4.09 21.49 3.59C21.52 3.08 21.39 2.81 21.23 2.67C21.06 2.53 20.73 2.44 20.16 2.53C19.6 2.62 18.91 2.88 18.14 3.29ZM20 1.54C20.68 1.43 21.38 1.49 21.87 1.91C22.38 2.33 22.53 2.97 22.49 3.64C22.46 4.31 22.24 5.08 21.89 5.91C21.2 7.57 19.95 9.54 18.41 11.43C16.84 13.36 15.11 14.66 13.57 15.34C12.8 15.68 12.06 15.87 11.4 15.89C10.75 15.91 10.13 15.76 9.68 15.38C9.21 14.99 9 14.44 8.97 13.83C8.94 13.24 9.1 12.56 9.37 11.84C9.93 10.39 11.05 8.64 12.59 6.75C14.15 4.83 16.01 3.31 17.67 2.41C18.5 1.97 19.3 1.66 20 1.54Z" fill="#414141" fill-opacity="1.000000" fill-rule="evenodd"/>
	<path id="Vector (Stroke)" d="M6.47 14.04C7.67 13.48 9.16 13.46 10.35 14.64C11.17 15.46 11.61 16.38 11.72 17.3C11.82 18.21 11.6 19.1 11.15 19.87C10.26 21.4 8.47 22.5 6.5 22.5C5.44 22.5 4.75 22.36 4.06 22.08C3.64 21.92 3.21 21.69 2.7 21.42C2.41 21.27 2.11 21.11 1.77 20.94C1.58 20.85 1.48 20.65 1.5 20.44C1.52 20.23 1.67 20.06 1.87 20.01C2.78 19.78 3.15 19.47 3.37 19.06C3.5 18.84 3.59 18.56 3.69 18.19C3.75 17.98 3.8 17.76 3.85 17.52C3.9 17.33 3.95 17.11 4.01 16.87C4.3 15.71 5.29 14.6 6.47 14.04ZM6.9 14.95C5.95 15.39 5.19 16.28 4.98 17.12C4.93 17.32 4.88 17.53 4.83 17.73C4.77 17.98 4.71 18.23 4.66 18.44C4.55 18.84 4.43 19.21 4.25 19.55C4 19.98 3.68 20.31 3.22 20.57C3.22 20.57 3.23 20.57 3.23 20.57C3.7 20.82 4.06 21.01 4.43 21.16C4.99 21.38 5.55 21.5 6.5 21.5C8.11 21.5 9.57 20.59 10.28 19.37C10.64 18.76 10.8 18.09 10.72 17.41C10.64 16.74 10.32 16.03 9.64 15.35C8.83 14.53 7.82 14.51 6.9 14.95Z" fill="#414141" fill-opacity="1.000000" fill-rule="evenodd"/>
	<path id="Vector (Stroke)" d="M1.5 5.88C1.49 5.43 1.58 4.99 1.76 4.58C1.94 4.17 2.2 3.8 2.53 3.5L3.52 2.51C4.08 1.98 4.79 1.63 5.55 1.5C5.58 1.5 5.62 1.49 5.65 1.5C6.53 1.53 7.37 1.89 7.99 2.51L10.83 5.13C11.04 5.31 11.05 5.63 10.86 5.83C10.68 6.04 10.36 6.05 10.16 5.86L7.31 3.24C7.3 3.24 7.3 3.23 7.29 3.23C6.86 2.79 6.28 2.53 5.66 2.5C5.12 2.6 4.62 2.85 4.22 3.23L3.23 4.22C3.23 4.22 3.22 4.23 3.21 4.24C2.98 4.44 2.8 4.7 2.68 4.98C2.56 5.26 2.49 5.56 2.5 5.86C2.53 6.49 2.79 7.09 3.23 7.54L6.85 11.14C7.04 11.34 7.04 11.65 6.85 11.85C6.66 12.04 6.34 12.04 6.14 11.85L2.52 8.24C1.91 7.62 1.54 6.78 1.5 5.9C1.5 5.9 1.5 5.89 1.5 5.88Z" fill="#414141" fill-opacity="1.000000" fill-rule="evenodd"/>
	<path id="Vector (Stroke)" d="M13.63 18.65C13.83 18.45 14.14 18.44 14.34 18.63L17.23 21.41L21.49 21.49L21.43 17.22L18.64 14.34C18.44 14.14 18.45 13.83 18.65 13.64C18.84 13.44 19.16 13.45 19.35 13.65L22.28 16.67C22.37 16.76 22.42 16.88 22.42 17.01L22.5 21.99C22.5 22.12 22.44 22.25 22.35 22.35C22.25 22.44 22.12 22.5 21.99 22.5L17.02 22.41C16.89 22.4 16.77 22.35 16.68 22.27L13.65 19.36C13.45 19.16 13.44 18.85 13.63 18.65Z" fill="#414141" fill-opacity="1.000000" fill-rule="evenodd"/>
	<path id="Vector (Stroke)" d="M18.82 18.58C19.44 18.06 20.23 17.79 21.04 17.8C21.32 17.8 21.54 17.58 21.55 17.31C21.55 17.03 21.33 16.8 21.06 16.8C19.99 16.78 18.94 17.16 18.13 17.85L18.09 17.88L18.06 17.92C17.32 18.86 16.82 19.98 16.61 21.16C16.56 21.43 16.74 21.69 17.01 21.74C17.28 21.79 17.54 21.61 17.59 21.33C17.77 20.33 18.19 19.39 18.82 18.58Z" fill="#414141" fill-opacity="1.000000" fill-rule="evenodd"/>
</svg>
