<svg width="24.000000" height="24.000000" viewBox="0 0 24 24" fill="none" xmlns="http://www.w3.org/2000/svg" xmlns:xlink="http://www.w3.org/1999/xlink">
	<desc>
			Created with Pixso.
	</desc>
	<defs/>
	<rect id="feather-icon / corner-left-down" rx="0.000000" width="23.000000" height="23.000000" transform="translate(0.500000 0.500000)" fill="#FFFFFF" fill-opacity="0"/>
	<path id="Shape (Stroke)" d="M3.64 14.64C3.84 14.45 4.15 14.45 4.35 14.64L9 19.29L13.64 14.64C13.84 14.45 14.15 14.45 14.35 14.64C14.54 14.84 14.54 15.15 14.35 15.35L9.35 20.35C9.15 20.54 8.84 20.54 8.64 20.35L3.64 15.35C3.45 15.15 3.45 14.84 3.64 14.64Z" fill="#414141" fill-opacity="1.000000" fill-rule="evenodd"/>
	<path id="Shape (Stroke)" d="M8.5 8C8.5 5.51 10.51 3.5 13 3.5L20 3.5C20.27 3.5 20.5 3.72 20.5 4C20.5 4.27 20.27 4.5 20 4.5L13 4.5C11.06 4.5 9.5 6.06 9.5 8L9.5 20C9.5 20.27 9.27 20.5 9 20.5C8.72 20.5 8.5 20.27 8.5 20L8.5 8Z" fill="#414141" fill-opacity="1.000000" fill-rule="evenodd"/>
</svg>
