<svg width="25.000000" height="25.000000" viewBox="0 0 25 25" fill="none" xmlns="http://www.w3.org/2000/svg" xmlns:xlink="http://www.w3.org/1999/xlink">
	<desc>
			Created with Pixso.
	</desc>
	<defs/>
	<rect id="feather-icon / check-circle" rx="0.000000" width="24.000000" height="24.000000" transform="translate(0.500000 0.500000)" fill="#FFFFFF" fill-opacity="0"/>
	<path id="Shape (Stroke)" d="M15.48 4.49C11.48 2.71 6.78 3.77 3.93 7.1C1.08 10.43 0.77 15.24 3.15 18.92C5.54 22.59 10.06 24.26 14.26 23.02C18.46 21.78 21.35 17.92 21.35 13.54L21.35 12.57C21.35 12.28 21.58 12.05 21.87 12.05C22.16 12.05 22.39 12.28 22.39 12.57L22.39 13.54C22.39 18.38 19.2 22.65 14.56 24.02C9.91 25.39 4.91 23.55 2.28 19.48C-0.36 15.42 -0.01 10.11 3.14 6.42C6.29 2.74 11.48 1.57 15.91 3.54C16.17 3.66 16.29 3.97 16.17 4.23C16.05 4.49 15.75 4.61 15.48 4.49Z" fill="#414141" fill-opacity="1.000000" fill-rule="evenodd"/>
	<path id="Shape (Stroke)" d="M23.28 3.79C23.48 4 23.48 4.33 23.28 4.53L11.82 15.99C11.62 16.19 11.29 16.19 11.08 15.99L7.96 12.86C7.76 12.66 7.76 12.33 7.96 12.13C8.16 11.92 8.49 11.92 8.7 12.13L11.45 14.88L22.54 3.79C22.75 3.59 23.08 3.59 23.28 3.79Z" fill="#414141" fill-opacity="1.000000" fill-rule="evenodd"/>
</svg>
