<svg width="25.000000" height="25.000000" viewBox="0 0 25 25" fill="none" xmlns="http://www.w3.org/2000/svg" xmlns:xlink="http://www.w3.org/1999/xlink">
	<desc>
			Created with Pixso.
	</desc>
	<defs/>
	<rect id="feather-icon / cast" rx="0.000000" width="24.000000" height="24.000000" transform="translate(0.500000 0.500000)" fill="#FFFFFF" fill-opacity="0"/>
	<path id="Shape (Stroke)" d="M4.16 4.68C3.3 4.68 2.6 5.38 2.6 6.25L2.6 8.33C2.6 8.62 2.37 8.85 2.08 8.85C1.79 8.85 1.56 8.62 1.56 8.33L1.56 6.25C1.56 4.81 2.72 3.64 4.16 3.64L20.83 3.64C22.27 3.64 23.43 4.81 23.43 6.25L23.43 18.75C23.43 20.18 22.27 21.35 20.83 21.35L14.58 21.35C14.29 21.35 14.06 21.12 14.06 20.83C14.06 20.54 14.29 20.31 14.58 20.31L20.83 20.31C21.69 20.31 22.39 19.61 22.39 18.75L22.39 6.25C22.39 5.38 21.69 4.68 20.83 4.68L4.16 4.68ZM1.56 12.49C1.59 12.2 1.85 12 2.14 12.03C6.74 12.54 10.37 16.17 10.88 20.77C10.91 21.06 10.7 21.31 10.42 21.35C10.13 21.38 9.87 21.17 9.84 20.89C9.38 16.77 6.14 13.52 2.02 13.06C1.74 13.03 1.53 12.78 1.56 12.49ZM1.57 16.66C1.63 16.38 1.9 16.2 2.18 16.26C4.43 16.71 6.19 18.47 6.65 20.72C6.71 21.01 6.53 21.28 6.25 21.34C5.96 21.4 5.69 21.21 5.63 20.93C5.25 19.09 3.82 17.65 1.97 17.28C1.69 17.22 1.51 16.94 1.57 16.66Z" fill="#414141" fill-opacity="1.000000" fill-rule="evenodd"/>
</svg>
