<svg width="25.000000" height="25.000000" viewBox="0 0 25 25" fill="none" xmlns="http://www.w3.org/2000/svg" xmlns:xlink="http://www.w3.org/1999/xlink">
	<desc>
			Created with Pixso.
	</desc>
	<defs/>
	<rect id="feather-icon / bluetooth" rx="0.000000" width="24.000000" height="24.000000" transform="translate(0.500000 0.500000)" fill="#FFFFFF" fill-opacity="0"/>
	<path id="Shape (Stroke)" d="M12.3 0.56C12.49 0.47 12.71 0.52 12.86 0.67L18.59 6.4C18.8 6.6 18.8 6.93 18.59 7.13L13.23 12.5L18.59 17.86C18.8 18.06 18.8 18.39 18.59 18.59L12.86 24.32C12.71 24.47 12.49 24.52 12.3 24.43C12.1 24.35 11.97 24.16 11.97 23.95L11.97 13.75L7.13 18.59C6.93 18.8 6.6 18.8 6.4 18.59C6.19 18.39 6.19 18.06 6.4 17.86L11.76 12.5L6.4 7.13C6.19 6.93 6.19 6.6 6.4 6.4C6.6 6.19 6.93 6.19 7.13 6.4L11.97 11.24L11.97 1.04C11.97 0.83 12.1 0.64 12.3 0.56ZM13.02 13.75L17.49 18.22L13.02 22.7L13.02 13.75ZM13.02 11.24L13.02 2.29L17.49 6.77L13.02 11.24Z" fill="#414141" fill-opacity="1.000000" fill-rule="evenodd"/>
</svg>
