<svg width="24.000000" height="24.000000" viewBox="0 0 24 24" fill="none" xmlns="http://www.w3.org/2000/svg" xmlns:xlink="http://www.w3.org/1999/xlink">
	<desc>
			Created with Pixso.
	</desc>
	<defs/>
	<rect id="feather-icon / arrow-down" rx="0.000000" width="23.000000" height="23.000000" transform="translate(0.500000 0.500000)" fill="#FFFFFF" fill-opacity="0"/>
	<path id="Shape (Stroke)" d="M12 3.5C12.27 3.5 12.5 3.72 12.5 4L12.5 20C12.5 20.27 12.27 20.5 12 20.5C11.72 20.5 11.5 20.27 11.5 20L11.5 4C11.5 3.72 11.72 3.5 12 3.5Z" fill="#414141" fill-opacity="1.000000" fill-rule="evenodd"/>
	<path id="Shape (Stroke)" d="M5.64 13.64C5.84 13.45 6.15 13.45 6.35 13.64L12 19.29L17.64 13.64C17.84 13.45 18.15 13.45 18.35 13.64C18.54 13.84 18.54 14.15 18.35 14.35L12.35 20.35C12.15 20.54 11.84 20.54 11.64 20.35L5.64 14.35C5.45 14.15 5.45 13.84 5.64 13.64Z" fill="#414141" fill-opacity="1.000000" fill-rule="evenodd"/>
</svg>
