<svg width="24.000000" height="24.000000" viewBox="0 0 24 24" fill="none" xmlns="http://www.w3.org/2000/svg" xmlns:xlink="http://www.w3.org/1999/xlink">
	<desc>
			Created with Pixso.
	</desc>
	<defs/>
	<rect id="feather-icon / flag" rx="0.000000" width="23.000000" height="23.000000" transform="translate(0.500000 0.500000)" fill="#FFFFFF" fill-opacity="0"/>
	<path id="Vector" d="M4 3.78C4 3.32 4.31 2.92 4.75 2.81L6.36 2.4C7.43 2.14 8.55 2.17 9.6 2.5L14.03 3.88C15.3 4.28 16.67 4.24 17.92 3.77L18.64 3.5C19.3 3.26 20 3.74 20 4.44L20 14.3C20 14.72 19.74 15.09 19.35 15.24L17.92 15.77C16.67 16.24 15.3 16.28 14.03 15.88L9.6 14.5C8.55 14.17 7.43 14.14 6.36 14.4L5.24 14.68C5.16 14.7 5.08 14.71 5 14.71L5 21.99C5 22.27 4.77 22.49 4.5 22.49C4.22 22.49 4 22.27 4 21.99L4 3.78ZM5 13.71L6.12 13.43C7.36 13.12 8.67 13.16 9.9 13.54L14.33 14.93C15.39 15.26 16.53 15.23 17.57 14.83L19 14.3L19 4.44L18.28 4.71C16.82 5.25 15.22 5.3 13.73 4.83L9.31 3.45C8.43 3.18 7.49 3.15 6.6 3.37L5 3.78L5 4.99L5 13.71Z" fill="#414141" fill-opacity="1.000000" fill-rule="evenodd"/>
</svg>
