<svg width="24.000000" height="24.000000" viewBox="0 0 24 24" fill="none" xmlns="http://www.w3.org/2000/svg" xmlns:xlink="http://www.w3.org/1999/xlink">
	<desc>
			Created with Pixso.
	</desc>
	<defs/>
	<rect id="feather-icon / edit" rx="0.000000" width="23.000000" height="23.000000" transform="translate(0.500000 0.500000)" fill="#FFFFFF" fill-opacity="0"/>
	<path id="Shape (Stroke)" d="M5 3.5C4.17 3.5 3.5 4.17 3.5 5L3.5 19C3.5 19.82 4.17 20.5 5 20.5L19 20.5C19.82 20.5 20.5 19.82 20.5 19L20.5 13.66C20.5 13.38 20.72 13.16 21 13.16C21.27 13.16 21.5 13.38 21.5 13.66L21.5 19C21.5 20.38 20.38 21.5 19 21.5L5 21.5C3.61 21.5 2.5 20.38 2.5 19L2.5 5C2.5 3.61 3.61 2.5 5 2.5L10.33 2.5C10.61 2.5 10.83 2.72 10.83 3C10.83 3.27 10.61 3.5 10.33 3.5L5 3.5Z" fill="#414141" fill-opacity="1.000000" fill-rule="evenodd"/>
	<path id="Shape (Stroke)" d="M17.64 1.64C17.84 1.45 18.15 1.45 18.35 1.64L22.35 5.64C22.54 5.84 22.54 6.15 22.35 6.35L12.35 16.35C12.25 16.44 12.13 16.5 12 16.5L8 16.5C7.72 16.5 7.5 16.27 7.5 16L7.5 12C7.5 11.86 7.55 11.74 7.64 11.64L17.64 1.64ZM8.5 12.2L8.5 15.5L11.79 15.5L21.29 6L18 2.7L8.5 12.2Z" fill="#414141" fill-opacity="1.000000" fill-rule="evenodd"/>
</svg>
