<svg width="24.000000" height="24.000000" viewBox="0 0 24 24" fill="none" xmlns="http://www.w3.org/2000/svg" xmlns:xlink="http://www.w3.org/1999/xlink">
	<desc>
			Created with Pixso.
	</desc>
	<defs/>
	<rect id="feather-icon / sliders" rx="0.000000" width="23.000000" height="23.000000" transform="translate(0.500000 0.500000)" fill="#FFFFFF" fill-opacity="0"/>
	<path id="Shape (Stroke)" d="M4 13.5C4.27 13.5 4.5 13.72 4.5 14L4.5 21C4.5 21.27 4.27 21.5 4 21.5C3.72 21.5 3.5 21.27 3.5 21L3.5 14C3.5 13.72 3.72 13.5 4 13.5Z" fill="#414141" fill-opacity="1.000000" fill-rule="evenodd"/>
	<path id="Shape (Stroke)" d="M4 2.5C4.27 2.5 4.5 2.72 4.5 3L4.5 10C4.5 10.27 4.27 10.5 4 10.5C3.72 10.5 3.5 10.27 3.5 10L3.5 3C3.5 2.72 3.72 2.5 4 2.5Z" fill="#414141" fill-opacity="1.000000" fill-rule="evenodd"/>
	<path id="Shape (Stroke)" d="M12 11.5C12.27 11.5 12.5 11.72 12.5 12L12.5 21C12.5 21.27 12.27 21.5 12 21.5C11.72 21.5 11.5 21.27 11.5 21L11.5 12C11.5 11.72 11.72 11.5 12 11.5Z" fill="#414141" fill-opacity="1.000000" fill-rule="evenodd"/>
	<path id="Shape (Stroke)" d="M12 2.5C12.27 2.5 12.5 2.72 12.5 3L12.5 8C12.5 8.27 12.27 8.5 12 8.5C11.72 8.5 11.5 8.27 11.5 8L11.5 3C11.5 2.72 11.72 2.5 12 2.5Z" fill="#414141" fill-opacity="1.000000" fill-rule="evenodd"/>
	<path id="Shape (Stroke)" d="M20 15.5C20.27 15.5 20.5 15.72 20.5 16L20.5 21C20.5 21.27 20.27 21.5 20 21.5C19.72 21.5 19.5 21.27 19.5 21L19.5 16C19.5 15.72 19.72 15.5 20 15.5Z" fill="#414141" fill-opacity="1.000000" fill-rule="evenodd"/>
	<path id="Shape (Stroke)" d="M20 2.5C20.27 2.5 20.5 2.72 20.5 3L20.5 12C20.5 12.27 20.27 12.5 20 12.5C19.72 12.5 19.5 12.27 19.5 12L19.5 3C19.5 2.72 19.72 2.5 20 2.5Z" fill="#414141" fill-opacity="1.000000" fill-rule="evenodd"/>
	<path id="Shape (Stroke)" d="M0.5 14C0.5 13.72 0.72 13.5 1 13.5L7 13.5C7.27 13.5 7.5 13.72 7.5 14C7.5 14.27 7.27 14.5 7 14.5L1 14.5C0.72 14.5 0.5 14.27 0.5 14Z" fill="#414141" fill-opacity="1.000000" fill-rule="evenodd"/>
	<path id="Shape (Stroke)" d="M8.5 8C8.5 7.72 8.72 7.5 9 7.5L15 7.5C15.27 7.5 15.5 7.72 15.5 8C15.5 8.27 15.27 8.5 15 8.5L9 8.5C8.72 8.5 8.5 8.27 8.5 8Z" fill="#414141" fill-opacity="1.000000" fill-rule="evenodd"/>
	<path id="Shape (Stroke)" d="M16.5 16C16.5 15.72 16.72 15.5 17 15.5L23 15.5C23.27 15.5 23.5 15.72 23.5 16C23.5 16.27 23.27 16.5 23 16.5L17 16.5C16.72 16.5 16.5 16.27 16.5 16Z" fill="#414141" fill-opacity="1.000000" fill-rule="evenodd"/>
</svg>
