<svg width="24.000000" height="24.000000" viewBox="0 0 24 24" fill="none" xmlns="http://www.w3.org/2000/svg" xmlns:xlink="http://www.w3.org/1999/xlink">
	<desc>
			Created with Pixso.
	</desc>
	<defs/>
	<rect id="feather-icon / italic" rx="0.000000" width="23.000000" height="23.000000" transform="translate(0.500000 0.500000)" fill="#FFFFFF" fill-opacity="0"/>
	<path id="Shape (Stroke)" d="M9.5 4C9.5 3.72 9.72 3.5 10 3.5L19 3.5C19.27 3.5 19.5 3.72 19.5 4C19.5 4.27 19.27 4.5 19 4.5L10 4.5C9.72 4.5 9.5 4.27 9.5 4Z" fill="#414141" fill-opacity="1.000000" fill-rule="evenodd"/>
	<path id="Shape (Stroke)" d="M4.5 20C4.5 19.72 4.72 19.5 5 19.5L14 19.5C14.27 19.5 14.5 19.72 14.5 20C14.5 20.27 14.27 20.5 14 20.5L5 20.5C4.72 20.5 4.5 20.27 4.5 20Z" fill="#414141" fill-opacity="1.000000" fill-rule="evenodd"/>
	<path id="Shape (Stroke)" d="M15.17 3.53C15.43 3.62 15.56 3.91 15.46 4.17L9.46 20.17C9.37 20.43 9.08 20.56 8.82 20.46C8.56 20.37 8.43 20.08 8.53 19.82L14.53 3.82C14.62 3.56 14.91 3.43 15.17 3.53Z" fill="#414141" fill-opacity="1.000000" fill-rule="evenodd"/>
</svg>
