<svg width="24.000000" height="24.000000" viewBox="0 0 24 24" fill="none" xmlns="http://www.w3.org/2000/svg" xmlns:xlink="http://www.w3.org/1999/xlink">
	<desc>
			Created with Pixso.
	</desc>
	<defs/>
	<rect id="feather-icon / rotate-cw" rx="0.000000" width="23.000000" height="23.000000" transform="translate(0.500000 0.500000)" fill="#FFFFFF" fill-opacity="0"/>
	<path id="Shape (Stroke)" d="M22 3.5C22.27 3.5 22.5 3.72 22.5 4L22.5 10C22.5 10.27 22.27 10.5 22 10.5L16 10.5C15.72 10.5 15.5 10.27 15.5 10C15.5 9.72 15.72 9.5 16 9.5L21.5 9.5L21.5 4C21.5 3.72 21.72 3.5 22 3.5Z" fill="#414141" fill-opacity="1.000000" fill-rule="evenodd"/>
	<path id="Shape (Stroke)" d="M17.01 5.99C14.33 3.31 10.21 2.73 6.9 4.55C3.58 6.38 1.87 10.18 2.71 13.87C3.55 17.57 6.72 20.26 10.5 20.48C14.28 20.7 17.75 18.4 19.01 14.83C19.11 14.57 19.39 14.43 19.65 14.52C19.91 14.62 20.05 14.9 19.96 15.16C18.55 19.15 14.67 21.73 10.44 21.48C6.22 21.23 2.67 18.22 1.74 14.1C0.8 9.97 2.71 5.72 6.41 3.68C10.12 1.64 14.72 2.29 17.71 5.28L22.34 9.63C22.54 9.82 22.55 10.14 22.36 10.34C22.17 10.54 21.85 10.55 21.65 10.36L17.02 6L17.01 5.99Z" fill="#414141" fill-opacity="1.000000" fill-rule="evenodd"/>
</svg>
