<svg width="24.000000" height="24.000000" viewBox="0 0 24 24" fill="none" xmlns="http://www.w3.org/2000/svg" xmlns:xlink="http://www.w3.org/1999/xlink">
	<desc>
			Created with Pixso.
	</desc>
	<defs/>
	<rect id="feather-icon / paperclip" rx="0.000000" width="23.000000" height="23.000000" transform="translate(0.500000 0.500000)" fill="#FFFFFF" fill-opacity="0"/>
	<path id="Shape (Stroke)" d="M18.25 3.52C16.88 2.15 14.66 2.15 13.3 3.52L4.11 12.71C1.96 14.86 1.96 18.34 4.11 20.49C6.26 22.64 9.74 22.64 11.89 20.49L21.08 11.3C21.27 11.11 21.59 11.11 21.79 11.3C21.98 11.5 21.98 11.82 21.79 12.01L12.6 21.2C10.06 23.74 5.94 23.74 3.4 21.2C0.86 18.66 0.86 14.54 3.4 12L12.59 2.81C14.35 1.06 17.2 1.06 18.96 2.81C20.72 4.57 20.72 7.42 18.96 9.18L9.76 18.37C8.78 19.35 7.2 19.35 6.22 18.37C5.24 17.39 5.24 15.81 6.22 14.83L14.71 6.35C14.91 6.16 15.22 6.16 15.42 6.35C15.61 6.55 15.61 6.87 15.42 7.06L6.93 15.54C6.34 16.13 6.34 17.08 6.93 17.66C7.51 18.25 8.46 18.25 9.05 17.66L18.25 8.47C19.62 7.11 19.62 4.89 18.25 3.52Z" fill="#414141" fill-opacity="1.000000" fill-rule="evenodd"/>
</svg>
