<svg width="24.000000" height="24.000000" viewBox="0 0 24 24" fill="none" xmlns="http://www.w3.org/2000/svg" xmlns:xlink="http://www.w3.org/1999/xlink">
	<desc>
			Created with Pixso.
	</desc>
	<defs>
		<radialGradient gradientTransform="translate(12.0001 12) rotate(0) scale(12.0001 12)" cx="0.000000" cy="0.000000" r="1.000000" id="paint_angular_78_2263_0" gradientUnits="userSpaceOnUse">
			<stop offset="0.760317" stop-color="#000000"/>
			<stop offset="0.760417" stop-color="#0C35D7" stop-opacity="0.000000"/>
			<stop offset="1.000000" stop-color="#000000" stop-opacity="0.000000"/>
		</radialGradient>
	</defs>
	<rect id="Type=Ios" rx="0.000000" width="23.000175" height="22.999996" transform="translate(0.500000 0.500000)" fill="#FFFFFF" fill-opacity="0"/>
	<path id="Rectangle" d="M12.8574 6C12.8574 6.47363 12.4727 6.85693 12 6.85693C11.5273 6.85693 11.1426 6.47363 11.1426 6L11.1426 0.856934C11.1426 0.383789 11.5273 0 12 0C12.4727 0 12.8574 0.383789 12.8574 0.856934L12.8574 6ZM9.74219 6.37549C9.82031 6.51025 9.85742 6.65771 9.85742 6.80322C9.85742 7.09912 9.70312 7.38721 9.42773 7.5459C9.01953 7.78271 8.49414 7.64258 8.25781 7.23242L5.68555 2.77832C5.60938 2.64355 5.57227 2.49609 5.57227 2.35059C5.57227 2.05469 5.72461 1.7666 6 1.60791C6.41016 1.37109 6.93359 1.51123 7.17188 1.92139L9.74219 6.37549ZM15.7422 7.23242C15.5059 7.64258 14.9824 7.78271 14.5723 7.54639C14.2969 7.38721 14.1426 7.09912 14.1426 6.80322C14.1426 6.65771 14.1797 6.51025 14.2578 6.37549L16.8301 1.92139C17.0664 1.51123 17.5898 1.37109 18 1.60791C18.2754 1.7666 18.4297 2.05469 18.4297 2.35059C18.4297 2.49609 18.3926 2.64355 18.3145 2.77832L15.7422 7.23242ZM7.23242 8.25781C7.50781 8.4165 7.66211 8.70459 7.66211 9.00098C7.66211 9.146 7.625 9.29346 7.54688 9.42871C7.30859 9.83838 6.78516 9.979 6.375 9.74219L1.92188 7.1709C1.64648 7.01221 1.49219 6.72412 1.49219 6.42773C1.49219 6.28223 1.5293 6.13477 1.60742 6C1.84375 5.58984 2.36914 5.44971 2.7793 5.68604L7.23242 8.25781ZM17.625 9.74219C17.2148 9.979 16.6914 9.83838 16.4531 9.42871C16.377 9.29346 16.3398 9.146 16.3398 9.00098C16.3398 8.70459 16.4922 8.4165 16.7676 8.25781L21.2207 5.68604C21.6309 5.44971 22.1562 5.58984 22.3926 6C22.4707 6.13477 22.5078 6.28223 22.5078 6.42773C22.5078 6.72412 22.3535 7.01221 22.0781 7.1709L17.625 9.74219ZM6 11.1431C6.47266 11.1431 6.85742 11.5264 6.85742 12C6.85742 12.4731 6.47266 12.8569 6 12.8569L0.857422 12.8569C0.382812 12.8569 0 12.4731 0 12C0 11.5264 0.382812 11.1431 0.857422 11.1431L6 11.1431ZM18 12.8569C17.5273 12.8569 17.1426 12.4736 17.1426 12C17.1426 11.5269 17.5273 11.1431 18 11.1431L23.1426 11.1431C23.6172 11.1431 24 11.5269 24 12C24 12.4736 23.6172 12.8569 23.1426 12.8569L18 12.8569ZM6.375 14.2578C6.78516 14.021 7.30859 14.1616 7.54688 14.5713C7.625 14.7065 7.66211 14.854 7.66211 14.999C7.66211 15.2954 7.50781 15.5835 7.23242 15.7422L2.7793 18.314C2.36914 18.5503 1.84375 18.4102 1.60742 18C1.5293 17.8652 1.49219 17.7178 1.49219 17.5723C1.49219 17.2759 1.64648 16.9878 1.92188 16.8291L6.375 14.2578ZM16.7676 15.7422C16.4922 15.5835 16.3398 15.2954 16.3398 14.999C16.3398 14.854 16.377 14.7065 16.4531 14.5713C16.6914 14.1616 17.2148 14.021 17.625 14.2578L22.0781 16.8291C22.3535 16.9878 22.5078 17.2759 22.5078 17.5723C22.5078 17.7178 22.4707 17.8652 22.3926 18C22.1562 18.4102 21.6309 18.5503 21.2207 18.314L16.7676 15.7422ZM14.2578 17.6245C14.1797 17.4897 14.1426 17.3423 14.1426 17.1968C14.1426 16.9009 14.2969 16.6128 14.5723 16.4536C14.9824 16.2173 15.5059 16.3574 15.7422 16.7676L18.3145 21.2212C18.3926 21.3564 18.4297 21.5039 18.4297 21.6494C18.4297 21.9453 18.2754 22.2334 18 22.3921C17.5898 22.6289 17.0664 22.4883 16.8301 22.0786L14.2578 17.6245ZM8.25781 16.7676C8.49414 16.3574 9.01953 16.2173 9.42773 16.4536C9.70312 16.6128 9.85742 16.9009 9.85742 17.1968C9.85742 17.3423 9.82031 17.4897 9.74219 17.6245L7.17188 22.0786C6.93359 22.4888 6.41016 22.6289 6 22.3921C5.72461 22.2334 5.57227 21.9453 5.57227 21.6494C5.57227 21.5039 5.60938 21.3564 5.68555 21.2217L8.25781 16.7676ZM11.1426 18C11.1426 17.5264 11.5273 17.1431 12 17.1431C12.4727 17.1431 12.8574 17.5264 12.8574 18L12.8574 23.1431C12.8574 23.6162 12.4727 24 12 24C11.5273 24 11.1426 23.6162 11.1426 23.1431L11.1426 18Z" clip-rule="evenodd" fill="url(#paint_angular_78_2263_0)" fill-opacity="1.000000" fill-rule="evenodd"/>
</svg>
