<svg width="24.000000" height="24.000000" viewBox="0 0 24 24" fill="none" xmlns="http://www.w3.org/2000/svg" xmlns:xlink="http://www.w3.org/1999/xlink">
	<desc>
			Created with Pixso.
	</desc>
	<defs/>
	<rect id="Type=Fill" rx="0.000000" width="23.000000" height="23.000000" transform="translate(0.500000 0.500000)" fill="#FFFFFF" fill-opacity="0"/>
	<path id="Muted" d="M0 12C0 5.37256 5.37305 0 12 0C18.627 0 24 5.37256 24 12C24 18.6274 18.627 24 12 24C5.37305 24 0 18.6274 0 12ZM22.7363 12C22.7363 6.07031 17.9297 1.26318 12 1.26318C6.07031 1.26318 1.26367 6.07031 1.26367 12C1.26367 17.9297 6.07031 22.7368 12 22.7368C17.9297 22.7368 22.7363 17.9297 22.7363 12Z" clip-rule="evenodd" fill="#000000" fill-opacity="0.400000" fill-rule="evenodd"/>
	<path id="Active" d="M12 0C18.55 0 23.88 5.25 24 12L22.73 12C22.73 6.13 18.03 1.37 12 1.26L12 0Z" fill="#70C05B" fill-opacity="1.000000" fill-rule="evenodd"/>
</svg>
