<svg width="24.000000" height="24.000000" viewBox="0 0 24 24" fill="none" xmlns="http://www.w3.org/2000/svg" xmlns:xlink="http://www.w3.org/1999/xlink">
	<desc>
			Created with Pixso.
	</desc>
	<defs/>
	<rect id="Type=Circles" rx="0.000000" width="23.000000" height="23.000000" transform="translate(0.500000 0.500000)" fill="#FFFFFF" fill-opacity="0"/>
	<path id="Muted" d="M10.4727 3.6416C11.3066 4.4751 12.6562 4.4751 13.4902 3.6416C13.9062 3.2251 14.1152 2.6792 14.1152 2.1333C14.1152 1.5874 13.9062 1.0415 13.4902 0.625C12.6562 -0.208496 11.3066 -0.208496 10.4727 0.625C10.0566 1.0415 9.84766 1.5874 9.84766 2.1333C9.84766 2.6792 10.0566 3.2251 10.4727 3.6416ZM16.8262 5.01172C16.8262 6.18994 17.7812 7.14502 18.9609 7.14502C20.1387 7.14502 21.0938 6.18994 21.0938 5.01172C21.0938 3.8335 20.1387 2.87842 18.9609 2.87842C17.7812 2.87842 16.8262 3.8335 16.8262 5.01172ZM5.01172 7.1665C6.18945 7.1665 7.14453 6.21094 7.14453 5.03271C7.14453 3.85449 6.18945 2.89941 5.01172 2.89941C3.83398 2.89941 2.87891 3.85449 2.87891 5.03271C2.87891 6.21094 3.83398 7.1665 5.01172 7.1665ZM20.3516 10.4731C19.9336 10.8896 19.7266 11.4355 19.7266 11.9814C19.7266 12.5273 19.9336 13.0732 20.3516 13.4897C21.1836 14.3228 22.5352 14.3228 23.3672 13.4897C23.7832 13.0732 23.9922 12.5273 23.9922 11.9814C23.9922 11.4355 23.7832 10.8896 23.3672 10.4731C22.5352 9.63965 21.1836 9.63965 20.3516 10.4731ZM3.64258 13.5195C4.05859 13.103 4.26758 12.5571 4.26758 12.0112C4.26758 11.4653 4.05859 10.9194 3.64258 10.5029C2.80859 9.66992 1.45703 9.66992 0.625 10.5029C0.208984 10.9194 0 11.4653 0 12.0112C0 12.5571 0.208984 13.103 0.625 13.5195C1.45703 14.353 2.80859 14.353 3.64258 13.5195ZM7.16602 18.981C7.16602 17.8027 6.21094 16.8477 5.0332 16.8477C3.85547 16.8477 2.89844 17.8027 2.89844 18.981C2.89844 20.1592 3.85547 21.1143 5.0332 21.1143C6.21094 21.1143 7.16602 20.1592 7.16602 18.981ZM13.5195 20.3506C12.6875 19.5176 11.3359 19.5176 10.502 20.3506C10.0859 20.7671 9.87891 21.3135 9.87891 21.8594C9.87891 22.4053 10.0859 22.9512 10.502 23.3677C11.3359 24.2007 12.6875 24.2007 13.5195 23.3677C13.9355 22.9512 14.1445 22.4053 14.1445 21.8594C14.1445 21.3135 13.9355 20.7671 13.5195 20.3506Z" clip-rule="evenodd" fill="#000000" fill-opacity="0.400000" fill-rule="evenodd"/>
	<path id="Active" d="M18.98 16.82C17.8 16.82 16.84 17.78 16.84 18.95C16.84 20.13 17.8 21.09 18.98 21.09C20.15 21.09 21.11 20.13 21.11 18.95C21.11 17.78 20.15 16.82 18.98 16.82Z" fill="#70C05B" fill-opacity="1.000000" fill-rule="evenodd"/>
</svg>
