<svg width="24.000000" height="24.000000" viewBox="0 0 24 24" fill="none" xmlns="http://www.w3.org/2000/svg" xmlns:xlink="http://www.w3.org/1999/xlink">
	<desc>
			Created with Pixso.
	</desc>
	<defs/>
	<rect id="Type=Border" rx="0.000000" width="23.000000" height="23.000000" transform="translate(0.500000 0.500000)" fill="#FFFFFF" fill-opacity="0"/>
	<path id="Color" d="M1.98 5.31C1.65 5.81 1.78 6.49 2.28 6.83C2.78 7.16 3.45 7.03 3.79 6.53C5.59 3.83 8.61 2.18 11.92 2.18C17.32 2.18 21.7 6.57 21.7 12C21.7 17.42 17.32 21.81 11.92 21.81C11.32 21.81 10.83 22.3 10.83 22.9C10.83 23.51 11.32 24 11.92 24C18.52 24 23.88 18.62 23.88 12C23.88 5.37 18.52 0 11.92 0C7.88 0 4.19 2.02 1.98 5.31Z" fill="#70C05B" fill-opacity="1.000000" fill-rule="evenodd"/>
</svg>
