<svg width="24.000000" height="24.000000" viewBox="0 0 24 24" fill="none" xmlns="http://www.w3.org/2000/svg" xmlns:xlink="http://www.w3.org/1999/xlink">
	<desc>
			Created with Pixso.
	</desc>
	<defs/>
	<rect id="social / youtube" rx="0.000000" width="23.000000" height="23.000000" transform="translate(0.500000 0.500000)" fill="#FFFFFF" fill-opacity="0"/>
	<path id="Subtract" d="M21.5879 7.23535C21.3574 6.36133 20.6816 5.67236 19.8262 5.43701C18.2598 5 12 5 12 5C12 5 5.74023 5 4.17383 5.42041C3.33398 5.65527 2.64258 6.36133 2.41211 7.23535C2 8.83203 2 12.1431 2 12.1431C2 12.1431 2 15.4707 2.41211 17.0503C2.64258 17.9243 3.31836 18.6133 4.17383 18.8486C5.75586 19.2856 12 19.2856 12 19.2856C12 19.2856 18.2598 19.2856 19.8262 18.8652C20.6816 18.6304 21.3574 17.9409 21.5879 17.0674C22 15.4707 22 12.1597 22 12.1597C22 12.1597 22.0156 8.83203 21.5879 7.23535ZM15.4688 12.1431L10.1641 15.2041L10.1641 9.08154L15.4688 12.1431Z" clip-rule="evenodd" fill="#FF0000" fill-opacity="1.000000" fill-rule="evenodd"/>
</svg>
