<svg width="24.000000" height="24.000000" viewBox="0 0 24 24" fill="none" xmlns="http://www.w3.org/2000/svg" xmlns:xlink="http://www.w3.org/1999/xlink">
	<desc>
			Created with Pixso.
	</desc>
	<defs/>
	<rect id="social / viber" rx="0.000000" width="23.000000" height="23.000000" transform="translate(0.500000 0.500000)" fill="#FFFFFF" fill-opacity="0"/>
	<path id="Vector" d="M21.13 13.57C21.72 8.56 20.84 5.39 19.25 3.95L19.25 3.95C16.68 1.51 8 1.14 4.93 4.06C3.55 5.49 3.06 7.59 3.01 10.18C2.95 12.78 2.89 17.64 7.42 18.96L7.42 18.96L7.42 20.97C7.42 20.97 7.39 21.79 7.91 21.95C8.51 22.14 8.78 21.77 10.63 19.55C13.73 19.82 16.11 19.2 16.38 19.11C17.01 18.9 20.55 18.43 21.13 13.57ZM10.94 18.13C10.94 18.13 8.97 20.58 8.36 21.22C8.16 21.42 7.94 21.4 7.95 20.99C7.95 20.72 7.96 17.65 7.96 17.65C4.12 16.55 4.35 12.41 4.39 10.24C4.43 8.08 4.83 6.3 6 5.11C8.69 2.58 16.3 3.14 18.24 4.97C20.61 7.07 19.77 13 19.77 13.2C19.28 17.26 16.41 17.52 15.89 17.7C15.66 17.77 13.57 18.31 10.94 18.13Z" fill="#8E24AA" fill-opacity="1.000000" fill-rule="nonzero"/>
	<path id="Vector" d="M12.02 5.58C11.7 5.58 11.7 6.08 12.02 6.09C14.51 6.11 16.56 7.84 16.58 11.02C16.58 11.36 17.07 11.35 17.07 11.02L17.07 11.02C17.04 7.59 14.8 5.6 12.02 5.58Z" fill="#8E24AA" fill-opacity="1.000000" fill-rule="nonzero"/>
	<path id="Vector" d="M15.29 10.49C15.29 10.82 15.78 10.84 15.78 10.5C15.82 8.62 14.66 7.06 12.47 6.9C12.15 6.87 12.11 7.38 12.43 7.4C14.33 7.54 15.33 8.84 15.29 10.49Z" fill="#8E24AA" fill-opacity="1.000000" fill-rule="nonzero"/>
	<path id="Vector" d="M14.77 12.64C14.36 12.4 13.94 12.55 13.76 12.79L13.4 13.25C13.22 13.49 12.88 13.46 12.88 13.46C10.37 12.8 9.69 10.17 9.69 10.17C9.69 10.17 9.66 9.82 9.89 9.63L10.35 9.25C10.57 9.07 10.72 8.64 10.49 8.21C9.87 7.1 9.46 6.72 9.25 6.42C9.02 6.14 8.69 6.08 8.34 6.27L8.34 6.27C7.62 6.69 6.83 7.48 7.08 8.29C7.51 9.15 8.3 11.87 10.82 13.94C12.01 14.91 13.88 15.91 14.68 16.14L14.69 16.15C15.47 16.41 16.23 15.59 16.64 14.85L16.64 14.85C16.82 14.49 16.76 14.15 16.5 13.93C16.03 13.47 15.32 12.97 14.77 12.64Z" fill="#8E24AA" fill-opacity="1.000000" fill-rule="nonzero"/>
	<path id="Vector" d="M12.81 8.75C13.61 8.8 14 9.22 14.04 10.08C14.05 10.41 14.54 10.39 14.53 10.05C14.47 8.93 13.89 8.31 12.84 8.25C12.52 8.23 12.49 8.73 12.81 8.75Z" fill="#8E24AA" fill-opacity="1.000000" fill-rule="nonzero"/>
</svg>
