<svg width="24.000000" height="24.000000" viewBox="0 0 24 24" fill="none" xmlns="http://www.w3.org/2000/svg" xmlns:xlink="http://www.w3.org/1999/xlink">
	<desc>
			Created with Pixso.
	</desc>
	<defs>
		<linearGradient x1="4.929127" y1="19.070873" x2="19.070877" y2="4.929125" id="paint_linear_23_2444_0" gradientUnits="userSpaceOnUse">
			<stop stop-color="#FFC107"/>
			<stop offset="0.507000" stop-color="#F44336"/>
			<stop offset="0.990000" stop-color="#9C27B0"/>
		</linearGradient>
	</defs>
	<rect id="social / instagram" rx="0.000000" width="23.000000" height="23.000000" transform="translate(0.500000 0.500000)" fill="#FFFFFF" fill-opacity="0"/>
	<path id="Union" d="M8.25 2L15.75 2C19.2012 2 22 4.79883 22 8.25L22 15.75C22 19.2012 19.2012 22 15.75 22L8.25 22C4.79883 22 2 19.2012 2 15.75L2 8.25C2 4.79883 4.79883 2 8.25 2ZM15.75 20.125C18.1621 20.125 20.125 18.1626 20.125 15.75L20.125 8.25C20.125 5.8374 18.1621 3.875 15.75 3.875L8.25 3.875C5.83789 3.875 3.875 5.8374 3.875 8.25L3.875 15.75C3.875 18.1626 5.83789 20.125 8.25 20.125L15.75 20.125ZM17.4004 7.2002C17.7324 7.2002 18 6.93164 18 6.6001C18 6.26855 17.7324 6 17.4004 6C17.0684 6 16.8008 6.26855 16.8008 6.6001C16.8008 6.93164 17.0684 7.2002 17.4004 7.2002ZM12 7.2002C9.34961 7.2002 7.19922 9.34912 7.19922 12C7.19922 14.6509 9.34961 16.7998 12 16.7998C14.6504 16.7998 16.8008 14.6509 16.8008 12C16.8008 9.34912 14.6504 7.2002 12 7.2002ZM12 15C10.3457 15 9 13.6538 9 12C9 10.3452 10.3457 9 12 9C13.6543 9 15 10.3452 15 12C15 13.6538 13.6543 15 12 15Z" clip-rule="evenodd" fill="url(#paint_linear_23_2444_0)" fill-opacity="1.000000" fill-rule="evenodd"/>
</svg>
